<svg xmlns="http://www.w3.org/2000/svg" width="1503.28" height="1023.862" viewBox="0 0 1503.28 1023.862" preserveAspectRatio="none"><path d="M527.907,558.677c1.241,1.226,4.9,1.188,5.72,2.618-.134.006-.278.009-.429.009C531.258,561.3,528.094,560.776,527.907,558.677Zm102.4,1.169a4.055,4.055,0,0,1,2.256-.364,4.029,4.029,0,0,0,2.263-.37,1.935,1.935,0,0,1-1.987,2A3.459,3.459,0,0,1,630.307,559.846Zm-53.563-2.965c-.218-1.442,1.066-1.174,2.351-.906.99.206,1.98.412,2.286-.161l-.221,1.861Q578.95,557.288,576.744,556.881Zm54.014-2.633c1.011.932,2.242.8,3.423.677s2.33-.257,3.143.7a9.375,9.375,0,0,0-2.641.262,12.5,12.5,0,0,1-2.167.288C631.429,556.175,630.667,555.764,630.759,554.248Zm111.9-2.419c-.573-.139-1.45,0-1.467-.6.56-.154,1.442-.044,1.464-.655-2.69.63-6.861-.68-5.131-1.818,1.233,2.061,4.487.568,6.581-.078,1.849,1.143-1.514,3.282,1.488,3.723,2.057-1.014,4.734-.821,7.268-.626,3.174.243,6.125.486,7.359-1.642-1.031-.6-2.856-.356-4.816-.112-3.05.381-6.43.761-7.659-2.04,1.069-.029,2.2.038,3.346.1,3.309.192,6.727.383,9.055-1.7q1.115.894,2.231,1.789c2.663-1.2-.634-1.121.686-1.9.624.688,2.089.441,3.227.193,1.424-.31,2.336-.619.457.9,6.124-2.458,11.4-3.261,17.478-2.2-4.9.4-5.213,1.934-7.942,2.976a8.234,8.234,0,0,0,5.742-.566c1.866-.732,3.446-1.464,5.229-.108-1.139.239-.456,1.406.074,1.875-1.941.148-4.324-.063-4.349,1.537.363.467,1.477.211,2.7-.047,1.687-.356,3.575-.713,3.954.853-18.5.441-33.033,1.669-51.362,2.073C739.4,552.84,741.691,552.878,742.657,551.829Zm28.472-4.668c.708,1.058,2.328,1.273,4.421,1.021.084-1.191-1.075-1.708-2.274-1.708A3.284,3.284,0,0,0,771.129,547.16Zm-69.068,5.292c-1.318.108-2.5.215-3.385-.494,2.509-1.15,5.544-2.307,8.079-.369-.579.13-.867.5-.762,1.229A8.072,8.072,0,0,0,702.061,552.452Zm23.749-1.8a1.782,1.782,0,0,0,1.876-.6c.664-.6,1.163-1.2,1.786-.014-2.028,1.961,1.961,1.153,2.2-.35q0,1.117,0,2.231-.484.019-.945.019C728.582,551.94,726.826,551.612,725.81,550.657Zm-38.794-1.084c2.311.015,4.418.189,5.08,1.5a3.841,3.841,0,0,1-1.324.262C689.37,551.332,688.533,550.315,687.017,549.573Zm44.653-.161a.886.886,0,0,1,0,.277Q731.67,549.551,731.67,549.412Zm-97.5-1.058c.653.044.84-.392,1.027-.83.211-.493.421-.986,1.3-.786-1.055,1.915,2.334.737,1.282,2.652a4.26,4.26,0,0,0-1.986-.01,4.138,4.138,0,0,1-.731.114C634.659,549.495,634.389,549.267,634.175,548.354Zm163.342-1.027c2.644.473,4.973,1.245,7.442,1.871a18.5,18.5,0,0,1-2.569.2C800.061,549.4,798.346,548.79,797.517,547.327Zm-175.98,2.01c2.14-2.806-7.187-3.238-4.336-1.2-1.679-.435-3.088-1.061-3.478-2.362,1.679-1.427,8.927.208,10.9,2.073-1.222-.454-1.476.117-1.732.687-.191.425-.383.852-.981.852A1.707,1.707,0,0,1,621.537,549.337Zm8.466-.67c-1.175.162-2.12.324-2.456-.464a6.545,6.545,0,0,0,2.462-.291c1.546-.383,2.959-.767,3.391.981A6.069,6.069,0,0,0,630,548.666Zm157.118-4.325c2.542.151,3.936,1.421,5.952,2.076-.446.069-.867.167-.7.683-.489.035-.976.073-1.464.107C790.26,544.586,787.019,546.4,787.122,544.341Zm-208.508-2.93c2.257,1.978,6.1-.394,6.336,3.028C583.42,543.074,578.8,543.591,578.615,541.411Zm250.129.3c1.085-.023,2.662-.545,2.953.271-.4.05-.788.611.048.624a3.817,3.817,0,0,0,.5.014c.479-.006.957-.014,1,.43a22.508,22.508,0,0,1-2.771.32C829.368,543.367,828.589,543.02,828.743,541.707Zm-158.971.548c1.145-.684,6.322-.8,7.28.485a7.852,7.852,0,0,1-3.259.512C672.091,543.252,670.3,542.965,669.773,542.255Zm-4.356-.324c.884-.006,1.727-.057,1.513-1.15-.484-.035-.968-.066-1.452-.1-.061-2.618,3.08.769,2.807,2.089a2.337,2.337,0,0,1-1.365.448A1.377,1.377,0,0,1,665.417,541.931Zm-146.186-4.838c.287-.338.925-.229,1.563-.121.944.159,1.886.32,1.692-.96-2.257-.374-5.6-2.151-6.1-.3,1.972,1.537-1.659,2.921-1.781,1.446,2.084-.025-.231-2.413-1.049-2.83-.3.864-1.878.086-3.053-.182a2.805,2.805,0,0,1-1.166,2.245c-2.3-.551-3.386-1.7-4.928-2.624-9.989.784-21.807-9.533-31.051-10.536-1.521-2.231-5.483-1.877-4.922-3.47-.948.315-5.139.015-5.223-1.062.317-.429,1.113-.182,1.909.067.875.273,1.75.545,1.986-.083,0-.731-.6-1.2-1.187-1.678-2.257,1.014-2.41.082-4.362-1.44-.856.359-1.712.722-2.57,1.077-4.332-2.419-6.334-2.892-10.607-4.927a2.849,2.849,0,0,0,.3,2.051c-1.786-1.276-3.537-1.919-5.211-1.178a16.7,16.7,0,0,1,4.382,4.794c-2.965-2.079-8.237-3.276-8.724-6.357,1.373.113,2.594,2.838,3.618,1.3a22.886,22.886,0,0,1-5.22-4.483c-.158,1.106-1.05,1.138-2.441.4,1.23,2.1-1.634,3-3.2,3.4.056-2.369,2.129-1.717,2.471-3.66-3.478-.724-.533-1.219-1.883-2a5.873,5.873,0,0,0-4.376-.341,5.908,5.908,0,0,1-3.426.022c.38,2.211,3.228,3.505,4.174,5.5-4.174-1.153-3.893-3.965-7.354-5.4-.3,1.527.9,2.394-1.325,2.107-3.631-5.431-13.152-7.86-18.662-10.726.648-.513,1.108-.077,1.539.359.464.469.893.938,1.488.227.038-.916-1.391-1.319-1.831-2.073-.782,1.292-3.114.123-3.114,2.675-3.46-3.784-8.319-3.815-13.28-6.94-.912.586-2.991,3.66-4.257.806.9.312,1.748.563,1.773-.564-2.851-1.874-4.958-2.8-9.822-5-1.092,2.553-3.926,2.173-6.756,1.795a13.964,13.964,0,0,0-4.268-.16c-1.326-1.571,1.332-1.014-.182-2.089-8.173-.529-12.54-2.911-22.621-6.142,2.2,1.633.97,1.25-.454.866-1.391-.374-2.967-.749-1.716.753-2.475-2.538-7.075-5.841-9.549-6.436.67-.454,1.036-2.284.063-2.415-1.784.3-.914,2.041-3.21-.287-.28,2.293-1.36,3.118-3.3,2.356-.861-.863.647-2.274-.629-3.043-2.5-.214-2.915-.936-4.632-1.068a4.509,4.509,0,0,1,1.529,2.839c-2.214-1.634-1.552.586-1.3,1.354-2.367-.621-4.7-1.2-6.464-.706,1-2.807,3.269-3.295,2.209-6.316,2.327.895,2.864-1.588,4.209-2.529-10.273-5.775-24.711-11.172-35.191-12.019.662,2.612.018,4.281-2.64,4.694-.1-13.1-18.2-8.723-25.35-18.769.3-3.714,1.976-3.064,3.422-6.287-5.608-2.892-5.629-6.593-7.073-10.081-3.636-3.582-5.585-4.162-9.741-7.717-.366.626-.761,1.174-1.829.217-1.633-1.723,2.245.16,1.859-2.318-4.463-3.412-3.315-9.41-8.206-11.148,2.644-2.12,2.074-4.846,1.984-6.505-.329.708-2.163-.561-2-1.364,1.147.558.293-.809-1.094-1.455,1.042,1.858-5.179,1.875-4.733-1.1,2.846.567,7.457,2.482,6.854-1.742,2.229,1.894,3.636,1.849,4.723,1.052a23.58,23.58,0,0,0-1.694-4c1.1-.753,2.619-.533,3.86-.961-2.243-3.692-9.032-10.377-14.116-8.959-2.313-2.571-3.027-9.341-7.129-7.2a10.269,10.269,0,0,1,2.686,5.516c-2.629-1.821-4.413-7.627-7.62-6.161,3.742,7.44,11.5,15.634,19.778,19.613-6.209-.233-14.24-9.006-19.732-15.956-3.353-.706-9.257-5.812-11.919-10.147a3.228,3.228,0,0,0-2.135-.131,3.212,3.212,0,0,1-2.164-.146c-4.872-3.828-13.437-17.367-16.113-10.808-2.716-.964.52-2.108-1.131-3.106-1.378-.391-2.747-.769-3.291,1.134,3.893,9.683,11.638,19.178,16.408,28.707a14.6,14.6,0,0,1-2-.152c-1.945-.235-3.89-.471-4.967,1.522-14.8-11.006-13.612-27.872-28.375-39.3,4.7-3.181-.15-10.223,5.481-12.028a6.747,6.747,0,0,1-2.263-2.615c2.925-3.595,5.531-5.639,4.051-10.948.246-.446.751-.118,1.255.211.464.3.927.6,1.186.3-2.118-1.735-.583-3.478-.828-5.21.356-.185.9.2,1.446.594.642.458,1.283.915,1.614.439,8.754-9.448,15.664-12.166,27.489-20.366,3.179.683,5.95.145,8.721-.393a21.951,21.951,0,0,1,8.026-.524c-.449-3.3,5.187-2.274,4.69-5.972,1.305,1.222,2.344,1.634,2.956.809-1.453-.916-2.217-1.886-1.9-2.936,2.729,2.741,2.359-1.594,2.545-1.73,3.761-2.8,10.364-2.4,13.891-6.319-5.458-6.776-15.086-4.668-18.989-11.722-2.871-.2-6.446-2.631-8.408,0,1.832,1.61,3.369,3.21,2.484,4.972a43.221,43.221,0,0,1-16.518-7.439c-3.344,3.954-10.37-3.963-15.613-6.347-.562,1.036,1.254,2.038.039,3.083-5.949-6.178-14.441-12.1-21.835-16.138-2.765,1.846-7.047-.247-11.194-2.34-4.541-2.291-8.921-4.584-10.965-1.7-3.177-2.051-6.467-4.574-8.859-3.7-.733,3.236.551,6.612-2.267,9.7-3.188,1.246-8.016-3.68-11.624-4.073.968-2.017-1.592-7.063-4.627-7.74-.221,1.376,1.067,2.885,1.1,4.284-4.173.671-5.175,3.66-8.879,4.842-1.852-2.1-4.407-5.743-6.255-3.847.861,1.351,3.376,1.033,2.954,2.961a2.847,2.847,0,0,0-2.472-.865,2.815,2.815,0,0,1-2.344-.748c2.118-3.273-2.255-2.5-3.533-3.582-.976-2.816,1.852-2.1,1.388-5.078-7.065-7.8-18.507-4.051-20.395-13.94,1.2.139,2.843,2.221,4.39,3.844,6.555-.069,13.648,2.2,20.744,4.387.252-.834-.217-1.77.7-2.533,1.838,2.322,2.247,4.458,4.286,6.78,1.422-.161,2.851-.262,5.043,2.643-.562-2.748.652-2.359,1.966-1.971.9.266,1.853.533,2.307-.216-1.429-2.6-1.048-2.57.715-4.091-1.148-1.156.13-2.07-1.684-3.3-5.939-4.026-12.983-8.464-19.781-15.411,4.637-.634,10.63,4.615,15.919,6.663,2-5.18,4.991-4.319,10.309-4.12,2.245,1.25-.587,2.022,1.663,3.27,4.861-3.242,12.681-1.73,15.126-9.057-7.261-6.6-3.472-12.292-10.9-18.993,1.317-2.281-.523-4.864.109-7.2a2,2,0,0,1,1.912-.314,4.23,4.23,0,0,0,1.031.087c.49-1.676-.484-3.481-1.151-5.264,1.386-4.559,3.916-3.831,6.442-3.1,2.017.581,4.032,1.162,5.463-.945-3.959-6.1-11.437-12.67-13.269-18.7,2.362,1.811,5.386-.517,4.347-3.639,1.93.771,3.621.355,5.31-.061,1.794-.442,3.587-.884,5.668.1,3.7,7.907-.219,13.193,4.637,21.8,8.514-4.128,23.838,12.42,29.951,15.642a1.276,1.276,0,0,0-1.93.506c2.423,2.946,4.2,3.213,6.153,4.183-1.606,1.667,2.249,3.415,2.135,5.11-1.083-.319-2.219-.877-2.876.465,8.889,7.756,11.947,15.229,20.515,23.781-.249.68-.914,1.381-.29,2.042,2.523,2.026,4.814,4.027,6.955,6.013.569-.11,1.3-.127,1.652-.936,1.1,1.384,2.125,2.766,1.77,4.216,6.741,6.659,12.287,13.242,19.766,20.231-.231.689-.871,1.417-.226,2.048,2.9.951,5.992,3.443,7.59,4.464-.512-.237-.9-.076-1.119.611,9.508,6.252,20.326,18.167,25.947,11.492-1.141-.013-1.727-.476-1.525-1.843,2.1.435,5.956.885,5.261-2.7,2.722,2.854,6.214,1.087,5.575-1.767.53-.6,1.32-.432,1.6-1.746,2.094.9,1.435.41,2.1,2.234a2.1,2.1,0,0,1,1.34-1.216c-.9-.708-2.076-1.386-1.256-2.347,3.761,3.315,1.929-1.868,4.1-2.126,2.112,1.868-.11,4.407,3.458,6.045-.814-2.167,1.166-1.984,1.737-3.821-.43-.092-2.879-.23-2.349-1.654,1.534,1.012,1.868-1.363,3-1.487a5.3,5.3,0,0,1,2.1,2.192c-.616-1.716.113-1.206,1-.7.911.523,1.992,1.045,1.979-.814-4.531-1.238-7.394-4.507-10.832-8.363-1.617,1.3-4,.344-6.375-.61-2.355-.945-4.709-1.891-6.318-.647a6.59,6.59,0,0,1,1.225,2.365c-1.482-.526-2.356.814-3.615.98-3.091-2.792-5.926-2.007-8.925-1.224-2.827.739-5.8,1.478-9.274-.776,1.292-2.99-1.592-5.346-4.755-6.644,1.354-2.643-.859-3.45-3.245-4.77,3.788-3.956-2.164-9.466,2.01-11.8a1.891,1.891,0,0,1-2.01-2.35c.347-.2.858.142,1.368.485.757.508,1.513,1.016,1.732-.246.3-.86-1.129-1.575-2-2.347,1.858-3.089,4.834-2.456,7.807-1.823,2.092.445,4.182.889,5.882.04-7.34-9.986-15.485-5.689-21.957-13.2q-.558,1.045-1.113,2.089c-7.8-3.805-3-12.314-9.169-16.072a41.572,41.572,0,0,0-7.784-16.753c.854-.218-2.537-4.575-2.046-6.455-8.973-8.137,5.476-9.681,5.773-14.154,2.828-.406,5.921.29,8.331-1.811-1.931-1.812-1.006-2.306.349-2q-1.066-.945-2.128-1.9c1.983-3.074.163-4.9,3.475-4.614,4.329,6.155,10.381,8.105,15.058,5.553-.8-.759.321-1.672-1.009-2.4.454-1.461,1.37-1.052,2.283-.644.795.355,1.589.71,2.079-.166-2.1-1.241-3.807-.879-5.518-.518a7.07,7.07,0,0,1-5.041-.254c1.254-1.071.013-1.985.925-3.028,1.062.76.833,1.6,1.814,2.356-.469-1.9,1.949-.645,2.794-2.157,2.229,2.054,2.413.85,5.071,2.107-.273,1.058,2.143,4.388,3.406,3.68-3.42-2.628,1.643-.675-.436-3.422,4.978,3.034,7.052,2.706,9.574,5.071-1.373-2.173-2.028-4.419-.912-6.81,1.218,1.537,1.6-.227,2.423-.239,7.254,4.53,12.757,1.455,21.226,6.833-.611-4.556-6.3-6.644-10.953-11.864,0-2.29-.914-4.47.716-6.946,5.355,5.1,14.581,6.587,19.017,14.611,5.146-.554,10.9,10.862,17.672,14.2,2.642,1.319,8.342,5.733,8.069,10.25,7.717,5.154,14.979,12.472,24.681,19.188,1.256-1.018-.657-3.49,1.49-1.852,1.575,4.747,8.75,7.132,10.861,10.581-9.475-5.477-18.252-9.725-27.461-16.106-.471.687-1.3.3-1.816.891,2.766,1.279,5.149,4.568,7.013,7.442,4.072,1.454,8.86,4.475,11.107,5.188-.414.315-.373,2.292-.024,2.677.919-.116,2.051.918,3.028,1.953.405.429.784.859,1.109,1.206.367.089.734.187,1.095.3a5.89,5.89,0,0,0-.138-.857,3.546,3.546,0,0,1,1.592,1.445,5.747,5.747,0,0,1,1.1.738c-.778,1.364,1.959,1.809.739,3.29-.861,1.584-2.787.2-3.6,1.934a9.964,9.964,0,0,0,1.058,2.41,15.11,15.11,0,0,0,3.427,1.388,3.51,3.51,0,0,0-.389,1.5c2.139,1.29,4.78,2.1,7.495,4.069.54-.669,1.059-.539.672-1.686,1.177,1.229,4.709,4.889,5.486,1.94-1.459-1.724-1.517-1.453-1.82-1.182-.184.166-.46.331-1.2.044-.326-2.728,1.333-3.134,3.223-2.923-1.25-2.126.005-4.977-2.111-6.867,1.065.558,2.005.765,2.668.23.094-1.516-1.624-2.521-1.1-4.162a11.083,11.083,0,0,0,7.628,3.235c-1.192,2.984,2.709,4.023,3.779,4.334a3.591,3.591,0,0,0-3.445-3.436c2.02-1.947-1.905-2.089-.562-3.821,2.5.472,5.9,11.108,10.632,7.668-5.324-1.972-5.06-5.721-7.552-8.6.518-3.832,1.96-4.7,3.789-4.557l-.612,1.587c1.053.923,1.6.475,2.416.736-.148-.7-.28-1.408.436-1.128.211-.775-.1-.717-.59-.66a1.453,1.453,0,0,1-1.53-.525,15.38,15.38,0,0,1,2.963.758,10,10,0,0,0,4.4.729c4.423,3.516,12.668,4.212,15.621,8.147-1.969-.252-5.378-3.374-7.1-.523.135,3.494,3.779.407,3.458,3.311-2.714-.6-3.266-2.511-5.053-.766.729.413.138,1.283.689,1.758,2.259.526,5.048.365,5.739-1.051.012.281.362.213.742.144.568-.1,1.2-.207.857.867-.994.037-1.461,1.4-2.133,2.255-2.683-1.654-4.752-1.8-6.038.072,3,5.283,7.473,3.834,9.392,9.283.922-1,4.84-.176,5.447,1.553-.981-.6-1.508-.12-1.717,1.134,2.089.436,3.941.918,5.65,1.436a32.517,32.517,0,0,0-2.543-2.952c1.717.9,4.051.523,4.966,2.6q-.174.511-.346,1.024c4.65,1.59,8.415,3.467,13.542,5.444-1.5-2.728-2.938-2.426-5.086-4.568,1.457-.372,3.33.217,4.329-1.2-1.5-2.162-2.719-3.963-2.043-5.768-2.946-2-4.219-5.109-7.983-5.449,2.036-1.9,4.173.79,5.764,2.3.191-.582.68-.466.945-.878-1.638-4.489.39-6.4,2.9-10.711-9.061-7.727-19.174-7.229-28.267-13.6-1.143-.617-2.415-1.188-2.679-2.118q-.491-.437-.976-.908c-4.2-1.732-9.564-1.028-15.164-5.45-.311,1.486-1.468.626-1.639,2.491a19.3,19.3,0,0,0-13.341-5.422c1.06-4.142-5.065-1.647-6.237-4.672-.537.661-1.034.533-.69,1.679a4.962,4.962,0,0,0-2.666-2.9c.192.541.67,1,.4,1.678a19.29,19.29,0,0,0-2.676-2.139c-1.721-.123-3.595,0-5.353-.88a3.527,3.527,0,0,0-.009,1.281c-1.71-1.765-3.224-.892-3.682-2.454.108-1.56.916-.905,1.724-.25.16.129.32.258.474.371a7.686,7.686,0,0,1-.732-.8c.756.346.983.072,1.052-.387-2.13-3.315-1.775-5.84-3.576-8.926,4.028,1.4,4,5.891,6.074,6.228-3.983-11.816-22.865-15.048-31.107-23.3.941.634-1.426-3.055-3.32-3.21,1.569-1.055,3.894-.767,6.359-.479s5.058.575,7.181-.473c2.282,1.409,4.229,1.547,5.845.6a4.23,4.23,0,0,1,1.791,1.993c1.39-1.929,4.832-.617,7.978.694,3.218,1.341,6.125,2.683,6.2.553,1.453,2.2,2.316,4.559,5.178,6.364-.367,1.471-1.458.567-1.707,2.407,1.528.886,2.555,1.894,2.614,3.175-3.256-1.861-2.5-4.82-4.978-6.9-.444,2.255-2.29,1.994-2.78.252.034-1.37.6-.978,1.166-.586.465.321.93.644,1.1-.013-.788-.6.219-1.676-1.052-2.148-.146,2.087-1.439.855-2.976-.377-1.205-.966-2.56-1.931-3.628-1.3a3.221,3.221,0,0,0,.046,2.9c4.082,1.823,1.472,2.463,2.619,4.666a1.407,1.407,0,0,0,1.905.238,1.387,1.387,0,0,1,1.4-.124c-.915,2.983,1.9,4.791,4.209,5.676,3.615,4.687,5.021,12.595,8.725,15.61-2.142-.889-3.895-2.513-5.593-3.642,1.75,4.73,5.933,3.751,10.091,6.245.859-.829,3.182-3.655,3.817-1.116-2.074-1.641-.382,2.237-.589,3.137,3.081,1.973,6.6,1.912,9.519,3.046.048-3.209-.2-2.277-2.79-3.09.878-2.076,1.236-1.238,1.335-3.384,2.75.8,2.2,2.615,3.1,3.975.411-2.492,2.714-1.229,5.07.033,1.61.864,3.246,1.727,4.319,1.391a1.754,1.754,0,0,0,.976,2.636c.094-.929-.291-1.332.642-1.7,10.273,6.115,19.137,13.25,29.129,16.834,2.528,3.614,11.4,10.074,12.834,3.872,12.449,2.611,23.463,10.71,36.622,14.475,3.387,4.751,8.882,6.4,13.055,6.843-.29-.032-.131.373.249.776a2.01,2.01,0,0,0,1.83.736c4.473-1.232-1.113-5.054-4.526-6.491,2.092.547.557-4.221.393-5.776-5.778-4.111-10.807-6.133-15.684-10.121a2.523,2.523,0,0,0-1.708.207,2.4,2.4,0,0,1-2.1.067c-1.628-3.358-5.18-1.086-7.843-2.957-1.516-1.072-1.9-4.155-3.462-5a4.434,4.434,0,0,0-3-.056,4.155,4.155,0,0,1-2.634.028c-.907-.454-2.164-2.253-2.89-2.763.077.057,0,1.342.171,1.433-1.628-.805-1.893-2.825-3.238-3.632-.242-.136-.95,1.468-1.108,1.474-2.293-.006-3.69-4.278-5.733-5.613-2.117.869.95,3.575-1.5,2.611.512-2.041-1.885-2.889-2.273-4.568-1.225,1.13-2.615.438-3.787-.253-1.327-.784-2.375-1.567-2.586.3-3.3-2.99-9.223-7.876-12.609-9.6.655.246.907-.583,1.157-1.417-4.023-2.183-5.309-2.984-7.032-5.355-.221.573.174.923.107,1.449-5.878-3.771-10.828-7.173-14.828-8.714a13.423,13.423,0,0,0-.7-3.2c-1.894.668-1.988-.183-2.4-2.158-1.465.394-1.921,2.917-2.993.952,2.417-.485-1.327-3.132-2.245-4.187-.459,1.109-1.71-.18-1.955,1.584-.68,1.194,1.264,1.569.9,2.666-3.4-2.319-2.7-3.979-1.855-6.771,1.613-.116,3.7,1.2,5.378,1.251-.3,3.809,6.112,5.318,7.847,4.794-.688-.425-.089-1.273-.612-1.754-.336.611-.527,1.647-1.184,1.367-1.687-5.324-5.7-5.365-10-7.57,2.112-1.44-.29-2.318.551-4.568,3.2,2.035,6.392,4.166,9.457,5.973.61-2.2,2.2-1.443,3.786-.69,1.285.609,2.569,1.219,3.331.266q-.217.563-.436,1.125c.3.223.576.447.293.869-1.355-.416-2.953-1.654-5.328-2.511-.258.56-.476,1.248-.877,1.389q.874.5,1.732.962c-2.071.1.877,2.6,1.211,3.515,1.327-.217,4.915-.088,5.368,1.112-.653-.268-.913.554-1.174,1.389,3.156-1.222,5.956,1.676,9.256,2.622-3.414-1.589-1.378-2.1-3.561-4.127,2.583.573,4.14.573,5.036,3.592q.315-.852.633-1.707c4.239,4.728,13.271,5.235,18.96,10.477.314-.639.477-1.688,1.127-1.449,4.812,5.109,14.25,5.34,16.258,9.057a2.76,2.76,0,0,0-3.16-3.616c.6-1.368,1.24-1.659,1.878-1.422a1.406,1.406,0,0,1,.234-.67c1.539,1.553,2.346.693,2.932,2.136a2.994,2.994,0,0,1-1.606-.08,15.481,15.481,0,0,0,1.536,1.854c-.076-.059.454-1.1.373-1.159,1.905,1.67,2.028,4.739,4.216,6.115a4.769,4.769,0,0,0,3.388.575,5.549,5.549,0,0,1,4.645,1.253c-1.97,2.23,3.9,2.029,4.828,4.265-2.734-1.1-1.711.062.285,1.223,2.307,1.342,5.911,2.683,6.521.541-1.845-.617-1.653-2.224-2.716-3.223,2.876,1.572,1.743.1,3.011-1.968a3.034,3.034,0,0,0,2.944.727,3.053,3.053,0,0,1,1.683.01c-.795,1.777-2.889.611-4.066,1.508a3.107,3.107,0,0,1,1.432,1.314c1.46-.167,3.131-2.763,3.569.252a3.228,3.228,0,0,1,1.205-2.126c-3.5-2.21-6.017-3.906-8.427-5.241a14.068,14.068,0,0,1,1.67,2.532c-.8-1.012-3.167-1.231-4.279-2.09a2.25,2.25,0,0,0-.016-1.761,29.331,29.331,0,0,0-3.781-1.386q-.015.018-.03.038c-.009-.018-.017-.036-.024-.054a43.956,43.956,0,0,0-4.859-1.089c-4.224-4.051-10.469-2.776-14.456-8.452-.193.5-.616.423-1.04.348-.481-.085-.961-.17-1.106.584-5.988-5-15.065-2.757-18.923-10,1.513.715,3.416,2.451,4.064.85-1.694-.7-8.316-6.757-8.135-1.72a12.031,12.031,0,0,0-3.965-2.911c.039-1.555.844-.99,1.65-.427.673.472,1.346.943,1.57.178-2.267-1.572-7.088-5.652-9.987-3.62-9.442-5.6-16.227-10.736-23.623-11.444.513-1.851-.142-1.25-.958-.65-.548.4-1.169.807-1.556.467-1.022-1.541,1.589-2.433.629-3.113-.515-.324-.426-.838-.8-1.21a1.748,1.748,0,0,0-2.359-.476,1.738,1.738,0,0,1-1.4.186c.015-1.949-2.715-3.052-4.645-4.426-2.15,3.932-4.731-1.158-6.82-2.372-8.581-4.952-20.364-10.755-26.75-15.8,5.825,2.161,6.93,4.716,12.311,5.2,5.025,6.43,14.082,8.367,20.513,13.2.507-1.433,1.526-1.191,2.189-2.1-.252-1.219-1.554-2.117-1.832-3.326,2.449.1,6.451,7.056,11.139,5.781-.464,2.031,1.6,2.022,2.836,2.489.1,4.866,7.95,9.435,11.2,10.376.3-1.13-4.658-2.9-2.652-3,1.541.923,3.116,1.94,3.748.17-.782-.859-3.29-1.13-2.867-2.425,1.962.17,4.908,3.213,5.422-.91,2.317.857-1.528,1.738.671,3.175.277-.375.68-.4,1.243.05,1.652-2.218.115-3.3-.02-4.873,2.868-.151,2.114,2.255,1.916,3.21,2.168-.573-.526-2.939,1.3-3.393a16.1,16.1,0,0,1,6.052,2.155c-.622-.212-1.034.17-1.45.542,1.037.192,1.508,2.9,2.563,1.487-.573-.431-1.5-.74-1.327-1.459a9.15,9.15,0,0,1,3.222.889c.907-3.173-.218-5.536-2.109-7.593-.518,1.67-1.628,1.553-2.741,1.436-.833-.088-1.667-.176-2.251.49,1.1-2.335-1.182-2.612-.41-3.708a2.356,2.356,0,0,1-2.147.806c1.215-2.706-2.4-3.606-4.092-5.235.871-2.079,1.19-1.266,1.328-3.38,2.994-.391,8,2.381,9.972,2.476,3.344,5.724,12.712,1.415,18.1,6.143,3.542,3.112,3.97,9.156.124,15.262,2.135,1.753,4.033,1.969,4.4,4.686,1.122.2,1.319-.574,1.454-1.344.145-.819.222-1.638,1.277-1.293.6.722-.68,2.262.249,2.851,1.05-.68,7.32-.306,4.013.731,2.37.6,2.765.907,5.9,2.341-.192.907-.885,2.044-.238,2.579,9.394,2.246,16.146,8.528,24.439,10.393-.094,1.105-1.228,1.152-.52,1.76,2.273.3,4.259.505,5.7,1.734,1.585-1.031.4-.394.625.642a5.642,5.642,0,0,1,.606.929,1.913,1.913,0,0,0,.376.238,3.629,3.629,0,0,0-.115-1.633c1.858,2.035,5.014,1.931,7.2,1.821-.8-2.97-4.079-2.136-3.575-6.2,3.537,1.929,3.782,7.526,8.334,8.229.359,1.663-1.972,1.648-.65,2.369,1.823-.063,2.191.413,3.032,1.931.508-2.041,2.154-1.569,3.448-1.877,3.658,3.956,8.757,1.521,11.778,6.675,8.9,1.7,21.231,6.7,27.624,11.346.8-1.313,3.156.354,3.355-2.117,2.606,3.236,5.108.067,6.755,3.5-.678-.142-1.322-.227-1.337.866a6.218,6.218,0,0,0,1.45.913,2.722,2.722,0,0,0,.437-.431,2.26,2.26,0,0,0,.389.773c.36.144.8.322,1.386.567.249-.939.356-2.126,1.457-1.48.688,3.237,3.567,2.793,6.127,2.349a13.436,13.436,0,0,1,2.648-.3c-.071,1.25-.968,1-1.439,1.5,2.046.958,5.91,2.517,6.976-.51-.553-.462-1.08-.124-1.534.213-.585.434-1.049.868-1.294-.392.8.059.874-1.156,1.429-1.5,5.242,5.233,13.672,6.326,17.591,6.792,1.443.176,1.778,2.438,2.418,2.551a4.124,4.124,0,0,0,2.127-.477,4.12,4.12,0,0,1,4.174.146c-.518-.324.774.139,2.186.539.535.158,6.069,2.81,7.835.586.461-1.49-4.133-1.856-2.449-2.479,1.926.671,2.487,1.553,4.362,1.008-.895,3.087,2.491,3.217,3.641,2.089-1.6-1.3-4.033-1.972-4.459-4.189,3.2,1.759,9.142,5.791,9.511.285a.557.557,0,0,0,1.1.156c-2.005-2-.938-3.151-2.658-5.022,6.286,6.845,13.073-.74,18.462,8.194.268-1.153-.451-1.48-.247-2.579,1.7.252,1.325,2.239,3.671,1.943.015-1.191.775-1.256.836-2.378,1.391.494,2.95.853,3.671,1.915-2.387-.69-3.567.416-4.179,2.422a7.8,7.8,0,0,1,3.492.639c1.67.622,3.106,1.245,5.4-.358a1.692,1.692,0,0,1-1.848-.947,1.7,1.7,0,0,0-1.842-.947c.693-1.37.612-3.893,2.587-3.342-.008.932-.444,2.249.277,2.57-.053-2.864,7.137-2.551,10.187-2.158.356,2.417-1.526,1.566-1.458,3.56.714-.607,1.993-.406,3.333-.122-.994-1.686-.65-1.436-.186-3.809,1.8-.29.551,2.158,2,2.186.152-2.369,2.981-.869,3.546-2.642,2.2,2.422,3.042.784,2.831-.86,1.924,1.991,2.783,1.5,4.087,3.686,1-1.121.013-.8.207-2.491,2.277.945,2.071.62,3.855-.142.782.8,1.194,1.953,1.979,2.757,1.068-1.15,2.245-.158.688-1.805,2.916-.267,4.786,1.281,6.276,2.828,1.608,1.67,2.773,3.342,4.333,2.729.061,4.638,2.7,3.084,4.848,1.721.668,1.493-1.554,2.214-.145,2.5,1.6-1.251,2.856-.942,4.978-.185.576-1.95-.761-2.007-.927-3.217a2.692,2.692,0,0,0,2.124.577c.556-.018,1-.035,1.13.32a2.889,2.889,0,0,0-1.748,1.739c1.3.088,1.564,1.21,3.266.892.033-.624.064-1.251.1-1.877,4.484,3.8,11.116,1.077,13.054,4.026,1.748.649,1.2-1.562,2.268-1.758a3.135,3.135,0,0,1-.612,1.846c.579.665,2.176.174,3.49-.318,1.683-.629,2.9-1.258.918.544,2.614-.135,3.452-2.558,4.986-1.033-1.287.132-1.328,1.638-.046,1.875-.767-.946-.372-1.994,1.149-1.828.5,1.091,1.695,1.427,2.716,1.969-1.45-1.751,2.558-1.042,3.322-.514-.433.12-1.085-.015-1.116.59,1.1.293,4.072,1.667,4.969.136-.329-.876-2.128-.148-2.191-1.3,1.875-1.062,2.443.9,4.4,1.351.419-1.773,1.688-1.193,2.965-.612,1.4.635,2.8,1.269,3.112-1.174-1.98,1.05-3.629.03-5.087-.991-1.814-1.271-3.333-2.542-4.825.184-.029-2.24-.792-2.228-1.965-2.216a5,5,0,0,1-2.387-.418c.668-1.953-.828-1.546-1.042-2.533,2.535-.416,1.549.743,2.166,1.32.525-.652,2.021-.132,1.674-1.827-.643-.113-1.554.057-1.631-.684,2.249.573,3.409-.17,3.857-1.755,1.544.819,2.846.69,4.682.562a24.606,24.606,0,0,1,6.238.242c1.021,1.1-.754,1.931,1.088,2.5,3.851-1.526,7.544-.632,11,.263,2.919.756,5.668,1.512,8.2.808,1.159,1.865-.948,3.632,1.717,3.711,1.347-.92.932-2.186.479-3.77,3.01,1.37,5.341.57,7.865-.229a14.763,14.763,0,0,1,5.828-.94c1.31,2.764,3.991,2.482,6.749,2.2,2.443-.249,4.947-.5,6.619,1.367-2.593-.69-5.875-.51-7.105,1.72,2.163,2.161,8.689,2.41,7.659-1.758a3.474,3.474,0,0,0,3.674-.1c1.3-.618,2.32-1.238,3,.833.4-4,6.632-4.391,10.3-3.452-.543-.136.76-.785,2.156-.85,7.307-.284,16.143-2.316,23.254-.321-.031-.986-.275-2.152.924-2.029.214,1.584.4,3.194,1.942,2.875.221-1.408-1.741-1.748.369-1.947.625.97,1.905,1.575,2.805.214,1.3.709-.54,1.623.734,1.78a2.51,2.51,0,0,0,2.072-1.579c-.15-.97-1.444-.271-1.287-1.692,2.15,1.024,2.569.416,5.132,1.09.326,2.111-1.858.24-1.934,2.83a29.517,29.517,0,0,0,7.679,2.387c7.038-1.256,13.76-2.694,19.923-4.347,1.077.715,2.935.284,4.946-.147,2.38-.509,4.976-1.019,6.749.37.536.076,1.029.157,1.487.232,2.238-1.639,3.28-2.233,6.2-1.779-1.786-3.128,3.254-1.153,2.193-3.74a4.691,4.691,0,0,0,3.306-.772c1.3-.689,2.411-1.378,3.253-.286-3.208,1.518-5.656.315-6.148,3.513,3.027-1.512,6.7-.76,8.3-4.083,2.614.139,7.708,1.031,9.247-1.912.445,1.517,1.252.923,2.181.329.744-.476,1.568-.953,2.344-.338.41.986-.5,1.786.346,1.821a2.542,2.542,0,0,0,1.457-.045,10.5,10.5,0,0,0,1.572-1.2,1.172,1.172,0,0,1,.354.2c1.055-.66,2.069-1.291,3.068-.878-.618.263-1.2.543-.867,1.455a10.714,10.714,0,0,1,1.153-.275c.59-.454.78-1.178,1.986-1.226a1.473,1.473,0,0,1,.05.822,3.527,3.527,0,0,0,2.422-1.743c-.172-1.259-2.422-1.318-1.6-3.219.329,1.261,1.217,1.471,2.05,1.784l.008-.047c.022.026.045.051.069.076a2.678,2.678,0,0,1,1,.6c2.785.883,8.253-1.824,9.169-4.428,1.111,3.314,7.123.668,6.78-.879a31.352,31.352,0,0,0,7.442,2.079c-.479-.8-1.138-1.25-1.613-2.057,9.845-4.029,18.648-3.418,30.365-10.925.229,1.04.805,1.373,1.536,1.37,2.5-5.926,13.277-1.292,11.461-8.53,2.721-1.128.792,1.993,2.945,2.082,5.98-3.181,10.971-3.14,13.613-7.157,3.827.139,5.192-1.182,9.776-1.742-.126-.754-.607-.69-1.089-.627-.426.056-.852.112-1.033-.4,5.21-2.032,8.355-1.774,11.348-6.644.655,2.854,3.422.617,4.459,2.554-2.843,1.6-6.464,3.434-6.922,7.324a2.679,2.679,0,0,0,2.306-1.408c.626-.915.978-1.832,1.8-1.2-4.015,6.421-8.412,3.383-14.474,6.713a2.646,2.646,0,0,0,1.055,1.518c-1.529,1.714-3.813,1.7-5.8,1.691-.343,0-.678,0-1,0-9.2,8.367-23.486,6.6-32.08,15.08-3.888-1.487-9.7.932-14.917,2.2.766,1.267,2.367.89,3.968.512s3.227-.76,3.986.543c-2.322.91-11,2.536-11.811,5.27-.254-1.15-.61-2.1-1.619-1.81-1.323.065-1.02,1.118-1.513,1.689a4.1,4.1,0,0,1,1.6-.042c-.462,1.666-6.554,5.106-7.162,1.883a4.058,4.058,0,0,0,3.738-.9,6.557,6.557,0,0,1,1.34-.783c-1.917-2.766-10.351,2.026-13.372,3.25.4-.271.525-.712.3-1.386-.33.626-1.3.585-2.42.545-1.525-.054-3.331-.109-4.179,1.519,1.215-.552,2.1-.491,2.443.532-1.012,1.611-1.632.866-2.394.12-.609-.6-1.31-1.192-2.375-.585.112,1.458,1.722.194,2.015,1.319a22.819,22.819,0,0,0-2.874.608,2.6,2.6,0,0,0,3.168.689c.066.737.458,1.692-.158,1.991a9.081,9.081,0,0,1-3.729-.555c-2.11-.647-4.019-1.3-6.549,1.2a6.666,6.666,0,0,0-.227-.976c-.565.176-1.124.344-1.671.5.049.106.1.228.145.367a39.66,39.66,0,0,0-3.569,2.356c-.052-.6-.3-1.338-.279-1.894a11.2,11.2,0,0,1-1.185.1,2.607,2.607,0,0,1,.15.9c-1.624.308-1.664,1.695-2.382,2.623-.059-.853-3-.428-1.435-1.518,1.6.689,1.854-.463,2.074-1.623q-1.331.407-2.667.765a8.225,8.225,0,0,1-3.219,1.942,1.754,1.754,0,0,0,.809-1.323c-5.5,1.35-11.179,2.366-17.493,4.128-.564.274-1.081.527-1.533.752a7.407,7.407,0,0,0,.572-.48q-1.433.413-2.912.884a2.41,2.41,0,0,1-1.7,1.548,2.649,2.649,0,0,1-.584,1.1,1.2,1.2,0,0,0-.185-.9,17.266,17.266,0,0,1-3.047.237,2.274,2.274,0,0,1,.4.706,5.3,5.3,0,0,1-5.907-.271l-.112.044a19.334,19.334,0,0,1-4.931,1.163A7.33,7.33,0,0,0,868,221.405c-2.9.106-4.081.243-5.736,1.912.408-.135.852-.4.9-.705.6,1.625.283,1.39,2,2.136-.825.275-2.1.189-2.165,1.062,5.141,1.6,11.753-2.7,16.727-4.164,1.923.74-1.582,2.514.451,3.09.678-1.279,1.818-.859,2.845-.439,1.1.448,2.062.9,2.2-.72-.708-1.439-5.913.309-3.908-2.917,2.9,1,5.362,4.514,8.3,1.238.287,3.789,3.082,3.524,5.873,3.259,1.763-.167,3.526-.335,4.654.521,1.141-1.56,4.538-4.338,7.088-3.137-3.921,1.77-7.129,4-8.069,7.853.68-.067,1.59-.514,1.8.189-1.532.919-2.143.338-2.756-.244a1.828,1.828,0,0,0-2.625-.32c-.443-2.306,3.146-1.732,2.882-3.916-4.556.819-8.683,1.474-11.736,3.494.919-.515,1.17.037,1.419.589.221.488.442.977,1.124.725.431-.668,2.91-2.53,3.289-1.431,1.3,3.044,8.077,3.7,11.126-.242,2.281,3.046,4.964-1.355,5.641-1.5-1.432.964.867,2.127,1.554,2.139a1.952,1.952,0,0,1,1.19-2.116,1.893,1.893,0,0,1-1.161-.666c.214-1.95,2.146-.942,3.007.412l-.062.022c.629.227.864.917-.039,2.187a3.446,3.446,0,0,0,1.783-1,1.115,1.115,0,0,1-.459-.92c.336-.131.694-.248,1.052-.365a3.186,3.186,0,0,0,0-.938c.419.17.843.331,1.267.492,1.256-.513,2.17-1.252,1.626-2.943,1.361-.523,1.615.951,2.573,1.15-1.567.034-.823,1.584-1.3,2.325a2.945,2.945,0,0,0-1.039.206,11.417,11.417,0,0,1,2.737,1.591c-.355-1.5-1.432-1.595.11-2.605,1.521.431.581,1.121,1.472,1.506.418-.265.563-.706.334-1.383,1.583,2.067,3.354.638,4.875-.792,1.254-1.177,2.337-2.355,3.008-1.577-.673.281-1.3.592-.885,1.562,2.507-1.052,5.261-1.968,5.7-4.341,1.407,2.448,1.717-1.6,3.8-1.852,1.628,3.79,11.254,1.04,9.779-1.934,2.227.869,3.822,2.344,5.865-.709,1.427,2.933-3.615,2.057-3.944,3.956.991.485,2.566-.122,4.139-.729,1.5-.578,3-1.156,3.988-.789,1.014-2.17,1.763-3.692,1.134-5.613,1.585-.132,2.189,1.619,3.493,2.013-.636.33-1.61.469-1.538,1.2,2.548,1.5,6.664-1.065,5.584-4.633-.7.618-1.415-.131-1.746-.882-.248-.562-.284-1.123.059-1.11,1.4,2.272,4.932.369,6.586,2.13-1.2.956-1.728.6-2.258.248a1.439,1.439,0,0,0-1.939.01c-.257,2.142,1.145,2.252-.257,4.01,3.317-1.588,4.915-2.035,7.43-2.12-.305-1.182-1.717-.176-1.709-1.969,1.132-.839,1.484-.129,1.835.581a1.836,1.836,0,0,0,.677.9,1.124,1.124,0,0,1,.49-.152c.866-.981,2.136-1.737,2.021-3.25,5.112,1.289,8.021-1.255,13.664-3.509a.835.835,0,0,1,.68-.564,2.217,2.217,0,0,0,.115.256q.241-.09.488-.18a1.189,1.189,0,0,1,.261.951c.736.388,1.685.139,2.2-1.028-.079,2.12.178,1.667,1.381,2.712a7.309,7.309,0,0,1-.8.291c1.76-.268,3.5-.669,5.237-1.07a40.9,40.9,0,0,1,9.271-1.394c-.367-.778-1.2-.589-1.613-1.285a5.447,5.447,0,0,0,4.275-.549c1.291-.657,2.174-1.314,3.083-.056,7.3-6.417,25.776-12.9,31.837-20.032,4.2-2.06,10.887-1.4,12.352-7.173,1.509.586,3.4-.524,5.214-1.633,1.738-1.06,3.411-2.121,4.627-1.7-.783.6.257.989.955.848,7.687-7.256,13.95-4.3,23.147-12.021.828,3.081-7.218,3.289-4.649,6.936-5.218,3.557-6.117,6.379-11.121,9.186.678-.275,1.513-.977,1.847-.369-.377.382-1.077.634-.889,1.194,2.391-1.768,4.253-2.186,5.552-1.1-4.1,1.8-9.4,4.177-12.187,8.266,1.021,1.036,3.2-.371,5.2-1.778,1.8-1.266,3.456-2.533,4-2.017-3,2.974-5.559,6.089-9.429,8.719,2.431.823-1.577,1.119-.3,2.9,2.983.117,3.855-2.01,5.737-2.491-.726.2-1.322,2.715.061,2.029,1.472-1.768,1.809-1.165,3.875-2.177-.189-.809-2.869-.46-1.379-1.972,2.676.242,7.642.438,8.143-3.273.523,1.012-.16,1.613.291,2.6,1.335-.853,2.629-1.625,3.529-1.345-.214-.571-.426-1.14-.64-1.707,3.781-.8,5.748-.785,8.122.059,1.646-1.622,7.794-6.728,9.588-5.1-2.533,2.612-7.62,2.215-8.163,7.034-7.552,4.256-16,10.48-21.111,12.182a8.784,8.784,0,0,0-1.068.442,3.144,3.144,0,0,1-1.822,1.057c-2.455,1.61-4.955,3.842-6.976,4.584-2.849,1.043-7.455,1.755-8.041,5.608,1.3-2.1,4.148-1.027,5.431-3.538,1.532.173-.231,1.786,1.155,1.43,26.24-18.359,60.862-25.179,89.608-48.495,2.03,5.11,9.518-2.878,11.567-6.2,1.393.992,2.568.032,3.607-.929s1.953-1.931,2.811-.911c-.742,2.19-5.159,3.73-4.385,6.178.76.724.833,3.667,2.066,2.851a23.012,23.012,0,0,0,6.943-6.33c-.974-.089-1.686,1.036-2.373,2.161-.774,1.266-1.516,2.532-2.561,2.07,1.355-1.931,3.035-3.815,4.527-5.733.144.616.6.771.843.95,1.9-2.417,3.4-4.364,5.628-4.386-3.427,2.533-4.143,8.656-9.56,12.352.379-.237,1.035.6,1.46,1.429.48.941.665,1.883-.178,1.28-.7-2.461-1.571-1.56-2.632-.66-.727.617-1.545,1.234-2.463.77a3.938,3.938,0,0,0-1.482,3.559c1.407-1.438,2.379-3.589,3.272-3.229-1.012,1-.907,2.167-1.371,3.254-.239-.838-.92-.181-1.6.477l-.222.212c.048.327.113.656.183.988,1.478.625,3.408-.21,5.337-1.043,1.651-.713,3.3-1.426,4.663-1.226a3.588,3.588,0,0,1-2.825,5.013c-6.406,10.515-23.183,15.6-31.994,23.163-1.108.752-.071,1.984-1.77,2.6-5.236,2.756-14.63,4.99-17.855,12.188-3.906,1.273-6.564,3.774-10.245,6.3-.79-1.367-2.161-1.2-4.085.363,1.384.557.222.75.867,2.264,1.575-.674,3.253-1.59,4.441-1.279-.415,1.229-3.009,1.852-1.417,3.639,3.84-2.35,6.1-.655,9.695-2.417-1,.914-.4,2.246-2.428,2.889-1.578-.728-3.558-.433-5.538-.139-2.676.4-5.353.8-7.038-1.329-1.109,1.25-1,4.2.356,4.646-3.279,5.585-11.045,6.647-14.755,11.265.747,2.12,2.9.86,4.143,1.793-4.091,2.7,1.17,1.159,1.623,2.52-3.8-.116-9.121,3.345-13.656,4.864-26.989,23.095-63.91,31.931-91.868,46.589-9.006,1.814-18.189,4.945-24.23,6.259-4.143-1.471-11.659-.473-14.515,2.316-2.005-.808-9.095,1.278-12.9,2.251.881-.008-1.548,1.478-1.727,2.364,5.16-1.418,8.528-3.485,10.253-.618a5.167,5.167,0,0,0,1.582-1.8c-.5.018-1.205.374-1.345-.212,2.083-1.174,1.886.183,1.818,1.538-.058,1.134-.026,2.268,1.5,1.924-.224-3.355,4.392-.794,2.9-4.842-1.977.324-2.191,2.246-3.17.4a59.855,59.855,0,0,1,13.644-3.282c-1.608,2.873-6.505,1.481-9.127,3.09-.455,1.009-.124,2.432-.578,3.441-2.908,2.539-6.312,1.493-7.453,4.986,8.846-.668,6.232-4.148,11.855-5.812-.338.111-.581.722.133.6,4.01-.813,5.572-2.407,9.289-2.542,1.188-1.364,4.454-6.682,5.488-1.944-2.5.328-5.477,1.172-5.689,3.969a10.491,10.491,0,0,1-6.557,1.215c-2.074-.121-3.861-.241-5.327,1.533,2.68-.656,4.818-.41,6.166,1.174a2.144,2.144,0,0,1-2.494-.166,2.23,2.23,0,0,0-2.8,0c.327.813,1.229.683,1.611,1.4-3.114-.164-8.607.519-9.086,3.622,5.351-.561,10-1.808,14.049-2.05-.239-.833-.374-2.36.339-1.421l.27,1.206c-4.946,4.505-8.469.268-11.315,5.715,2.69-1.283,5.62-.079,7.4-2.439,1.771,2.939,7.993,1.44,11.142-.582-4.872,4.712-10.05,4.279-15.191,3.847a27.461,27.461,0,0,0-8.417.148c-.095,2.356,4.784.772,2.723,3.661-9.216-.791-19.72,8.25-27.649,10.166,7.817.107,14.52-.886,20.306-4,.974-.4.628.2.354.794-.262.57-.459,1.139.627.841,3.335-2.716,9.83-4.137,16.229-5.189,1.295-.8,2.638-1.509,3.666-.795a4.532,4.532,0,0,0-1.9.512c1.821-.284,3.61-.545,5.289-.8-.4-.73-.89-.77-.5-1.613-1.516.324-3.364.423-3.438-.5a2.451,2.451,0,0,1,2.7-.391,2.246,2.246,0,0,0,1.85.073c1.307-.1.963.209.033.517-.244.081-.529.162-.835.236,4.727,2.807,10.92-2.951,15.218-2.982-.444.3-1.219.457-1.1,1.049,8.889-4.7,21.175-9.526,30.738-9.913-.212-.791-.42-1.581-.632-2.375,10.079-1.594,24.925-5.192,34.768-13.26q.416,2,2.359.907c25.5-13.655,57.01-24.057,80.123-40.366a.911.911,0,0,0-.134,1.344c9.809-9.9,19.838-14.683,29.9-21.223.894-1.666.774-3.557,1.485-5.27,1.037,2.395-.3,1.846.494,4.65,3.46-5.472,9.795-9.612,15.188-11.886-.245-.551-.492-1.1-.736-1.651,4.376-.407,9.242-2.912,11.694-6.664a2.444,2.444,0,0,0,.481,1.552c3.19-1.717,5.809-3.307,5.236-5.3a5.825,5.825,0,0,0,3.792-5.031c1.316-.634,1.549.225,1.733,1.085.153.715.272,1.429.952,1.287,20.51-18.693,49.874-42.04,73.332-62.22-18.192,17.928-36.7,35.393-57.69,49.417.86,1.439-4.018,2.265-2.031,3.821-11.835,6.785-24.2,22-36.115,26.845.193.709.8,1.481.157,2.051-.466-2.426-2.183-1.25-3.541-1.125-.12,3.277-5.414,3.737-6.938,8.374-1.847-1.868-7.893,5.413-9.121,6.843-.907-.346-1.429-1.7-2.7-1.058.517,2.274-2.968,1.675-3.412,4.36-2.761-1.371-5.233,2.161-8.341,3.247.8,3.4-2.757,4.12-5.681,5.709-3.81,3.939-7.823,7.445-13.4,7.094,1.566-1.017,3.076-2.076,4.55-3.152-2.872,1.921-5.77,3.746-8.7,5.537a5.159,5.159,0,0,0,1.589-.57c1.122-.533,2.244-1.066,2.639.239-1.868.069-4.693,4.035-7.274,3.752a2.633,2.633,0,0,1,.149-1.665c-8.862,5.334-17.982,10.516-27.377,17.132.517-.132,1.2-.633,1.4-.091-.854.722-1.278.482-1.7.242s-.85-.478-1.705.237c.589,1.543-.616,1.7.785,2.3-3.281.374-6.611,3.682-9.524,5.676-1.3-1.465.482-1.9.444-2.942a1.751,1.751,0,0,1-1.451.364,1.914,1.914,0,0,0-1.775.619c.387,1.156,1.9-.111,1.979,1.691-1.3,1.116-1.964.894-2.633.671s-1.329-.442-2.614.655c1.254,2.583-2.868,2.192-4.135,4.785-1.9-1.547-2.161-1.459-2.331-2.893-1.489,1.358-2.584,2.347-3.84,1.226.181.583.365,1.165.545,1.749-1.36.078-6.907.179-6.734,3.257,2.441-1.988,6.031-.145,8.566-4.158,1.23,4.889-12.357,4.943-13.025,10.3,13.873-5.718,23.914-11.864,37.718-19.588.581.859-.4,1.962.589,1.735.956-.9,3.809-1.226,3.45-2.539-.515-.447-.966,0-1.373.45-.541.594-1.008,1.188-1.452-.3a59.069,59.069,0,0,1,10.494-5.044c-1.179.718-3.334,3.742-.8,3.872,9.751-8.607,23.366-14.251,32.693-20.357,13.519-8.824,26.59-19.04,40.789-30.1l-.49-1.1c6.592-1.232,9.646-8.361,15.272-8.651,1.371-1.651,2.726-3.314,2.216-5.251,1.162-.422,3.081-3.135,3.71-1.991-2.626,1.657-3.592,3.528-2.779,5.683,3.343-2.107,11.707-8.776,15.037-12.692,6.341-2.069,13.682-10.283,19.308-12.173-2.479,4.24-11.855,6.625-9.814,12.232,2.986-4.073,7.59-2.649,10.553-7.6.789,1.938,2.066.885,3.954-1.7,4.846,2.083,11.244-9.312,17.275-10.5a21.043,21.043,0,0,1,2.864-5.713,1.86,1.86,0,0,1-.224.027,12.709,12.709,0,0,1,.91-1.058l.121-.179.025.028c1.338-1.365,3.266-2.806,4.5-2.175-1.317.657-2.849,2.134-4.2,2.9,0,.995-1.544,1.715.23,1.809-.825,1.153-3.649,2.19-3.1,3.4,12.7-9.417,22.135-15.931,32.77-25.168,2.709,4.836,6.515-4.649,8.933-5.206-1.1,4.675,4.837-3.91,6.906-5.81a87.478,87.478,0,0,1,14.444-10.271.467.467,0,0,1-.152-.251c-.349-.835,4.388-5.755,3.208-3.33-2.048,1.194-.8,2.123-1.513,3.2-.222-.261-.451-.5-.846.06a1.433,1.433,0,0,1-.512.35c-1.079,4.678-6.06,4.434-8.407,8.987.889.983,1.87,1.606,3.172.879-.079-1.266,3.646-3.676,4.216-1.742-3.44,2.35-4.495,4.628-6.55,8.008,4.112-1.652,10.224-2.773,11.934-9.353,3.756-.18,7.062-5.157,12.191-9.123.775,3.654,5.381-2.429,8.877-5.97a3.372,3.372,0,0,1,2.74.5c.906.633,1.237,1.265,4.157-1.214-.749,2.442-2.828,2.146-2.94,3.945,2.576,1.134,5.124,2.432,8.867-2a1.177,1.177,0,0,0-1.064-.183,1.305,1.305,0,0,1-.982-.11c3-2.744,7.044-4.952,8.13-4.618,1.654-3.894,2.1-1.969,4.115-3.664,3.2-2.7,6.377-9.3,9.6-8.141-.87,2.332-3.094,3.6-3.935,5.347,3.468-3.857,3.677-4.669,8.291-7.2-1.613,1.855-3.273,3.924-4.887,5.708.16-.009.343.087.568.322-.617,3.063-7.307,6.956-5.725,9.7q1.632-1.79,3.264-3.594c1.049,1.376-1.908,4.473.878,4.07-.973.617-2.441,3.657-3.055,2.524,1.256-1.229,1.468-2.307.658-3.236-1.419,1.49-4.161,5.05-6.219,7.633,5.844-1.276,14.836-11.419,19.027-16.87,1.052.394,2.046,1.128,3.287.526-2.472,2.9-4.955,5.733-2.831,1.506-2.178,2.094-1.763,3.783-1.918,5.557,5.505-2.165,2.652-4,6.5-7.346-1.695,2.545-1.894,4.224.578,3.591-4.145,6.329-10.086,14.242-14.077,17.38.52,5.711-11.905,11.227-9.3,17.5-1.038,1.238-1.706.83-2.374.422-.709-.434-1.418-.868-2.568.678-1.292,2.592-1.912,5.1-3.466,7.715-2.626.053-5.483,4.256-5.017,6.789a.71.71,0,0,1,.961-.163.687.687,0,0,0,.8-.022c1.127-3.772,7.122-9.228,10.139-10.519-4.028,4.342-8.515,10.89-12.969,13.41.616-.75,1.653-1.55,1.383-2.224-1.574,1.818-2.438.661-4.023,2.473.321,1.446,2.594-.063.37,2.051-1.068.274-1.958-.212-3.2.809-2.775,5.189-8.031,11.7-12.54,13.955-2.686,9.275-17.106,14.375-14.113,22.027-5.4,3.222-10.327,7.39-13.544,13.842-.54.437-.873.171-1.205-.1-.377-.3-.754-.606-1.432.121-3,7.333-12.806,9.167-17.853,15.451.661.784,1.859-.224,2.951-1.232,1.375-1.267,2.584-2.534,2.356-.238-9.606,5.225-14.38,15.231-21.224,20.633.385.475,1.025.177,1.664-.12.766-.356,1.532-.714,1.858.265-1.957,1.414-5.583,5.7-8.538,6.871.164.876-.366,1.71.444,2.615-5.161,2.35-7.924,7.746-12.492,12.705-1.44-.577.614-3.242-1.039-2.158q-1.85,1.422-3.7,2.825c1.147.113,1.776,1.4.405,2.634-5.73,3.106-11.621,9.387-17.57,10.8,2.8.668-1.391,1.678-1.625,1.9-.089.088.586.993.5,1.091-8.347,9.567-30.162,17.483-33.252,23.563.536-2-4.3-1.71-5.791,1.651.089,1.02.62.992,1.151.964.418-.022.836-.044,1.042.441-15.861,9.039-32.452,20.769-51.008,30.821.461-.412,1.281-.743,1.1-1.31-8.356,5.6-11.48,9.23-19.246,11.918-6.227,4.495-18.821,10.128-22.256,12.112.481-.636,3.392-3.107,1.432-2.738-5.891,7.309-12.1,10.235-22.2,14.705.071,3.163-7.16,6.549-8.036,3.67,2.074-1.317,3.419-1.352,4.36-.645.606-1.211,3.526-1.654,1.994-3.586-3.4,1.639-14.27,5.768-8.2,5.724-11,2.479-12.971,8.212-22.729,10.443-.149,6.49-14.115,6.855-12.479,9.652-2.887-.491-6.665,1.3-8.576,4.624,6.283-.709,10.068-3.459,14.087-3.534-2.306.718-4.214,1.585-4.471,3.093-3.534-.765-6.484.7-8.889,3.443-.538-2.709-2.857.69-3.417,1.3-1.312-1.632,2.105-1.3.79-2.921-4.7.687-9.916,3.595-13.963,7.091,1.294-.372,2.385-.422,3.027.22-4.03.5-7.628,5.264-9.212,1.975,1.345-.854,4.685-.85,4.675-2.3a20.124,20.124,0,0,0-11.43,5.287c.889-.384,4.966-1.805,2.889-.337a6.853,6.853,0,0,1-4.577.922,8.568,8.568,0,0,0-1.886-.021c-6.01,6.732-11.409,6.82-18.51,10.5-1.386-1.9-5.429-.016-8.682.7a2.964,2.964,0,0,1-.352,2.038c.045.779.663.755,1.282.731.7-.028,1.4-.055,1.273,1.084-2.8,1.027-9.31,1.881-12.935,5.69-1.984-.743-10.668.16-10.992,4.3,5-.762,9.428-1.27,11.911-3.273.517.842,3.441-.155,6.462-1.152,3.7-1.22,7.536-2.44,7.294-.291.433-1.077.675-2.249,2.443-2.671,1.2.649,3.532.847,5.608,2.136-.612-2.134.562-1.932,1.867-1.73,1.283.2,2.695.4,2.658-1.628,1.254-.735,1.645-.227,2.038.282.276.358.554.717,1.135.641,1.758-1.193,2.278-2.967,4.379-4.013,16.877-.582,33.532-12.462,49.339-17.178-3.33,1.953-7.765,3.431-9.077,6.15,1.256-.3,3.034-3.011,4.147-1.6-1.075,1.021-3.4,1.537-3.855,2.794,3.992-.406,5.687-4.561,7.307-4.135-3.9,1.858.747,2.18.6,2.39-1.1,1.547-3.608.747-5.1,3.944-.433-1.067.454-1.616.11-2.658-1.373.717-.96,2.145-2.336,2.867a16.1,16.1,0,0,0-4.1-.325,2.05,2.05,0,0,0,.5.422c-1.528.908-2.262.538-2.763-.205-9.739,1.425-20.717,8.918-30.658,9.416.067,3.315-2.747,2.5-2.79.921-2.957,1.962-3.18,3.4-4.143,5.239-2.015-1.684-5.158-.382-8.34.918-2.724,1.114-5.477,2.229-7.576,1.47-3.6,5-14.258,3.654-18.981,5.485a1.035,1.035,0,0,0,.484-1.421c-2.538.431-4.163.161-5.521,2.158,1.919,1.048,1.152-1.264,3.415-1.57-4.3,5.765-13,4.512-20.057,7.8-1.24-.621-2.957-.617-4.524-.81-1.048,2.047-5.083,2.442-8.314,3.248-.8-1.66-2.175-2.59-5.309-1.339,3.011-5.065,9.8-5.5,14.467-5.938-2.829-1.733,1-3.115-2.072-3.959-1.356,3.6-11.225,4.065-15.036,5.249,1.065-.416,2.027-.9,1.676-2.125-2.128.454-6.258-.325-7.743,1.7a3.691,3.691,0,0,1,2.78-.1c.742.279,1.062.558,2.149-.977a11.751,11.751,0,0,1-5.044,5.55c-.785-1.793,2.326-1.275.991-3.392a1.188,1.188,0,0,1-.884-.141,1.293,1.293,0,0,0-.614-.174c-.724,1.927-7.616,2.3-5.231,4.278-5.279.069-12.864,2.063-14.5,6.035-8.813.174-15.783-.441-24.359,2.316-.031.945.483,2.243-.469,2.593-.7-1.286-2.64-1.163-3.8-1.929,0,1.226-.6,1.156-1.152,1.087-.432-.054-.831-.109-.871.479,1.022.006.95,1.241,1.6,1.648a5.47,5.47,0,0,0-3.5,1.158c-.716-1.839,2.382-1.13,1.134-3.32-1.761.356-2.3-.655-3.675-.718-1.239,1.318-2.987,1.177-5.011,1.036-2.13-.148-4.568-.3-7.04,1.257.3.81,1.113,1.049.92,2.395-2.642.139-2.747-2.452-5.243-2.482.245.878,1.256.913,1.577,1.691-3.911-4.055-11.962,1.949-14.232,2.309.767-.233,1.643-1.213.629-1.327-11.453,2.467-21.433,1.988-32.143,2.9-.041.706,1.083.9.058,1.244-4.922-.053-29.868-5.888-25.053,1.377-.547.164-1.406.079-1.414.68.208.017.438.014.668.012.7-.008,1.392-.015,1.49.53-2.189,1.075-6.341-.678-9.333-.923a10.832,10.832,0,0,1-2.111,2.558c-3.027-2.391-5.459-1.253-7.981-.113-1.96.886-3.974,1.771-6.361,1-.212,1.645,2.785.46,2.158,2.476-4.389-2.98-10.549-2.651-16.99-2.323-4.413.224-8.959.449-13.158-.389-.117.753.7.722,1.52.691.985-.037,1.97-.074,1.32,1.258-7.439-1.871-21.511-.2-30.844-2.485,2.12,2.031-2.683.712-2.976,2.327,6.166,4.571,13.05,1.125,21.473,4.8-.418.895.757,3.267-.81,3.1-2.181-5.881-11.228-2.762-17.17-5.185-.348.964-2.285.4-1.546,2.413-5.465-3.925-16.515-3.805-25.2-2.514-1.066-1.582-3.052-1.517-5.225-1.453-1.841.054-3.818.108-5.483-.836,1.5,1.09.9,3.7,3.343,4.11.948-1.556-2.041-2.911.887-2.426.644,4.691,10.2,2.461,12.062,4.221-1.866,0,.935,1.163-.138,2.5-3.011-1.972-5.914-.369-8.558-2.627-1.634,1.659-7.238,2.886-4.813.086-1.419,1.248-3.408,1.138-5.373,1.028s-3.937-.222-5.262,1.057c7.908.372,10.607,3.487,16.5,4.19-3.554,1.849-5.437.463-8.793.4a2.771,2.771,0,0,0,.6,1.947c-10.559-.737-17.5-2.227-25.753.756-.046-.743.288-1.749-.561-1.957-4.889,1.959-13.483-.387-18.278-1.389.9.066,1.742.078,1.582-1.012-3.174-.52-6.892-1.676-7.45.712-1.651-.507-.4-2.829-2.626-2.958-2.393,1.009-3.664,3.3-6.365,3.973,2.555-2.006-9.394-5.418-6.611-.544-4.586-.419-6.818-2.725-10.4-.057-1.2-1.386-2.13-2.923-3.945-3.945,1.256-5.825-.17-6.819.75-11.258,3.653,2.082,6.372,3.354,8.135-.312.589,1.812,6.375,2.794,7.9,1.465,2.64,2.842,6.3,2.547,10.441,2.251a27.553,27.553,0,0,1,9.037.4c-.055-1.659.673-1.628,1.581-1.6a2.3,2.3,0,0,0,2.333-.954,73.843,73.843,0,0,1-7.045-2.363c.828,2.089-.372,2.388-1.837,3.484-.8-1.984-4.507-2.129-5.748-.951-.329-1.61.815-1.534,1.96-1.458.8.054,1.607.108,1.9-.422-2.67-1.358-5.974-2.341-8.306-3.945-1.773,3.217-7.057,2.057-10.232.032-1.6,1.168-1.623,1.385-.39,3.087-6.288-3.938-14.5-4.735-19.414-3.267-.751-2.894-3.361-2.45-5.814-2.005-1.7.308-3.318.616-4.2-.181a3.119,3.119,0,0,0,2.415-1.371c-2.255-.04-1.941-1.521-4.189-1.571-.2,2.438-2.988,1.616-4.748,2.079-.5-1.3,2.451-1.553.384-2.454-6.12-.737-8.482-.806-12.719-3.712-.95,1.857-.637,3.756-4.884,2.606a3.286,3.286,0,0,0-.3-2.63l.093-.014c-2.368-.122-4.556.309-6.417-2.194-1.27,2.556,2.318,3.535,4.49,4.287a8.175,8.175,0,0,0-4.964.947c-2.319,1.04-4.057,2.08-4.731-.947a80.569,80.569,0,0,0-11.2.284c-2.821.2-5.747.41-9.175.377-.005.922.966,1.38,1.067,2.249a5.415,5.415,0,0,1-3.544-1.3c-1.486-1.124-2.3-2.248-3-.007,3.473,1.128,7.751,1.831,9.058,3.963-1.345-.305-2.469-.3-3.1.378,3.432-.509.211,2.561,6.219,3.084-1.013,2.161,1.753,2.47,1.476,4.281a9.292,9.292,0,0,1-2.591.107c-1.427-.066-2.856-.131-3.633.677,5.269,3.4,8.82,3.916,12.492,2.23-.992-.617-3.86-.314-3.5-1.6,1.961.718,1.427,0,.892-.716s-1.067-1.434.889-.717c1.689,3.1,4.234,3.884,6.556,5.627-.507-1.4.2-.824,1.251-.249,1.1.6,2.561,1.2,3.406-.441,1.141.914,1.1,2.417,2.473,3.2,6.273-2.426,17.16.74,23.152,1.184-1.184.476-3.322-.224-3.279,1.783.726.17.789.7,1.355.951,1.23-1.037,2.841-.691,4.352-.346,1.741.4,3.349.795,4.094-.92,3.725.879,3.5,1.411,5.89.649.462,1.5-.789,2.807,3.284,3.232-.038-1.294-1.794-1.619-1.834-2.92,5.74.986,15.835,5.345,19.777,2.7,4.513,6.137,11.383,5.785,17.841,5.432,5.493-.3,10.688-.6,13.88,3.1.092-.825,1.337-.384,1.582-1.03-1.934.094-2.6-.643-2.005-2.19,3.679.741,3.59.466,8.879.025-1.407,3.282-7.032,2-9.315,4.319,1.454,1.392,5.325,1.219,8,1.8-1.116,1.688-7.717.788-9.712.466-.1-.013-.189-2.064-1.274-2.082a2.911,2.911,0,0,0-1.541.7,2.892,2.892,0,0,1-1.588.7c-4.964-.17-11.753-4.486-14.78-1.2,2.626.107,3.712,1.175,4.18,2.612-12.1-3.494-19.855-3.059-33.672-6.421-.094.617.482.867.55,1.39-4.558-2.385-10.133-1.207-15.06-5.214.041.926,1.044,1.317,1.182,2.183a40.612,40.612,0,0,1-7.644-4.316c1.31,1.84-2.746,1.462-3.49,2.984q.512-1.951-1.9-2.369c-1.75.491.68,1.723-1.024,1.667-3.633-1.644-7.835-3.021-10.51-5.2-.234,1.112,3.379,3.034.938,3.44-4.036-4.309-17.009-3.172-21.424-3.856,2.282-.135-1.9-2.587-2.787-1.44-.678-1.8,3.223-1.084,1.177-2.227-.8,1.194-2.568.724-4.132.252-1.211-.365-2.3-.73-2.735-.321-1.549,1.837,2.39,1.09,1.822,2.47a37.642,37.642,0,0,1-10.759.013c6.311,4.754,20.638,3.843,29.43,10.963-.871,1.279-3.118-1.367-4.278-1.793-.735,2.37-1.539,1.724-2.533,1.076a2.174,2.174,0,0,0-2.188-.446c.572,3.283,3.325,3.273,6.047,3.263,1.8-.006,3.59-.013,4.726.934-.9-.171-1.771-.284-1.685.832.737.2.783.731,1.363,1,4.663.825,13.16.617,13.132,3.991a9.556,9.556,0,0,0,4.488-.7c1.99-.652,3.869-1.3,5.573-.063-3.985.217-7.736.708-9.728,3.4-.074.869,5.257,1.669,2.759,1.947C526.415,538.775,524.359,538.605,519.231,537.093Zm-22.9-5.592q1.467.42,2.935.834a1.64,1.64,0,0,0-1.671-2.258A1.206,1.206,0,0,0,496.336,531.5Zm1.763-5.273c.473,1.254,2.04,1.994,4.168,2.46-.234-1.287-2.314-2.573-3.6-2.573A1.287,1.287,0,0,0,498.1,526.228Zm-4,.765c.808-.7,1.037-2.186,3.274-.977-3.551-3.979-10.734-2.8-14.472-4.93a5.471,5.471,0,0,1,1.462,4.307,15.634,15.634,0,0,0,4.33.4l.5,0A7.721,7.721,0,0,1,494.1,526.993Zm121.932-5.9a3.1,3.1,0,0,0,3.628.517c.212-1.19-1.122-2.144-2.233-2.144C616.653,519.469,615.99,519.93,616.03,521.1Zm25-.527c-.587-1.162-2.158-1.635-4.255-1.761C637.05,520.334,639.369,521.733,641.028,520.57ZM526.1,519.039c.084,1.453,3.542,1.15,4.983,1.884a5.854,5.854,0,0,0-4-2.105A2.117,2.117,0,0,0,526.1,519.039Zm116.515-.17c.335,1.534,1.193,1.329,2.392,1.125a5.406,5.406,0,0,1,2.642.053A5.406,5.406,0,0,0,644,518.753,8.782,8.782,0,0,0,642.617,518.869Zm-6.67-7.7c.59,2.583,2.81.757,3.646-.2.006-.359-.24-.484-.612-.484C638.122,510.487,636.589,511.159,635.947,511.169Zm-35.2,1.257c-.033-.737.288-1.08.859-1.121-.716-.753-1.085-.517-1.6-.282-.546.25-1.257.5-2.718-.433.145,1.09-.693,1.07-1.58.995.607.855,1.291.574,2.077.293a3.723,3.723,0,0,1,1.25-.279A2.333,2.333,0,0,1,600.748,512.427Zm83.8-3.046c.242-1-.636-1.112-.634-1.918a6.528,6.528,0,0,0-2.465.2,6.226,6.226,0,0,1-3.308.035C678.363,509.693,682.99,510.295,684.549,509.38Zm-17.967-1.323c.145,2.079,6.071,2.164,5.783-.16a6.234,6.234,0,0,1-3.2.152,8.285,8.285,0,0,0-1.358-.139A5.291,5.291,0,0,0,666.582,508.057ZM625.59,504.8a1.873,1.873,0,0,1-1.544,1.046c-.071,1.613,2.722,1.276,2.648,2.883.828-.01.454-.571.056-.624-.064-1.663,2.831-.12,2.374-2.2a2.159,2.159,0,0,1-1.557-.567,2.163,2.163,0,0,0-1.518-.567A4,4,0,0,0,625.59,504.8Zm-8.953,2.524a5.463,5.463,0,0,0,3.532,1.137c.522-1.9-1.771-1.915-1.852-3.417A2.536,2.536,0,0,0,616.637,507.324Zm17.4.47c.051-1.6-2.3-1.535-4.2-1.8C629.463,507.969,632.79,508.659,634.038,507.794Zm116.64-5.639c.612,1.191,3.154,1.632,4.293.538.279-1.022-.426-1.348-1.345-1.348A5.982,5.982,0,0,0,750.678,502.154Zm5.72-.117c1.066,1.488,4,1.271,6.923,1.053a30.9,30.9,0,0,1,3.826-.133c-1.279-1.228.5-1.241-.767-2.47A24.163,24.163,0,0,1,756.4,502.037Zm-260.27-1.458a3.314,3.314,0,0,1-.237-2.643,1.471,1.471,0,0,0-1.909.079,1.467,1.467,0,0,1-1.907.078C491.849,499.666,494.239,500.018,496.129,500.579Zm-1.069-6.1.354-1.827c-2.18-1.671-3.885-1.594-6.05-1.517a22.763,22.763,0,0,1-3.441-.071C488.511,493.453,491.834,492.234,495.059,494.477Zm35.2-1.634c.683.586,1.159,1.171,1.685.207a6.968,6.968,0,0,0-2.76-.856A3,3,0,0,1,530.257,492.843Zm325.184-1.085c.371-1.532-.889-1.245-2.149-.957a6.078,6.078,0,0,1-1.511.226C851.464,493.251,854.47,492.9,855.44,491.758Zm-373.574.617a2.27,2.27,0,0,0,2.206-.946,2.331,2.331,0,0,1,1.973-.976c-5.6-3.673-11.068-1.613-17.741-5.7.387,1.71-.043,1.367-.076,3.856,3.717-.838,10.8.136,11.5,3.091,1.292.248,1.837-.533,1.931-1.975C483.617,490.9,482.269,490.886,481.866,492.376Zm37.071-1.426c.582.047.851-.324,1.119-.694.367-.507.734-1.014,1.907-.449q-.236-.333-.466-.735C520.372,489.329,518.667,488.82,518.937,490.949ZM466.228,487.3c.448-2.379-2.594-3.236-5.132-4.328-.331,1.049.579,1.569.166,2.652a2.148,2.148,0,0,1,.895-.21C463.481,485.418,464.37,486.868,466.228,487.3Zm41.468-.092c-1.119-1.464-7.478-3.648-6.727-.009a7,7,0,0,1,2.61-.5C504.9,486.7,506.129,487.044,507.7,487.212Zm389.975-5.254c3.865.731,7.638-.552,11.28-2.331A30.3,30.3,0,0,0,897.671,481.958Zm39.179-1.121c1.791-.048,4.591-1.516,6.961-2.4-.177-1.378-1.795-.878-3.414-.377-1.362.42-2.725.842-3.231.143C934.719,478.991,938.869,480.613,936.85,480.837Zm-600.21-2.57a.976.976,0,0,0,1.523-.288c.38-.454.759-.91,1.878-.037-.973-3.238-3.791-1.292-6.565-2.615C332.626,476.786,337.488,476.817,336.64,478.266Zm609.084-6.077c-1.552.718-3.4,2.145-4.923,1.269C939.188,474.606,946.847,475.844,945.724,472.19Zm21.091-1.3c1.539,1.1,5.562-1.25,7.019-2.05a1.954,1.954,0,0,0-1.1-.31C970.894,468.528,968.491,470.487,966.814,470.888Zm-4.677-9.58c2.209-.161,2.423-1.348,4.064-1.811a2.027,2.027,0,0,0-1.667-.618C963.126,458.879,961.5,459.668,962.137,461.309Zm-650.413-.053a1.9,1.9,0,0,0,1.014-2.87c2.433.5,5.2,1.6,7.09,1.065-3.724-2.971-8.393-2.835-11.453-7.535a1.766,1.766,0,0,0-2.323.106c-.642.445-1.283.89-2.668-.125-1.055.7,1.391,3.071-.831,2.29C305.546,457.613,307.9,458.839,311.724,461.255Zm728.356-38.685c2.108.76,6.821.8,9.259-1.742a3.719,3.719,0,0,0-1.905-.531C1045.354,420.3,1043.289,421.987,1040.08,422.571ZM260.347,394.253c3.27.209,7.428,2.376,8.959-1.348-1.837-2.126-4.879-3.972-2.836-5.3a5.014,5.014,0,0,0-3.145-1.254C260.046,386.346,257.855,390.531,260.347,394.253Zm-38.531-25.28c1.294,2.06,6.372,7.526,8.11,4.974-3.031-.957-5.385-5.407-7.214-5.407A1.2,1.2,0,0,0,221.816,368.973Zm632.335,3.179a20.862,20.862,0,0,1,9.177-.855c2.555.183,4.858.366,7.03-.638-.046-.413-.094-.829-.14-1.241.145-1.38-1.049-1.018-2.069-.888.922-2.054,3.455-.265,2.851,2.01a9.1,9.1,0,0,1,2.271-.051,7.77,7.77,0,0,0,3.589-.409c-.255-1.333-1.776-1.021-3.358-.626,1.595-2.99,6.51-.612,9.865-.007,2.408.5.118-2.18,1.685-2.239,2.672.759,16.528-1.856,19.121-4.763,1.776.409,2.2.806,1.74,2.778,2.362-.164,3.578-1.068,3.565-2.741,2.948,2.5,6.492-.969,9.481-2.948,1.106-.246.893.309.608.862-.3.585-.681,1.17.329.814,1.635-.381.706-.652.437-1.382a2.393,2.393,0,0,1,2.209.469c.746.484,1.491.968,3.2.057a12.345,12.345,0,0,1-1.55-5.351c1.407-.287.7,2.529,1.244,3.515,2.833-.129,2.168-2.363,4.148-3.011-.477,2.917,4.477,5.976,5.518,1.08-2.288.111-2.573,1.411-3.615,2.253-.191-1.541.867-2.215-.522-3.059,3.361.867,3.335-.658,6.252-2.35.507,1.354,2.389,2.747.978,5.5,1.847-1.48,4.222-2.665,5.927-4.243-.357-1.544-2.349-.6-4.036-.132-1.144.166.54-2.539.713-3.415,1.49-.069-.6,1.172.974,1.654,1.45-.615,2.2-1.645,4.324-1.887.833-1.522-.2-.76-.454-2.442,4.342.634,3.287,5.371,7.381,3.61a2.04,2.04,0,0,1-1.677,1.786c4.176,1.579,8.548-.48,12.677-2.537,3.846-1.916,7.481-3.833,10.552-2.812,1.712-1.994.4-2.177,3.034-1.667.514-3.339-2.048-3.6-4.508-4.094a17.935,17.935,0,0,1,2.075-.924c-1.106-1.669-.629-1.506-.021-3.229,1.155-.07.9.967.691,2.005-.206,1.013-.372,2.025.851,2.009.573-2.01,5.531-.649,7.922-4.008.93-.1.29,1.043-.357,1.421,1.368,1.162,1.876-2.587,4.126-2.744a5.548,5.548,0,0,1-1.608,1.868c.493,1,.831.411,1.308-.177.314-.387.688-.774,1.207-.708.113.586-.67.738-1.12,1.049.312.806,1.237.581,2.163.356.809-.2,1.619-.393,2.021.1.706-1.553,2.548-4.143,4.268-2.2,7.583-5.715,16.5-9.334,24.926-12.847q-.234-.894-.469-1.783c6.584-.186,11.677-3.809,17.695-6.083-5.615-2.495-12.2,3.975-19.093,5.986-3.786,1.1-7.407-.1-11.028,2.375.005,1.454,1.094.995,2.179.535.832-.352,1.663-.7,2.005-.194-.229.969-1.738.365-2.966,1.808-7.861-3.617-18.747,5.015-28.077,7.661-7.628,2.181-14.66,1.547-19.958,4.01-.288.747-1.322,1.081-.895,2.218-2.509-.977-4.644,1.858-7.559,2.335-.472,2.243,1.027,1.313-2.282,1.975,1.4.814.359,1.506.581,3.044,1.784-.094.981-1.623,1.544-2.4,1.1.674,2.423,1,3.123,2.274,1.174-.794,1.085-2.29,2.054-3.209a1.7,1.7,0,0,1,1.438.52,1.687,1.687,0,0,0,1.449.519c-.863,2.4-5.867,2.045-7,5.358-4.608-1.246-5.411-6.19-11-5.106.089-1.579,2.132-2.036,3.444-2.927-2.511-.774-4.732-.044-6.787.686-2.23.791-4.265,1.583-6.263.454-.728.838-2.245,1.222-2.2,2.517a13.46,13.46,0,0,1-2.02-.172c-1.95-.248-4.214-.5-4.4,1.243-.567.114-.775-.3-.982-.71-.235-.468-.469-.936-1.224-.633-3.542,5.085-13.012,1.57-16.88,5.44-3.55-2.019-11,.252-13.491,1.758-4.031-3.947-15.414.356-19.689,3.954a11.612,11.612,0,0,1-4.6-.165,9.538,9.538,0,0,0-4.515-.087c1.344-.41,3.669-2.986,4.307-2.019-.372-2.275-3.341-1.365-7.816-.533a2.364,2.364,0,0,1,.394.223,1.194,1.194,0,0,0,.94.185c-2.175.756-5.207.665-8.518.574-6.325-.174-13.668-.347-17.995,5.389,2.624-.448,4.93-.514,6.482.349-.6-.3-1.981.094-3.528.482-2.509.631-5.453,1.263-6.192-1.031-2.022-.038-2.537,1.109-3.034,2.272.336,1.426.647,2.869,2.759,2.17.376,1.455-2.938.025-1.764,2.108,4.159-.438,6.462-2.331,10.77-2.709-1.318,1.5-3.973,2.413-8.16,3.005,9.617,2.066,15.722,1.663,25.86-1.317C858.434,369.931,854.521,369.751,854.151,372.152ZM821.8,365.924c.7,3.1,4.8,2.083,7.229,1.632-.187-1.639-1.388-2.067-2.953-2.067C824.774,365.488,823.225,365.783,821.8,365.924Zm-1.465-2.34c-.163-1.755-3.37-1.184-4.756-.613-1.054.436-1.051.87,2.162.278A3.573,3.573,0,0,0,820.331,363.584Zm128.819-7.135c2.314-1.264,0-2.589-.168-4.451C947.14,352.549,948.123,355.878,949.15,356.449Zm-3.98-3.345c.846,1.578-.6,1.84-.076,3.232,1.7-.491,1.312-2.162,2.1-3.172a.528.528,0,0,0-.567-.35A11.6,11.6,0,0,0,945.17,353.1Zm-90.965.74a23.947,23.947,0,0,1,6.784-.537,28.765,28.765,0,0,0,4.745-.156c-5.432-1.717-7.965-1.336-13.685-1.483C852.427,352.826,854.943,351.254,854.205,353.843Zm97.34-12.916c.116.611.234,1.222.348,1.831q1.261-.378,2.517-.762c-.08-1.046-.554-1.463-1.295-1.463A4.324,4.324,0,0,0,951.546,340.927Zm-754.388-6.19c1.443,1.837,5.122,3.542,3.412,5.545,1.1.091,2.612,1.26,3.718,1.341,1.77-2.189-1.373-4.072-2.253-6.1,1.788-4.458,4.815-3.73,3.317-8.5-2.268-2.057-3.483-1.212-5.213-1.779C197.262,329.357,197.558,329.615,197.158,334.737Zm720.517,4.678c.953,2.183,2.6-.192,4.489-.514a1.163,1.163,0,0,0-1.17-.91C919.955,337.991,918.552,338.965,917.674,339.415ZM191.876,327.7c1.264-.293,2.839.274,3.5-1.714-1.091-.936-1.656-.384-2.787-1.427C191.3,325.64,192.784,326.623,191.876,327.7Zm846.4-12.62c5.017,1.922,14.11-4.439,19.017-6.514a5.593,5.593,0,0,0-2.357-.5C1049.9,308.069,1043.884,313.862,1038.281,315.08Zm39.129-18.86c.517,1.591,3.315-.057,3.84-1.254-.154-.7-.429-.955-.77-.955C1079.56,294.011,1078.164,295.905,1077.411,296.22Zm178.112-9.473c2.953-2.857,4.945-3.018,7.279-4.155,0-.717-.817-.45-1.5-.183-.762.3-1.365.594-.508-.466a.356.356,0,0,0-.137-.023C1259.476,281.92,1254.206,285.3,1255.523,286.747Zm17.554-16.022c.886-.913,3.081-3.336,4.247-3.443.427-.612.359-.862.017-.862C1276.155,266.42,1271.667,269.422,1273.077,270.725ZM459.1,249.685c-1.136-1.081-1.954-3.658-3.692-2.911.977-3.686,3.1-.413,4.186,1.134.349-.659,2.837-1.44,1.8-1.875.6-1.84-2.836-1.247-4.25-3.154,1.065-.548,2.786.341,4.349,1.229,1.423.81,2.714,1.619,3.256,1.345-.764,1.292-1.992,2.564.339,3.45.779-4.265,3.86-3.828,7.172-2.984a3.757,3.757,0,0,1,.061-2.612c-6.762-.431-18.446-9.92-27.127-12.38-.384,1.017.331,1.55-.13,2.611-1.733-1.109-1.333-3.15-3.259-4.174q-.351,1.177-.706,2.347c-1.034-.391-.978-1.273-2.082-1.628-1.18-.93.96-.6-.033-2.026q-1.409-.662-2.821-1.329c-.114.722-.448.983-.922.907.693,1.729.59,3.811,3.062,4.788a3.058,3.058,0,0,0-1.273,2.08c.783-.257,1.462.29,2.15.837.785.623,1.584,1.246,2.571.681a3.151,3.151,0,0,1,.438,2.876,55.093,55.093,0,0,1,12.739,5.018c-.669.214-1.565-.265-2.5-.743-1.344-.686-2.771-1.372-3.73-.015-1.094-1.047-1.508-2.385-3.657-2.965-.68,1.074-2.191,1.162-1.439,2.678.675.416.956-.011,1.236-.437.245-.374.49-.749,1-.553,1.277.771.869,2.192-.519,1.77C450.851,247.335,453.664,248.734,459.1,249.685Zm19.886-.4c.459.068.428-.217.391-.5-.04-.31-.085-.619.493-.472-.448-3.141-4.841-2.054-6.879-2.754C472.888,248.951,478.328,246.96,478.99,249.285Zm-7.511-.387c1.05.255,1.579-.495,1.771-1.915q-1.434-.582-2.864-1.169c.219.674.41,1.346-.311,1.188C469.973,247.911,471.731,247.909,471.479,248.9ZM526.9,246.28c.133-.866.268-1.735.953-1.625-5.836-4.7-16.2-6.291-22.609-8.355-1.282-1.12,1.077-2.5,2.255-1.8-.114-1.22-1.084-1.159-2.016-1.1a2.692,2.692,0,0,1-1.372-.122c-.321,1.055.392,1.522,0,2.608-.561,1.26-2.848-.766-4.1-.841C506.356,243.7,515.266,242.015,526.9,246.28Zm284.9-4.9c6.92-1.138,11.893-.041,18.051-3.613a36.065,36.065,0,0,0-7.178.237,47.344,47.344,0,0,1-9.978.126c.125-1.456.915-1.283,1.788-1.108.757.15,1.576.3,2.076-.609-.256-1.425-1.777-1.144-3.3-.863a9.552,9.552,0,0,1-1.883.227C810.42,238.181,812.431,238.764,811.8,241.385Zm-14.369-1c.759-.073,1.516-.145,2.273-.221-.3-1.635-1.623-1.959-2.992-2.224A3.693,3.693,0,0,1,797.434,240.383Zm4.719-2.516a7.537,7.537,0,0,1,1.962-.03c.193-1.6-1.056-1.313-2.306-1.028a4.316,4.316,0,0,1-1.738.184C800.7,238.122,801.174,238,802.153,237.867Zm39.232.04c1.215.069,1.454-.671,2.2-1-1.012-.432-2.229-1.96.367-1.954-2.058-.654-5.565.6-8.554.734.7,1.435,2.007,1.154,3.225.874a6.6,6.6,0,0,1,1.387-.227C840.725,236.339,841.26,236.672,841.385,237.907Zm2.634-2.328c.634,1.008,1.292,1.984,3.039,1.386a2.5,2.5,0,0,0-2.116-1.875A1.08,1.08,0,0,0,844.019,235.579ZM499.01,236.637c1.284-4.057-3.422-2.215-4.509-4.3,1.1-.8,2.564.083,3.932.964,1.726,1.111,3.3,2.224,3.839-.038-7.223-1.93-14.926-9.727-23.782-8.527.469.891,1.071.609,1.831.327a2.541,2.541,0,0,1,2.408.064c-.171.573-.811.18-1.28.145-.1.907,1.621.879,1.376,1.865-.948,1.122-3.6-1.181-5.213-1.436,1.643,3.746,7.62,5.188,9.211,7.614a3.574,3.574,0,0,0,.91-3.581c.584-1.047.92-.747,1.344-.448a.989.989,0,0,0,1.211.127c1.383,1.38-2.082.544-1.88,2.551,4.343,1.726,5.5,1.3,7.057,4,1.044-.113,1.048-.381,1.277-.381A11.3,11.3,0,0,1,499.01,236.637Zm306.181-1.427c-.2.8-.3,1.6,1.1,1.138-.6-2.778,6.349.491,6.543-3.884a11.542,11.542,0,0,0,5.84-.03,8.513,8.513,0,0,1,6.145.383c.14-1.084,3.119-2.533,3.888-1.168-.495-.172-1.1.257-1.39.685-.266.4-.255.8.385.714,5.169-2.572,11.689-3.518,17.971-4.672-2.439-1.973-4.428-.85-9.584-.759-1.083-2.6,3.3-.573,3.1-2.429a4.029,4.029,0,0,0-3.17-1.907c-.289.013-.575.021-.862.025a2.724,2.724,0,0,0-2.159,1.671c-.023.686.475.6.974.51.607-.107,1.214-.213.88,1.076-3.095-.39-3.142-1.811-2.056-3.333a19.074,19.074,0,0,1-3.226-.534c.038.983.283,2.146-.943,2.032-.183-.92-.017-2.326-.792-2.41a7.965,7.965,0,0,0-5.246,4.5,11.7,11.7,0,0,0-2.512-2.81,2.538,2.538,0,0,1,1.318.193c.869.266,1.772.534,2.031-.636-1.087-.12-1.164-1.645-2.9-.873-1.2,2.64-1.253,2.588-1.92,2.536a4.251,4.251,0,0,0-2.341.532,1.491,1.491,0,0,1,1.786,1.027c-1.343-.8-2.913-.271-4.477.262-1.6.547-3.2,1.094-4.534.2,2.84-1.351,3.8-.834,6.006-2.6-.843-.023-1.5,0-2.064.026a9.011,9.011,0,0,1-4.179-.546c-.446,1.22,1.834,1.894.191,2.495-1.39-1.14-3.029.05-4.8,1.241-1.828,1.23-3.794,2.461-5.767,1.121,1.177.429,3.027-1.284,1.6-1.408-1.4.04-1.671,1.147-2.723,1.516-1.389-2.334-3.25-1.921-5.122-1.508-1.386.306-2.778.611-3.99-.2-1.353.97-1.236,1.871-1.554,2.621-1.052-2-6.268-2.255-7.406-1.969-.1,1.079.673,1.072,1.449,1.065.651-.005,1.3-.012,1.437.625-5.658-.025-7.63-2.079-10.242-3.118-1.292-.121-.551,1.832-1.61,1.965.81-2.772-3.434-3.137-6.273-3.459.257,2.192.128,3.223.672,3.727.576-.75,2.571-.35,3.384.473-1.567,1.308,1.738,2.177,1.809,3.667,1.156-.413,1.156-1.043.5-1.906a19.152,19.152,0,0,0,6.885.225,19.74,19.74,0,0,1,6.654.166c-.12-.725-1.07-1.336-.094-1.865-.419,1.249.2,1.2.824,1.149.511-.041,1.022-.082.958.6-1.552,1.352,1.437,2.561,2.41,2.949-.675-.854-.685-1.475.464-1.916.827,2.06,2.025,1.607,3.19,1.155.943-.367,1.866-.734,2.551.238,1.251-1.03-1.218-1.884,1.013-1.981.051.834.1,1.666.15,2.5,2.051.13,7.96-.217,9.624-.321a.68.68,0,0,1,.2-.039C805.584,233.936,805.353,234.572,805.191,235.21Zm45.194.545a12.529,12.529,0,0,1,3.174-2.457c-.779-1.134-4.446.063-5.082.891-.024.693.49.6,1.005.5a2.984,2.984,0,0,1,.512-.066C850.384,234.627,850.631,234.832,850.386,235.755Zm-70.259-.249c-.374-.532-.734-1.071-.059-1.247.019-.861-.788-.7-1.6-.53a2.736,2.736,0,0,1-1.25.085C777.785,234.869,778.369,235.922,780.126,235.506Zm2.253-.154a1.839,1.839,0,0,0,1.679-.437,1.839,1.839,0,0,1,1.679-.438c-.186-.561-2.2-1.94-2.288-.46-.548.022-.474-.731-.625-1.207C781.214,233.465,782.236,233.792,782.379,235.352Zm59.609-2.6c1.2-1.264,3.02-1.209,4.792-1.155a12.732,12.732,0,0,0,2.544-.084,10.375,10.375,0,0,0-4.148-1.077A2.931,2.931,0,0,0,841.988,232.756Zm-593.425-2.949a4.147,4.147,0,0,0,1.768,2.836c.235-1.071.942-.661,1.684-.186.325-1.321-2.63-2.655-3.379-2.655A.438.438,0,0,0,248.563,229.807Zm624.271.338c.281,1.317-1.964.706-2.736,1.207,1.786,1.556,2.622-.076,4.514-.952-1.363-1.045-3-1.66-4.68-.28.054.859.858.577,1.659.294a3.793,3.793,0,0,1,1.1-.281A.788.788,0,0,1,872.834,230.144Zm-19.93.574a4.946,4.946,0,0,1,2.617-.312c-.514-1.687-1.926-1.122-3.272-.557-1,.421-1.973.842-2.506.33C850.7,231.517,851.7,231.117,852.9,230.719Zm25.744-.562c1.244,2.322,5.537-.412,7.42-1.042a16.832,16.832,0,0,1-2.433.1l-.471,0A8.812,8.812,0,0,0,878.648,230.157Zm-113.969.571a4.266,4.266,0,0,1,1.722-.079c-.308-1.171-.955-.981-1.759-.79a2.361,2.361,0,0,1-2.208-.291C762.179,231.145,763.43,230.936,764.68,230.728Zm-227.67-1.26c.346-1.557-.278-1.417-1.157-1.277a2.3,2.3,0,0,1-2.092-.393C534.243,229.546,535.48,229.483,537.009,229.468Zm221.486-.379c-.085-1.9-3.695-1.354-4.5-.5a2.367,2.367,0,0,0,2.154.4,6.926,6.926,0,0,1,1-.084A5.361,5.361,0,0,1,758.5,229.089Zm121.486-1.773c.974.69,2.768,1.729,3.56.473a2.2,2.2,0,0,0-1.989-1.393A1.827,1.827,0,0,0,879.981,227.316Zm-34.106,1.02a68.349,68.349,0,0,0,9.281-2.224,15.349,15.349,0,0,0-1.831-.108C850.652,226,847.695,226.67,845.875,228.336Zm-82.376-.7c-.848-.949-3.813-1.885-.626-2.477-.546-1.725-1.883-1.27-3.311-.814a5.528,5.528,0,0,1-2.281.4C759.2,226.793,760.269,226.623,763.5,227.641Zm-215.588-.087a5.721,5.721,0,0,1,1.952,0c-.156-1.5-3.093-1.159-4.362-1.943C545.8,227.876,546.649,227.714,547.911,227.553Zm306.679-.143q1.123-.2,2.242-.416a3.013,3.013,0,0,0-.111-.593,11.767,11.767,0,0,0-1.441-.274A2.321,2.321,0,0,0,854.59,227.41Zm36.921-.863c-.362-1.213-1.712-.838-2.071-2.054-.836.479-.181,2.044-2.054,1.767C887.732,228,889.906,226.827,891.51,226.547Zm-51.855-2.074c1.32,2.146,4.09,2.146,7.46,1.188.392-1.692-2.038-2.64-.461-3.708C844.112,222.6,843.6,223.153,839.655,224.474Zm-171.264,1.343c.736-.122,1.488-.223,2.214-.358a1.829,1.829,0,0,1-1.1-1.2c.4-.22,1-.414,1.538-.66a3.441,3.441,0,0,1-1.926-.224C669.109,224.506,668.347,224.622,668.391,225.816Zm9.564-.312c0-.888.008-1.773.66-1.823.07-1.3-1.535-1.642-2.743-1.443-.361.171-.748.357-1.1.56C675.042,224.46,676.179,225.295,677.956,225.5Zm175.6-2.351c.046,1.667,1.03,1.887,2.446,1.424-.034-1.18-.537-1.63-1.334-1.631A3.764,3.764,0,0,0,853.551,223.153Zm-296.513.685c2.718,1.453,3.638-.17,4.9-1.2-2.14-5.33-12.984-3.519-16.082-7.866-6.895-.46-12.747-2.768-19.7-4.351.175-.585.727-.464,1.281-.344.473.1.945.206,1.184-.129.32-1.909-3.109-2.287-3.433-.507-1.289-1.749-1.283-2.291-.175-4.6-5.424,2.63-2.943,6.347,3.641,7.708-.478.533-1.289.443-2.1.352a8.241,8.241,0,0,0-.92-.068c-.686,1.821,2.431,1.3,2.37,2.741.792.059.787-1.371,1.07-2.234a116.91,116.91,0,0,0,11.386,4.937c.6-1.04,1.3-.826,2.05-.612a1.791,1.791,0,0,0,2.317-.623c1.4,1-1.954.848-.479,2.432a10.1,10.1,0,0,0,3.265.062c1.293-.16,2.231-.32,4.753,1.038-.107.8-.84.5-1.573.2-.878-.362-1.757-.724-1.555.813,2.754-.205,4.67.916,6.573,2.548a4.541,4.541,0,0,0,.008-3.207C557.313,221.157,557.489,222.285,557.038,223.838Zm290.939-.24a9.343,9.343,0,0,1,2.841-2.681c-.836.141-1.669.295-2.5.453C847.8,222.225,847.6,223.081,847.976,223.6Zm-333.645-2.955c-.538,1.528.81,1.963,1.819,2.59.274-1.362-.34-2.772-1.245-2.772A1.08,1.08,0,0,0,514.331,220.643Zm232.309,1.219a2.571,2.571,0,0,0,2.8,1.2,1.541,1.541,0,0,0-1.586-1.732A1.565,1.565,0,0,0,746.64,221.863Zm110.675-.092c1.129,2.066,3.092,1.178,5.111.2a1.759,1.759,0,0,0-1.682-.808A21.192,21.192,0,0,0,857.315,221.771Zm-232.12,1.1c-3.878-3.683-14.158-4.461-17.926-6.574C608.389,220.518,619.523,221.346,625.195,222.868Zm-114.347-.193c2.713-.775,3.7-3.074.553-5.018,0,.524.423.794.278,1.4-7.086-2.477-7.659-3.607-13.435-6.9C494.481,217.525,507.76,220.88,510.848,222.675Zm228-.74c-.861-1.9-.205-1.781.685-1.663.86.114,1.94.228,2.08-1.478-2.26.535-1.913.11-4.433.015C736.245,219.859,736.745,222.486,738.851,221.936Zm-9.972-5.053c-.413,1.913.942,1.856.533,3.767.85-1.124,3.8.149,3.337-2.479.769,2.2,3.454.259,5.4.024a11.476,11.476,0,0,1-4.557-.744,11.956,11.956,0,0,0-3.445-.772A3.841,3.841,0,0,0,728.879,216.882Zm144.336,1.439a5.733,5.733,0,0,1,.589-.42c-.219.017-.432.038-.637.065A2.062,2.062,0,0,0,873.215,218.321Zm-188.033-.5a13.858,13.858,0,0,0,6-.012c-1.211-2.252-3.505.05-4.3-2.831-2.849.213-3.992,1.487-6.069-.511q-.092,1.565-.181,3.128a7.381,7.381,0,0,1,1.289-.1A23.112,23.112,0,0,1,685.183,217.82Zm-68.755-2.248c-.135,1.591,1.7,1.579,3.164,1.858.074-.62.148-1.241.221-1.858a9.809,9.809,0,0,0-2.159-.352A1.906,1.906,0,0,0,616.428,215.572Zm261.841.048a1.041,1.041,0,0,0,.279.769c1.055-.221,2.6-.081,2.136-1.445a5.685,5.685,0,0,1-.877.043h-.095c-.515.182-.955.332-1.349.454A1.118,1.118,0,0,0,878.27,215.619Zm-203.134.31c2.091.167,3.8.335,5.057-.263-1.631-3.286-6.052-3.44-8.238-1.411-1.923-3.144-3.8-5.522-8.079-3.4,1.29,1.949,5.295.078,5.748,5.037a21,21,0,0,1,2.336-.124C673.1,215.772,674.158,215.851,675.136,215.929Zm206.386.1a1.522,1.522,0,0,0,.71-1.5A3.047,3.047,0,0,0,881.522,216.031Zm-215.763-.554c.046-.624.09-1.251.135-1.874q-1.376-.157-2.751-.315C662.8,215.15,664.842,214.79,665.759,215.477Zm-63.466-.227c.184-2.157-2.887-1.777-4.151-2.81C598.47,215.427,600.705,213.675,602.293,215.25Zm11.447-.834c.736.145,1.472.286,2.21.428l.229-1.853C615.092,213.052,613.778,212.758,613.74,214.416Zm146.631.207c1.067-1.9,3.45-2.409,3.715-5.16C761.973,210.254,759.871,211.055,760.37,214.623Zm-3.019-.3c.7.275,1.226.552,1.893-.285.583-2.7-4.558-2.535-3.857.123a2.651,2.651,0,0,1,.751-.112A3.222,3.222,0,0,1,757.352,214.322Zm-244.817-6.689c1.233,3.3,4.843,1.977,7.99,4.114.138-1.474-.365-2.568.39-4.416a11.3,11.3,0,0,0-2.151-.209C516.828,207.122,515.245,207.617,512.535,207.634ZM995.51,210.2c-.165,0-.329-.012-.493-.019a12.1,12.1,0,0,0-1.959.027A21.5,21.5,0,0,0,995.51,210.2Zm-3.277-.055q.408.04.813.063c.905-.151.926-.748.84-1.4C992.972,209.071,992.018,209.311,992.234,210.147ZM529.979,209.1a1.59,1.59,0,0,0,2.055.027,1.59,1.59,0,0,1,2.05.023c-.338-1.184-2.194-1.417-3.039-2.284C530.887,207.974,530.1,207.917,529.979,209.1Zm189.643-1.165c.051,1.37,1.351,1.382,2.719,1.323-.938-1.3.423-1.216-.517-2.521a3.558,3.558,0,0,1,1.164.034c.982.127,1.967.254,1.59-1.219-.718.841-2.387.568-3.839.539A1.677,1.677,0,0,1,719.623,207.936Zm194.25.429c-.413.094-.815.175-1.2.241C913,209.312,913.419,208.912,913.873,208.365Zm-412.9-2.39c-.515,1.324,1.419,1.273,1.208,2.426.985.282.775-.408.565-1.1s-.418-1.377.566-1.1c-.035-.773-.319-1.021-.681-1.021C502.035,205.188,501.232,205.855,500.97,205.976Zm407.672,1.446a1.766,1.766,0,0,0,.877.914,1.462,1.462,0,0,1,.548-.921,2.4,2.4,0,0,0,.338.549c.174-.723,1.706-.515.884-1.918C910.551,206.6,908.308,206.118,908.642,207.422ZM727.3,206.846c1.464,1.861,2.128.576,3.831.05-.568-.716-1.015-.96-1.45-.96C729,205.937,728.346,206.536,727.3,206.846Zm-90.362.944c.96-1.147,2.156-4-.1-4.438C636.252,205.7,636.117,205.837,636.938,207.79Zm32.23-1.363c.013-.87-.9-.851-1.811-.833a3.378,3.378,0,0,1-1.43-.152c1.083,1.49-.234,1.319-1.727,1.055C664.676,209.089,667.583,206.515,669.168,206.427Zm-29.975,1.081c.607-.057.5-1.169,1.22-1.065a3.373,3.373,0,0,1-.366-1.954c-.647.123-1.491.886-.673,1.157-.415.58-1.315.45-1.279,1.7a1.842,1.842,0,0,1,.765-.326C639.044,207.02,639.172,207.147,639.193,207.508Zm-132.441-1.734c.952.9,1.964,1.8,3.44,1.665-.044-1.525-1.448-2.265-1.48-3.8-.543.712-1.6.4-2.653.085-1.216-.361-2.432-.722-2.861.488a2.451,2.451,0,0,1,.721-.113C505.029,204.1,505.864,204.935,506.751,205.773Zm106.909.392c.061-.882.128-1.771.783-1.749-.018-.722-.508-.447-.545-.1-.9-1.9-.961-1.007-1.21-.118-.172.617-.436,1.232-1.138.921C611.608,205.989,612.853,205.9,613.661,206.166Zm280.24-.1a5.893,5.893,0,0,0,.751-.212h-.036A1.065,1.065,0,0,0,893.9,206.064ZM648.467,203.22c-.629,1.084,1.447,2.312-.227,2.489.451,1.046,2.39-1.7,3.009-2.728-1.916-.482-1.184-1.9-3.218-1.087.095.873,1.325.715,2.128.936-.118.536-.649.48-1.183.424-.163-.017-.326-.034-.477-.034Zm-153.988.908a11.082,11.082,0,0,0,6.083,1.039c-3.7-2.952-13.124-5.646-11.572-1.871a3.849,3.849,0,0,1,1.522-.306A11.239,11.239,0,0,1,494.479,204.128Zm22.868.657c.931-2.155-1.653-4.86,1.507-4.019-1.919-2.932-9.112-1.08-9.662-4.136,4.453.073,11.333,4.792,14.3,1.847-5.21-4.644-10.846-2.874-16.834-6.055q-.228.942-.453,1.885c-8.116-4.652-18.544-9.292-28.757-10.944-.544-.4-.039-1.339-.744-1.652a11.732,11.732,0,0,0-3.551-.2c-.4,1.886,2.395,2.152,3.974,3.028-.191.862-.377,1.714-1.032,1.546,4.958,3.479,14.793,5.774,21.981,12.233,1.931.038,3.785-.1,5.1-1.318,1.47,1.106-.8,1.8-.732,2.987a1.814,1.814,0,0,0,1.8.019c.77-.268,1.429-.536,1.623.611,1.717.072.831-.665,1.124-2.192,2.537,1.93,4.392,3.4,6.268,3.6.092,2.218-1.924.321-3.02.2C511.444,204.971,515.516,205.538,517.347,204.785Zm-31.881-4.224c-.074-2.017,1.493-.571,2.5-.309-3.21-2.975-11.661-4.64-17.644-8.695C472.806,197.8,479.974,197.137,485.466,200.561Zm425.92-.315q.117-.106.24-.2a6.87,6.87,0,0,0-.739-.009C910.914,200.167,911.041,200.247,911.386,200.246Zm-573.3-2.865a25.741,25.741,0,0,1-3.689-3.062C334.661,196.317,336.216,196.926,338.084,197.381Zm595.013-1.7c.558-.34.117-1.324.835-1.56-.8-.01-3.3-.113-5.284-.271a2.813,2.813,0,0,1,.92,1.653,5.617,5.617,0,0,1,2.026-.484A1.815,1.815,0,0,1,933.1,195.679Zm-463.9-6.6c3.253.627,3.873,1.38,7.207,2.444-3.847,1.569,6.3,4.813,7.592,3.173-4.478-4.6-12.306-4.486-15.044-9.045C467.958,187.337,469.288,187.853,469.2,189.076Zm-147.367,1.711c1.317,1,2.6,1.884,3.536,1.685,1-1.559-.4-2.545-2.026-3.509C322.983,190,322.163,189.671,321.832,190.786Zm132.113-3.919c4.051.823,5.078,2.889,7.605,5.476.892-.268,1.524-1.119,2.677-.8-.418-1.732-1.062-1.49-2.534-1.8,1.116-2.035,2.907-2.533,5.348-1.613.994-2.016-.115-2.983-2.023-3.556-.861,1.439.729,1.666.4,2.841-3.319-.137-6.191-1.991-8.57-1.992A3.522,3.522,0,0,0,453.945,186.867Zm-125.183,4.646a16.808,16.808,0,0,1-1.807-1.2C327.8,191.536,328.414,192.138,328.761,191.513Zm140.333-8.458c-.166,2.255,1.687,1.508,2.687,1.178.174-1.017-1.024-1.282-1.893-1.282A2.318,2.318,0,0,0,469.094,183.056Zm-22.149-3.5a3.648,3.648,0,0,0,1.965,1.613c.206-.863.418-1.707,1.076-1.509,0-.843-.95-1.408-1.786-1.408A1.151,1.151,0,0,0,446.945,179.553Zm618.078.221c1.563,1.653,3.776-1.219,4.556-1.8a.917.917,0,0,0-.935-.613A5.416,5.416,0,0,0,1065.023,179.773Zm-658.206-5.948c.383-1.294-2.178-1.49-3-2.34C403.258,173.05,405.854,174.235,406.817,173.825Zm-61.966-5.176a5.853,5.853,0,0,0,3.913-.225c-1.62-1.025-3.206-1.537-5.053-.459a3.362,3.362,0,0,0,.236.539C344.241,168.545,344.544,168.6,344.851,168.649Zm672.163-3.182c.555,1.31,2.453-.762,2.673-1.256-.3-.538-.607-.748-.9-.748C1018.079,163.463,1017.441,164.72,1017.014,165.468Zm292.513-3.532c1.959-2.661,2.267-2.094,4.963-4.8-.827-.334-3.462.876-4.692,2.364-.223.524-.417,1.1-.619,1.736A1.523,1.523,0,0,0,1309.527,161.936Zm-900.949-.16c.229-1.4-2.52-1.676-3.485-2.64C404.132,162.517,406.715,160.232,408.578,161.776Zm-22.571-4.7c1.923-.059-.4-2.763-1.975-3.263C382.447,156.285,386.3,156.175,386.006,157.079Zm-108.775-8.5c.5,1.984,2.161,1.5,3.437,1.963.978-1.214-1.14-2.95-2.469-2.95A.9.9,0,0,0,277.232,148.583Zm1070.661-2.5c1.166,1.118,2.991-.772,4.55-1.481a1.145,1.145,0,0,1-.089-1.552,1.193,1.193,0,0,0-.411-.071C1350.815,142.981,1349.379,144.415,1347.892,146.085Zm-1094.648-2.02c.583-1.921,1.852-.785,1.407-2.6l-1.053-.879C252.775,142.361,251,142.05,253.244,144.066Zm171.989-1.247a7.453,7.453,0,0,0-1.41-1.241l-.018.027a10.453,10.453,0,0,1-2.743.966C422.8,143.6,424.741,145.157,425.233,142.818ZM1383,138.172c1.04.643,3.661-3.282,3.812-4.241-.294-.408-.7-.255-1.1-.1-.516.2-1.03.392-1.311-.585-1.873,1.679-1.322,3-3.472,4.7.465.46,1.271-.7,1.959-1.329A1.144,1.144,0,0,1,1383,138.172Zm-6.782-8.455c1.758-.586,2.363-2.329,2.87-3.327a20.323,20.323,0,0,1-3.019,2.729A4.163,4.163,0,0,0,1376.222,129.716ZM860.081,538.022c.061.62.12,1.244.181,1.865-1.389.072-1.544.954-2.85,1.077C856.884,539.065,859.07,538.925,860.081,538.022Zm-264.977,1.8c1.182.417,1.5-.134,1.811-.685.331-.581.663-1.162,2.013-.607l-.192,1.868a5.29,5.29,0,0,1-2.014.376C595.89,540.779,595.119,540.559,595.1,539.826Zm245.229-.2c-.051-.624-.1-1.251-.15-1.875a2.529,2.529,0,0,0,2.479-.029c.979-.383,1.759-.765,1.981.684a2.971,2.971,0,0,0-2.152.609,2.934,2.934,0,0,1-1.857.62Q840.492,539.638,840.334,539.628Zm-111.545-2.1c-.409-2.5,1.57-2.052,3.472-1.6a7.638,7.638,0,0,0,2.327.337c-.125.935.26,2.3-.729,2.507C733.869,535.045,731.112,537.08,728.789,537.527Zm132.62-.977c.718-2.136,2.342-.2,4.423-.072a2.42,2.42,0,0,1-1.9,1.2A5.129,5.129,0,0,1,861.409,536.55Zm-198.494-2.344c3.322,2.848,9.356,1.229,12.186,3.4C670.989,536.828,664.866,537.883,662.915,534.207Zm12.324.277c1.492.772,2.184.47,2.708.167.509-.293.859-.587,1.631.1-.871.085-.472.664-.054,1.247C677.6,535.883,675.248,536.081,675.239,534.484Zm-8.678-.615c1.2.088,2.3.081,3.3.074a12.864,12.864,0,0,1,4.653.491c-.565.1-.861.457-.782,1.2C672.224,534.386,667.8,535.332,666.561,533.869Zm28.215,1.657c.973-2.057-4.65-1.893-2.821-2.627,3.039.709,4.137-.2,5.729,2.123a2.5,2.5,0,0,0-1.522.244,2.437,2.437,0,0,1-1.387.26Zm34.752-1.75c3.124-1.752,7.137.233,9.4,1.2C736.086,534.343,731.847,534.9,729.527,533.776Zm134.534-.167c2.675-.949,4.994-2.883,7.241-1.2a10.132,10.132,0,0,0-3.806.709,10.709,10.709,0,0,1-2.732.724A.969.969,0,0,1,864.061,533.608Zm13.239-.346c1.8-.951,4.723-1.959,5.864-.426a9.665,9.665,0,0,0-2.441.451,10.423,10.423,0,0,1-2.364.452A1.089,1.089,0,0,1,877.3,533.262Zm-56.955.337c-1.549.064-3.1.129-3.231-1.273,1.922-.208,4.148-.205,5.022-1.168l.171,2.488A9.36,9.36,0,0,0,820.346,533.6Zm16.278-3.566c-.779,1.774,1.282,1.652,2.781,1.532,1.1-.089,1.9-.178,1.038.49a6.539,6.539,0,0,1-2.448.471C835.683,532.525,834.056,531.294,836.624,530.033Zm64.468-1.966c2.831-.652,7.868-3.024,9.294-2.615-2.06.787-5.752,2.8-8.185,2.8A2.986,2.986,0,0,1,901.092,528.067Zm-427.669-4.736c.317.152.532.348.336.723A3.166,3.166,0,0,0,473.423,523.331Zm-.268-.115.206.021c.021.031.042.062.062.094C473.339,523.29,473.248,523.253,473.155,523.216Zm308.017-1.046c.864-.186.418-.722-.043-1.251a5.739,5.739,0,0,0,1.872-.126c1.179-.193,2.357-.388,2.452.473a4.211,4.211,0,0,0-2.115.639,4.7,4.7,0,0,1-1.645.648A.513.513,0,0,1,781.172,522.17Zm60.063-6.591c-.321-1.389-.025-2.356,1.211-2.681-.406,1.654,4.968.359,2.362,2.193-.445-1-.95-.5-1.648-.007a2.487,2.487,0,0,1-1.422.573A1.683,1.683,0,0,1,841.235,515.579Zm-473.292-8.216c1.939,2.981,5.873-.39,5.376,3.718C371.656,509.805,366.825,509.49,367.943,507.363Zm510.345,2.319c-9.592.771,3.224-.428,4.905-1.535q.107.926.219,1.852a5.937,5.937,0,0,1-1.927.353A18.419,18.419,0,0,1,878.288,509.683Zm6.966-2.565c-.622-2,6.1-4.614,5.44-2.948-1.048.312-2.645.29-2.762,1.175,1.545,1.373,4.705.7,7.648.018,2.7-.622,5.216-1.243,6.143-.283,0,1.015-.668.83-1.259.645-.659-.206-1.229-.412-.7,1.037-3.934.141-8.313-.378-11.447,1.673C889.321,505.968,888.029,506.57,885.254,507.118Zm23.019-2.182c1.809-.652,1.885-2.309,3.993-2.794.238,1.271-2.058,3.044-3.35,3.044A.813.813,0,0,1,908.274,504.935Zm-625.02-.845c-2.354-1.905-4.225-.589-4.079-2.967,1.049.416,1.268-.788,2.043-.91,2.242,2.678,4.874,2.879,6.337,1.459a3.249,3.249,0,0,0-.11,2.68C285.44,503.111,283.575,502.125,283.253,504.09Zm28.534-11.227c2.389,1.616,2.593,3.352,5.47,3.525a1.464,1.464,0,0,1-1.372,1.1C314.072,497.488,311.517,494.26,311.787,492.863Zm604.561-13.726c-.294.115-.6.225-.88.345A5.423,5.423,0,0,1,916.348,479.137Zm-588.593-4.012a2.973,2.973,0,0,1,.71.094.537.537,0,0,1-.3.1A.58.58,0,0,1,327.755,475.125ZM996.6,471.351c3.16-.422,5.269-4.154,7.489-3.217-1.489.943-4.347,3.4-6.537,3.4A2.354,2.354,0,0,1,996.6,471.351Zm43.9-8.278a14.661,14.661,0,0,0,2.306-2.889,2.616,2.616,0,0,0-1.452.058c-1.045.217-2.093.435-1.906-1.349,2.546-1.039,3.037,1.256,4.89,1.336-1.929.668-2.136,1.865-.92,2.344a11.894,11.894,0,0,1-2.377.777A.57.57,0,0,1,1040.494,463.073Zm5.83-1.009c5.274-1.845,12.431-5.786,12.713-3.934,1.463-1.843,5.858-4.775,4.535-5.913-3.511,1.22-11.55,6.275-13.2,4.892,4.639-2.1,15.027-6.8,20.38-6.684-3.291,2-3.737,1.83-7.38,3.868-.516,4.226-11.667,7.891-15.958,7.891A4.024,4.024,0,0,1,1046.324,462.064Zm-1.759-3.9c1.679-.775,3.3-1.463,3.743-.209-1.57.854-1.065,2.473-2.143,3.513C1045.822,460.051,1044.53,460.181,1044.565,458.165Zm-16.874,2.009c.892.276,1.742-.279,2.6-.835.974-.627,1.963-1.255,3.047-.683-1.088.453-3.121,2.184-4.526,2.183A1.211,1.211,0,0,1,1027.691,460.174Zm-7.075-4.523c1.778-.334,4.129-1.579,4.548.256a21.729,21.729,0,0,1-3.265.724A1.156,1.156,0,0,1,1020.616,455.65Zm-784.246-2.492c3.462.451.757-3.887,2.541-4.013-.533,3,4.94,1.928,3.2,4.861a2.567,2.567,0,0,0-2.583.192,4,4,0,0,1-1.524.476C237.413,454.674,236.861,454.315,236.371,453.158Zm836.6-3.052c-.147,3,2.032,1.39,4.166-.224,1.77-1.339,3.511-2.678,3.865-1.377-4.005,2.454-3.88,2.968-7.725,5.453C1071.9,453.542,1072.215,451.331,1072.974,450.106Zm-8.843-1.44c1.027.235,2.613-.495,4.2-1.226,1.664-.767,3.325-1.534,4.333-1.181-.384.167-.642.819.166.6.023-.533.382-.949,1.2-1.2.569,2.616-4.617,3.222-7.7,3.222A5.885,5.885,0,0,1,1064.13,448.666Zm18.075-1.376c1.921-1.005,3.707-1.79,3.934.2a4.039,4.039,0,0,1-2.2.9A2.163,2.163,0,0,1,1082.205,447.29Zm4.782-2.2c1.959-.8,4.523-2.693,5.126-1.062a10.211,10.211,0,0,1-4.008,1.434A1.634,1.634,0,0,1,1086.987,445.094Zm13.626-6.461c-.426-.6,1.337-2.965,1.858-1.571-.134,1.474.622.685,1.517-.1.95-.838,2.057-1.676,2.424.2-2.217.592-1.689,1.991-3.9,2.573-.3-.377-.374-1.139-1.037-.834a13.7,13.7,0,0,1-5.508,2.374C1095.274,441.266,1096.148,440.517,1100.613,438.633Zm6.788-3.317c5.1-2.114,5.811-1.373,8.617-5a2.18,2.18,0,0,0,1.238,1.4c-1.99,1.929-5.3,4.147-7.907,4.147A3.378,3.378,0,0,1,1107.4,435.316ZM215.944,431.16c-1.187.945-2.632,1.3-5.042-.589a31.273,31.273,0,0,1-3.02-7.11c2.038-.082,3.848-.68,4.913-3.053,2.2,1.907,4.432,1.66,6.4,1.412,2.2-.276,4.068-.553,5.161,2.189-4.729-2.7-4.028,2.375-5.114,3.673-1.286-1.8-3.424-3.525-4.672-5.33-.349.674-1.208.158-1.412,1.178,4.406,3.622,3.827,7.7,7.3,11.4C217.517,432.9,216.969,433.636,215.944,431.16Zm6-1.644c.4-.92.808-1.836,1.21-2.756,5.792,4.712-.319,2.573,2.626,6.026C222.962,432.159,224.274,431.319,221.947,429.516Zm863.939,1.371c2.393-.466,5.828-5.109,5.213-3.128-2.412,1.928.281,1.623,1.386,2.02-1.8.664-3.751,1.585-5.2,1.585A1.984,1.984,0,0,1,1085.886,430.887Zm11.088-6.625c6.256,1.843,14.607-6.763,21.03-7.16-2.367,1.31-6.834,5.286-9.562,4.193-4.172,4.836-7.751,2.778-13.935,7.522C1093.937,426.87,1096.908,426.013,1096.974,424.262Zm-883.233-11.8c2.127,1.546,2.555.7,2.966-.153.432-.892.846-1.784,3.186.093-.685,2.514-3.029,1.075-3.544,4.013C214.951,415.139,214.742,413.753,213.741,412.458Zm884.227,2.568c2.95-1.222,6.764-4.117,8.365-2.8-3.55,1.46-5.534,2.943-7.4,2.943A3.327,3.327,0,0,1,1097.969,415.026Zm23.666-1.172c1.824-1.339-1.325-.36-1.238-1.383a6.014,6.014,0,0,1,4.959.79,5.347,5.347,0,0,1-2.607.912A1.957,1.957,0,0,1,1121.635,413.854ZM119.605,363.11a2.687,2.687,0,0,0,2.229-.249,2.662,2.662,0,0,1,3.371.466,2.792,2.792,0,0,1-2.352.863C121.392,364.19,119.812,363.673,119.605,363.11ZM97.16,354.885c5.2-1.147,10.687,6.234,16.194,7.39a2.7,2.7,0,0,1-1.478.384C107.646,362.659,99.908,355.922,97.16,354.885Zm15.179,5.748c.841-1.193-.078-2.47-.767-3.745-.39.671-2.158-.911-1.931-1.7,3.389.835,3.542,2.65,6.449,5.639a1.707,1.707,0,0,1-1.458.887A3.915,3.915,0,0,1,112.339,360.634Zm-18.666-7.923c-2.056-1.316-3.6-2.632-.68-.809,1.248.879,4.092-.4,4.461,2.473a.493.493,0,0,1-.214.04A10.355,10.355,0,0,1,93.673,352.711Zm860.658-1.023c3.165-.594,3.513-2.742,6.694-3.342-1.307,1.453-3.6,2.36-5.345,3.576A8.012,8.012,0,0,1,954.331,351.688Zm-.034-.009.034.009-.039.007ZM95.373,347.851c2.385-1.037,5.776,2.371,6.961,3.165C99.276,350.613,98.9,349.754,95.373,347.851Zm866.407.9c4.617-1.318,7.512-3.926,10.9-5.772.114,1.059.785,1.2,1.127,1.9-2.437,1.219-5.8,4.33-9.591,4.33A6.7,6.7,0,0,1,961.78,348.753Zm10.879-6.093q.221.048.445.093-.216.112-.428.228A3.07,3.07,0,0,1,972.659,342.66Zm-876.07-8.478c-.48-1.449.679-2.766,1.47-4.111,2.1,2.108,1.863,4.023,1.368,5.919A6.012,6.012,0,0,0,96.589,334.182Zm935.061-29.99c.662,2.177-2.206,2.9-4.328,3.894C1026.952,306.026,1029.592,305.239,1031.65,304.192ZM149.314,285.64c1.162,1.686,3.615.489,3.3,2.136-2.275-1.3-1.172.69-1.157,2.055C150.146,288.422,149.155,287.03,149.314,285.64ZM1284.4,273.534c-3.057,1.484-.643,3.1-2.782,4.6C1279.764,276.839,1282.934,273.043,1284.4,273.534ZM66.05,263.079c2.81,1.77,7.947,3.506,9.923,7.683C72.578,266.79,67.976,267.174,66.05,263.079Zm12.036-3.112c1.188,1.027.953,1.871,2.057,2.885,4.54-2.964,1.228-5.821-1.6-8.1,2.242-.453,5.114,1.664,7.822,3.065-2.7-.343-1.272,2.9-.746,5.69-1.249,1.4-5.1-.661-3.127,3.314C81.434,266.327,76.889,261.841,78.086,259.967Zm1062.2-3.434q-.6.436-1.209.864A9.571,9.571,0,0,1,1140.289,256.533Zm-37.246-1.771a5.62,5.62,0,0,0-2.1-.068c2.372-1.84,3.58-.823,4.9-.06a4.052,4.052,0,0,1-1.469.271A8.01,8.01,0,0,1,1103.043,254.762Zm8.445-7.62c-.365.18-.711.321-.79-.214,1.363-.749,5.977-4.148,4.459-1.282-.785-.977-1.855,2.119-3.233,2.631Zm207.923-10.77c1.791-1.458,1.129-2.812,2.91-4.278,1.067,1.255-1.063,4.592-2.348,4.592A.657.657,0,0,1,1319.411,236.372ZM70.16,228.856c-1.015,1.18-2.459.485-3.9-.21-1.337-.643-2.676-1.287-3.672-.436-2.278-1.421.625-2.013-1.646-3.437a3.012,3.012,0,0,0-2.166-.141,3.332,3.332,0,0,1-1.793.015c1.577-.79-.693-2.233-1.636-3.45-.759,4.171-3.1.77-4.443-2.372a2.407,2.407,0,0,0-2.245,1.717c-1.9-1.415-1.021-2.316-2.533-3.651-4.744,1.628-10.84-3.112-16.059-3.723,1.33,2.564-2.138.815-1.129,2.967-5.573-4.344-15.647-8.8-14.8-17.232,1.345.2,3.128,2.624,4.005.4,3.091,6.871,5.565,13.536,10.9,10.981-1.689-6.215-9.3-13.785-12.265-20.41,3.109-2.583-2.5-6.34-4.171-8.515.838-1.732,2.158-.8,3.213-1.357,2.374,4.212,7.375,7.488,5.63,9.363,1.623.116,3.564-.256.491-2.023.931-1.2,1.776-2.838,2.989-2.517-.767-4.091-.64-7.979-2.232-12.26,2.138,1.342,1.812,2.652,3.8,1.956,8.553,11.3,9.394,20.032,12.9,28.859a26.794,26.794,0,0,1,5.44,5.308c.856-1.471,1.868-2.206,3.162-1.512,2.63,4.476,6.194,7.248,8.268,4.135,10.061,11.08,19.631,9.023,24.337,21.119a10.734,10.734,0,0,1-3.389.518C74.373,232.952,71.189,231.941,70.16,228.856Zm1072.154-4.546a13.489,13.489,0,0,1-6.23,4.067A18.992,18.992,0,0,1,1142.313,224.31Zm-933.842-2.848c.517-1.211,2.12,1.445,3.1,1.846-.283.522-.563,1.042-.846,1.562C209.781,223.749,206.935,222.716,208.472,221.462Zm714.053,2.167c3.128,0,4.616-2.274,6.616-2.076-1.512,1.211-3.367,2.438-5.1,2.438A3.231,3.231,0,0,1,922.524,223.629Zm-449.308-7.006c.161.06.33.127.5.2A2.527,2.527,0,0,1,473.216,216.624Zm724.063-.422q-.146.251-.306.5A.95.95,0,0,1,1197.279,216.2Zm-194.458-10.273c.291.643,1.048.256,1.809-.144-.255-.908.925-2.605,1.091-.489-1,.362-1.108,1.156-.579,2.255a1.58,1.58,0,0,1-.581.094C1003.447,207.645,1001.836,206.888,1002.821,205.928Zm-3.37.85c-.607.321-1.215.642-1.337-.1a8.333,8.333,0,0,0,5.116-3.591c.174.586.344,1.174.518,1.764-2.028.368-2.12,1.679-2.948,2.633C1000.915,206.006,1000.184,206.392,999.451,206.778Zm10.309-6.649c.129.41.439.409.748.406.269,0,.538,0,.688.266-1.108,1-1.1,2.516-1.307,3.938-.762.624-1.124.337-1.487.05a.9.9,0,0,0-1.043-.236,1.989,1.989,0,0,1-.578,2.258C1006.182,202.7,1009.76,203.528,1009.76,200.129Zm-616.431,6a1.569,1.569,0,0,1-.144.477A1.114,1.114,0,0,1,393.329,206.133Zm-11.864-13.351a5.364,5.364,0,0,0,.433,2.328,2.862,2.862,0,0,0,1.855.371c.88-.038,1.531-.076,1.378,1.49-1.645-1.018-2.832-.787-4.2-1.043.267-4.091-5.467-4.438-6.431-7.236a2.224,2.224,0,0,1-1.088,2.823c-2.054-1.749-5.307-3.126-7.62-2.489-.189.873.509,1.481.4,2.335-3.455-2.083-3.646-4.615-6.138-7.967,2.082,1.742,5.136,2.627,3.33-.034,1.6.324,3.536.9,3.508,2.857a6.569,6.569,0,0,0,2.649-.795c1.521-.7,2.98-1.395,4.22.061a3.809,3.809,0,0,0,.349-2.577c1.575,1.452,1.582,3.418,2.637,5.036.463.157.759-.149,1.055-.454.419-.433.838-.866,1.728.017-.161,4.026,12.569,9.838,12.193,5.629,4.724,3.711,11.409,3.793,13.384,9.4a3.5,3.5,0,0,0-2.02.28c.344,1.358,3.233,1.746,2.652,3.462C398.278,201.439,387.85,196.569,381.465,192.783Zm595.2,10.985c.278-.851,6.258-2.58,5.6-1.616-1.433.258-3.526,1.888-4.847,1.888A1.038,1.038,0,0,1,976.663,203.767Zm35.436-2.041c1.5-.816,3.883-1.235,3.447-2.948-1.058.11-2.981,2.2-3.437.932,1.842-2.52,4.58-2.372,7.425-2.224a15.564,15.564,0,0,0,4.876-.256c-2.186,2.715-8.462,4.54-11.559,4.54A5.658,5.658,0,0,1,1012.1,201.726Zm-408.943-.9c0,.025,0,.05,0,.074A.618.618,0,0,1,603.156,200.829Zm348.311-1.764c.1.468.19.969.3,1.431A1.624,1.624,0,0,1,951.467,199.064Zm42.341-1.137c-1.354.5-2.635,1.033-3.086,2C989.636,197.543,993,196.783,993.808,197.927Zm30.6-.7c.387-.334,1.068-.539.9-1.112a3.185,3.185,0,0,1-1.716.083,3.2,3.2,0,0,0-2.984.847c-.643-1.464.662-2.05,1.62-2.791,2.487.274,11.949-1.625,11.338-5.6.785.5,1.829.4,2.377,1.5-2.678,3.144-6.455,7.5-9.828,7.495A3.624,3.624,0,0,1,1024.41,197.23Zm225.535-.746c2.965-.838,6.351-6.467,7.807-5.216-.858.969-5.328,5.288-7.4,5.287A1.112,1.112,0,0,1,1249.944,196.484Zm-743.869-1.66.125-.519q1.338.767,2.588,1.53Zm-133.72-.588.041-.105q.038.062.078.116Zm18.188-3.15c.458.107.8-.126.948-.841,1.276.535,1.961,1.27,1.724,2.347a1.313,1.313,0,0,1-.378.04C391.989,192.634,390.243,192.269,390.543,191.087Zm-54.76.878c.1-.075.223-.056.376.1C336.043,192.042,335.918,192.007,335.783,191.965Zm701.682-3.346c-.636.24-1.085.481-.286-.445,1.371-.615,2.051.239,1.965-1.682-.3.155-.772-.155-.2-.576a3.489,3.489,0,0,0,1.661,1.181c-.092-.369-.153-.728.339-.86.854,1.676-.529,2.445-2.114,3.126C1039.082,188.092,1038.162,188.355,1037.465,188.618Zm152.338-2.47a5.779,5.779,0,0,0-2.482,2.627C1185.7,187.691,1189.214,183.789,1189.8,186.149ZM171.067,180.527l.093.049ZM963.205,176.9q.791-.306,1.588-.62c.583,1.355-.637,1.672.237,3.185a1.236,1.236,0,0,1-.517.123C963.352,179.59,962.852,177.586,963.205,176.9Zm-499.493.733a1.211,1.211,0,0,1,.265.634A5.866,5.866,0,0,0,463.712,177.635Zm502.512-2.575c3.782.644,8.339-2.73,8.7-5.849-.13.034-.433-.392-.8-.819-.659-.76-1.531-1.521-2.011.329-1.081-1.055.751-2.788-.635-2.372a24.018,24.018,0,0,0-1.83,4.045,10.771,10.771,0,0,1-3.465.069c.1.731.53,1.654-.056,2-.431-3.635-2.928.224-3.839.853.4-2.476,3.478-3.421,3.643-6.042,1,1.812,1.052-.091,2.775-.46-.1-.731-.54-1.641.043-1.991.253.2.672-.207,1.215-.619a1.979,1.979,0,0,1,2.6-.292c-1,.781-.861,1.387-.041,2,2.314-1.982,5.851-1.465,7.855-5.287,1.185,3.2,2.653.775,4.492-.617.339.844.434,2.265,1.2,2.136,1.022-.629.589-2.029.878-3.046-.853.538-3.386.239-2.058-1.084.277.829,1.13.308,1.984-.213s1.707-1.043,1.986-.212c-1.165.393-1.511,1.213-1.05,2.463.441-1.091.825-.822,1.358-.553a1.514,1.514,0,0,0,1.934-.251c.647,1.453,1.213,3.113,2.245,3.655.236-2.224,1.435-1.735,2.742-1.247a3.185,3.185,0,0,0,2.3.286,11.677,11.677,0,0,0,1.536-6.723c1.746-.359,2.094-1.058,2.765-.626-1.012.664-.555,2.05-.841,3.068,3.607-.23,4.563-1.352,7.781-3.693,1.172,1.289,2.443,1.623,3.664.237-1.06,2.564-8,2.274-8.288,6a2.632,2.632,0,0,1-1.324.223,2.6,2.6,0,0,0-1.984.652c.53.743,1.213,1.118,1.749,1.859-8.709,1-19.249,11.826-28.844,10.692-.894,2.57-2.709,2.464-4.349,2.359-1.569-.1-2.977-.2-3.262,2.041C966.89,176.058,967.068,176.742,966.225,175.06Zm18.036-6.82c.593-.363.145-1.273.028-2a3.231,3.231,0,0,0-2.782.536c-.058,1.424.661,1.078,1.378.734a2.391,2.391,0,0,1,.884-.3C984.085,167.2,984.294,167.444,984.261,168.24Zm34.64,9.476a2.12,2.12,0,0,1,3.557-.4,6.453,6.453,0,0,1-2.464.658A2.2,2.2,0,0,1,1018.9,177.716ZM172.481,168.17c5.075-2.013,15.114,2.52,18.64,9.6C184.395,171.377,177.057,171.619,172.481,168.17Zm220.663.267c3.358,2.06.328-1.947-.2-2.867,2.11,2.782,4,5.17,7.616,5.031a2.475,2.475,0,0,1-1.142,1.414,2.01,2.01,0,0,1,1.155,2.026C397.661,171.5,395.861,171.09,393.144,168.438ZM0,171.169c.214-3,2.686-1.071,4.691-.378-.242,1.008-.085,2.126-.327,3.14C2.889,172.892,1.656,173.277,0,171.169Zm1065.746,2.278c1.172-1.188,1.656-1.039,2.025-3.229.152.4.465.366.777.333.27-.03.54-.059.707.193-.249.788-1.577,2.951-2.826,2.951A1.08,1.08,0,0,1,1065.746,173.447Zm125.048-3.588c1.269-.044,2.67-.561,3.486.973-1.172-.671-3.036.187-4.466,1.044-1.072.643-1.9,1.285-2.008,1.285S1188.46,172.359,1190.794,169.859Zm-802.77-3.011c1.57-1.538-1.641-1.377-.923-2.618.635.227,1.055-.148,1.47-.513,1.763,2.523,2.6,2.92,3.835,5C389.9,167.757,389.876,167.014,388.023,166.847Zm692.8-1.49c1.233-1.1,4.173-2.722,5.195-1.736-1.514.345-3.412,1.78-4.8,1.779A1.7,1.7,0,0,1,1080.826,165.357Zm-696.969-.97c.074-1.994,3.945-2.224,2.426-1.336-1.628-.577.454,1.354-.127,2.006A3.1,3.1,0,0,0,383.857,164.387Zm290.913-3c-.746.043-1.493.087-1.384-.761-.408-.891-.374-.809-1.8-3.944,2.194.809,4.283,1.72,4.322,4.8A2.3,2.3,0,0,0,674.771,161.383Zm419.17-2.641c-2.222,1.726-2.93.859-4.219,2.615C1088.562,159.557,1093.6,157.195,1093.94,158.742Zm-779.794-2.628c2.647.161,6.044,2.9,9.355,5.22C320.378,160.278,312.377,161.111,314.146,156.114Zm788.918,3.9c1.613-1.105,3.028-1.628,4.151-1.263-1,.271-2.539,2.125-3.457,2.125C1103.43,160.873,1103.181,160.638,1103.063,160.011Zm-792.031-6.162c1.039.6.859,1.444,1.823,2.055-1.3,1.6-2.3.721-1.523,3.247C308.47,157.966,311.442,155.553,311.033,153.849Zm748.86,3.627c.471,1.225,1.519.846,2.569.467a2.876,2.876,0,0,1,1.941-.278c-.273.925-1.622,1.419-2.795,1.419C1060.412,159.083,1059.4,158.57,1059.893,157.476Zm37.724-1.046c-1.111-1.354-1.021,1.569-2.632,1.66C1093.186,156.433,1099.6,153.837,1097.617,156.43Zm-597.843-1.377a2.432,2.432,0,0,1,1.317-.013c1.031.166,2.061.33,1.993-1.959,2.574,1.221.187,2.987-1.674,2.987A1.543,1.543,0,0,1,499.774,155.053Zm617.673-2.337q-1.311.883-2.624,1.754C1113.493,152.155,1116.787,150.822,1117.446,152.716Zm150.18-2.108c.476.9,1.164.917,1.954.527-1.519-.917.97-4.279,2.079-3.519-2.054,1.5-.255,3.024-2.314,4.523a5.967,5.967,0,0,1-1.7.39C1266.946,152.529,1266.608,152.115,1267.627,150.608Zm-252.547-9.422a3.667,3.667,0,0,0,2.559-.348,2.893,2.893,0,0,1,2.611-.222c-.387-1.074-.013-1.426.828-1.105-.55-1.4-1.024-2.759.058-3.412,1.653,1.058,4.063.094,5.748,1.087a12.591,12.591,0,0,1,.741-3.109,2.676,2.676,0,0,0,1.1,1.472c-.935.4-.992,1.187-.426,2.255-2.183,1.452-3.231-.145-4.856-.183-1.276,1.235-1.33,3.011-2.107,4.464-2.479-.4-5.386,3.471-9.417,4.047C1014.514,145.205,1014.438,143.032,1015.079,141.186Zm261.676,2.388c2.634-1.446,3.144-7.4,5.832-5.613-.54,1.535-4.251,5.616-5.764,5.616C1276.8,143.576,1276.778,143.575,1276.755,143.573Zm56.557-2.785c1.322-2.53,4.7-6.232,6.3-4.231-2.56.05-3.795,4.308-5.82,4.308A1.544,1.544,0,0,1,1333.312,140.789Zm-156.374-4.542c-.313-.81,1.743-4.441,2.6-2.064-1.356.278-1.4,2.353-2.085,2.353A.8.8,0,0,1,1176.938,136.247Zm-76.893-2.542c.216-.8,2.761-3.335,3.589-2.356-1.289.358-1.9,2.617-2.95,2.617A1.043,1.043,0,0,1,1100.045,133.7Zm-58.812-1.872a.545.545,0,0,1,.187.268A2.247,2.247,0,0,1,1041.232,131.832Zm-1.749-.037c.906-.2.94-3.074-.306-2.574-.4.961-.949.457-1.8-.046a4.345,4.345,0,0,0-1.124-.5,13.155,13.155,0,0,0,3.589-.829c2.007-.664,3.891-1.328,4.8-.289-2.2-.463-4.542,2.357-3.409,4.274-.209-.148-.507-.042-.805.064a1.8,1.8,0,0,1-.553.136A.412.412,0,0,1,1039.483,131.8Zm252.165-1.144q1.05-1.044,2.1-2.094c1.181,1.1-.084,2.963-1.146,2.963C1292.214,131.519,1291.853,131.272,1291.648,130.651Zm-130.118-.9c2.04-1.15,5.253-6.581,5.388-4.911-1.484,1.314-2.876,4.94-5.053,4.94A2.017,2.017,0,0,1,1161.529,129.748Zm-126.194-1.153a2.733,2.733,0,0,1,.922.081h-.108A3.784,3.784,0,0,1,1035.335,128.595Zm10.107-2.171c1.3-.239,3.554-3.263,3.955-.867-1.031.508-2.239,1.512-3.1,1.512A.9.9,0,0,1,1045.442,126.424Zm-725.68-1.83c-.417.191-.833.382-1.511-.391.8-3,2.644-.983,3.024.781C320.6,124.213,320.179,124.4,319.762,124.594Zm1071.009-10.985c-1.99,2.171-2.479,1.742-3.679,4.342C1385.515,116.353,1390.1,112.964,1390.771,113.609ZM387.392,107.9c-.089-2.47-1.493-1.711-1.526-3.771a1.3,1.3,0,0,0,1.916-.192c-1.226-1.739-1.575-1.157-3.4-2.164.321-1.121,1.049-.879,1.4-1.922-2.011-.262-2.3-2.9-3.172-4.149a1.86,1.86,0,0,0,1.68.377,1.865,1.865,0,0,1,1.673.37c.41,3.068,2.046,3.316,4.887,5.906-.591,1.015.2,1.525.293,2.29-1.266-.715-2.117-.038-3.108.155.245.566.432,3.151-.426,3.15A.574.574,0,0,1,387.392,107.9Zm893.391-2.608c1.493-1.187,5.927-6.747,5.42-4.675-2.717,2.243-3.084,4.681-5.235,4.68C1280.907,105.3,1280.846,105.3,1280.783,105.3Zm-973.3-6.241c.525,2.36-4.507-.8-4.925-2.419,1.613-.961,3.042-2.744,4.869-2.826-.224,1.472-1.19,3.1-.164,4.325.851-.271,5.825,2.649,4.622,4.351C310.092,101.969,309,100.4,307.486,99.055ZM1111.737,83.48c.942-.576,1.794-.809,2.451-.309-1.493.867-1.607,1.327-.471,1.783-.487.35-.976.7-1.462,1.049C1111.67,85.055,1112.252,84.407,1111.737,83.48Zm2.433-1.749c.464-1.269,3.415-2.945.922-3.572,1.357-1.173,1.474-.463,1.639.248.114.49.251.981.838.851a1.116,1.116,0,0,1,.713-1.251c-1.851-1.922,2.989-2.743,4.054-5.191.721-.079.741.422.73.923-.013.561-.064,1.121.787.869.219-2.53,1.954-4.354,2.828-2.33.058-.744,3.853-2.562,1.681-3.277,5.289-3.585,4.313-4.145,8.608-6.663.53,2.215.6,1.352,1.126,3.566-2.417.422-2.341,2.555-4.1,2.458-.192-1.314,2.746-1.954,2.338-3.308-3.89.447-4.15,5.746-7.363,7.895-.384-.573-.665-1.585-1.266-1.245a13.156,13.156,0,0,1-.405,3.235c-3.534.963-8.176,6.965-12.048,6.964A3.389,3.389,0,0,1,1114.169,81.732Zm12.574-9.3Zm183.162.579c1.063-2.025,3.962-3.077,2.978-.765-.326-.653-.866.01-1.406.672-.383.47-.765.941-1.071.941C1310.193,73.863,1310.017,73.634,1309.905,73.015Zm23.937-28.924c1.2-.908,2.756-4.344,3.732-3.563-1.3,1.346-1.832,3.84-3.008,3.84A1.262,1.262,0,0,1,1333.842,44.091Zm-16.161-24.2c-1.552,1.7-.671,3.1-2.634,4.833C1313.536,23.738,1316.731,17.966,1317.681,19.894ZM1259.843,6.61c1.022.032,2.485-1.636,3.8-3.3s2.493-3.339,2.938-3.3c-.444,1.441-5.018,7.288-6.369,7.288C1259.962,7.289,1259.822,7.085,1259.843,6.61Z" transform="translate(0 499.839) rotate(-21)" fill="#e5ded5" opacity="0.6"/></svg>