<svg xmlns="http://www.w3.org/2000/svg" width="51.964" height="68.464" viewBox="0 0 51.964 68.464"><path d="M-531.514-1170.03l.005,0v0Z" transform="translate(561.687 1223.45)" fill="#a72126"/><path d="M-544.08-1194.173l-.035.039.01-.007A.118.118,0,0,0-544.08-1194.173Z" transform="translate(572.132 1243.456)" fill="#a72126"/><path d="M-655.943-1462.657l-.263-.379-.185-.266-.034.023v-.072l-.04-.058.04-.032v-.3l-.1-.176-.319.5-.113-.657a.5.5,0,0,1,.235-.586.08.08,0,0,0,.025-.021.32.32,0,0,1-.092-.23.327.327,0,0,1,.1-.237.308.308,0,0,1,.136-.073c.016-.059.03-.112.039-.166,0-.015,0-.028.007-.039a.657.657,0,0,1-.156-.424l0-.025-.035.028-.315.229-.085-.374-.184.2.085-.51a1.3,1.3,0,0,1-.1-.574l.023-.231h.014a.276.276,0,0,1-.155-.094.277.277,0,0,1-.068-.17l-.166-.1-.143.02,0-.111-.082-.05.078-.058,0-.114-.31-.11v-.257h0l-.035.047-.028-.031-.081.021-.014-.129-.518-.589a1.4,1.4,0,0,1-.216-.264c-.091-.133-.129-.181-.2-.193a.374.374,0,0,1-.292-.324.421.421,0,0,0-.073-.055c-.03-.02-.059-.04-.087-.061a2.394,2.394,0,0,1-.18-.159c-.04-.038-.08-.076-.123-.111-.064-.053-.127-.108-.191-.164a2.17,2.17,0,0,0-.432-.326c-.273-.137-.529-.3-.777-.451l-.2-.121a.787.787,0,0,0-.141-.058l-.085-.031a.555.555,0,0,0-.066-.019.55.55,0,0,1-.3-.161,1.006,1.006,0,0,0-.5-.262c-.021,0-.061.014-.091.023l-.1.025a.268.268,0,0,1-.255-.022l-.356-.169a.352.352,0,0,0-.168.014.447.447,0,0,1-.424-.1c-.013-.013-.023-.017-.129-.008l-.077.005a.831.831,0,0,1-.519-.123l-.206-.052c-.047-.012-.094-.026-.14-.04a.992.992,0,0,0-.216-.05.666.666,0,0,1-.405-.128.9.9,0,0,1-.527-.045.4.4,0,0,0-.2-.01.868.868,0,0,1-.474-.022.764.764,0,0,0-.275-.06,1.072,1.072,0,0,1-.439-.006.679.679,0,0,0-.213,0c-.213.025-.409.055-.6.092a.715.715,0,0,0-.107.036.752.752,0,0,1-.336.069.864.864,0,0,0-.4.109c-.074.032-.151.066-.234.094a3.427,3.427,0,0,0-.39.167,3.057,3.057,0,0,1-.6.235c-.056.054-.105.1-.154.155-.089.091-.181.186-.281.275a1.186,1.186,0,0,1-.351.218,2.223,2.223,0,0,0-.615.4c-.076.065-.146.134-.217.2a2.939,2.939,0,0,1-.538.442,3.3,3.3,0,0,0-.751.705c-.089.1-.178.2-.27.3-.2.212-.431.46-.641.712-.085.1-.175.195-.262.285a3.281,3.281,0,0,0-.335.384.775.775,0,0,1-.5.382c-.05,0-.07.022-.144.1-.026.028-.053.056-.082.083-.046.043-.09.089-.133.135a1.386,1.386,0,0,1-.58.418.451.451,0,0,1-.395.429c0,.009-.011.023-.021.046l-.075.181-.194-.025-.083-.013a.629.629,0,0,0-.087-.011,5.134,5.134,0,0,0-1.284.243,1.272,1.272,0,0,0-.141.054,1.2,1.2,0,0,1-.319.1,2.16,2.16,0,0,0-.78.326c-.12.07-.245.141-.377.2a.488.488,0,0,0-.063.05.648.648,0,0,1-.314.172,1.491,1.491,0,0,1-.591.336,1.083,1.083,0,0,0-.2.1,1.387,1.387,0,0,1-.337.153,2.25,2.25,0,0,0-1.117.745,3.887,3.887,0,0,1-.36.34l-.137.12-.087.077c-.211.184-.34.307-.348.508a.576.576,0,0,1-.079.252c-.042.078-.085.155-.129.232-.064.114-.128.227-.187.344-.135.268-.266.539-.4.81l-.15.308a1.119,1.119,0,0,0-.11.575,1.9,1.9,0,0,1,0,.22c0,.046,0,.093,0,.139a.452.452,0,0,1-.32.452.689.689,0,0,1-.481.012c-.125-.042-.255-.075-.393-.109-.115-.029-.23-.058-.344-.092a2.21,2.21,0,0,1-.276-.111c-.05-.023-.1-.046-.151-.066a1.579,1.579,0,0,1-.5-.346l-.088-.08a.671.671,0,0,0-.1-.074.632.632,0,0,1-.346-.38.523.523,0,0,1,.074-.381l-.146-.472.275-.059c.051-.011.065-.015.075-.067l-.081-.016.1-.117,0-.02a.508.508,0,0,1-.112-.307.378.378,0,0,1,.039-.152l-.092-.067.049-.172a.884.884,0,0,1,.172-.338l.061-.265-.03-.1h.053l.175-.763-.035-.008-.341-.052.147-.312a.685.685,0,0,1,.159-.2l.015-.014a.3.3,0,0,1,.157-.294l.015-.01.141-.105.117-.087.054-.294.292.177a.668.668,0,0,1,.124-.1.357.357,0,0,0,.038-.027,1.136,1.136,0,0,1,.193-.137c.13-.078.13-.088.13-.126v-.2l.231-.062a.577.577,0,0,0,.129-.043l.023-.16.116-.037.194-.7c.1-.351.268-.462.536-.48a.518.518,0,0,1,.359-.33.721.721,0,0,1,.182-.018l.073,0,.4-.02h0l.1-.03.114.113.093-.082q.178-.156.354-.313l-.05,0-.436-.037.245-.362a1.145,1.145,0,0,1,.191-.207l.042-.039c.02-.019.043-.039.067-.059l.03-.024a1.1,1.1,0,0,1,.138-.388c.014-.026.027-.051.037-.074l.04-.091.206-.091a.4.4,0,0,1,.054-.189.479.479,0,0,1,.051-.326.823.823,0,0,0,.086-.571.878.878,0,0,1-.027-.427c.087-.423.166-.84.245-1.266,0-.022.01-.054.011-.072a.318.318,0,0,0-.295-.178l-.076.016a2.2,2.2,0,0,0-.7.231.813.813,0,0,1-.491.129.259.259,0,0,1,.02.176c.007.012.014.023.02.035a.794.794,0,0,1-.14.984c-.069.07-.133.144-.2.218-.087.1-.177.2-.278.3a6.894,6.894,0,0,1-1.41,1.1,3.244,3.244,0,0,0-.7.582l-.017.017c-.032.032-.064.066-.1.1a2.4,2.4,0,0,1-.263.249c-.117.091-.238.174-.356.255-.088.06-.175.12-.26.183l-.2.148c-.241.176-.468.342-.679.53a2.235,2.235,0,0,1-.689.441l-.283.111-.18-.866-.257.115v-.4c0-.033,0-.064,0-.1a2.191,2.191,0,0,1,0-.228l.008-.1a3.775,3.775,0,0,1,.063-.5.377.377,0,0,0-.027-.284c-.066-.124-.128-.25-.191-.376-.081-.165-.158-.32-.244-.471a.593.593,0,0,0-.086-.1.937.937,0,0,1-.188-.24.333.333,0,0,1-.041-.027c-.056-.043-.11-.091-.163-.139l-.016-.015,0,0a.487.487,0,0,1-.444-.33.393.393,0,0,1-.058-.044c-.042-.039-.086-.077-.129-.114a2.093,2.093,0,0,1-.375-.386l-.105-.152.111-.148c.031-.042.06-.083.088-.122a1.816,1.816,0,0,1,.229-.286.9.9,0,0,1,.18-.128.471.471,0,0,0,.086-.057.3.3,0,0,1,.166-.261c.047-.038.084-.069.119-.1l.217-.2c.177-.164.359-.333.523-.508a1.287,1.287,0,0,0,.288-.415,1.134,1.134,0,0,1,.266-.441c.111-.116.226-.228.341-.34s.227-.221.337-.336a.212.212,0,0,0,.036-.047s-.007-.01-.016-.022l-.188-.238.351-.191c.048-.025.09-.047.13-.073l.054-.031a1,1,0,0,1,.409-.7l.079-.073c.093-.086.187-.173.282-.257l.055-.161c.012-.036.023-.073.033-.109.048-.167.141-.487.463-.53a.6.6,0,0,1,.194-.237l.072-.046c.17-.107.184-.13.181-.2a.306.306,0,0,1,.056-.194l-.108-.142.241-.113a.583.583,0,0,1,.042-.158,1.05,1.05,0,0,1,.169-.274c.113-.128.237-.254.368-.377l.1-.091a2.3,2.3,0,0,1,.419-.345,1.228,1.228,0,0,0,.235-.169l-.038.023a.425.425,0,0,1-.136.05l-.026.006-.554.154.254-.515a.431.431,0,0,0,.056-.145.775.775,0,0,0-.152-.145l-.085-.07-.009-.134c0-.027,0-.055,0-.084a.551.551,0,0,1,.153-.5h0l-.044-.009-.053-.124c-.007-.016-.02-.048-.03-.069l-.046-.017-.03-.011a.711.711,0,0,1-.288-.231.286.286,0,0,1-.06-.22.406.406,0,0,1,.144-.265.461.461,0,0,0,.2-.329.336.336,0,0,1-.248-.134l-.206-.035-.027.015a.551.551,0,0,1-.471.09.537.537,0,0,1-.275-.377c-.042-.135-.087-.173-.13-.194a.728.728,0,0,0-.167-.042,1.115,1.115,0,0,0-.809.07l-.082.05a1.975,1.975,0,0,1-.456.224,1.03,1.03,0,0,0-.5.39,1.643,1.643,0,0,1-.395.325l-.067.044c-.071.047-.146.089-.221.131a.894.894,0,0,0-.377.3,1.99,1.99,0,0,1-.316.388c-.035.036-.071.073-.1.11-.018.02-.035.041-.053.062a.836.836,0,0,1-.3.254,1.941,1.941,0,0,0-.3.181,1.932,1.932,0,0,1-.511.276.73.73,0,0,0-.174.108,1.546,1.546,0,0,1-.209.136,1.612,1.612,0,0,0-.557.5,5.727,5.727,0,0,1-.627.692,2.89,2.89,0,0,1-.35.277c-.053.038-.106.075-.158.115a.292.292,0,0,0-.034.035l-.184.2c-.128.137-.256.274-.386.409a.761.761,0,0,1-.24.173.231.231,0,0,0-.131.14.876.876,0,0,1-.186.293l.067.105-.217.06a.419.419,0,0,1-.156.122.507.507,0,0,1-.081.138.326.326,0,0,1-.216.108.313.313,0,0,1-.061.12.325.325,0,0,1-.174.107.411.411,0,0,1-.116.167c-.188.158-.384.308-.573.453l-.138.106c-.045.035-.092.068-.138.1s-.118.084-.174.13c-.079.065-.156.133-.233.2-.1.088-.2.176-.3.259-.28.225-.565.446-.849.666l-.084.065a2.274,2.274,0,0,1-1.307.6l-.147.007-.08-.124c-.026-.04-.074-.072-.224-.1l-.043-.006a.865.865,0,0,1-.205-.046.683.683,0,0,1-.538-.612c-.184-.148-.37-.288-.529-.406-.033-.025-.069-.046-.1-.068a1.461,1.461,0,0,1-.2-.139c-.134-.116-.265-.236-.4-.355-.159-.144-.318-.288-.481-.427-.105-.09-.214-.176-.322-.262a6.1,6.1,0,0,1-.685-.6.6.6,0,0,0-.474-.19c-.163.01-.173.05-.192.123a.6.6,0,0,1-.4.429.569.569,0,0,0-.367.325.908.908,0,0,0-.076.271,1.164,1.164,0,0,1-.162.541,1.184,1.184,0,0,0-.094.22.347.347,0,0,1-.181.214c0,.022,0,.052.007.074l.008.068a.641.641,0,0,1-.012.291.115.115,0,0,0-.007.028.466.466,0,0,1-.077.621l-.007.008.249.23-.186.189c-.083.085-.072.117-.042.176a.49.49,0,0,1,.031.306c0,.015,0,.029-.005.043a.43.43,0,0,1-.013.079.856.856,0,0,1-.212.717c-.043.058-.091.114-.138.169s-.073.084-.107.129a.916.916,0,0,1,.005.389.965.965,0,0,0-.013.127.788.788,0,0,1-.1.4.607.607,0,0,0-.026.207l.017.008a.35.35,0,0,1,.186.188c.016.035.035.07.053.105a1.015,1.015,0,0,1,.153.7.794.794,0,0,1-.343.578.789.789,0,0,0-.182.148l-.055.053.19.542-.193.1c-.116.063-.137.112-.15.165a.473.473,0,0,1-.287.309c-.114.041-.2.116-.238.346l-.015.084-.062.058-.067.061a1.277,1.277,0,0,0-.1.1c-.058.066-.112.136-.167.207l-.024.031a.475.475,0,0,1-.135.278.329.329,0,0,0-.025.03.862.862,0,0,0-.116.259l.01.016a1.059,1.059,0,0,1,.054.1l.039.088-.031.1a.462.462,0,0,1,.283.46.484.484,0,0,0,.011.077.653.653,0,0,1,0,.3,1.38,1.38,0,0,1,.169.209l.083.116c.095.134.153.21.249.228a.672.672,0,0,1,.416.276,1.346,1.346,0,0,0,.491.42,4.439,4.439,0,0,1,.972.58.23.23,0,0,0,.1.052.64.64,0,0,1,.432.214c.1-.095.2-.186.3-.274a.5.5,0,0,1,.339-.123,1.694,1.694,0,0,1,.262.043l.088.018a.569.569,0,0,1,.317-.1l.013-.01a.939.939,0,0,1,.081-.06c.01-.006.02-.015.03-.024a.368.368,0,0,1,.341-.1c.05.015.1,0,.211-.046a1.4,1.4,0,0,1,.216-.072l.162-.036.1.133a.123.123,0,0,0,.036.037.321.321,0,0,0,.136-.058c.014-.008.028-.018.042-.027a.482.482,0,0,1,.349-.111,4.547,4.547,0,0,1,.759.184.387.387,0,0,1,.187.144.44.44,0,0,1,.2-.008.407.407,0,0,1,.207-.068.4.4,0,0,1,.293.112l.017.018a1.048,1.048,0,0,1,.431-.109.214.214,0,0,0,.048-.011,1.913,1.913,0,0,1,.442-.541.563.563,0,0,0,.184-.266c.027-.087.059-.168.091-.247a1.5,1.5,0,0,0,.1-.288,2.865,2.865,0,0,1,.089-.345,1.126,1.126,0,0,0,.079-.521.561.561,0,0,1,.072-.353l.021-.042a1.345,1.345,0,0,1,.219-.337c.092-.1.1-.208.108-.416a1.654,1.654,0,0,1,.18-.69c.065-.125.081-.166.069-.219a1.376,1.376,0,0,1-.029-.253.494.494,0,0,1,.345-.549,1.618,1.618,0,0,1,.206-.072h0c-.014-.022-.029-.046-.045-.071l-.115-.173.145-.149c.026-.027.05-.055.073-.082a.833.833,0,0,1,.274-.236.529.529,0,0,1,.33-.023l.244-.231.16.174.03-.019.1.024.076.019.033.009a.4.4,0,0,1,.182-.017.118.118,0,0,0,.06,0,1.78,1.78,0,0,1,.169-.245l-.011-.01a.586.586,0,0,1-.237.1.42.42,0,0,1-.315-.1c-.015-.01-.03-.022-.046-.031l-.3-.174.436-.4-.008-.021.033,0,.241-.223-.008-.017.019.017,1.24.532.259-.119.054.332c0,.03.008.059.011.086a.363.363,0,0,0,.007.053.576.576,0,0,1,.016.413l-.007.03a.311.311,0,0,0,.015.187.823.823,0,0,1,.1.429v.018c0,.026,0,.053,0,.08a.543.543,0,0,0,0,.082,1.592,1.592,0,0,0,.037.162,1.023,1.023,0,0,1,.024.59v0l.023.158c.017.115.033.231.056.345.006.033.012.067.018.1a.957.957,0,0,0,.074.275.888.888,0,0,0,.145.167,1.84,1.84,0,0,1,.159.172c.018.023.039.046.059.068a.637.637,0,0,1,.194.661.337.337,0,0,0-.016.171,1.306,1.306,0,0,1,.024.66c-.007.038-.015.076-.023.113a1.018,1.018,0,0,0-.031.224,1.018,1.018,0,0,1-.223.637l-.033.047a3.863,3.863,0,0,0-.33.529,2.583,2.583,0,0,0-.136.4c-.021.072-.042.146-.065.22l-.054.171-.179.008a2.344,2.344,0,0,0-.774.164,1.046,1.046,0,0,1-.635-.021.6.6,0,0,1-.4-.408,2.31,2.31,0,0,1-.084-.316,1.012,1.012,0,0,0-.131-.378.4.4,0,0,1-.068-.28c.006-.047-.013-.1-.077-.2a1.105,1.105,0,0,1-.172-.609v-.158c0-.17,0-.341.009-.511,0-.031,0-.061.009-.09l-.368-.1.309-.309a.73.73,0,0,0,.171-.465l.011-.079a.364.364,0,0,1,.031-.1,5.954,5.954,0,0,0,.282-1.036l-.029-.04a.362.362,0,0,0-.076.153.975.975,0,0,1-.386.544l-.047.04a.509.509,0,0,1-.241.109l-.022.064c-.05.15-.1.287-.149.422-.042.107-.087.213-.133.318-.055.127-.107.246-.152.369a.7.7,0,0,0-.026.133,1.166,1.166,0,0,1-.047.226c-.04.117-.084.233-.128.349a4.038,4.038,0,0,0-.256.86,1.418,1.418,0,0,1-.188.595.173.173,0,0,0-.033.069l.043.106-.052.093-.247.511a.847.847,0,0,1,0,.59,1.707,1.707,0,0,1,.049.841.606.606,0,0,1,.351.331.644.644,0,0,1,.017.452l.554.085-.519.341a.863.863,0,0,1,.142.468c0,.08.015.1.016.1a.438.438,0,0,1,.156.162l.012.019.082.107c.06.079.12.158.184.233.093.107.192.208.3.316l.033.034,0,0a.941.941,0,0,1,.556.521.952.952,0,0,1,.049.121c.005.015.01.029.015.043a.941.941,0,0,1,.16.177c.055.073.073.092.09.093a.323.323,0,0,1,.28.3.683.683,0,0,0,.029.141.828.828,0,0,1,.026.456,2.429,2.429,0,0,0-.067.5l0,.076a1.029,1.029,0,0,1-.1.471.6.6,0,0,1-.144.571v.012c0,.036-.01.076-.019.119l-.008.037.144.22-.08.137a4.132,4.132,0,0,1-.813,1.05l-.132.116-.12-.063a1.5,1.5,0,0,0-.151.2,1.99,1.99,0,0,1-.148.2.681.681,0,0,0-.164.279.558.558,0,0,1-.19.3c-.02.019-.041.039-.058.06l-.21.249-.039-.053-.131.069c-.039.018-.077.033-.115.048a.6.6,0,0,0-.081.035c-.06.059-.121.12-.181.181l.038.1c.083.224.122.369-.1.565-.052.045-.108.088-.164.13a1.163,1.163,0,0,0-.23.2,1.589,1.589,0,0,1-.248.273c.008.016.015.031.022.046l.308.153,0,.153a.479.479,0,0,1,0,.086l.008.018a.49.49,0,0,1-.037.524.136.136,0,0,1-.006.034c-.006.023-.013.05-.023.078a.316.316,0,0,1-.036.37v.028a1.122,1.122,0,0,1-.01.122l-.011.067-.042.053-.059.072a1.7,1.7,0,0,0-.117.151c-.012.018-.022.036-.032.054a.723.723,0,0,1-.158.211.633.633,0,0,1,.027.531.349.349,0,0,1,.039.181.372.372,0,0,1-.164.283,1.352,1.352,0,0,1-.28.149.6.6,0,0,1-.052.466l-.147.268-.134-.107,0,.013.01.044c.024.1.039.208.054.309a1.707,1.707,0,0,0,.1.434,2.29,2.29,0,0,1,.123.387,2.1,2.1,0,0,0,.076.259.954.954,0,0,0,.224.323.6.6,0,0,1,.2.351,2.428,2.428,0,0,1,.032.307,1.42,1.42,0,0,0,.043.323.446.446,0,0,1,.326.342l0,.006.037-.005c.069-.011.139-.016.2-.02l.191-.016.086.1c.016.019.03.037.044.056l.146.055a1.278,1.278,0,0,1,.136.056l.164.082-.024.192a.315.315,0,0,1-.113.219l.551-.063-.17.4a.122.122,0,0,0-.008.022c0-.006,0,0,.008.008a.517.517,0,0,1-.013.6l.1,0h.028a.572.572,0,0,0,.083-.006.7.7,0,0,1,.97.222,1.248,1.248,0,0,0,.2.209.208.208,0,0,0,.064.042.349.349,0,0,1,.289-.068.435.435,0,0,1,.268.211.079.079,0,0,0,.1.039.367.367,0,0,1,.374.064.338.338,0,0,1,.1.29l.444.16a.885.885,0,0,1,.266-.231.9.9,0,0,0,.088-.06c.025-.02.05-.038.075-.057.069-.05.1-.072.111-.105a.537.537,0,0,1,.436-.3.5.5,0,0,0,.455-.3.9.9,0,0,1,.223-.3c.029-.028.058-.057.083-.087a.6.6,0,0,0,.074-.113.323.323,0,0,0,.016-.048.592.592,0,0,1,.1-.2,1.348,1.348,0,0,0,.24-.524,1.015,1.015,0,0,1,.164-.375.5.5,0,0,1,0-.227c.025-.1.057-.186.088-.274l0-.012a.533.533,0,0,1-.254-.775.883.883,0,0,0,.04-.165.944.944,0,0,1,.169-.442s0-.008,0-.012a.9.9,0,0,1-.05-.631c.007-.037.014-.073.019-.108a3.846,3.846,0,0,1,.148-.619,3.015,3.015,0,0,0,.14-.622,4.246,4.246,0,0,1,.1-.6l-.253-.029.124-.337h-.107l-.082-.457.2-.091-.109-.29.3-.06.01,0a.448.448,0,0,1,.069-.248l.01-.02q.09-.176.18-.351l.14-.272a.43.43,0,0,1,.145-.479.7.7,0,0,1,.083-.448c.013-.027.026-.054.036-.081a1.208,1.208,0,0,1,.112-.216.558.558,0,0,0,.07-.138,3.272,3.272,0,0,1,.093-.455l.237-.932a.358.358,0,0,1-.025-.269c.061-.186.136-.366.208-.541l.059-.143a.3.3,0,0,1,.018-.038.724.724,0,0,1,.171-.54,1.434,1.434,0,0,0,.172-.386,1.861,1.861,0,0,1,.233-.509.512.512,0,0,1,.059-.194l0-.038a.793.793,0,0,1,.624-.811c.147-.036.3-.063.442-.089l.2-.036.2-.039.082.189c.034.078.066.1.307.1h.051a4.8,4.8,0,0,1,2.353.473,12.559,12.559,0,0,1,1.108.673l.132.09a8.534,8.534,0,0,1,1.276,1,.525.525,0,0,1,.078.052c.086.073.173.144.26.215.213.175.434.357.642.549.157.145.308.3.454.446s.3.3.454.445a.981.981,0,0,0,.385.194,1.332,1.332,0,0,0,.241.038,1.516,1.516,0,0,1,.4.08l-.016-.1.216-.064a.6.6,0,0,1,.695.126c.194.2.4.418.623.62a.577.577,0,0,0,.081.035,1.255,1.255,0,0,1,.127.055l.078.042.043-.019a.459.459,0,0,1,.6.149.428.428,0,0,1-.074.582l0,0c-.052.1-.1.192-.153.289-.116.22-.235.448-.368.668a4.184,4.184,0,0,1-.278.39l-.1.132.358-.106.206.378-.113.134-.018.021.1.305-.194-.045a.487.487,0,0,1-.126.164,1.65,1.65,0,0,1-.262.481c-.026.037-.052.074-.077.112-.1.157-.214.31-.324.464q-.085.118-.169.236c-.024.034-.049.067-.075.1a.7.7,0,0,0-.108.166.842.842,0,0,1-.337.412.62.62,0,0,0-.148.148l-.01.015c-.068.1-.1.158-.09.206l.026.142-.108.1a.748.748,0,0,0-.127.189.9.9,0,0,1-.338.389.6.6,0,0,1-.028.126,1.086,1.086,0,0,1-.072.157.5.5,0,0,0-.043.094,1.218,1.218,0,0,1-.4.714c-.107.1-.125.145-.12.188l.035.31-.215-.018a.518.518,0,0,1-.156.292.191.191,0,0,0-.02.037.713.713,0,0,1-.059.109v.009a.4.4,0,0,1-.185.309.36.36,0,0,1-.145.237.73.73,0,0,0-.141.2c-.026.045-.051.089-.078.131a.476.476,0,0,0-.03.062.591.591,0,0,1-.15.224.319.319,0,0,1-.2.28,1.46,1.46,0,0,0-.157.08l-.046.026c-.034.043-.07.086-.107.128a.866.866,0,0,0-.178.258,1.535,1.535,0,0,1-.231.448,1,1,0,0,0-.17.328,2.98,2.98,0,0,1-.321.763l-.051.095a2.285,2.285,0,0,0-.2.635l.011-.013-.029.1,0,.014-.027.14a.733.733,0,0,0-.009.111,1.324,1.324,0,0,1-.014.171c-.014.085-.032.17-.052.259l.1.012-.138.156-.033.153-.106.055.159.079-.208.648-.074.037a.718.718,0,0,1-.288.682l-.007.016a1.736,1.736,0,0,0-.084.271,1.506,1.506,0,0,1-.225.551c0,.014,0,.027,0,.039a.418.418,0,0,1-.34.4c-.008.127-.016.25-.024.374a.3.3,0,0,1-.122.238l-.028.022-.034.027a.654.654,0,0,1-.242.821l-.006,0c0,.018,0,.044,0,.065v.03c0,.039,0,.08,0,.121a1.065,1.065,0,0,1-.066.493l.488.057-.044.628H-686c.021.161.04.323.056.485a1.151,1.151,0,0,1,0,.144.744.744,0,0,0,0,.075.415.415,0,0,1-.245.443l-.023.011-.148.181.017.07c.017.068.033.136.046.2a.727.727,0,0,0,.086.192.893.893,0,0,1,.152.529.658.658,0,0,1,.119.358.581.581,0,0,0,.013.088c.019.064.034.129.049.194a.866.866,0,0,0,.121.331.464.464,0,0,1,.063.343l0,.022c-.012.126-.009.162.018.2a.654.654,0,0,1,.158.424l0,.064c-.014.193-.013.279.051.353l.072.083-.01.11a.585.585,0,0,0,.105.315,2.087,2.087,0,0,1,.1.213l.036.092-.035.092c-.011.031-.029.079-.041.114.034.026.084.061.116.083l.08.055.023.094c.014.058.028.116.041.174a3.269,3.269,0,0,0,.09.344,3.245,3.245,0,0,0,.265.54,4.032,4.032,0,0,1,.283.565.473.473,0,0,1,.2.348.4.4,0,0,1,.179.244.458.458,0,0,0,.132.2l.059.066a.339.339,0,0,1,.072.157,1.618,1.618,0,0,0,.344.526l.069.076c.143.158.29.319.425.5l.1-.1a.365.365,0,0,1,.331-.125h0l.139-.2.214.263.043.051a.9.9,0,0,1,.1.128c.029.049.061.1.082.132.035-.005.088-.016.135-.026a.572.572,0,0,1,.515.107.521.521,0,0,1,.171.342l.262.267h.252l.031.221a1.479,1.479,0,0,0,.037.2,1.273,1.273,0,0,0,.147.046l.228.06-.043.25a.457.457,0,0,1-.043.168l-.009.02.008.005a.456.456,0,0,1,.162.18.277.277,0,0,0,.016.026l.04.052c.026.034.052.067.076.1h.024a.739.739,0,0,1,.233.039l.239.088-.119.333a.718.718,0,0,1,.17.341.4.4,0,0,0,.148.282,2.971,2.971,0,0,0,.522.407.53.53,0,0,1,.217.25.811.811,0,0,0,.213.28,3.511,3.511,0,0,1,.335.4c.041.054.082.109.125.162l.024.03a.468.468,0,0,0,.045.054c.043.041.09.077.137.114a1.18,1.18,0,0,1,.4.456.262.262,0,0,0,.079.106,1.462,1.462,0,0,1,.362.321,1.745,1.745,0,0,0,.144.151l.016.014a.432.432,0,0,0,.036.031,4.64,4.64,0,0,1,1.3.657l.1.071a.881.881,0,0,0,.377.2.47.47,0,0,1,.2.087l.023.015.164.1c.107.064.214.127.323.186a2.118,2.118,0,0,0,.524.167l.12.028a.5.5,0,0,0,.127.018c.078,0,.155-.011.235-.019a.461.461,0,0,1,.385-.227,1.878,1.878,0,0,1,.92.132c0-.014.007-.029.012-.043a.659.659,0,0,1,.439-.393.822.822,0,0,1,.1-.034.67.67,0,0,0,.466-.436c.024-.057.046-.115.068-.173a2.58,2.58,0,0,1,.207-.453,1.5,1.5,0,0,0,.16-.488c.021-.1.042-.2.072-.3a.664.664,0,0,1-.1-.594.831.831,0,0,1,.417-.6.9.9,0,0,0,.355-.432c.032-.059.064-.118.1-.176a.69.69,0,0,1,.217-.253l.031-.019-.034-.036.157-.177c.026-.03.051-.061.076-.092a.931.931,0,0,1,.581-.4c.011-.059.021-.113.03-.166l.037-.2.3-.16c.138-.074.275-.147.412-.224a.329.329,0,0,1-.134,0l-.018,0-.294-.042.085-.285c0-.01.005-.021.008-.032a.442.442,0,0,1,.179-.293.308.308,0,0,1,.1-.169c.044-.039.088-.076.135-.115l.219-.186.106.08h.017l.369-.309,0-.006a.27.27,0,0,1,.094-.359.985.985,0,0,1,.106-.054.433.433,0,0,1,.154-.156l-.148-.371.072-.111a.676.676,0,0,1,.345-.276l-.047-.284.185.006-.2-.211.3-.214c.043-.031.082-.059.122-.085a.843.843,0,0,1,.083-.047l.02-.01c.117-.166.23-.343.339-.514l.035-.055a.811.811,0,0,0,.091-.164l.01-.035a.5.5,0,0,1,.184-.292v-.008a.227.227,0,0,0,0-.03l-.281.17.238-.676c.029-.083.058-.161.085-.236.06-.162.111-.3.151-.444a.783.783,0,0,1,.347-.485l.015-.009.044-.027a1.124,1.124,0,0,1,.214-.385l-.094-.16.182-.138.1-.077a2.527,2.527,0,0,1,.227-.166,1.4,1.4,0,0,1,.284-.136c0-.023,0-.046,0-.067a.528.528,0,0,1-.173-.011.5.5,0,0,0-.05-.008l-.314-.028.228-.753-.029.006.037-.032.128-.423-.056-.106.053-.115c.014-.031.027-.058.04-.083a.73.73,0,0,0,.04-.09.535.535,0,0,1,.17-.269l-.207-.481.133-.081-.015-.013a.449.449,0,0,1-.113-.364.484.484,0,0,0,0-.067s0,0-.007-.012-.012-.03-.017-.044l-.066-.193.144-.089c0-.006,0-.012,0-.018a.388.388,0,0,1,.06-.295.2.2,0,0,0,.028-.131l-.22-.031.215-.155a.186.186,0,0,0-.011-.042.551.551,0,0,1-.032-.236l-.061-.28c0-.022-.011-.044-.017-.063a.543.543,0,0,1-.028-.25.5.5,0,0,1,.058-.161l-.031-.028.044,0,.025-.041c.009-.014.017-.027.025-.041l.112-.213.164.073a.622.622,0,0,1,.412-.635.51.51,0,0,1,.081-.156.522.522,0,0,1,.039-.4.413.413,0,0,0,.022-.264.971.971,0,0,1,.015-.371c.006-.035.013-.07.017-.1s.007-.054.012-.081a.69.69,0,0,0,.011-.085.441.441,0,0,0,0-.062,1.064,1.064,0,0,1-.007-.114c0-.05,0-.1.008-.15a.726.726,0,0,0,0-.173,1.718,1.718,0,0,1-.024-.343.735.735,0,0,0-.049-.343l-.038-.07.008-.079a2.333,2.333,0,0,0-.112-.814l-.018-.071a.474.474,0,0,1,.019-.319l-.026-.068a2.135,2.135,0,0,1-.137-.453,5.9,5.9,0,0,0-.406-1.485c-.03-.069-.064-.136-.1-.2a2.972,2.972,0,0,1-.149-.321,1.047,1.047,0,0,1-.042-.154l-.181.048-.3-.917.154-.048c-.035-.08-.062-.158-.089-.233s-.047-.132-.073-.193a.588.588,0,0,1-.291-.049l-.039-.015a.316.316,0,0,1-.2-.276c0-.009,0-.018,0-.027l-.069-.285.277-.034c-.005-.023-.009-.045-.013-.066s-.006-.031-.009-.046l-.328.078-.1-.133a1.612,1.612,0,0,1-.331-.894l0-.063-.051.01-.155.031-.1-.125a.383.383,0,0,1-.089-.292.341.341,0,0,1,.055-.145.389.389,0,0,1-.062-.112.431.431,0,0,0-.138-.216c-.021.012-.044.025-.068.036a.418.418,0,0,1-.358-.013.432.432,0,0,1-.241-.281c0-.014-.006-.028-.008-.041l-.06,0a1.261,1.261,0,0,1-.164-.015.392.392,0,0,1-.294-.247c-.022-.067-.081-.112-.185-.186-.039-.028-.078-.056-.115-.086a2.582,2.582,0,0,0-.3-.2,1.935,1.935,0,0,1-.581-.462l-.037-.012-.131-.05-.558.219.331-.306-.21-.08a.35.35,0,0,1-.441.029l-.059-.027-.111-.052a.982.982,0,0,0-.407-.131,1.159,1.159,0,0,1-.615-.149,2.651,2.651,0,0,0-.352-.176,3.438,3.438,0,0,1-.361-.177.413.413,0,0,0-.048-.022.617.617,0,0,1-.193-.114.889.889,0,0,1-.092-.1.368.368,0,0,0-.04-.047.549.549,0,0,1-.3-.237.876.876,0,0,0-.057-.071l-.086-.092-.272.07.1-.416a.55.55,0,0,1,.062-.155l-.024-.006-.087.046-.014.027-.067.016-.174.092v-.051l-.035.008c-.137.03-.192.047-.232.1a.473.473,0,0,1-.315.167.544.544,0,0,0-.057.013l-.425.137.1-.436a1.85,1.85,0,0,1,.209-.524.674.674,0,0,1,.189-.213,1.32,1.32,0,0,1,.171-.1l.063-.033.054-.029a.488.488,0,0,0,.061-.034c.036-.033.07-.07.1-.106a1.74,1.74,0,0,1,.192-.185.515.515,0,0,0,.05-.044s0-.021,0-.058a.387.387,0,0,1,.152-.343.349.349,0,0,0,.044-.039l.011-.011.009-.106c.025-.289.072-.421.285-.507a.433.433,0,0,1,.069-.181c.079-.114.166-.218.25-.318l.106-.127-.261.041a2.964,2.964,0,0,1-.6.689,1.689,1.689,0,0,0-.231.276l0,.166-.073-.063c-.029.038-.058.076-.089.113a2.452,2.452,0,0,1-.235.234l-.036.033c-.043.04-.088.077-.133.115l-.011.009-.013.021,0-.008a1.391,1.391,0,0,0-.167.155.649.649,0,0,1-.467.271l-.008,0a.652.652,0,0,1-.1.046c-.065.021-.131.04-.21.062l-.633.183.212-.5a.828.828,0,0,1,.378-.4l-.043-.071.12-.141.082-.093c.051-.058.1-.108.132-.159a1.81,1.81,0,0,1,.189-.216.745.745,0,0,0,.187-.248.342.342,0,0,1,.172-.186s0,0,0,0c.119-.109.237-.219.354-.331l.029-.027a1.976,1.976,0,0,0,.173-.18,1.635,1.635,0,0,0,.106-.158c.021-.033.042-.068.066-.1l.269-.413.12.3.057-.069a1.508,1.508,0,0,1,.181-.177c.033-.028.066-.057.1-.087l.006-.018a.368.368,0,0,1,.186-.239c.006-.013.013-.033.018-.048a.557.557,0,0,1,.182-.276c.108-.081.213-.166.318-.251l0,0a.777.777,0,0,1,.282-.437.883.883,0,0,0,.1-.1,1.762,1.762,0,0,1,.767-.4l.5-.13-.026.064a.647.647,0,0,1,.16-.146c.034-.021.071-.04.107-.059a.48.48,0,0,0,.075-.043.286.286,0,0,1,.181-.221l0,0c.034-.026.069-.05.105-.074a.576.576,0,0,0,.129-.1.64.64,0,0,1,.661-.329l.1.012.065.076a.641.641,0,0,1,.123.626,1.726,1.726,0,0,1,.423-.3,1.518,1.518,0,0,1,.5-.551c.061-.048.123-.1.18-.148l.076-.07.1,0c.025,0,.038,0,.1-.088l-.244-.348.393-.252.5-.325a.342.342,0,0,1,.047-.047l.092-.078c.084-.072.171-.146.266-.215a1.186,1.186,0,0,1,.16-.094.515.515,0,0,0,.1-.062,1.459,1.459,0,0,0,.137-.178,2.026,2.026,0,0,1,.171-.223l.045-.05a1.012,1.012,0,0,1,.446-.336,1.737,1.737,0,0,0,.451-.235,2.779,2.779,0,0,1,.408-.233,2.046,2.046,0,0,0,.281-.162.386.386,0,0,1,.229-.358.5.5,0,0,0,.077-.049.339.339,0,0,1,.182-.248.3.3,0,0,1,.174-.179l.046-.018a.509.509,0,0,1,.3-.2.613.613,0,0,1,.1-.019l.011,0,.1-.041a.777.777,0,0,0,.2-.1c.257-.218.411-.283.686-.162l.022-.013a1.422,1.422,0,0,1,.389-.175.955.955,0,0,0,.517-.319.552.552,0,0,1,.2-.162c.143-.058.287-.111.431-.165l.111-.041a.846.846,0,0,1,.082-.025.3.3,0,0,0,.035-.01c.041-.031.094-.074.147-.117.071-.057.141-.114.216-.165a4.756,4.756,0,0,1,.471-.285c.043-.023.088-.044.132-.065.19-.091.3-.149.35-.279a.439.439,0,0,1,.2-.209.174.174,0,0,0,.086-.11.547.547,0,0,1,.419-.387.489.489,0,0,1,.3.051l-.026-.2.216-.053a.356.356,0,0,1,.038-.075,1.219,1.219,0,0,1,.1-.125.671.671,0,0,0,.057-.07l.019-.029a.621.621,0,0,1,.331-.289,1.547,1.547,0,0,1,.357-.67C-655.891-1462.542-655.879-1462.564-655.943-1462.657Zm-30.932-17.554a.483.483,0,0,1,.236-.33.345.345,0,0,1,.293,0,.357.357,0,0,1,.183.324l0,.166-.152.078a1.176,1.176,0,0,1-.18.061l-.517.15Zm7.356,45.124a.38.38,0,0,1,.184-.245.4.4,0,0,1,.328-.015l.145.05.024.152a.392.392,0,0,1-.078.329.367.367,0,0,1-.284.125h0a.334.334,0,0,1-.257-.139A.291.291,0,0,1-679.52-1435.086Zm4.794-7.353a6.386,6.386,0,0,1,.535-.372.427.427,0,0,0,.209-.235l.1-.271.158.08a.65.65,0,0,1,.635-.356c.186,0,.372,0,.567,0h.3l.015-.017.127.012h.021a.6.6,0,0,1,.11,0h.064l0,.014a.3.3,0,0,1,.1.054.346.346,0,0,1,.347.128c.011.017.035.025.129.041.036.006.073.013.109.022a.5.5,0,0,1,.208.119l.025.021a3.3,3.3,0,0,1,.86,1.021c.014.024.03.047.045.07a.9.9,0,0,1,.154.335.719.719,0,0,0,.062.085,1.187,1.187,0,0,1,.1.146,6.033,6.033,0,0,1,.5,1.307l.043.142a4.494,4.494,0,0,1,.134.711,3.315,3.315,0,0,0,.154.737,4.464,4.464,0,0,1,.194.627,1.932,1.932,0,0,1,.036.42,5.8,5.8,0,0,0,.06.712c.011.092.023.184.033.276,0,.033.009.065.015.1a1.587,1.587,0,0,1,.024.184q.035.668.066,1.337l.011.239a.617.617,0,0,1-.007.125.925.925,0,0,0,.062.519,1.245,1.245,0,0,1,.076.6,1.9,1.9,0,0,0,0,.195.97.97,0,0,1-.278.744l-.007.013c-.009.018-.018.036-.028.053a1.077,1.077,0,0,0-.108.5,3.6,3.6,0,0,1-.08.567,2.74,2.74,0,0,0-.071.542.379.379,0,0,1-.08.221c-.01.014-.021.03-.033.051l-.154.271,0,0a.45.45,0,0,1,.125.4c-.025.146-.055.291-.085.436-.019.091-.038.182-.055.274,0,0,0,.01.006.02a2.127,2.127,0,0,1-.056.918l-.021.1a6.78,6.78,0,0,1-.276.942c-.1.279-.22.555-.334.822-.049.114-.1.228-.145.343-.041.1-.083.2-.125.295-.1.235-.205.479-.288.72a.488.488,0,0,0-.01.1.737.737,0,0,1-.091.371c-.055.09-.106.182-.158.275-.067.12-.134.24-.207.356a.7.7,0,0,1-.455.331,2.314,2.314,0,0,0-.2.651.91.91,0,0,1-.259.563c0,.015-.008.031-.011.046a.723.723,0,0,1-.457.564l-.128.047-.257-.186a.586.586,0,0,1-.523-.127l-.363-.062a.675.675,0,0,1-.421-.266l-.057.069-.141-.032a.342.342,0,0,1-.091-.023,1.486,1.486,0,0,1,.057.233,2.467,2.467,0,0,0,.271.714l.065.13a.609.609,0,0,1-.062.6c-.011.02-.022.039-.031.058a.517.517,0,0,1-.619.261c-.014,0-.033.011-.064.033l-.152.108-.579-.433-.011-.168a1.138,1.138,0,0,0-.011-.134c0-.016-.006-.031-.01-.046a.5.5,0,0,1-.338-.37c0-.009-.009-.037-.13-.063l-.2-.044v-.311a.4.4,0,0,1-.185-.187,1.176,1.176,0,0,1-.108-.486c0-.124-.008-.151-.143-.22-.04-.02-.081-.038-.122-.056a.963.963,0,0,1-.573-.5,1.094,1.094,0,0,0-.088-.073c-.041-.032-.083-.065-.123-.1l-.106-.1.035-.17c0-.021.011-.049.016-.078a.107.107,0,0,0,0-.016l-.009-.006a.484.484,0,0,1-.262-.347.454.454,0,0,0-.124-.221l-.056-.073a1.187,1.187,0,0,1-.273-.774.414.414,0,0,1-.151-.318.475.475,0,0,1-.059-.025l-.35.588.055-.8a.4.4,0,0,1-.057-.165c-.01-.013-.026-.032-.037-.044l-.041-.047a.708.708,0,0,1-.113-.161h0v-.005a.417.417,0,0,1-.042-.214,1.351,1.351,0,0,1-.2-.514,1.332,1.332,0,0,0-.081-.271.645.645,0,0,1,.03-.493l.006-.019a.426.426,0,0,1-.16-.249c0-.025-.011-.049-.017-.074a.726.726,0,0,1-.025-.323l0-.005c-.082-.124-.159-.24-.235-.357a.371.371,0,0,1-.054-.141l-.621-.131.641-.04c.019-.046.006-.1-.029-.214a.941.941,0,0,1-.052-.463l-.023-.079a.614.614,0,0,1,.079-.626c0-.116,0-.245,0-.4a.427.427,0,0,1-.1-.181l-.3-.256a1.291,1.291,0,0,1-.1-1.41l.019-.039a.47.47,0,0,1-.1-.284.379.379,0,0,1,.127-.285.385.385,0,0,1,.309-.109.48.48,0,0,1,.33.236l.112.162-.111.13.265.314a.427.427,0,0,1,.117.269l.213.011.015.189.1,0-.017.078a.612.612,0,0,1,.153.172,6.177,6.177,0,0,0,.534.712c.017.008.054.021.079.03.043.015.087.03.129.049l.152.068v.19a.61.61,0,0,1-.011.192.212.212,0,0,0,.024.159.8.8,0,0,1,.046.421c0,.016,0,.03,0,.045l.009,0,.129-.024.095.09a.446.446,0,0,1,.111.5l.083-.049a.574.574,0,0,1,.275-.093.41.41,0,0,1,.335.191.351.351,0,0,1,.021.3.292.292,0,0,1-.178.189.412.412,0,0,0-.036.088.761.761,0,0,1-.121.248,1.59,1.59,0,0,0-.151.253c-.025.048-.05.1-.077.144-.008.017-.017.036-.028.056a2.705,2.705,0,0,1,.8-.5l.125-.046.05.035h0a1.472,1.472,0,0,1,1.04-.465l.052,0a1.936,1.936,0,0,0,.547-.022.618.618,0,0,1,.326.025.377.377,0,0,0,.091.02,1.3,1.3,0,0,1,.313-.05l.085-.007a.469.469,0,0,1,.254.026.5.5,0,0,0,.26.009c.051-.006.1-.011.153-.014a3.945,3.945,0,0,1,.688.043c.151.02.3.045.449.073a1.067,1.067,0,0,1-.12-.176l-.066-.122.2-.361.424.124c.037.011.074.024.111.037a.81.81,0,0,0,.156.045c.311.037.642.069,1.012.1h.021a.49.49,0,0,0-.024-.073l-.063-.154.114-.121a.344.344,0,0,0,.066-.082s0-.007-.007-.02a.355.355,0,0,1,0-.3.349.349,0,0,1,.146-.149.994.994,0,0,0-.081-.287l-.091-.222.215-.106a.572.572,0,0,1,.471-.059l.017.007a.331.331,0,0,1,.008-.088c.007,0,0,0-.025-.02l-.484-.305,0,.014-.028-.033-.241-.15a.938.938,0,0,1-.371-.388l-.172-.293.329-.085a.679.679,0,0,1,.171-.025l.021-.132a1.706,1.706,0,0,1-.416-.364.581.581,0,0,0-.131-.088.716.716,0,0,1-.406-.47l-.06-.265.323-.053a3.471,3.471,0,0,0-.85-.437,4.737,4.737,0,0,1-.586-.291c-.1-.055-.2-.11-.3-.161l-.018-.009a.479.479,0,0,1-.167-.116c-.113-.128-.258-.137-.539-.127-.021,0-.037,0-.052,0a.727.727,0,0,1-.8-.035c-.1-.057-.213-.105-.329-.156s-.215-.09-.314-.125c-.12-.042-.242-.08-.365-.116a1.405,1.405,0,0,1-.2-.084.418.418,0,0,0-.206-.064c-.1.012-.25-.027-.364-.276l-.011-.025-.007-.016-.025.009h0a.8.8,0,0,1-.171.351.485.485,0,0,1-.584.156l-.051.024a1.226,1.226,0,0,1-1.119.008.378.378,0,0,1-.179-.211.735.735,0,0,1-.443-.182.425.425,0,0,1-.386-.225l-.013-.021-.171-.11.035-.077,0,0-.232-.13.139-.227c.015-.025.029-.051.043-.075a1.008,1.008,0,0,1,.148-.22,1.114,1.114,0,0,0,.166-.24l-.41.216.3-.679c.016-.034.029-.069.041-.1a.956.956,0,0,1,.149-.283.722.722,0,0,1,.122-.113.371.371,0,0,1,.067-.23l.013-.021-.016-.081.563-.529-.037-.108.25-.159.092-.058a.5.5,0,0,1,.217-.449.355.355,0,0,0,.044-.038,1.055,1.055,0,0,1,.285-.25,1.324,1.324,0,0,0,.116-.083c.022-.019.045-.037.068-.054.085-.065.086-.072.087-.092.015-.242.305-.346.394-.372l.036-.011-.113-.1.143-.191a1.1,1.1,0,0,0,.1-.177,1.042,1.042,0,0,1,.364-.468.6.6,0,0,1,.287-.321,2.11,2.11,0,0,0,.43-.331,3.375,3.375,0,0,1,.363-.3C-674.931-1442.285-674.828-1442.362-674.725-1442.439Zm2.982-16.323a2.151,2.151,0,0,1-.344,1.008,3.534,3.534,0,0,0-.283.583,1.945,1.945,0,0,1-.615.777,2.581,2.581,0,0,0-.426.506c-.038.053-.076.107-.115.16-.018.024-.034.049-.051.074a1.173,1.173,0,0,1-.176.22,1,1,0,0,0-.2.326l-.043.091a.466.466,0,0,1-.015.622c-.069.088-.14.175-.21.262-.167.207-.326.4-.467.612a.925.925,0,0,0-.183.375,1.187,1.187,0,0,1-.3.549c-.029.036-.059.071-.085.106a1.386,1.386,0,0,1-.223.22c-.029.025-.06.05-.09.078l-.085.078-.115-.012a.343.343,0,0,1-.292-.177l-.007-.015a.444.444,0,0,1-.394-.348c-.045-.124-.093-.246-.14-.369a7.665,7.665,0,0,1-.371-1.131c-.011-.05-.064-.145-.254-.309a7.944,7.944,0,0,0-1.176-.852c-.355-.209-.7-.441-1.032-.666l-.259-.174c-.141-.094-.279-.194-.416-.293-.08-.057-.159-.115-.24-.172a.354.354,0,0,0-.074-.04,1.1,1.1,0,0,1-.623-.467c-.18-.086-.353-.165-.537-.25l-.364-.168.026-.189c.011-.082-.005-.127-.217-.243a1.384,1.384,0,0,1-.382-.28.751.751,0,0,0-.116-.091,1.466,1.466,0,0,1-.153-.117.508.508,0,0,1-.195-.358l0-.081a1.042,1.042,0,0,1,.207-.786.317.317,0,0,0,.022-.033.427.427,0,0,1,.239-.2.757.757,0,0,1,.548-.007.467.467,0,0,0,.417.014,4.037,4.037,0,0,1,1.43-.2l.138,0c.208,0,.416-.013.624-.021s.416-.016.624-.021a.437.437,0,0,1,.41.228c0,.01.009.017.035.03l.01-.006c.084-.044.161-.085.236-.129l.031-.02a.61.61,0,0,1,.611-.351c.109,0,.12-.017.138-.043a.426.426,0,0,1,.269-.158l.034-.009.016-.005c.169-.058.338-.115.509-.17a.8.8,0,0,1,.1-.024c0-.015,0-.027,0-.036l0-.017.026-.384.344.172c.021.011.041.022.061.034l.023.005.052.005a1.268,1.268,0,0,1,.7-.186.106.106,0,0,1,.029-.015.833.833,0,0,1,.116-.04l.029-.008a.458.458,0,0,1,.318,0,1.974,1.974,0,0,1,.847.616.9.9,0,0,0,.458.381.991.991,0,0,1,.46.282,1.465,1.465,0,0,0,.37.272c.078.046.156.092.23.144l.027.018a.745.745,0,0,1,.4.591.749.749,0,0,1,.056.06l.063.078Zm8.029-8.49-.328.737-.033-.174a.758.758,0,0,0-.062.15.915.915,0,0,1-.163.3.9.9,0,0,0-.181.543.721.721,0,0,1-.011.112l.067.04a.469.469,0,0,1,.214.273.439.439,0,0,1-.056.351,1.04,1.04,0,0,0-.14.66l.02.127-.1.107c-.126.128-.121.142-.107.177a.368.368,0,0,1,.01.214,1.456,1.456,0,0,1-.9.883c-.077.013-.154.02-.231.026-.049,0-.1.009-.148.015l-.029,0a.684.684,0,0,1-.377.219.539.539,0,0,0-.1.036.95.95,0,0,1-.608.128.426.426,0,0,0-.219.033,1.1,1.1,0,0,1-.491.126.982.982,0,0,1-.579-.2.453.453,0,0,0-.039-.027,1.438,1.438,0,0,1-.727-.414c-.061-.055-.122-.11-.188-.159a2.527,2.527,0,0,0-.37-.214l-.14-.072-.061-.032a1.653,1.653,0,0,1-.714-.58.518.518,0,0,1,.123-.744.747.747,0,0,1,.089-.211c.011-.019.026-.046.032-.061a.394.394,0,0,1,.237-.476l.022-.012.011-.006a.437.437,0,0,1,.158-.271,1.888,1.888,0,0,1,.163-.125l.194-.141.132.069.186-.194a.54.54,0,0,1,.119-.108c.1-.06.192-.12.288-.179s.215-.132.321-.2l.02-.021a.715.715,0,0,1,.086-.079c.087-.066.176-.129.265-.192l.083-.059c.024-.017.05-.033.077-.048l.022-.012a.569.569,0,0,1,.4-.241.316.316,0,0,0,.216-.109.553.553,0,0,1,.487-.258l.006-.005a1.968,1.968,0,0,1,.349-.3c.053-.039.106-.077.156-.119a2.116,2.116,0,0,1,.519-.314.327.327,0,0,0,.051-.033.55.55,0,0,1,.262-.114c.222-.023.437-.014.649-.018l.106,0,.076.073a1.128,1.128,0,0,0,.421.213,2.546,2.546,0,0,1,.273.107l.117.057.092.5.068.1Zm2.329,8.245a.342.342,0,0,1-.223.087c-.077.206-.236.266-.513.329l-.608.137.366-.574.013-.022-.054-.011.1-.067a.622.622,0,0,1,.448-.288l.53-.341.043.415A.376.376,0,0,1-661.386-1459.007Z" transform="translate(707.863 1482.217)" fill="#a72126"/><path d="M-540.924-1207.34c.012.073-.006.121-.049.143l-.034.1a.152.152,0,0,0,.151-.1.224.224,0,0,0-.03-.187.193.193,0,0,0-.15-.059.152.152,0,0,0-.1.051.144.144,0,0,0-.041.093l.1-.017C-541.049-1207.352-541-1207.366-540.924-1207.34Z" transform="translate(569.697 1254.453)" fill="#a72126"/><path d="M-471.89-1117.521l-.021.021h0l.022-.013Z" transform="translate(512.281 1179.919)" fill="#a72126"/><path d="M-583.786-1470.65l-.207-.062-.039-.134a.2.2,0,0,0-.008.077.222.222,0,0,0,.123.126A.168.168,0,0,0-583.786-1470.65Z" transform="translate(605.225 1472.791)" fill="#a72126"/><path d="M-573.141-1388.045a.762.762,0,0,1,.164-.135l.042-.025a.328.328,0,0,0-.179.123Z" transform="translate(596.191 1404.291)" fill="#a72126"/><path d="M-571.553-1464.851l.017-.025h0l-.025.027Z" transform="translate(594.883 1467.843)" fill="#a72126"/><path d="M-650.584-1240.666v-.007l-.187-.169h0l.178.184Z" transform="translate(660.539 1282.139)" fill="#a72126"/><path d="M-485-1308.889l.015,0c0-.008,0-.017,0-.026Z" transform="translate(523.132 1338.57)" fill="#a72126"/><path d="M-586.008-1372.6l-.1.033a.365.365,0,0,1-.17.013l.122.085A.834.834,0,0,0-586.008-1372.6Z" transform="translate(607.077 1391.358)" fill="#a72126"/><path d="M-652.208-1248.942a.173.173,0,0,0-.12-.041h-.006a1.176,1.176,0,0,1,.049.131l.139,0A.175.175,0,0,0-652.208-1248.942Z" transform="translate(661.835 1288.889)" fill="#a72126"/><path d="M-580.681-1186.293l.037-.107a.589.589,0,0,1-.052.066c.005.015.01.03.013.045Z" transform="translate(602.454 1237.013)" fill="#a72126"/></svg>