<svg xmlns="http://www.w3.org/2000/svg" width="58.168" height="63.524" viewBox="0 0 58.168 63.524"><g transform="translate(21.939 0)"><path d="M-575.785-674.405c-.116.08-.234.158-.353.237-.045.029-.091.056-.138.083l-.231.526a.226.226,0,0,1,.084-.053.486.486,0,0,0,.056-.05.563.563,0,0,1,.264-.165l.281-.464.172.4.015.037a.313.313,0,0,1,.048-.037v-.056a.334.334,0,0,1,.024-.18.253.253,0,0,1,.037-.057l-.047.021Z" transform="translate(582.695 715.645)" fill="#a72126"/><path d="M-548.277-567.979l.07-.053,0-.013.026,0,.035-.025a.551.551,0,0,1,.082-.376l0-.006-.008-.014-.019.014-.005.015a.251.251,0,0,0-.009.04.411.411,0,0,1-.1.229.382.382,0,0,1-.153.092l0,.018A.49.49,0,0,1-548.277-567.979Z" transform="translate(558.766 625.567)" fill="#a72126"/><path d="M-548.723-598.55l.065-.023a.583.583,0,0,1,.173-.213l-.01-.042a.431.431,0,0,0-.023-.081.149.149,0,0,1-.036-.017l-.01,0a.278.278,0,0,0-.04.014l-.03.018-.169.262.074.082Z" transform="translate(559.139 651.462)" fill="#a72126"/><path d="M-551.935-593.4l-.006,0v.01Z" transform="translate(561.806 646.77)" fill="#a72126"/><path d="M-522.2-681.485a.171.171,0,0,0-.03.087l.115-.05v-.1A.174.174,0,0,0-522.2-681.485Z" transform="translate(536.538 721.723)" fill="#a72126"/><path d="M-559.462-605.231a.836.836,0,0,0,.325.509,1,1,0,0,1,.246.4l.014-.032a.438.438,0,0,1,.045-.08v-.3a.533.533,0,0,1-.361-.575l.009-.064.076-.089-.3-.42.073-.069-.083-.123-.048.083c-.021.036-.044.07-.067.1a.5.5,0,0,0-.068.118.348.348,0,0,0,.038.31A.488.488,0,0,1-559.462-605.231Z" transform="translate(568.335 657.547)" fill="#a72126"/><path d="M-490.474-716.894h-.11l-.692.45-.021-.028-.209.12c-.233.133-.473.271-.7.413-.079.049-.148.1-.212.142a.765.765,0,0,0,.2-.126.8.8,0,0,1,.373-.162l1.477-.816A.684.684,0,0,1-490.474-716.894Z" transform="translate(511.195 751.781)" fill="#a72126"/><path d="M-505.229-715h0v0Z" transform="translate(522.086 750.164)" fill="#a72126"/><path d="M-617.644-648.568c-.032,0-.066.006-.1.007l-.057,0-.05.034.043.023.142.063-.009.155a.546.546,0,0,1-.045.2l1.177.224-.293.368.089.077a.246.246,0,0,1,.03-.143c.078-.144.238-.15.379-.144l-.1-.275a.466.466,0,0,1-.266-.1c-.053-.039-.1-.082-.154-.125l-.057-.048a.309.309,0,0,1-.149-.254.273.273,0,0,1,.132-.213l.019-.013a.468.468,0,0,1-.061-.106l-.077-.185-.036-.006a.224.224,0,0,0-.035.053A.532.532,0,0,1-617.644-648.568Z" transform="translate(617.851 694.064)" fill="#a72126"/><path d="M-553-573.692l-.018-.072c0,.028-.007.056-.01.084Z" transform="translate(562.731 630.067)" fill="#a72126"/><path d="M-431.385-556.324h0a.416.416,0,0,1-.024.044l.048.012Z" transform="translate(459.316 615.238)" fill="#a72126"/><path d="M-436.949-529.386l-.031.033.024-.006h0Z" transform="translate(464.052 592.332)" fill="#a72126"/><path d="M-431.018-558.1a.715.715,0,0,0,.074-.048.234.234,0,0,1-.013-.052l-.178.023a.321.321,0,0,1,.016.136Z" transform="translate(459.082 616.833)" fill="#a72126"/><path d="M-577.655-906.01a.436.436,0,0,1-.043-.065l-.058-.106.006-.012-.651-.284.489-.2h0l.065-.309.166-.014c.044,0,.088-.01.133-.016a1.276,1.276,0,0,1,.492,0l.01,0-.125-.145a.459.459,0,0,1-.292-.127.376.376,0,0,1-.439-.106l-.2-.173.214-.178-.021-.023.043,0,.191-.159-.187-.069c-.037,0-.074.006-.112.007a.643.643,0,0,1-.635.047.321.321,0,0,1-.14-.1.775.775,0,0,1-.365.01.919.919,0,0,0-.106-.012.5.5,0,0,1-.456-.365.594.594,0,0,0-.041-.084.517.517,0,0,1-.044-.092l-.021-.05a.352.352,0,0,0-.249.121l-.081.082-.114-.017c-.074-.011-.148-.026-.221-.04s-.161-.031-.238-.042l.09.172-.221.1a.348.348,0,0,1-.472-.174l-.146-.234.154-.057a.7.7,0,0,1-.061-.125l-.024-.063-.019,0-.034.061a.285.285,0,0,1-.092.1l-.033.024-.075.059-.36-.049c-.219-.03-.448-.061-.677-.094-.064-.009-.127-.024-.19-.038a.557.557,0,0,0-.351-.014.336.336,0,0,1-.25-.006l-.014,0-.251-.078.057.065-.358.152c-.059.026-.117.051-.177.073l-.063.024a2.825,2.825,0,0,1-.317.106.82.82,0,0,1-.691-.051l-.069-.045-.032-.021a.36.36,0,0,1,0,.251.447.447,0,0,1-.4.274l-.393.062c-.272.043-.544.087-.817.124-.024,0-.049.01-.074.016a.564.564,0,0,1-.39-.016l-.184.115-.124-.1c-.128-.1-.322-.247-.214-.486a1.038,1.038,0,0,1,.05-.1l-.218-.008.079-.568.2.018-.042-.175-.15.041-.091-.081a.494.494,0,0,1-.085-.655.476.476,0,0,0,.041-.1.606.606,0,0,1,.211-.366l.026-.027a.477.477,0,0,1,.009-.249.106.106,0,0,0,.008-.04l-.074-.1.073-.2a.393.393,0,0,1-.153-.148l-.125-.2.192-.11-.062-.055-.4-.346.392-.05a.359.359,0,0,1,.019-.1c-.009-.039-.016-.074-.023-.108a.559.559,0,0,0-.067-.209.294.294,0,0,1-.018-.294.441.441,0,0,1-.02-.077.273.273,0,0,1-.049-.144.268.268,0,0,1,0-.032l-.461-.087.359-.19-.207-.054.083-.231c0-.012.009-.023.014-.035-.022-.057-.047-.114-.072-.17l-.1-.227-.389-.547.337-.07c.04-.008.076-.018.112-.026a1.011,1.011,0,0,1,.282-.045,1.279,1.279,0,0,0,.321-.029c.2-.049.41-.083.583-.11a.655.655,0,0,1,.218.009l.028,0c.065.01.129.022.2.035l.367.067-.121.263a.268.268,0,0,1-.063.11l.031-.01c.128-.046.255-.094.382-.142s.268-.1.4-.15a.69.69,0,0,1,.3-.042c.1.011.2.03.316.052l.153.029.511.092-.417.309c-.015.012-.029.023-.043.035l.03.024.089-.046.109.068.12.071a1.7,1.7,0,0,1,.463.353c.1.12.162.159.236.154a.3.3,0,0,1,.24.119.288.288,0,0,0,.022.024l.321.294.051-.035.132.147.01.011.188-.161.133.253c.021.042.044.081.066.12a1.189,1.189,0,0,1,.146.328.656.656,0,0,0,.172.326c.015.016.03.032.044.049l.044-.705.526.95,0-.016.328.284.043.034a.522.522,0,0,1,.122.12l.016.023.023-.021.09-.083.143.037.108-.162a.325.325,0,0,1,.281-.168.325.325,0,0,1,.273.184l.069.116-.043.071a1.039,1.039,0,0,1,.375.329l.019-.2h.627l.039.04a.764.764,0,0,1,0-.166c0-.018,0-.036.007-.053s.005-.037.007-.052a.36.36,0,0,1-.1-.346,1.316,1.316,0,0,0-.036-.51.6.6,0,0,1,.114-.554.359.359,0,0,1-.077-.205l-.011-.15.1-.048-.153-.041.045-.209a1.125,1.125,0,0,1,.033-.113l.005-.016a.826.826,0,0,1-.085-.277h-.488l.3-.408-.14-.079.039-.24-.15-.08-.008-.139c0-.015,0-.03,0-.044a.256.256,0,0,1-.121.067.413.413,0,0,1-.465-.236l-.221-.361.65.03a1.737,1.737,0,0,1-.074-.249,1.518,1.518,0,0,0-.15-.362,1.549,1.549,0,0,1-.126-.389.835.835,0,0,0-.129-.346.328.328,0,0,1-.064-.257.431.431,0,0,1-.026-.065c-.02-.068-.078-.118-.171-.195l-.153-.126.134-.211-.152-.39a.3.3,0,0,1-.244-.272.63.63,0,0,1,0-.129.592.592,0,0,1-.19-.315.374.374,0,0,0-.05-.119.592.592,0,0,1-.206-.37l-.232-.135c-.048-.028-.092-.055-.133-.081a1.056,1.056,0,0,0-.192-.105.43.43,0,0,1-.28-.257.085.085,0,0,0-.014-.017l-.131.1-.092-.056-.032.142-.172.007a.512.512,0,0,1-.507-.315.434.434,0,0,1-.257-.1.654.654,0,0,1-.554-.106l-.032-.018a.806.806,0,0,0-.163-.068c0,.015,0,.03-.006.045-.007.05-.01.083-.011.106a.5.5,0,0,1,.126.245l.212-.158.041.056.221.2.085.078a2.962,2.962,0,0,1,.226.218.324.324,0,0,1,.067.262c0,.008,0,.016,0,.023l0,.247-.245-.018h-.022a.328.328,0,0,1-.251-.081l-.035-.033a.693.693,0,0,1-.191-.256l-.049.033-.048-.062-.152-.021c-.026,0-.047,0-.063-.006a.281.281,0,0,1-.214-.092c-.016-.019-.034-.037-.051-.054a.63.63,0,0,1-.207-.371c-.112-.051-.227-.1-.348-.146l-.318-.129.021-.138a.372.372,0,0,1-.385-.067.934.934,0,0,1-.242-.287c-.024-.039-.047-.08-.069-.12l-.149.039.1-.13-.026-.05c-.018-.036-.037-.073-.057-.111l-.018-.031-.828-.285.609-.2-.156-.178-.324-.182h1.208c.159-.125.248-.162.391-.125a.374.374,0,0,1,.287-.242,1.411,1.411,0,0,0,.2-.085c.039-.019.079-.039.118-.057a.813.813,0,0,0,.179-.132,1.709,1.709,0,0,1,.176-.139l-.031-.025.172-.18a1.693,1.693,0,0,1,.736-.454.882.882,0,0,0,.207-.1c.112-.072.221-.148.333-.227l.342-.237.121.188c.017,0,.043,0,.062-.005a.551.551,0,0,1,.343.046l.121.066.029-.022-.019,0,.328-.514a.753.753,0,0,1,.623-.456.327.327,0,0,1,.168-.215.32.32,0,0,1,.206-.027.369.369,0,0,1,.125-.309l-.033-.026.395-.51.249.239.426-.192-.978,1.259-.018.032h.237l.343-.365.057.478a.531.531,0,0,1,0,.155l.4-.136v.2l.038-.01-.017-.128a.7.7,0,0,1,.213-.584,2.628,2.628,0,0,1,.231-.233c.04-.037.08-.074.118-.112a1.328,1.328,0,0,1,.314-.221l.044-.025-.043-.01-.254-.06.1-.242a.755.755,0,0,1,.308-.341.561.561,0,0,0,.12-.1l.057-.073-.037,0-.046-.181a.35.35,0,0,1,.033-.282.3.3,0,0,1,.052-.062.358.358,0,0,1-.012-.178l.023-.123.116-.045-.109-.027.115-.233-.2-.275-.152.209-.572-.736.6-.447.1.2a1.033,1.033,0,0,1,.175-.053c-.015-.02-.035-.043-.056-.068s-.047-.055-.07-.085l-.128-.163.152-.141a.35.35,0,0,0,.039-.042.479.479,0,0,1-.059-.245l-.167-.058.045-.21-.133-.029.11-.33c.021-.063.039-.118.058-.173l.006-.017-.061-.011-.008-.134a.323.323,0,0,1-.2-.091l-.145-.134.307-.432a.375.375,0,0,1-.178-.139.384.384,0,0,1-.052-.276l0-.006a.585.585,0,0,1-.027-.064l-.027-.082.035-.079.008-.016-.014-.019a.66.66,0,0,1-.086-.539c0-.026.009-.051.012-.077s.007-.056.008-.084c-.015-.011-.038-.026-.07-.045l-.145-.089.046-.164a.392.392,0,0,0-.082-.412.573.573,0,0,1-.171-.5l-.013-.022a.56.56,0,0,1-.075-.166l-.009-.041c-.033-.147-.051-.2-.113-.236a.346.346,0,0,1-.157-.374c-.007-.012-.021-.03-.03-.043l-.035-.049a.427.427,0,0,0-.051-.05.617.617,0,0,1-.147-.174.674.674,0,0,1-.063-.237.58.58,0,0,0-.013-.078c-.007-.024-.023-.036-.127-.077a1.359,1.359,0,0,1-.13-.057l-.149-.079.034-.165c0-.02.008-.038.011-.054l-.023.007-.094-.073c-.021-.016-.042-.03-.064-.044a.612.612,0,0,1-.234-.238.747.747,0,0,1-.436-.3l-.212.112-.117-.137a.6.6,0,0,0-.044-.044.5.5,0,0,1-.126-.163.247.247,0,0,1-.151-.138c0-.009-.01-.018-.015-.028a.385.385,0,0,1-.042-.342.332.332,0,0,0-.073-.063,1.975,1.975,0,0,1-.328-.148l-.017.152-.7-.315.017-.045-.713-.375a.4.4,0,0,1-.389-.164l-.031-.034a.279.279,0,0,1-.151-.007c-.043-.015-.085-.033-.127-.052a.937.937,0,0,0-.094-.038c-.116-.037-.232-.072-.348-.108-.179-.054-.358-.109-.536-.169a1.779,1.779,0,0,1-.431-.235c-.057-.039-.115-.078-.175-.112l-.116-.067a.7.7,0,0,1-.213-.053.371.371,0,0,1-.151-.125l-.008-.011c-.14-.1-.3-.208-.476-.313a.517.517,0,0,0-.122-.062,2.428,2.428,0,0,1-.476-.094l-.131-.034c-.282-.07-.581-.114-.871-.157l-.107-.016a2.1,2.1,0,0,0-.926.063,2.627,2.627,0,0,1-.431.088c-.1.013-.2.022-.305.031-.076.007-.151.013-.227.022l-.208.176c-.008.007-.015.015-.022.022a.287.287,0,0,1-.249.107c-.042-.006-.088.018-.166.06a1.053,1.053,0,0,1-.2.089.288.288,0,0,0-.037.02.426.426,0,0,1-.246.075.324.324,0,0,0-.15.053.935.935,0,0,1-.193.079c-.04.011-.081.025-.121.039a.79.79,0,0,1-.611.03h0a.741.741,0,0,0-.073.04.573.573,0,0,1-.429.1l-.016.008q-.373.16-.745.323l-.066.027a.494.494,0,0,0-.106.05,1.185,1.185,0,0,1-.826.253.2.2,0,0,0-.047.006.644.644,0,0,1-.453.24c-.027,0-.054.009-.08.016l-.128.032-.09-.1a.57.57,0,0,1-.124-.507.366.366,0,0,0,0-.132.379.379,0,0,1-.021-.151l-.043.01v-.361c0-.054,0-.1,0-.149v-.051a1,1,0,0,1,.018-.21l-.254.037.128-.35.025-.306c0-.066.009-.116.015-.166l0-.015a.4.4,0,0,1,.02-.309.253.253,0,0,0,.012-.03c.028-.191.047-.367.058-.534a.5.5,0,0,0,0-.061.736.736,0,0,1,0-.159l-.249.018.306-1.023.082.114a.356.356,0,0,1,.225-.178l.049-.013.029-.057.035.039.007,0,.159.147c.032-.024.063-.045.093-.065l.068-.046.324-.23.011.137.05-.038.057.1a.319.319,0,0,1,.25-.073l.022-.011.041-.02a.256.256,0,0,0,.024-.016.476.476,0,0,1,.143-.073,4.04,4.04,0,0,0,.634-.232c.033-.015.065-.032.1-.049a1.054,1.054,0,0,1,.576-.16.376.376,0,0,1,.063-.036.941.941,0,0,1,.737.009l.206.075.188-.219.116.16a.28.28,0,0,1,.18-.048l.036,0,.033.014c.043.018.084.039.124.058a.4.4,0,0,0,.255.071.522.522,0,0,0,.159-.04.4.4,0,0,0,.032-.115.724.724,0,0,1,.068-.186l.016-.033.074-.18.189.048c.047.012.091.026.132.038a.609.609,0,0,0,.145.035.41.41,0,0,1,.311.12.315.315,0,0,1,.031.039l.2-.067.088.053a1.741,1.741,0,0,0,.378.192h0l.014-.011-.007-.015a1.574,1.574,0,0,1-.165-.886.381.381,0,0,0-.227-.441l-.1-.051-.019-.115a.733.733,0,0,1,.182-.665.143.143,0,0,0,.006-.03c.008-.081.009-.164.012-.246,0-.05,0-.1,0-.151,0-.034,0-.056,0-.069s-.03-.016-.062-.031a.634.634,0,0,1-.242-.18c-.046-.058-.076-.073-.085-.074s-.036.007-.085.05l-.288.251-.934-.505-.038-.123a1.322,1.322,0,0,1-.058-.209.276.276,0,0,0-.126-.2c-.042-.028-.086-.053-.13-.079a2.189,2.189,0,0,1-.245-.159,2.142,2.142,0,0,0-.643-.3l-.058-.02a1.174,1.174,0,0,1-.252.259.381.381,0,0,1-.48.028.643.643,0,0,1-.3.169.662.662,0,0,1-.551-.106l-.191-.138.177-.221a.683.683,0,0,1-.6-.363l-.174-.287.357-.056a.452.452,0,0,1,.136-.013l.118.009.035,0a1.086,1.086,0,0,0-.345-.093l-.027,0a.927.927,0,0,1-.4-.122.089.089,0,0,0-.052.052.763.763,0,0,1-.118.266l-.023.038a.267.267,0,0,1-.227.122l-.206.035a.4.4,0,0,1-.312,0h-.011a.565.565,0,0,1-.065-.01.457.457,0,0,1-.209.216,1.1,1.1,0,0,1-.93,0l-.156.353-.2-.462-.321.084-.086-.063a.49.49,0,0,1-.222-.339l-.233-.1-.013-.19a.873.873,0,0,1-.149-.047,1.036,1.036,0,0,1-.174-.1c-.025-.017-.05-.034-.076-.049l-.026-.014a.537.537,0,0,1-.315-.354v0c-.048.013-.1.021-.138.028l-.028,0a.374.374,0,0,1-.075,0h-.174l-.12-.288a.462.462,0,0,1-.27-.28.453.453,0,0,1-.117.028c-.018,0-.04.005-.066.011l-.366.075.105-.358c.007-.024.012-.045.016-.064a.383.383,0,0,1,.095-.2.369.369,0,0,1,.139-.086l-.02-.02a2.068,2.068,0,0,0-.192-.094l-.059-.023a.785.785,0,0,1-.342-.211.412.412,0,0,1-.393-.269l-.334-.026c.016.03.033.061.05.091l.088.157-.133.12a.386.386,0,0,1,.063.191c0,.01,0,.02,0,.03l.039.2-.195.058a1.664,1.664,0,0,1-.756.031.485.485,0,0,0-.158-.012l0,.008.162.25-.853.289-.054-.142a.389.389,0,0,1-.3.416.3.3,0,0,1,.058.132l.035.109-.069.086a.418.418,0,0,1-.091.093.425.425,0,0,1,.038.18v.079l-.09.111.006.009a.768.768,0,0,1,.2.176.881.881,0,0,0,.152.126,1.293,1.293,0,0,1,.224.189.8.8,0,0,1,.512.481c.039.08.078.159.118.239.086.17.175.347.249.53a6.435,6.435,0,0,1,.273.823.978.978,0,0,1-.241.9,2.143,2.143,0,0,1-.186.178,1.764,1.764,0,0,0-.164.157c-.205.235-.425.46-.637.679-.09.093-.181.186-.271.28l-.227.239q-.19.2-.381.4a.63.63,0,0,1-.225.161.928.928,0,0,0-.505.449.414.414,0,0,1-.162.177.874.874,0,0,0-.25.251c-.03.038-.06.077-.091.114a.685.685,0,0,1-.2.175.679.679,0,0,0-.26.326.812.812,0,0,1-.423.413l-.029.012-.01,0a1.616,1.616,0,0,1-.321.4,1.157,1.157,0,0,0-.242.294l-.111.228-.078-.05a.377.377,0,0,1-.125.089l-.021.01c-.068.033-.137.07-.213.114l.049.047-.093.153-.018.028.12.236.247-.056-.169.209.062.121-.106-.066-.192.238c-.025.032-.05.06-.073.087l.452.108.29-.783.239.415a.649.649,0,0,1,.051.109c.057-.039.115-.072.171-.1l.114-.063.238.146a.355.355,0,0,1,.17-.077c.219-.031.456-.058.723-.083a.534.534,0,0,1,.333.053c.008,0,.021,0,.072,0l.042,0c.053,0,.107-.007.161-.013a1.2,1.2,0,0,1,.534.029l.022-.013a1.465,1.465,0,0,0,.132-.092l.067-.05.194-.14.128.2a.33.33,0,0,1,.042.094.614.614,0,0,1,.528-.009,1.441,1.441,0,0,1,.272-.41c.044-.052.09-.106.134-.166l.591-.792-.1.49c.035-.041.072-.077.107-.113l.066-.067.224-.236.142.293a2.79,2.79,0,0,1,.276.775,1.709,1.709,0,0,0,.144.513,1.374,1.374,0,0,1,.133.43l.007.036a.434.434,0,0,0,.013.05.412.412,0,0,1,.183.27c.09.339.175.672.258,1,.02.079.037.158.054.237s.039.184.064.275a2.165,2.165,0,0,1,.086.745.706.706,0,0,0,0,.1,1.315,1.315,0,0,1,0,.137c0,.034,0,.068,0,.1a.643.643,0,0,1-.143.511,3.793,3.793,0,0,1-.317.316c-.2.171-.4.34-.6.509l-.407.341a1.138,1.138,0,0,0-.092.091l-.05.053c-.057.058-.117.109-.175.158a.868.868,0,0,0-.258.289.247.247,0,0,1-.107.117l-.063.061c-.1.092-.191.183-.285.277-.059.059-.116.118-.174.178-.09.093-.18.186-.273.276-.308.293-.672.638-1.044.978-.185.169-.379.33-.577.479a.494.494,0,0,1-.431.081c-.075.057-.147.116-.22.175l-.16.129c-.043.034-.088.066-.133.1a1.489,1.489,0,0,0-.2.157c-.184.187-.364.378-.544.57-.126.134-.251.267-.378.4a1.734,1.734,0,0,1-.147.132,1.206,1.206,0,0,0-.115.1c-.063.068-.122.138-.182.209-.078.093-.159.189-.248.28l-.016.016a.808.808,0,0,1-.6.309l-.222,0v-.181c-.023.057-.047.112-.071.167s-.036.082-.053.123a.235.235,0,0,1-.214.144l-.1.019-.071-.065-.021-.015a2.563,2.563,0,0,1-.115.56,1.063,1.063,0,0,0-.037.192c-.008.06-.016.121-.029.18a.3.3,0,0,1-.3.237l-.319.051.037-.3c.006-.05.015-.1.025-.151a.763.763,0,0,0,.022-.236,1.632,1.632,0,0,1-.029-.352c0-.09.01-.18.017-.27.01-.137.019-.267.02-.4a.406.406,0,0,1,.023-.134l-.1-.009,0,0c-.037.034-.047.075-.065.182l-.005.031a.6.6,0,0,1-.117.243c-.012.017-.024.034-.035.052l-.1.171-.346-.149-.06-.67.153-.077c.01,0,.026-.011.029-.1,0-.059.007-.118.013-.177a.8.8,0,0,0-.009-.319.532.532,0,0,1,.115-.435l.017-.025.024-.035-.013-.042-.032-.1.059-.089a.422.422,0,0,1,.065-.075l-.052-.068.231-.3-.127-.258.183-.017-.073-.441a.318.318,0,0,1-.316.117l-.231-.04.021-.1-.127-.168-.091.036.028-.119-.042-.056a.543.543,0,0,0-.057-.059l-.021-.02a.608.608,0,0,1-.2.252.287.287,0,0,0-.021.1c0,.018,0,.036,0,.054a.48.48,0,0,1-.1.375c0,.009,0,.018,0,.026-.018.108-.035.216-.052.325-.039.246-.079.5-.128.752a3.172,3.172,0,0,1-.146.48l-.015.041c-.014.039-.032.077-.05.115a.407.407,0,0,0-.041.105.051.051,0,0,0,.009.016.282.282,0,0,1,.033.238l-.108,1.126c-.008.083-.017.167-.027.251-.021.187-.041.364-.044.541,0,.09,0,.18.007.27a2.418,2.418,0,0,1-.024.613l0,.017c.012.046.025.092.039.138a2.083,2.083,0,0,1,.08.35,2.953,2.953,0,0,1,0,.575.721.721,0,0,1-.014.092.182.182,0,0,0-.006.033.863.863,0,0,1,.076.5,5.634,5.634,0,0,1-.25,1.141c-.076.224-.069.317.03.4a.525.525,0,0,1,.149.258.565.565,0,0,0,.023.063c.053.115.107.229.163.342.039.081.08.162.123.249l0,.009a.469.469,0,0,1,.353.236,1.641,1.641,0,0,0,.171.229c.051.061.1.124.152.194a.537.537,0,0,1-.016.763.858.858,0,0,0,.081.466l.055.066a1.4,1.4,0,0,1,.171.235.647.647,0,0,0,.27.251,2.234,2.234,0,0,1,.683.575c.038.051.073.1.108.157a.792.792,0,0,0,.217.254.375.375,0,0,1,.142.187c0,.009.007.018.011.026s.035.047.054.074a1.072,1.072,0,0,0,.157.19,2.367,2.367,0,0,0,.215.155,2.5,2.5,0,0,1,.279.206c.134.119.26.247.383.37.064.065.129.13.195.194l.224-.55.191.58a.242.242,0,0,0,.01.025l.019-.005a.385.385,0,0,1,.31.058c.075.044.149.091.222.138a.411.411,0,0,1,.241-.073l-.005-.014a.689.689,0,0,0-.2-.334l-.091-.067v-.44l.428-.131.092.073c.021.016.041.034.061.053a.4.4,0,0,0,.033.03.512.512,0,0,0,.057,0c.026,0,.051,0,.074,0h.138l.063.123a.431.431,0,0,1,.023.053l.464.407a.671.671,0,0,1,.363.013l-.026-.024.427-.163.136-.052h0a.711.711,0,0,1-.008-.309.249.249,0,0,0-.042-.072l-.08-.108.221-.461.129.018a.448.448,0,0,1,.011-.1.334.334,0,0,1,.128-.2c-.052-.09-.1-.178-.157-.266-.015-.024-.031-.047-.048-.07a.989.989,0,0,1-.1-.167c-.022-.047-.04-.1-.058-.145-.041-.113-.068-.179-.128-.216a.371.371,0,0,1-.136-.168c0-.007-.007-.014-.01-.021-.064-.081-.135-.165-.207-.249a.338.338,0,0,1-.124-.129.91.91,0,0,0-.084-.124.876.876,0,0,1-.187-.37,1.08,1.08,0,0,1-.487-.612.543.543,0,0,0-.08-.1c-.029-.032-.06-.067-.092-.107l-.057-.071.009-.091a.659.659,0,0,1-.216-.472c0-.018-.006-.038-.009-.058s0-.033-.007-.048a.747.747,0,0,1-.2-.458l-.009-.051-.007-.034-.118.082-.133-.13a.6.6,0,0,1-.176-.4l-.062.116-.172-.474a.506.506,0,0,1,.037-.5l-.207-.062.209-.779.178.07a.988.988,0,0,1,.076-.119c.012-.017.024-.033.035-.051a2.35,2.35,0,0,1,.212-.269c.036-.041.072-.082.106-.125a1.722,1.722,0,0,0,.19-.341c.017-.036.033-.071.05-.106a.725.725,0,0,1,.4-.367l.529-.213.07-.083.081.042a.5.5,0,0,1,.072-.061v-.28l.232.079.068-.169.175.025.011,0a.592.592,0,0,1,.173-.234.64.64,0,0,1,.421-.169,1.307,1.307,0,0,1,.165-.276c.031-.043.062-.086.09-.134l.222-.38.158.359.131-.073a.835.835,0,0,1,.36-.378.625.625,0,0,0,.148-.115.342.342,0,0,1,.227-.117l.023,0,.15-.039.067.087a.462.462,0,0,1,.089-.124c.259-.251.513-.517.736-.751.043-.045.085-.09.127-.136l.024-.026.19-.563a.873.873,0,0,1,.106-.215h-.016l-.151-.341.119-.107a1.633,1.633,0,0,0,.218-.262,1.67,1.67,0,0,1,.379-.411l.14-.1.132.109a.342.342,0,0,1,.136.241.331.331,0,0,1-.1.25l-.083.093.029.276v.009c.032-.038.065-.079.1-.12s.063-.08.1-.118l.162-.193.141.15.015-.063.37.115.215.495-.1.107a.891.891,0,0,1-.074.072l-.016.014a2.887,2.887,0,0,1-.031.611c-.016.1-.008.109.047.138l.091-.1-.054.118a.712.712,0,0,1,.247.34.346.346,0,0,1-.038.3c-.005.01-.011.021-.015.03v0a.725.725,0,0,1,.033.587l0,0c.079.124.05.255,0,.472l-.062.28-.257-.128a.43.43,0,0,1-.128-.094l-.029,0,.143.3-.2.1.2-.1c.116.245.073.323-.206.833a1.383,1.383,0,0,1-.388.411c-.045.035-.09.07-.132.108l-.118.105-.139-.076a.317.317,0,0,1-.172-.216.316.316,0,0,1,.073-.266c.045-.056.089-.114.133-.17.1-.133.207-.27.323-.4l.022-.024a.408.408,0,0,0,.115-.168.319.319,0,0,1,.088-.155l.022-.026.2-.254-.267.032-.016-.176a1.766,1.766,0,0,1-.155.111l0,.007-.7.377a.256.256,0,0,1-.065.077.483.483,0,0,0-.058.068.524.524,0,0,1-.395.247l-.014.009-.153.1.041.154-.15.085c-.021.012-.044.023-.065.032h0a.409.409,0,0,1-.392.16v.009a2.078,2.078,0,0,0,.126.178l.07.094.064.091.232.33-.337.068a.544.544,0,0,1-.186,0l.052.07a2.034,2.034,0,0,1,.24.382l.213-.089.062.215a1.61,1.61,0,0,1,.319.076.307.307,0,0,1,.205.294l0,.062a2.538,2.538,0,0,1-.041.385l.058-.016.067-.019.1-.026.086.064a1.05,1.05,0,0,1,.088.076l.038.035a.314.314,0,0,1,.172.062l.32-.145.1.053.051.026a.485.485,0,0,1,.33.56l.044.015.021.16.194-.022.015.394c0,.106.009.207.011.308.006.284-.02.393-.177.51a.321.321,0,0,1,.006.163.267.267,0,0,1-.151.2.248.248,0,0,1-.066.019.948.948,0,0,1-.1.149c-.049.064-.07.094-.069.123l.017.289-.284-.055c-.061-.012-.119-.025-.176-.039l-.061-.014-.024.047a.551.551,0,0,1-.135.174l.007.022.044.153.177-.047-.281.471a.707.707,0,0,1-.385.288.461.461,0,0,0-.122.06.743.743,0,0,1-.277.162l-.045.1a.239.239,0,0,0-.01.028.33.33,0,0,1-.144.2l-.054.03a.662.662,0,0,0-.168.114.334.334,0,0,1-.324.09.363.363,0,0,1-.239-.205l-.056.008-.262.038a.414.414,0,0,1-.005.362l.167.126-.168.182a1.237,1.237,0,0,0-.15.178.3.3,0,0,1,.153.22l.044-.029-.076-.257.226.156.13-.088.022.193.463.32.024.069a.293.293,0,0,1,.016.116l.548-.047-.288.4a1.557,1.557,0,0,1-.235.26.558.558,0,0,1,.089.137l.065.139-.107.111c-.031.033-.067.063-.1.094a.571.571,0,0,0-.086.083.755.755,0,0,1-.35.4c-.026.018-.052.034-.076.053a.993.993,0,0,1-.314.154l.2.084-.18.093.165.353-.219.183.043.015-.049.2c-.01.038-.022.075-.034.108l0,.012c.011.026.02.051.028.075a.555.555,0,0,0,.027.068.617.617,0,0,0,.25.139.845.845,0,0,0,.63.012.565.565,0,0,1,.369-.032.845.845,0,0,1,.218.093c.022.012.044.025.069.037l.387.191-.378.207a.5.5,0,0,0-.122.124,1.282,1.282,0,0,1-.139.153l.068-.015.044.172.018,0a1.078,1.078,0,0,0,.4-.126.3.3,0,0,1,.048-.026.451.451,0,0,1-.008-.051l-.013-.121.1-.077c.412-.331.566-.426.938-.422l.838-.5.114.065a.287.287,0,0,1,.122.136.909.909,0,0,1,.108-.02c.129-.018.136-.038.146-.07a.385.385,0,0,1,.159-.2l.015-.011c.08-.061.161-.12.243-.18.175-.129.341-.25.5-.384.04-.034.083-.064.127-.094a.435.435,0,0,0,.16-.15.41.41,0,0,1,.332-.19.857.857,0,0,0,.092-.02l.447-.132-.032.079a.786.786,0,0,1,.21-.131.849.849,0,0,0,.3-.281l.055-.07a1.393,1.393,0,0,1,.368-.354l-.063-.081.568-.306.1.116c.018-.013.036-.024.052-.034l.02-.012a.44.44,0,0,1,.122-.206.567.567,0,0,1,.146-.366,2.291,2.291,0,0,1,.233-.209l.036-.029a.362.362,0,0,1,.143-.223.83.83,0,0,0,.226-.273c.032-.051.064-.1.1-.151a.753.753,0,0,0,.088-.209l.019-.058a.574.574,0,0,0-.075.113.314.314,0,0,0-.009.037.4.4,0,0,1-.121.236,1.238,1.238,0,0,1-.259.159c-.035.018-.072.036-.11.057l-.36.2.027-.41a.682.682,0,0,1,.27-.513.436.436,0,0,1,.025-.247.344.344,0,0,1,.218-.192.213.213,0,0,0,.077-.054c.023-.021.046-.041.071-.06a1.27,1.27,0,0,0,.256-.263l-.08-.251a.536.536,0,0,1-.489.086l-.426-.1.49-.436c0-.006,0-.013,0-.019a.765.765,0,0,1,.223-.472.346.346,0,0,1,.263-.122s.009-.012.019-.02a.809.809,0,0,1,.068-.049.424.424,0,0,1,.179-.056l.061-.01.338-.067-.1.44c-.007.035-.015.069-.022.1a.952.952,0,0,1,.137-.093c.008-.009.014-.019.021-.029s.033-.044.051-.066l.121-.141.175.1.106-.079-.118-.032.751-.3.11-.092-.005.051.482-.189-.146.452a.712.712,0,0,1-.056.132c.045,0,.087-.005.122-.007l.188-.007.03.137a1.651,1.651,0,0,1,.8-.134h.087c.183,0,.365-.015.558-.03l.215-.017.01-.01-1.024-.05.185-.319a.351.351,0,0,1,.365-.2l.006-.069.207-.011c.053,0,.106,0,.159.007a.832.832,0,0,0,.3-.016.58.58,0,0,1,.3,0,.635.635,0,0,0,.084.013.489.489,0,0,0,.082-.014l.108-.021.115-.02.016.016.106-.045.025-.013a.375.375,0,0,1,.241-.059,1.121,1.121,0,0,0,.329,0,.242.242,0,0,1,.086,0l.01-.031.7.055.017.188a.623.623,0,0,0,.027.109.655.655,0,0,1,.012.456l-.078.2-.205-.072-.016-.006.059.078-.072.112a.629.629,0,0,1,.117.28.15.15,0,0,0,.033.043l.028.03c.124.136.251.276.371.429a.37.37,0,0,1,.009.4.469.469,0,0,1-.27.209.88.88,0,0,0-.288.162,1.844,1.844,0,0,1-.248.16,2.683,2.683,0,0,1-.387.15c-.055.018-.111.036-.166.056l-.056.018c-.012,0-.025.007-.037.012a.918.918,0,0,1-.779.235.561.561,0,0,1-.326.292,2.229,2.229,0,0,0-.54.3,3.119,3.119,0,0,1-.515.3,1.045,1.045,0,0,1-.189.152c-.031.021-.055.037-.075.053l.016.118a.409.409,0,0,1-.246.42c-.057.031-.114.059-.172.087a1.373,1.373,0,0,0-.3.174.528.528,0,0,1-.416.127.544.544,0,0,1-.137-.038.773.773,0,0,1-.2.263l-.057.149a.48.48,0,0,1-.226.262l-.521.741a.852.852,0,0,1-.609.375l-.156.121c-.027.021-.053.043-.08.066a1.311,1.311,0,0,1-.241.174c-.14.073-.283.139-.421.2-.1.048-.21.1-.313.148s-.221.114-.331.173c-.093.05-.185.1-.279.147a.346.346,0,0,1-.152.21q-.266.166-.535.325a1.617,1.617,0,0,1-.156.078c-.1.047-.166.077-.2.133a.369.369,0,0,1-.239.184,1,1,0,0,0-.272.119,1.936,1.936,0,0,1-.248.121,4.5,4.5,0,0,0-.462.219c-.071.037-.145.075-.219.112l-.394.6a1.286,1.286,0,0,1-.528.527c-.091.049-.18.1-.27.153a.547.547,0,0,1-.156.273l.035.227c0,.008,0,.015,0,.023l.3-.559.107.246c.034-.026.066-.054.1-.082a1.412,1.412,0,0,1,.478-.3,1.222,1.222,0,0,0,.206-.1c.038-.021.077-.042.116-.062l.083-.042a.747.747,0,0,1,.284-.182l.04-.017.783-.345-.513.685h0c.154-.085.307-.17.462-.253a4.6,4.6,0,0,1,.573-.273l.1-.038a1.4,1.4,0,0,0,.328-.147,1,1,0,0,1,.425-.188,1.71,1.71,0,0,0,.454-.15c.053-.023.106-.046.16-.068a2.161,2.161,0,0,0,.243-.122,2.08,2.08,0,0,1,.37-.174,2.35,2.35,0,0,0,.6-.341,1.818,1.818,0,0,1,.225-.128l.027-.014a.469.469,0,0,1,.2-.21.632.632,0,0,1,.505-.017l.236.076-.1.227c-.005.012-.011.024-.018.036a.967.967,0,0,1,.022.4c0,.043-.009.086-.009.13a.216.216,0,0,0,.027.106.772.772,0,0,1,.123.4c0,.026,0,.052,0,.079a.412.412,0,0,0,0,.088.285.285,0,0,1,.133.268,1.911,1.911,0,0,1,0,.217,3.293,3.293,0,0,0,.028.9,1.84,1.84,0,0,1,.03.387,1.009,1.009,0,0,0,.057.415.312.312,0,0,1,.005.239.651.651,0,0,0,0,.316c.005.038.01.077.014.115.008.081.022.163.036.244a1.841,1.841,0,0,1,.025.688.51.51,0,0,1,0,.441.832.832,0,0,0-.027.083l-.032.129-1.173.316-.057-.079a1.832,1.832,0,0,1-.3.14,5.018,5.018,0,0,1-.558.14l-.078.017c-.357.076-.714.147-1.072.218l-.9.177-.539.105-.062-.114a.869.869,0,0,1-.881.042.613.613,0,0,1-.625.091.435.435,0,0,0-.091-.005c-.054,0-.108,0-.162,0a2.787,2.787,0,0,1-.357,0c-.13-.011-.181-.006-.217.024l-.117.1-.134-.073-.05-.026-.03.01-.056.019a3.51,3.51,0,0,1-.716.167l-.1.009a1.253,1.253,0,0,0-.515.117.265.265,0,0,1-.16.031h-.127l-.089-.141c-.094.024-.187.048-.28.068a.718.718,0,0,0-.141.056.79.79,0,0,1-.413.1l-.006,0a4.735,4.735,0,0,1-1.136.223.689.689,0,0,0-.159.044l-.089.03a.36.36,0,0,0-.045.021.384.384,0,0,1-.309.044.5.5,0,0,0-.237,0,1.026,1.026,0,0,1-.293.018,1.307,1.307,0,0,0-.392.034c-.079.015-.157.029-.237.038a1.589,1.589,0,0,0-.4.126c-.1.039-.2.08-.3.111a.684.684,0,0,0-.075.029.776.776,0,0,1-.235.069.257.257,0,0,1-.1.082.918.918,0,0,1-.125.044l-.248.078-.166.645-.191-.536a.7.7,0,0,1-.31.052,1.307,1.307,0,0,0-.194.01c-.048,0-.095.009-.142.012q-.416.021-.831.038a.392.392,0,0,1-.311-.1.74.74,0,0,1-.481.023.584.584,0,0,1-.463-.07.488.488,0,0,1-.411-.131.7.7,0,0,0-.095.038.788.788,0,0,1-.519.048.311.311,0,0,1-.193-.135c-.005-.007-.011-.015-.017-.022l-.034-.036-.074.014-.308.478v.089l-.086.068a.445.445,0,0,1-.13.073l.085.3-.016.006.19.111-.211.4-.408-.078.028.024-.466-.078a.212.212,0,0,1-.033.018l.143.459.046.148-.152.118c-.015.012-.031.023-.046.037-.181.159-.3.187-.455.084l0,.033.023.07a.315.315,0,0,1-.026.269l.091-.019.078.154a.357.357,0,0,1,.023.058l.045.028a.317.317,0,0,1,.131.233.466.466,0,0,1,.007.116v.017a.366.366,0,0,0,.061.154,1.2,1.2,0,0,1,.075.156.381.381,0,0,0,.307.241.47.47,0,0,1,.377.329l.087.011-.006.2a.159.159,0,0,0,.136.166.667.667,0,0,1,.5.344h0c.082.006.158.007.234.009a3.728,3.728,0,0,1,.391.023c.21.027.421.063.624.1.135.023.271.046.407.066l.034.005a.59.59,0,0,0,.185.012.861.861,0,0,1,.673.095c.023-.008.048-.019.074-.031a.615.615,0,0,1,.379-.069l.416-.244.055.289.055-.017a.53.53,0,0,1,.468.023.79.79,0,0,1,.094-.025l.036-.008a.421.421,0,0,1,.276,0,1.391,1.391,0,0,0,.2.061l.017,0a.346.346,0,0,0,.345-.072.287.287,0,0,1,.1-.053l.112-.042a.565.565,0,0,1,.271-.076l.426-.023-.159.261a.351.351,0,0,1,.226.221l.66-.594.187.2.018.02a.31.31,0,0,0,.252.038c.065-.061.131-.13.2-.2l.1-.1.08-.082.661.1a.468.468,0,0,1,.288-.426.791.791,0,0,1,.533-.054c.026.005.055.011.072.013l.077-.04a1.6,1.6,0,0,1,.4-.162,1.052,1.052,0,0,0,.2-.077,1.807,1.807,0,0,1,.221-.089.674.674,0,0,0,.313-.162.611.611,0,0,1,.241-.152c.081-.028.16-.048.243-.068l.1-.026.088-.023.049.027.014-.022a.435.435,0,0,1,.379-.135l.2-.005.01.081a.133.133,0,0,0,.032-.014.77.77,0,0,1,.207-.1l.027-.341.286-.082-.028-.032.035,0-.012-.238.262.2.086-.025v.031l.7-.066.151-.127.144.242a.341.341,0,0,1,.058.133.231.231,0,0,1,0,.088l.056,0,.018-.078-.006,0,.007,0,.009-.039a.851.851,0,0,1,.029-.1.23.23,0,0,1,.3-.133l.131.031a.454.454,0,0,1,.351-.015l.04.009a.431.431,0,0,1,.2-.1c.245-.05.494-.114.714-.171s.472-.122.714-.2c.106-.033.212-.069.317-.105a5.288,5.288,0,0,1,.8-.227.964.964,0,0,1,.424,0,.663.663,0,0,1,.312-.017.513.513,0,0,0,.1.007l.089-.008a1.012,1.012,0,0,0,.325-.061,2.107,2.107,0,0,1,.5-.127l.138-.024a.327.327,0,0,1,.275.1.288.288,0,0,1,.095.163l.019.058.133.059-.047.068.071.4c.03.166.059.33.087.494l.053.305.246.3a1.187,1.187,0,0,1,.225.693l.007.076c.025.247.073.488.124.743.038.192.078.391.107.592s.075.408.123.621c.026.117.053.233.076.35a.58.58,0,0,1,.005.162c0,.013,0,.026,0,.039v.049a.523.523,0,0,0,0,.086c.023.13.049.269.084.4a2.646,2.646,0,0,1,.059.333,1.432,1.432,0,0,0,.1.417.874.874,0,0,1,.056.4c0,.044,0,.088,0,.131l.01.163-.034.013a.709.709,0,0,1-.089.325,1.076,1.076,0,0,1,.106.661l0,.033c0,.017,0,.033,0,.049s0,.037,0,.055c0,.055,0,.111,0,.168a1.406,1.406,0,0,1-.039.482,1.7,1.7,0,0,0-.072.5.471.471,0,0,1-.1.26c-.01.014-.019.028-.027.042a.849.849,0,0,1-.049.077l-.017.025a.525.525,0,0,1-.312.414c-.11.061-.11.061-.1.165a.432.432,0,0,1-.089.307c-.1.114-.2.223-.3.333l-.038.041.044.373-.093.078a1.122,1.122,0,0,1-.095.07l-.021.014a.424.424,0,0,1-.158.223.361.361,0,0,1,.141.486c-.023.044-.036.093.038.25l.2.421-.565-.133,0,.052-.151.043c-.033.009-.069.016-.105.023-.02,0-.049.009-.064.013a1.66,1.66,0,0,0-.169.21c-.03.041-.06.083-.093.125l-.116.149-.167-.089-.1-.056-.085-.047c.005.032.011.066.018.1s.013.073.019.11l.032.2-.111.033.237.337-.5-.061a1.615,1.615,0,0,0-.326.005,1.76,1.76,0,0,1-.432,0l-.034-.005a1.589,1.589,0,0,1-.532-.15.933.933,0,0,0-.493-.1,2.652,2.652,0,0,1-.471-.013l-.081.224-.251-.084a.677.677,0,0,1,.173.253.72.72,0,0,1,.089.048,1.31,1.31,0,0,1,.141.1.432.432,0,0,1,.059.064.432.432,0,0,1,.26.214,1.215,1.215,0,0,1,.7.407.286.286,0,0,0,.109.068c.169.05.347.094.528.13a.5.5,0,0,1,.314.194c.013.017.038.048.122.035a.626.626,0,0,1,.263.024l.051.012a.536.536,0,0,1,.091.029l.005,0a1.492,1.492,0,0,1,.194,0l0,0h.6c.043,0,.083,0,.12-.006a.66.66,0,0,1,.306.027c.175.07.343.154.506.236l.083.041a.57.57,0,0,1,.332.009l.02.005c.044.011.089.026.134.041a.569.569,0,0,0,.15.039,1,1,0,0,1,.471.023l.075.017a.8.8,0,0,0,.415,0,.81.81,0,0,1,.1-.025l.143-.076c.033-.017.064-.036.095-.055a.659.659,0,0,1,.641-.1l.012,0a.454.454,0,0,1,.316.031l.4-.124.021.281a.364.364,0,0,1,0,.089.754.754,0,0,1,.129-.012.539.539,0,0,1,.288.079l.076.047,0,0a.592.592,0,0,1,.217-.137l.037-.1a1.2,1.2,0,0,1,.052-.125l-.13-.067a.408.408,0,0,1-.241-.514l.052-.171.178.013a.176.176,0,0,0,.056,0l-.145-.2.32-.082c.037-.01.074-.016.109-.023a.51.51,0,0,0,.083-.019,1.006,1.006,0,0,1,.167-.083l.066-.029.074-.079a.589.589,0,0,1,.129-.213l-.037-.087.05-.095c.016-.031.033-.06.049-.088a1.054,1.054,0,0,0,.068-.132.465.465,0,0,1,.175-.25l0-.019a1.092,1.092,0,0,1,.038-.217,2.051,2.051,0,0,1,.115-.279l-.057-.091.117-.04v-.006a.337.337,0,0,1,.191-.426l.06-.038-.005-.046c0-.025,0-.051-.005-.076a.275.275,0,0,0,0-.048c-.007-.013-.02-.042-.033-.066a.484.484,0,0,1-.3-.257.3.3,0,0,0-.042-.062l-.024-.015a.3.3,0,0,1-.237.234.658.658,0,0,1-.261,0c-.022,0-.043-.007-.065-.008l-.3-.023.1-.279a.868.868,0,0,1,.117-.229l-.02,0-.122-.027-.245-.057.085-.237a1.725,1.725,0,0,1,.113-.239c.032-.06.058-.11.077-.155l-.069.025-.1-.188a.513.513,0,0,1,.019-.635c0-.018.006-.047.008-.069a1.224,1.224,0,0,1,.016-.123l.006-.031-.09-.074-.149-.008.039-.083-.015-.012.023-.006.092-.2c.007-.015.012-.028.016-.04s.013-.032.021-.05l-.068-.013.107-.1,0-.011a.615.615,0,0,1-.013-.217.6.6,0,0,1,.089-.6.369.369,0,0,0,0-.35.948.948,0,0,1-.027-.618.471.471,0,0,1-.117-.357c0-.246.006-.484.012-.721a.223.223,0,0,1,.038-.122.3.3,0,0,1-.044-.136l0-.028a.928.928,0,0,1,.057-.473.54.54,0,0,1-.066-.3,1.362,1.362,0,0,0-.027-.248,1.772,1.772,0,0,1-.033-.329,1.128,1.128,0,0,1-.114-.467,1.035,1.035,0,0,0-.039-.244,1.108,1.108,0,0,1-.046-.21.435.435,0,0,0-.049-.177.363.363,0,0,1-.033-.295.315.315,0,0,1-.039-.315c-.017-.094-.036-.188-.054-.283-.043-.221-.088-.45-.116-.681l-.01-.07a1.121,1.121,0,0,1,.024-.554.311.311,0,0,1-.012-.07c0-.029,0-.058-.007-.087a1.025,1.025,0,0,1,.006-.327.78.78,0,0,0,.006-.388.3.3,0,0,1-.03-.128l0-.215c0-.1,0-.209.006-.314a.978.978,0,0,0-.008-.1c0-.027-.006-.057-.009-.092l-.005-.06-.156-.051.326-.26c.019-.015.036-.032.053-.048a.313.313,0,0,1,.32-.114c.014,0,.025,0,.1-.038.033-.018.066-.036.1-.051a.263.263,0,0,1,.142-.017c.01-.013.02-.025.03-.036l.177-.194.268.333h0c.118-.036.241-.073.369-.1s.277-.058.417-.084l.229-.044c.247-.05.485-.1.724-.15.085-.019.169-.029.25-.039a.806.806,0,0,0,.433-.132.3.3,0,0,1,.248-.052h.009l.089-.009a.569.569,0,0,0,.131-.019.573.573,0,0,1,.318-.1c.032,0,.065,0,.1,0a.657.657,0,0,0,.088,0l.192-.022c.2-.022.384-.042.566-.081a1.777,1.777,0,0,1,.236-.029.6.6,0,0,0,.288-.065.755.755,0,0,1,.524-.125l.032,0a.642.642,0,0,0,.145,0,.716.716,0,0,1,.424-.107l.045-.156.093.009-.152-.171.181-.148a.833.833,0,0,1,.635-.159.373.373,0,0,1,.125-.124.414.414,0,0,1-.073-.087l-.112-.177.007-.005-.26-.148.361-.191a.841.841,0,0,1,.579-.065.283.283,0,0,1,.115-.083A.529.529,0,0,1-577.655-906.01Zm-10.8-17.35a.345.345,0,0,1-.119.044l-.042.01-.458.119.222-.482-.111-.146.132-.122v-.075a1.1,1.1,0,0,1,.245-.628l.019-.028-.19-.309.2-.116c.077-.045.081-.078.077-.127a.458.458,0,0,1,.066-.269.245.245,0,0,1,.082-.281c0-.012,0-.026,0-.037a.55.55,0,0,1,.052-.23c0-.01,0-.02,0-.029-.021-.15-.06-.214-.164-.263a1.028,1.028,0,0,1-.273-.176l-.046.148-.573-.244.131-.356a1.087,1.087,0,0,1-.05-.2l-.042-.038a.372.372,0,0,1-.067-.5.278.278,0,0,0,.016-.034l-.007-.01a.362.362,0,0,1-.059-.226c0-.009,0-.017,0-.025s-.01-.044-.014-.071-.009-.05-.013-.066l-.043-.041a1.947,1.947,0,0,0-.66-.472c-.043-.015-.088-.026-.132-.037l-.038-.01c-.028-.007-.057-.013-.086-.019a1.053,1.053,0,0,1-.252-.074l-.014,0a1.9,1.9,0,0,1-.47.05.369.369,0,0,1-.205-.074.4.4,0,0,1-.344-.031s0,0-.012,0a.628.628,0,0,1-.1-.048l-.365.1-.017-.051a.4.4,0,0,1-.411.081l-.175-.051.014-.182,0-.035-.069,0c-.27-.02-.334-.025-.486.072a.368.368,0,0,1-.184.054l-.041.1-.173-.028c-.03,0-.057.012-.136.07a1.11,1.11,0,0,1-.148.1.355.355,0,0,1-.306.036.359.359,0,0,1-.188-.248c-.02-.067-.039-.135-.056-.2l-.113.154.022.058a.34.34,0,0,1-.161.442l-.015.009-.2.594-.221-.61a.344.344,0,0,1,.164-.459l.068-.948.277.749-.183-.674.074-.033-.156-.438.077-.089a.507.507,0,0,1-.131-.25c-.029-.167-.054-.335-.079-.5-.03-.205-.062-.418-.1-.623a1.993,1.993,0,0,1-.027-.237,1.211,1.211,0,0,0-.035-.247.7.7,0,0,1-.006-.32h-.04l-.113-.967.2.056a.768.768,0,0,1,.35-.471c.243-.165.473-.338.727-.532.124-.094.245-.193.366-.291l.2-.162a.3.3,0,0,1,.227-.075c.109.014.179-.039.326-.173.029-.027.059-.054.089-.08a.243.243,0,0,1,.259-.087l.014-.009a.475.475,0,0,1,.255-.094.357.357,0,0,0,.158-.092,1.009,1.009,0,0,1,.4-.2.836.836,0,0,0,.2-.075,1.906,1.906,0,0,1,.246-.126.764.764,0,0,1,.144-.042l.08-.019.635-.16-.238.3a.814.814,0,0,1,.534-.137.389.389,0,0,1,.077-.016.625.625,0,0,0,.072-.013.6.6,0,0,1,.346.006.724.724,0,0,1,.3-.031.273.273,0,0,0,.133-.009.287.287,0,0,1,.349.033c.017.018.055.023.131.031a.711.711,0,0,1,.307.083c.087.051.181.1.279.143.078.038.157.075.233.116a.242.242,0,0,1,.069.055.572.572,0,0,1,.209.075.441.441,0,0,0,.05.025,1.442,1.442,0,0,1,.432.207l.076.055a1.35,1.35,0,0,0,.29.177.517.517,0,0,1,.232.2.71.71,0,0,1,.047.084l.066-.007.076.087a.239.239,0,0,1,.082.162c0,.045.036.084.109.16a1.173,1.173,0,0,1,.133.157,2.04,2.04,0,0,0,.151.188l.055.064a.224.224,0,0,0,.04.036.493.493,0,0,1,.215.32.744.744,0,0,0,.105.109l.054.051c.086.084.175.165.264.246.069.063.139.126.207.191a.481.481,0,0,1,.135.219.185.185,0,0,0,.082.121.27.27,0,0,1,.146.275c0,.022,0,.036.071.119a.739.739,0,0,1,.159.253l.012.037a3.277,3.277,0,0,0,.26.644,2.934,2.934,0,0,1,.369,1.175,3.733,3.733,0,0,1-.046,1.418,3.336,3.336,0,0,1-.418,1.027l-.034.053a1.767,1.767,0,0,1-.152.212l-.051.058c-.073.083-.146.167-.222.25l.015,0,.331.086-.275.352c.045.25-.128.452-.348.639l.013.012-.046.138a.744.744,0,0,1-.829.5c-.036,0-.072,0-.109,0-.008.016-.017.032-.026.047l.1.01.116.012.057.1a.313.313,0,0,1-.141.454l-.017.01-.035.024.008.025a.441.441,0,0,1-.228.583.549.549,0,0,0-.081.074c-.021.021-.041.042-.062.062l-.012.011a.459.459,0,0,1-.094.076,2.049,2.049,0,0,1-.971.288l-.043,0A1.994,1.994,0,0,0-588.451-923.36Z" transform="translate(613.271 949.929)" fill="#a72126"/><path d="M-513.23-623.467l.063-.021-.006-.008-.02-.023Z" transform="translate(528.889 672.375)" fill="#a72126"/><path d="M-445.971-527.5l.013.015,0-.018Z" transform="translate(471.698 590.733)" fill="#a72126"/><path d="M-549.556-588.879a.624.624,0,0,1-.05-.153c0-.019-.009-.04-.016-.065l-.146-.537.549.329c-.111-.186-.229-.38-.352-.569l-.08-.121a4.529,4.529,0,0,1-.461-.819,3.61,3.61,0,0,0-.211-.419c-.049-.088-.1-.177-.144-.267-.019-.038-.038-.077-.056-.116l-.311-.078c-.27-.068-.383-.151-.341-.459v-.009a.41.41,0,0,1-.018-.212l-.1-.074c-.011-.009-.024-.016-.035-.023a.423.423,0,0,1-.168-.162l-.028.022-.21-.142-.108.463-.5-.378c-.031.028-.063.054-.093.079a1.58,1.58,0,0,0-.123.109l-.223.228-.14-.287c-.011-.023-.02-.043-.028-.061a.325.325,0,0,0-.017-.035c-.031-.045-.061-.094-.091-.143a.974.974,0,0,0-.174-.236.41.41,0,0,0-.276-.087.366.366,0,0,1-.018.167.422.422,0,0,1-.261.239l-.132.053-.1-.09a.24.24,0,0,1-.083-.116l-.018-.056c-.035-.115-.037-.115-.077-.121a.317.317,0,0,1-.123-.043l0,.042-.418.039a.823.823,0,0,1-.006.554.125.125,0,0,0,0,.018.564.564,0,0,0,.029.06.5.5,0,0,1,.322.208.447.447,0,0,1,.055.3.376.376,0,0,1,.108.475l.064.076.086-.146c-.026-.045-.052-.1-.083-.156l-.147-.289.322-.036c.379-.043.446.3.472.426l.033.167.156-.036-.014.342.281.146-.2.19a.423.423,0,0,1,.14.2l.057.188-.206.094c-.024.011-.046.021-.069.031l-.027.011.13.136a.377.377,0,0,1,.093.434l.072.231.021.063a.556.556,0,0,1-.018.522.6.6,0,0,1,.055.227l.006-.013.2.586a.543.543,0,0,1,.075-.012.978.978,0,0,1,.241.017l.107.015.107.013.106.17c.041.067.088.144.14.218l.034.05a.979.979,0,0,0,.075.1.3.3,0,0,1,.15-.145.269.269,0,0,1,.1-.02.328.328,0,0,1,.211.079.374.374,0,0,1,.105.186l0,.015c.037.13.054.168.1.188a.267.267,0,0,1,.1.083.463.463,0,0,1,.19-.285.42.42,0,0,1,.4-.042c.071.029.082.02.107,0a.4.4,0,0,1,.252-.087c.146,0,.2-.042.239-.114l.123-.222.056.041a.444.444,0,0,1,.1-.142.608.608,0,0,1,.088-.685A.251.251,0,0,0-549.556-588.879Z" transform="translate(564.179 646.51)" fill="#a72126"/><path d="M-560.005-608.618a.273.273,0,0,1,0,.043c0,.012,0,.02.073.071Z" transform="translate(568.663 659.705)" fill="#a72126"/><path d="M-512.314-625.5a.216.216,0,0,0-.133-.024l-.15.215s0,.009,0,.013l.178-.106.11-.095Z" transform="translate(528.351 674.08)" fill="#a72126"/><path d="M-595.6-664.3l.053-.008-.032-.037A.223.223,0,0,1-595.6-664.3Z" transform="translate(598.928 707.094)" fill="#a72126"/><path d="M-592.6-810.379l.093,0a.934.934,0,0,1,.059-.1l-.066-.052A1.163,1.163,0,0,1-592.6-810.379Z" transform="translate(596.377 831.4)" fill="#a72126"/><path d="M-591.8-815.689l.015-.066-.157-.085Z" transform="translate(595.817 835.91)" fill="#a72126"/><path d="M-595.552-823.227l.5.529.214-.2.052-.049-.116-.037.073-.216a.647.647,0,0,0,0-.377.412.412,0,0,1-.292.187l-.362.1.132-.56a.808.808,0,0,0-.1.285,1.583,1.583,0,0,1-.088.3C-595.54-823.251-595.546-823.238-595.552-823.227Z" transform="translate(598.89 842.723)" fill="#a72126"/><path d="M-613.728-629.844l0-.009-.042-.011-.042-.012.007.035.071,0Z" transform="translate(614.412 677.781)" fill="#a72126"/><path d="M-386.561-800.931c-.028.032-.057.07-.088.113l.075-.04Z" transform="translate(421.255 823.233)" fill="#a72126"/><path d="M-419.725-702.739l.008.024.044-.03Z" transform="translate(449.38 739.743)" fill="#a72126"/><path d="M-440.919-757.443l-.02-.06-.042.01A.192.192,0,0,0-440.919-757.443Z" transform="translate(467.454 786.305)" fill="#a72126"/><path d="M-402.851-672.414l-.062.033a.12.12,0,0,0,.083.02Z" transform="translate(435.084 713.952)" fill="#a72126"/><path d="M-569.148-644.545l-.046-.024-.012.026A.1.1,0,0,0-569.148-644.545Z" transform="translate(576.487 690.275)" fill="#a72126"/><path d="M-519.013-703.76a4.157,4.157,0,0,1,.609-.41.917.917,0,0,1-.1.024,4.926,4.926,0,0,0-.565.149c-.088.027-.175.054-.263.078l-.2.057-.025-.072-.074.05c-.044.029-.087.057-.127.089l-.005,0a.454.454,0,0,1-.032.079l.006,0a.243.243,0,0,1,.124-.034.37.37,0,0,1,.134.03l.019.007.318.092C-519.132-703.666-519.07-703.711-519.013-703.76Z" transform="translate(534.476 740.955)" fill="#a72126"/><path d="M-588.63-675.949l-.035.014c-.1.038-.2.078-.295.118l-.122.05c-.02.008-.04.015-.061.021a.248.248,0,0,1-.037.083,3.133,3.133,0,0,1,.328-.186c.07-.034.139-.059.206-.084l.1-.037-.026,0S-588.608-675.958-588.63-675.949Z" transform="translate(593.471 716.978)" fill="#a72126"/><path d="M-593.043-672.456l.067.114.782-.635-.148-.249-.078.041c-.036.02-.07.041-.1.062a1.652,1.652,0,0,1-.272.142.611.611,0,0,0-.078.042.64.64,0,0,1-.317.109.3.3,0,0,1-.057.036.3.3,0,0,0-.034.027.414.414,0,0,1-.443.092l-.048-.02-.668.3.117.09-.269.173-.1.062c-.06.037-.112.069-.158.1l-.028.1.172-.025a.257.257,0,0,1,.245-.118.3.3,0,0,0,.1-.045.837.837,0,0,1,.351-.122l.591-.05Z" transform="translate(598.317 714.641)" fill="#a72126"/><path d="M-563.71-698.6l.021-.19c-.062.039-.125.072-.184.1a1.867,1.867,0,0,0-.183.1.851.851,0,0,1-.408.15l-.033.025a1.75,1.75,0,0,1-.164.118c-.143.087-.288.173-.432.259l-.362.216-.366.224c-.184.113-.367.225-.552.335l-.035.021a.84.84,0,0,1-.45.154.2.2,0,0,0-.074.026.709.709,0,0,1-.326.315l-.02.011c-.085.049-.168.1-.252.153s-.18.112-.272.165a1.187,1.187,0,0,1-.12.06l-.065.23a.484.484,0,0,1-.149.271l.111.089a.718.718,0,0,1,.266-.233.273.273,0,0,1,.118-.155l-.009-.092.163.011a1.065,1.065,0,0,1,.57-.284l.554-.11-.036.051.08-.038.17-.087.26.352-.129.137-.044.049a1.3,1.3,0,0,1-.135.137c-.03.025-.06.049-.091.072a.539.539,0,0,0-.177.18.419.419,0,0,1-.252.2l-.107.041-.048.223.841-.443.08.139.04-.037c.023-.021.045-.042.066-.064a2.5,2.5,0,0,1,.4-.335l.123-.091a.4.4,0,0,1,.161-.068l.047-.012.06-.018a.359.359,0,0,1,.224-.1l-.085-.176.994-.726.116.246a.46.46,0,0,1,.04.13l.78-.635-.09.33a.623.623,0,0,0,.271-.159,1.607,1.607,0,0,1,.23-.164.976.976,0,0,0,.154-.115l.013-.144c-.072.018-.144.034-.218.05l-.7.156.491-.528.138-.151c.091-.1.169-.186.256-.27a3.521,3.521,0,0,1,.813-.542l.014-.008a.4.4,0,0,1,.281-.052l.035-.031-.038.006-.576.072.377-.441a1.19,1.19,0,0,1,.255-.224.6.6,0,0,0-.393.235.423.423,0,0,1-.145.111l-.3.154c-.213.107-.433.218-.644.333a1.726,1.726,0,0,0-.23.163l-.1.075a.416.416,0,0,1-.406.078Z" transform="translate(575.577 737.162)" fill="#a72126"/><path d="M-574.455-667.519l.092-.063c.045-.031.091-.063.138-.094l.052-.149,0,0a.253.253,0,0,1-.135.112c-.018.006-.04.034-.074.079-.017.023-.034.045-.052.067a.367.367,0,0,1-.147.1l-.02.009.021.031C-574.542-667.458-574.5-667.489-574.455-667.519Z" transform="translate(581.078 710.05)" fill="#a72126"/><path d="M-586.778-664.338h0a.69.69,0,0,0,.286-.07l.07-.179a.36.36,0,0,1,.144-.193L-586.3-665a.467.467,0,0,1,0-.086l-.068,0-.094-.008a.333.333,0,0,1-.113.192.969.969,0,0,1-.131.092l-.629.4a.356.356,0,0,1,.012.034l.024,0a.5.5,0,0,1,.287-.117.278.278,0,0,1,.056.006A.255.255,0,0,1-586.778-664.338Z" transform="translate(591.909 707.732)" fill="#a72126"/><path d="M-575.425-664.87l.046-.036-.1.045-.007.034Z" transform="translate(581.823 707.568)" fill="#a72126"/><path d="M-524.919-687.7h.03a.363.363,0,0,1,.018-.039Z" transform="translate(538.829 726.98)" fill="#a72126"/><path d="M-592.1-672.634a.427.427,0,0,1,.071,0,.442.442,0,0,1,.04-.029l.048-.031-.135.055Z" transform="translate(595.953 714.193)" fill="#a72126"/><path d="M-596.183-671.73a.847.847,0,0,0-.278.184q-.021.029-.043.056c.036-.006.071-.009.105-.012a.433.433,0,0,1,.162-.125c.028-.014.048-.022.068-.03l.012,0a.664.664,0,0,1,.144-.147c-.052.022-.1.046-.153.071Z" transform="translate(599.699 713.437)" fill="#a72126"/></g><g transform="translate(0 1.572)"><path d="M-625.512-661.415l-.038.059a.143.143,0,0,0,.034,0Z" transform="translate(646.336 703.027)" fill="#a72126"/><path d="M-740.718-928.655c.076-.125.152-.249.228-.374.032-.053.061-.107.091-.161.05-.091.1-.185.164-.276s.13-.186.2-.279a2.963,2.963,0,0,0,.534-.972.359.359,0,0,1,.054-.115l.07-.152c.066-.147.132-.293.194-.442.039-.092.074-.186.11-.28.063-.167.129-.341.212-.508a1.518,1.518,0,0,0,.147-.884c-.019-.154-.045-.311-.071-.464s-.05-.3-.07-.45a2.108,2.108,0,0,1-.016-.578.269.269,0,0,0,0-.147c-.019-.05-.04-.1-.06-.15-.029-.07-.058-.141-.084-.213l-.016-.042a.785.785,0,0,1-.068-.3c0-.065-.023-.112-.106-.209l-.035-.04a1.315,1.315,0,0,1-.277-.419.583.583,0,0,0-.28-.371.406.406,0,0,1-.143-.134c-.042-.06-.083-.12-.124-.18-.079-.115-.153-.224-.234-.329a3,3,0,0,0-.358-.413.7.7,0,0,1-.256-.457.633.633,0,0,1-.559-.48s-.013-.006-.034,0a.488.488,0,0,1-.4-.11c-.211-.154-.46-.334-.712-.5a1.909,1.909,0,0,0-.323-.155,2.313,2.313,0,0,1-.393-.19l-.239.256-.112-.013-.092-.014a.513.513,0,0,0-.11-.011l-.035,0a.779.779,0,0,0-.133.021,2.292,2.292,0,0,0-.223.285c-.055.078-.112.159-.177.237a.382.382,0,0,1-.008.04l-.045.177-.182-.008c-.043,0-.07,0-.086,0s-.016.04-.029.08a1.412,1.412,0,0,1-.091.2c-.015.028-.029.057-.042.086l-.01.021c0,.009-.009.017-.012.026,0,.074,0,.148,0,.223a.408.408,0,0,1,.2.164.573.573,0,0,1,0,.491,1.152,1.152,0,0,1-.119.228c-.016.026-.033.052-.048.079l-.034.059.025,0,.118-.02.078-.011.068.04.011.006a.358.358,0,0,1,.207,0l.241.066-.143.367a.439.439,0,0,1-.152.6.174.174,0,0,0-.018.054,1.821,1.821,0,0,1-.156.5l.029.007.425-.569-.237.664a.423.423,0,0,1,.1.123l.07.134-.1.115c-.034.04-.066.085-.1.131a1.771,1.771,0,0,1-.259.3l-.025.06a.877.877,0,0,0-.065.194.948.948,0,0,1-.566.728.639.639,0,0,1-.271.324c-.022.016-.044.031-.065.048l-.042.034c-.073.058-.082.07-.085.093a.459.459,0,0,1-.256.317.762.762,0,0,1-.156.069.406.406,0,0,1-.383.372c-.035,0-.054.02-.117.13l-.032.055a.647.647,0,0,0-.048.2c-.009.054-.018.111-.03.169l-.027.119-.114.043a.785.785,0,0,1-.088.025c-.017,0-.044.01-.059.016a.308.308,0,0,1-.207.1l-.046.185-.261-.16a.362.362,0,0,0-.21-.018c-.035,0-.073.005-.113.006,0,.025,0,.049.005.074l.016.227-.14.065-.021.011a.359.359,0,0,1-.179.057c-.026,0-.053,0-.08,0h-.033l-.033.1-.136.028c-.077.013-.131.069-.22.166-.038.042-.079.086-.125.129l.089.161-.128.119c-.017.016-.034.03-.049.042l-.008.006a.575.575,0,0,1-.468.3.555.555,0,0,0-.133.04.252.252,0,0,1-.033.055c-.013.016-.025.033-.037.05a.659.659,0,0,1-.2.2.319.319,0,0,1-.229.23l-.021.022c-.016.027-.031.055-.046.083a.654.654,0,0,1-.461.4.381.381,0,0,1-.186.245.185.185,0,0,0-.018.021l-.027.031-.123.135c-.117.128-.234.257-.349.386-.023.025-.043.053-.063.081s-.057.078-.089.113-.057.066-.086.1a2.067,2.067,0,0,1-.324.329c-.063.047-.065.053-.073.074l-.006.016a.53.53,0,0,1-.328.361,1.294,1.294,0,0,1-.267.448l-.044.054c-.021.025-.041.05-.06.076a1.576,1.576,0,0,1-.136.16c-.088.095-.139.152-.146.23a.315.315,0,0,1-.177.238.377.377,0,0,1-.107.263l.046.167-.6.11-.015-.192-.015.005-.19-.237c-.021.021-.041.04-.06.056a.436.436,0,0,0-.041.039,2.169,2.169,0,0,1-.5.488.251.251,0,0,1-.057.063.915.915,0,0,0-.087.081.855.855,0,0,1-.277.206l0,0a.305.305,0,0,1-.244.1.964.964,0,0,1-.42-.115.46.46,0,0,1-.352.168h-.057l-.186-.1a.415.415,0,0,1-.186-.008,1.421,1.421,0,0,1-.438.535l-.035.03a1.1,1.1,0,0,0-.274.522l-.008.026a1.363,1.363,0,0,1-.09.237.782.782,0,0,1,.232-.051.578.578,0,0,0,.084-.012.339.339,0,0,1,.288.074l.014.01.143.073-.03.156c0,.033-.008.065-.01.1a.744.744,0,0,1-.061.275.659.659,0,0,1-.183.211c-.021.018-.043.036-.064.057l-.075.073-.1-.011c-.33-.034-.4-.2-.409-.453,0-.012-.012-.024-.018-.037s-.027-.054-.039-.084l-.041-.1a1.514,1.514,0,0,0-.205.169.161.161,0,0,0-.019.025.578.578,0,0,1-.185.531l-.035.039a.714.714,0,0,0-.141.252,1.138,1.138,0,0,1-.263.474,1.087,1.087,0,0,0-.2.241.086.086,0,0,0,.024-.009l.525-.246-.222.536c-.022.053-.045.1-.066.143a.606.606,0,0,0-.049.113.39.39,0,0,1-.144.286l.02.119-.144.06c0,.01-.008.023-.011.034a.5.5,0,0,1-.109.213l-.038.039.108.072-.245.451a.428.428,0,0,1-.12.4l0,0a.334.334,0,0,1-.087.272.388.388,0,0,1-.046.109.344.344,0,0,1-.051.285c-.007.014-.016.027-.021.04l0,.014c0,.017,0,.031,0,.042v.083l-.054.063c-.029.034-.056.069-.082.1a1.309,1.309,0,0,1-.24.257,1.513,1.513,0,0,1-.316.17c-.036.016-.072.031-.107.048l-.251.215a.642.642,0,0,1-.254.524c-.029.021-.057.045-.084.069a.744.744,0,0,1-.56.233l-.239-.013.106-.89.318-.393a.706.706,0,0,1-.4.076l-.147-.01-.04-.114a.822.822,0,0,0-.158.176,1.026,1.026,0,0,1-.384.361.425.425,0,0,0-.06.059.379.379,0,0,1-.364.134.315.315,0,0,1-.169-.1.264.264,0,0,1-.046.011.075.075,0,0,0-.018,0c0,.009-.011.077-.016.113a.672.672,0,0,1-.093.249,1.569,1.569,0,0,1-.091.128.953.953,0,0,0-.07.1l-.034.06a1.5,1.5,0,0,1-.227.332c-.03.031-.058.066-.085.1a1.119,1.119,0,0,1-.229.231.494.494,0,0,0-.174.168.476.476,0,0,1-.117.153l.282.174-.158.2-.018.024a.316.316,0,0,1-.1.1.822.822,0,0,0-.348.671l.045.095a2.073,2.073,0,0,0,.162.3.741.741,0,0,1,.157.559c-.017.117.032.138.067.153a.334.334,0,0,1,.189.208l.031.066a2.724,2.724,0,0,0,.284.49.772.772,0,0,1,.193.41c.01.105.021.121.048.144a.511.511,0,0,1,.153.4.254.254,0,0,1-.043.147c.041.062.081.122.125.178a.452.452,0,0,1,.4-.194.46.46,0,0,1,.488.412l.018.081a.8.8,0,0,1,.2.073c.059-.087.122-.176.19-.261a.391.391,0,0,1,.228-.126l.029-.008.35-.124-.039.286.04-.014.161.237a2.424,2.424,0,0,1,.27.461.453.453,0,0,1,.165-.085l-.008-.054.185-.057a.633.633,0,0,1,.265-.04l.1-.193a.426.426,0,0,1,.517-.253l.252.067-.008.019h.008a1.9,1.9,0,0,1,.333-.009l.12,0h.207l.026.32c0,.046.008.09.011.134a.434.434,0,0,1,.459-.142l.111.031a.671.671,0,0,1,.24-.2,1.339,1.339,0,0,0,.16-.1,1.112,1.112,0,0,1,.505-.213l.135-.014c.025-.019.049-.034.068-.047a.428.428,0,0,0,.046-.032.363.363,0,0,1,.053-.048.766.766,0,0,1,.2-.342.976.976,0,0,0,.067-.08,2.681,2.681,0,0,1,.277-.316l.083-.085.007-.017a.826.826,0,0,1,.087-.167.813.813,0,0,1,.105-.116.441.441,0,0,0,.049-.05.715.715,0,0,1,.1-.106l.035-.032a.339.339,0,0,1,.189-.3l.039-.02-.01-.146.145-.053c.006-.009.012-.019.018-.028a.433.433,0,0,1,.292-.224.276.276,0,0,1,.132-.112.272.272,0,0,1,.263.037.4.4,0,0,1,.143.3.308.308,0,0,1-.089.214l-.179.274.157-.039.112.121c.026.027.057.059.084.094l.007.008.013-.017a.691.691,0,0,1,.1-.1l.02-.018c.023-.022.048-.043.072-.064a.9.9,0,0,0,.1-.1c.056-.067.109-.136.161-.206s.113-.149.173-.22.12-.138.181-.205c.079-.087.155-.17.222-.257.036-.047.07-.1.1-.147a1.053,1.053,0,0,1,.607-.512l.023-.023c.021-.021.043-.042.065-.06l.087-.071.384.095-.071.228c-.026.082,0,.129.107.274l.037.049a.619.619,0,0,1,.052.089.247.247,0,0,0,.014.027.947.947,0,0,1,.159.455c.007.046.014.093.025.138l.011.043a4.125,4.125,0,0,1,.165,1.026l0,.005a.422.422,0,0,1,.028.121l0,.034a.7.7,0,0,1,0,.142l.31-.062-.23.386a.487.487,0,0,1,.062.075,1.189,1.189,0,0,1,.254.706,1.133,1.133,0,0,0,.094.429.525.525,0,0,1,.034.334l0,.017a.831.831,0,0,0-.017.088l.116.1-.134.291.376.31-.269.164.006.013,0,.01a1.686,1.686,0,0,1,.213.089.35.35,0,0,1,.166.315.278.278,0,0,1-.18.237l.076.4c.036.19.072.376.1.562a.413.413,0,0,1-.005.15l0,.018a.781.781,0,0,1,0,.1.256.256,0,0,0,.006.088.361.361,0,0,1,.057.3c0,.023-.007.045-.011.067l.347.037-.176.234.021.221a.559.559,0,0,1-.1.448c0,.015,0,.031,0,.044a.4.4,0,0,1-.2.384c0,.01,0,.021,0,.029,0,.123,0,.233,0,.348l-.01.452-.289-.1a.785.785,0,0,1-.115-.048.722.722,0,0,1-.4.327,1.049,1.049,0,0,0,.025.681.992.992,0,0,0,.464.614l.081.041.03.086c.024.069.05.139.076.208.062.168.127.342.176.523s.079.188.106.192l.224.035-.042.247a.372.372,0,0,1,.084.27v.019c.008.166.011.332.014.5q0,.1,0,.2l.056-.054.144.08a.443.443,0,0,1,.248.433.683.683,0,0,1-.136.375.456.456,0,0,1,.049.239.678.678,0,0,0,.019.161c.014.063.031.126.047.189.022.083.043.166.061.249a.4.4,0,0,1-.043.273.585.585,0,0,1,.094.616.209.209,0,0,0,.013.156.671.671,0,0,1-.075.754.924.924,0,0,0,.07.274,1.65,1.65,0,0,1,.05,1.187.672.672,0,0,0-.006.388.772.772,0,0,1,.026.244c0,.063-.005.125-.01.187a1,1,0,0,0,0,.275,1.542,1.542,0,0,1,.032.632c0,.014.012.029.018.044a.6.6,0,0,1,.059.211.436.436,0,0,1-.063.233l-.013.024a1.055,1.055,0,0,1,.029.336v.055a.427.427,0,0,1-.113.345.4.4,0,0,1-.328.069,2.857,2.857,0,0,1-.079.644l.078.016-.058.228a.4.4,0,0,1-.091.175l.092.056.023.088a.33.33,0,0,1-.009.209l.3-.027-.063.287a.886.886,0,0,1,.169.13,1,1,0,0,1,.159.233c.016.03.033.061.053.093l.107.176-.21.154.01.06a.528.528,0,0,1,.295.482.282.282,0,0,1,.036.033l.011.011a.408.408,0,0,1,.146.323.43.43,0,0,1-.28.322l-.029.009a.4.4,0,0,0-.057.02.245.245,0,0,1-.159.134.233.233,0,0,1,0,.1.412.412,0,0,1-.127.2l-.022.023-.176.2.176.277c.013.021.026.039.037.055a.574.574,0,0,1,.075.134c.107.293.2.457.394.542a.466.466,0,0,1,.155.118l.023.023.1.087-.017.077c.095.041.154.133.2.31.009.032.015.065.022.1a.517.517,0,0,0,.023.09c.018.042.039.084.061.127l.139-.049.2.326c.08.131.159.26.24.388l.033.054c.06.1.067.1.094.1a.311.311,0,0,1,.254.129.374.374,0,0,1,.034.339c-.012.035-.021.071-.03.107a1.33,1.33,0,0,1,.219.282.5.5,0,0,0,.037-.13h0a.788.788,0,0,0,0-.218.648.648,0,0,1,.178-.582l.25-.244.119.328.03.078a1.087,1.087,0,0,1,.1.4l.038.024a.454.454,0,0,1,.2.387.4.4,0,0,0,.006.054.488.488,0,0,0,.042.073l.024-.009c0-.029,0-.058,0-.087a1.843,1.843,0,0,1,0-.23,1.953,1.953,0,0,1,.079-.4.379.379,0,0,1,.146-.189.328.328,0,0,0,.026-.021l.18-.173.153.2a.5.5,0,0,1,.1.4l.047.015.069-.265.43-.164.155.253c.059.1.116.188.172.282a.315.315,0,0,1,.028.06.926.926,0,0,1,.081-.124l-.06-.293.575-.2.084.43a.475.475,0,0,1,.039.053l.007-.066.266.09.021.006.016,0a1.04,1.04,0,0,1,.283-.572.411.411,0,0,0,.039-.052.805.805,0,0,1,.085-.108.35.35,0,0,1,.174-.091l.044-.013.13-.045v-.069a.337.337,0,0,1-.092-.213.437.437,0,0,1,.215-.39.471.471,0,0,1,.154-.321.124.124,0,0,0,.007-.024c.014-.081.024-.164.033-.247l-.126-.089.082-.171c.01-.021.021-.04.031-.057a2.345,2.345,0,0,1-.005-.559c0-.009,0-.022-.007-.036l-.291.13.022-.1-.425.419.266-.921-.254.039.293-.544-.139-.328c-.011-.026-.021-.046-.029-.063a.367.367,0,0,1-.049-.177c0-.194.011-.389.018-.588l.015-.438.132.02a.562.562,0,0,1-.216-.387.432.432,0,0,1,.045-.206.5.5,0,0,1-.054-.251c0-.029,0-.054-.006-.079a1.236,1.236,0,0,1-.009-.135c0-.063,0-.126.008-.19a1.6,1.6,0,0,0,0-.291,2.726,2.726,0,0,1,0-.853.5.5,0,0,1-.081-.357c.015-.194-.014-.255-.073-.3l-.194-.161.182-.174a.159.159,0,0,0,.06-.11c-.141-.159-.234-.3-.012-.529a.144.144,0,0,0,.031-.04s0-.01-.016-.026a.725.725,0,0,0-.07-.078l-.065-.068-.1-.105.149-.363a.4.4,0,0,1,0-.266.531.531,0,0,1-.026-.373.441.441,0,0,0,.012-.079l-.081-.151.128-.109c.012-.012.013-.038,0-.126v0l-.156.171-.129-.343a.553.553,0,0,1-.01-.481.564.564,0,0,0,.052-.228.357.357,0,0,1,.2-.328l.018-.3-.38.148.1-.416a.329.329,0,0,1,.187-.246.251.251,0,0,1,.107-.02.447.447,0,0,1,.031-.13c-.109-.138-.11-.252-.033-.467a.206.206,0,0,0,.015-.055.848.848,0,0,1,.052-.547l-.375-.143.321-.221c-.008-.028-.016-.058-.022-.089l-.038.03a.488.488,0,0,0-.04.032l-.122.116-.333-.195.08-.792h.185l0-.09-.009-.233h.2a.274.274,0,0,1,.015-.26.316.316,0,0,0,.013-.089v-.008l-.049-.2a4.452,4.452,0,0,1-.08-1.473h-.041l.025-.247c0-.036,0-.071.005-.107a1.061,1.061,0,0,1,.024-.229l-.063-.228c-.005-.02-.011-.036-.015-.05a.533.533,0,0,1-.027-.119c-.014-.163-.016-.325-.017-.481s0-.308-.016-.456l-.5.036-.035-.57.456-.033c0-.009,0-.017,0-.025v-.047c0-.061.005-.122.01-.183a.774.774,0,0,0-.032-.392.32.32,0,0,1-.022-.186v0a1.578,1.578,0,0,1,0-.316.813.813,0,0,0-.017-.3,1.3,1.3,0,0,1-.055-.373c0-.11,0-.22,0-.33s0-.193,0-.289a.434.434,0,0,0-.012-.062.7.7,0,0,1-.023-.166,3.827,3.827,0,0,0-.083-.855.447.447,0,0,1,0-.15l0-.021c0-.032,0-.064.006-.1,0-.062.008-.12.007-.173-.006-.17-.013-.35-.033-.523a2.4,2.4,0,0,1-.006-.351,1.862,1.862,0,0,0-.007-.314,1.9,1.9,0,0,1-.014-.21c0-.049,0-.1-.008-.147a.339.339,0,0,1,.067-.274l-.74-.233.33-.289a.235.235,0,0,1-.05-.1l-.009-.032a.633.633,0,0,1,.01-.462.683.683,0,0,1-.047-.4,3.7,3.7,0,0,1,.1-.4c.015-.052.03-.1.044-.155l.042-.157.345-.019a1.013,1.013,0,0,1,0-.193,1.215,1.215,0,0,1,.037-.187.318.318,0,0,0,.018-.186.285.285,0,0,1,.006-.214h0c.006-.043.012-.086.018-.129.018-.123.035-.239.043-.355s.01-.255.011-.381a1.1,1.1,0,0,1-.115-.067l-.367-.234.354-.143-.041-.129.052-.027.008-.054c.007-.047.015-.092.022-.136a2.228,2.228,0,0,0,.031-.229l.006-.094a2.369,2.369,0,0,0,0-.432,1.9,1.9,0,0,1,.031-.537c.01-.062.02-.124.026-.186,0-.033.008-.067.012-.1a1.072,1.072,0,0,0,.015-.252.856.856,0,0,0-.05-.17,1.39,1.39,0,0,1-.067-.221c-.01-.052-.02-.1-.029-.156a2.445,2.445,0,0,0-.17-.629h-.256l.011-.235a1.687,1.687,0,0,0-.2-.852c-.04-.081-.075-.163-.11-.246a1.638,1.638,0,0,0-.247-.451,5.806,5.806,0,0,1-.375-.5c-.061-.088-.122-.175-.185-.261a.413.413,0,0,1-.041-.478l.039-.069a1.762,1.762,0,0,1,.218-.324l.039-.044c.331-.367.673-.746.985-1.137.132-.166.273-.325.41-.479.156-.176.318-.359.461-.545.06-.078.121-.156.182-.234a6.32,6.32,0,0,0,.636-.914,5.82,5.82,0,0,1,.958-1.352,5.78,5.78,0,0,0,.822-1.094C-740.912-928.338-740.815-928.5-740.718-928.655Zm-9.443.778-.054.03c-.068.293-.213.429-.564.542l-.277.089-.016-.291a.544.544,0,0,1,.22-.45.51.51,0,0,0,.06-.06,1.17,1.17,0,0,1,.257-.253c.031-.025.062-.049.092-.075l.168-.149.4.453Z" transform="translate(764.424 939.426)" fill="#a72126"/><path d="M-742.562-794.576l.1.024.108-.167a.672.672,0,0,0-.1.068A.6.6,0,0,1-742.562-794.576Z" transform="translate(745.834 816.378)" fill="#a72126"/><path d="M-675.869-610.039a.675.675,0,0,1,.244.179l.179-.32-.058-.075a.263.263,0,0,1-.152.014l-.066-.013-.048-.047a.63.63,0,0,1-.232-.612h-.049l-.041-.56.057-.025a.542.542,0,0,1-.007-.309c0-.016.008-.039.01-.053a.337.337,0,0,0-.215-.106l-.14-.023-.039-.136c-.009-.032-.02-.063-.03-.094a1.27,1.27,0,0,1-.064-.254l0-.023c0-.017,0-.037-.006-.059a.413.413,0,0,1-.326.095.752.752,0,0,1,.14.323l.018.085-.016.028a.443.443,0,0,1,.154.366c.008.137.022.159.081.2l.246.152-.314.3a1.314,1.314,0,0,1,.256.413.613.613,0,0,0,.188.258A.545.545,0,0,1-675.869-610.039Z" transform="translate(689.965 661.48)" fill="#a72126"/></g></svg>