<svg xmlns="http://www.w3.org/2000/svg" width="90.907" height="116.924" viewBox="0 0 90.907 116.924"><g transform="translate(0)"><path d="M1540.228-631.865c.037-.059.117-.129.1-.176a2.06,2.06,0,0,1,.113-.888l.189.47.408-.087.447.595-.277.261c.032.111.028.327.128.4a.3.3,0,0,1,.115.4c-.07.229-.108.419.156.573.1.061.14.239.207.365-.041.2-.223.4-.023.625.038.043-.047.184-.055.282-.022.279-.027.56-.052.838-.017.188-.058.374-.091.576.221.082.263-.157.394-.227.095.246.132.482-.2.659.449.006.61.173.565.562-.032.28-.118.552-.165.83-.018.1-.035.285.013.312.242.133.151.281.075.455a.915.915,0,0,0-.048.315c-.009.181.008.364-.013.543a4.54,4.54,0,0,1-.112.524.613.613,0,0,1-.072.232,2.982,2.982,0,0,0-.478,1.174.725.725,0,0,1-.057.222,1.028,1.028,0,0,0-.215.665.566.566,0,0,1-.2.386.823.823,0,0,0-.3.971c.012.058-.034.126-.048.191-.049.234-.184.492-.128.7.167.615-.225,1.135-.224,1.715,0,.086-.124.172-.209.282l.09.268-.206.12c.022.041.034.1.062.108.252.095.379.042.459-.193.213-.622.391-1.258.643-1.864a1.651,1.651,0,0,0,.145-1.12c-.051-.2.083-.44-.149-.621l.413-.542c.058.221.118.39-.063.552-.043.039-.076.164-.05.192.219.245.019.584.2.831.163.227-.045.42-.1.584-.128.352-.067.724-.188,1.067-.009.024.059.076.084.106.207-.045.151-.378.416-.323.1.4-.47.426-.442.817l.468-.028c-.246.276-.242.688-.607.864-.036.017-.072.128-.056.145.147.154-.022.208-.079.3a1.084,1.084,0,0,0-.063.243l.281-.092.066.3c-.489.024-.49.444-.625.748a2.8,2.8,0,0,0-.182.641c-.038.214-.031.436-.056.653s-.085.445-.1.669a2.572,2.572,0,0,0,.063.478l-.11.032c-.119.384-.232.721-.325,1.064a4.454,4.454,0,0,0-.057.453.727.727,0,0,1-.08.272c-.2.31-.2.307-.125.708a1.348,1.348,0,0,0-.317.664c-.014.191-.267.353-.353.553a4.915,4.915,0,0,0-.636,1.437c-.009.091-.153.194-.258.244-.243.117-.248.1-.371.387l.152.049a.206.206,0,0,1-.015.076,1.279,1.279,0,0,0-.182.268c-.144.441-.251.9-.413,1.329a2.889,2.889,0,0,1-.383.6c-.118.168-.217.4-.383.476-.527.254-.882.827-1.583.824l.426-.525a.77.77,0,0,0-.618.178,2.2,2.2,0,0,0-.836.933.714.714,0,0,1-.236.289,1.889,1.889,0,0,0-.546.5.239.239,0,0,1-.13.1,3.73,3.73,0,0,0-.818.3c-.176.095-.35-.087-.424-.4l-1.3.089c-.07-.108-.137-.287-.193-.284-.416.022-.649-.468-1.109-.4l.347-.249a2.629,2.629,0,0,0-.3-.2c-.252-.12-.506-.24-.768-.339-.18-.068-.377-.092-.56-.153a3.517,3.517,0,0,1-.632-.252,6.276,6.276,0,0,0-1.5-.451c-.4.189-.665-.3-1.1-.171.034.114.07.236.107.359l-.4.088c.269.16.269.16.687.1l-.3-.193.758.329,0,.087a.935.935,0,0,1-.333.09,3,3,0,0,1-1.01-.251c-.026-.258-.384-.233-.437-.515.285-.009.5.294.816.153a1.046,1.046,0,0,0-.6-.683,2.9,2.9,0,0,1-1.013-.735c-.155-.136-.284-.27-.511-.241a.285.285,0,0,1-.194-.047,1.084,1.084,0,0,0-1.044-.1.319.319,0,0,1-.16.028,5.725,5.725,0,0,0-1.935-.059c-.352.01-.7,0-1.055.015-.309.014-.618.045-.926.08a33.683,33.683,0,0,0-3.969.62c-.505.119-1.033.141-1.547.229-.485.083-.965.2-1.45.292a13.95,13.95,0,0,1-2.3.324c-.563.007-1.123.129-1.686.19-.943.1-1.886.206-2.83.29-.421.038-.849,0-1.269.048a17.885,17.885,0,0,0-3.192.5,6.114,6.114,0,0,1-1.956.311.778.778,0,0,0-.291.043,1.645,1.645,0,0,1-1.945-.953c-.136-.386-.292-.766-.429-1.152a1.52,1.52,0,0,0-.526-.752,5.387,5.387,0,0,0-.162-1.127,5.374,5.374,0,0,0-.589-.965,3.054,3.054,0,0,1-.469-1.11,3.674,3.674,0,0,0-.256-.7q-.14-.349-.293-.694a.355.355,0,0,1,.011-.388c.138-.216-.035-.366-.2-.514l.134-.279c-.168-.138-.341-.276-.169-.546.038-.06-.117-.244-.211-.423a1.389,1.389,0,0,0,.062-1.136,7.61,7.61,0,0,1-.127-1.535c-.009-.334-.069-.667-.09-1-.025-.4-.033-.8-.05-1.2-.008-.2-.026-.41-.026-.614a1.591,1.591,0,0,1,.047-.259c.01-.062.045-.15.016-.185a.82.82,0,0,1-.142-.622c.035-.481.029-.965.029-1.448,0-.139-.043-.278-.053-.418a11.827,11.827,0,0,1,.083-2.234c.089-.75.141-1.5.228-2.256.059-.5.155-1,.228-1.5.043-.293.05-.593.114-.881.112-.5.263-1,.38-1.5.06-.259.08-.527.121-.79.035-.222.074-.444.11-.666,0-.014,0-.034.007-.041.291-.248.167-.607.241-.911s.131-.638.2-.955a2.481,2.481,0,0,1,.117-.319c.03-.078.1-.167.084-.233-.075-.29.1-.517.161-.771.036-.14.161-.28.039-.439-.012-.016,0-.058.009-.082a19.94,19.94,0,0,1,.933-2.41,10.1,10.1,0,0,0,.56-1.278c.179-.415.356-.831.541-1.244.254-.567.5-1.14.775-1.7.252-.5.527-.992.827-1.465a.584.584,0,0,0,.016-.735,1.388,1.388,0,0,0-.427-.481,1.75,1.75,0,0,1-.505-.7c-.148-.273-.25-.572-.392-.907.08-.069.114-.205.018-.384a.311.311,0,0,1,.055-.29,1.675,1.675,0,0,1,.493-.326c.277-.111.573-.176.89-.269,0,.191-.2.433.111.569.131-.011.144-.1.158-.231.031-.269.123-.329.382-.316a3.6,3.6,0,0,0,.632.018.891.891,0,0,0,.714-.581,1.706,1.706,0,0,1,.8-.876c.028-.016.039-.064.086-.148l-.711.211-.045-.057a2.173,2.173,0,0,1,.5-.388,1.871,1.871,0,0,0,.629-.414c.117-.111.128-.1.426-.046l-.7.534c.513.082.546.068.7-.286a1.148,1.148,0,0,0,.848-.253c.49-.278.962-.589,1.425-.911.295-.2.56-.453.838-.681.011-.009.019-.026.03-.029.537-.107.427-.551.46-.906.027-.294.005-.592.005-.893l-.627-.211.627-.269-.233-.362a5.7,5.7,0,0,1-2.221.275c-.042,0-.1.018-.126,0a1.669,1.669,0,0,0-1.276-.044,1.2,1.2,0,0,0-.421.185c-.106.067-.1.166,0,.393l-.56.054.294-.326-.037-.055-.6.265-.057.428a1.5,1.5,0,0,0-.383.051c-.193.08-.508,0-.517.36,0,.03-.119.058-.2.1l.149.2-.631.294-.185-.462c-.264.144-.5.282-.745.4a.988.988,0,0,1-.757.164.5.5,0,0,0-.426.248c-.1.276-.352.164-.5.284-.224-.164-.4.028-.523.131a1.46,1.46,0,0,1-1.078.248c-.108-.006-.152.065-.215.093a2,2,0,0,1-.624.06.584.584,0,0,1-.521.223l.583-.615-.35-.168c-.254.353-.625.172-.963.206l-.312.348.048-.369-.336-.068.029.452c-.324.08-.58.377-.971.273-.073-.019-.177.073-.265.118-.111.057-.22.118-.347.187-.087-.319-.3-.162-.488-.186a.7.7,0,0,1-.714.614,4.2,4.2,0,0,0-.809.211c-.3.083-.59.168-.884.258-.317.1-.631.2-.979.317-.088-.037-.229-.148-.353-.132-.088.012-.152.2-.25.338l-.155-.348-.272.531c-.164.01-.34.019-.516.033-.054,0-.127,0-.158.034-.29.3-.729.279-1.058.5-.07.047-.206,0-.311-.008s-.214-.031-.32-.046c-.041-.006-.116,0-.119-.013-.1-.441-.351-.143-.54-.106s-.349.09-.523.137l-1.063.284c.089-.088.178-.175.277-.27-.151-.116-.252-.144-.29.009a.819.819,0,0,0,.026.272.8.8,0,0,0-.527.08,2.164,2.164,0,0,1-.569.125c-.158.039-.31.1-.49.159l-.1-.229c-.316.051-.617.116-.921.139a.443.443,0,0,1-.315-.148.482.482,0,0,0-.559-.182,1.186,1.186,0,0,1-.422.029.739.739,0,0,0-.577.209.494.494,0,0,1-.176.117,4.777,4.777,0,0,0-.843.234,3.086,3.086,0,0,1-.787.265c-.278.058-.549.015-.82.055a.289.289,0,0,1-.22-.078,1.822,1.822,0,0,1-.455-2.056,5.706,5.706,0,0,1,1.229-2.013c.207-.2.363-.448.6-.641a1.8,1.8,0,0,0,.339-.666,3.882,3.882,0,0,0,.124-.383l-.373-.45.421-.047.167-.341-.329-.1c0-.026-.019-.061-.008-.075a1.771,1.771,0,0,0,.218-1.048,1.441,1.441,0,0,1,.54-1.049l.067.437c.211.092.357.074.456-.15a.719.719,0,0,1,.738-.465.164.164,0,0,0,.084-.006c.507-.306.979-.075,1.455.093.092.032.209.1.279.068.433-.192.756.1,1.118.226.279.093.556.2.837.279a.429.429,0,0,0,.291,0,6.982,6.982,0,0,1,1.256-.27c.578-.195,1.192-.183,1.762-.356.51-.154,1.036-.265,1.527-.449a4.323,4.323,0,0,1,1.037-.263,15.179,15.179,0,0,0,2.51-.726,16.376,16.376,0,0,0,2-.8c.571-.246,1.132-.514,1.691-.785,1.4-.678,2.79-1.375,4.2-2.041.763-.362,1.546-.683,2.325-1.011.741-.313,1.489-.613,2.233-.918a4.558,4.558,0,0,1,1.181-.311,3.632,3.632,0,0,0,.973-.28c.459-.2.892-.455,1.346-.665s.907-.385,1.362-.575a.873.873,0,0,0,.121-.035,13.484,13.484,0,0,1,3.121-1.147q1.153-.36,2.319-.677c.68-.186,1.363-.364,2.051-.513.521-.113,1.057-.159,1.58-.267.4-.082.784-.211,1.174-.326.175-.051.346-.117.52-.177l.871-.3a.782.782,0,0,1,.242-.076,2.5,2.5,0,0,0,1.37-.637,1.108,1.108,0,0,1,.177-.114,14.36,14.36,0,0,0,1.89-1.126,16.04,16.04,0,0,0,1.448-.869,10.628,10.628,0,0,1,1.38-.785,1.982,1.982,0,0,0,.539-.408,4.779,4.779,0,0,1,1.141-.859c.931-.561,1.859-1.126,2.777-1.708.584-.371,1.15-.77,1.718-1.167a3.087,3.087,0,0,0,.359-.347,1.1,1.1,0,0,0-.632-.4c-.864-.315-1.724-.644-2.6-.923-.726-.231-1.47-.409-2.21-.592a.532.532,0,0,0-.615.169c-.111.154-.414.055-.444.339l.141.176c-.451.116-.452.118-.454.6a.636.636,0,0,1-.08.366.942.942,0,0,0-.031-.144c-.048-.131-.136-.143-.222-.044a.838.838,0,0,0-.023.732c-.458-.213-.5.2-.7.407l.262.208c-.129.139-.248.287-.387.411s-.431.118-.192.414c.023.028-.12.2-.2.3a3.507,3.507,0,0,1-.292.27.116.116,0,0,0-.044-.033,2.139,2.139,0,0,0-1.2.129.57.57,0,0,1-.488.179.951.951,0,0,0-.469.164c-.32-.036-.1-.384-.3-.541a.427.427,0,0,0-.166.046,1.306,1.306,0,0,1-1.361.024.473.473,0,0,1-.289-.554,1.175,1.175,0,0,0,.058-.372,1.019,1.019,0,0,1,.288-1.039l.323.031a6.123,6.123,0,0,0,.207-.648,3.472,3.472,0,0,0,.011-.491c.012-.2-.057-.431.14-.593.02-.016.048-.058.042-.067-.188-.275.107-.5.073-.758a2.32,2.32,0,0,0-.109-.352.942.942,0,0,0-.232-1.226,1.112,1.112,0,0,1-.35-1.006.765.765,0,0,0-.318-.766,1.043,1.043,0,0,1-.364-.742,6.455,6.455,0,0,0-.175-.825.493.493,0,0,1,.448-.662,2.9,2.9,0,0,0,.66-.142,9.906,9.906,0,0,1,3.5-.543c.577,0,1.154.06,1.731.058a1.077,1.077,0,0,0,.859-.38c.428-.513.866-1.018,1.286-1.537.3-.371.573-.764.87-1.137.207-.261.439-.5.651-.759.068-.083.1-.2.167-.281a14.084,14.084,0,0,1,1.713-2.1,5.233,5.233,0,0,0,.745-.971c.135-.186.384-.3.4-.642-.2.118-.357.214-.517.306-.06.035-.127.09-.187.086a1,1,0,0,0-.907.348c-.009.011-.022.024-.034.025-.442.012-.771.416-1.217.373a2.382,2.382,0,0,0-.934.186,1.1,1.1,0,0,1-.406.074,2.409,2.409,0,0,0-1.223.2.881.881,0,0,1-.335.028c-.448,0-.9,0-1.345-.023-.266-.015-.528-.083-.793-.12-.321-.045-.644-.073-.964-.125a.91.91,0,0,1-.615-.232c-.1-.1-.342-.066-.517-.1-.107-.022-.275-.038-.3-.1-.106-.255-.366-.29-.534-.442a3.74,3.74,0,0,1-.547-.707,1.953,1.953,0,0,1-.138-.377c-.021-.052-.079-.092-.088-.143a5.9,5.9,0,0,1-.172-2.086,27.458,27.458,0,0,1,1.072-3.748.394.394,0,0,1,.107-.181,2,2,0,0,0,.528-1.165,1.309,1.309,0,0,1,.209-.438c.172-.234.429-.449.4-.8,0-.039.049-.095.09-.121a1.345,1.345,0,0,0,.523-.649c.131-.335.436-.568.505-.943.023-.126.205-.214.284-.339.217-.343.409-.7.626-1.042.188-.3.414-.569.591-.871a9.994,9.994,0,0,0,.791-1.482,4.456,4.456,0,0,1,.759-1.228c.321-.395.615-.805.911-1.216.413-.573.849-1.135,1.208-1.741a13.061,13.061,0,0,0,.886-1.829,2.839,2.839,0,0,0,.117-1.371c-.589.09-1.155.184-1.722.26-.88.119-1.763.215-2.641.343-.541.079-1.075.2-1.613.3-.194.036-.389.068-.585.091a2.092,2.092,0,0,0-1.034.314,1.577,1.577,0,0,1-.927.222,6.46,6.46,0,0,1-1.368-.26,2.264,2.264,0,0,1-.614-.354c-.314-.213-.62-.44-.929-.661a.836.836,0,0,1-.172-.121,1.6,1.6,0,0,0-.94-.536l-.4.772c.242.282.4.593.653.729a1.707,1.707,0,0,1,.657.737.764.764,0,0,1,.153.315.31.31,0,0,0,.212.31c.124.051.182.31.225.486.034.138.039.247.184.344.219.146.064.341-.056.527h.295a1.333,1.333,0,0,0,.387.665,2.848,2.848,0,0,1,.359.75l.167-.033c.015.183.031.36.047.555a.393.393,0,0,1,.265.489.307.307,0,0,0,.076.226,1.127,1.127,0,0,1,.266.656,9.427,9.427,0,0,0,.453,1.958l-.332.18c.018.177.039.368.065.622l.309-.365c.057.316.088.583.16.839.028.1.147.174.243.282l-.173.417c.154.148.328.3.163.551.2.145.12.387.218.589l-.295.154a.873.873,0,0,1-.011,1.163,4.091,4.091,0,0,0-1.808.443,1.367,1.367,0,0,1-1.553-.213,2.069,2.069,0,0,0-.383-.312l-.914.885-.031-.075a3.4,3.4,0,0,0-.671.151.567.567,0,0,1-.524-.014c-.252-.127-.5-.265-.746-.4a.2.2,0,0,1-.091-.087c-.158-.393-.472-.691-.6-1.115-.182-.607-.456-1.186-.687-1.778-.129-.329-.242-.664-.376-.99-.1-.254-.231-.5-.348-.747l-.082.021a13.71,13.71,0,0,0-.307,1.893,4.143,4.143,0,0,0,.133,2,1.012,1.012,0,0,1,.186.1c.088.061.189.111.128.271-.028.073.05.187.083.294l-.152.179.233.25a1.121,1.121,0,0,0-.021,1.138.845.845,0,0,1,.1.3,2.99,2.99,0,0,1,.021.36c.009.223.153.482-.169.621-.026.011-.012.1-.031.142-.055.133.024.291-.11.421a.317.317,0,0,0,.024.31c.246.178.039.314-.018.471l.2.128-.224.2c.038.264.072.507.109.765-.282.241-.162.587-.163.906,0,.164.023.328.032.493,0,.041-.027.106-.01.122.237.2.064.462.1.69.039.248.059.5.088.75a.991.991,0,0,0,.047.331,5.008,5.008,0,0,1,.282,1.292.2.2,0,0,1,0,.124.611.611,0,0,0,.067.628,1.916,1.916,0,0,1,.168.644,4.761,4.761,0,0,1,.006.625c.249.049.2-.155.246-.262s.085-.236.147-.416c.052.1.1.154.092.173-.083.13-.025.215.016.351a3.764,3.764,0,0,1,0,.8,5.2,5.2,0,0,0,.064,1.552c.019.052.059.135.039.158-.216.24-.076.53-.1.791a4.937,4.937,0,0,0,.093.775,5.167,5.167,0,0,0-.027.575c.043.235-.077.461.038.712.062.135-.1.372-.157.563-.021.067-.072.171-.045.2.212.229.027.415-.078.631l.2.109a1.613,1.613,0,0,0,.033.582c.078.195-.058.476-.1.729a2.3,2.3,0,0,1,.067.443c-.012.423-.046.845-.075,1.267a1.381,1.381,0,0,1-.044.331.838.838,0,0,0,.847,1.111,1.218,1.218,0,0,1,.785.221.261.261,0,0,0,.184.046,1.048,1.048,0,0,1,.758.169l-.384.57.228.159c-.062.326-.028.385.426.557l-.33.16.145.43c-.116-.03-.222-.093-.294-.067a.327.327,0,0,0-.171.219c-.059.332-.293.64-.108,1.01a.3.3,0,0,1-.155.395,1.057,1.057,0,0,0-.468.672,1.483,1.483,0,0,1-.657.91,1.108,1.108,0,0,0-.5.706.6.6,0,0,1-.194.3c-.416.308-.847.6-1.27.9a7.187,7.187,0,0,0-.636.47,6.5,6.5,0,0,0-.508.55.1.1,0,0,0-.024.078c.107.35-.158.471-.375.627-.125.09-.255.17-.208.376a.278.278,0,0,1-.151.225,7.964,7.964,0,0,1-1.343.524.891.891,0,0,0-.416.195,3.4,3.4,0,0,1-1.621.554,11.923,11.923,0,0,0-1.225.262.288.288,0,0,1-.41-.2c-.228.109-.441.209-.653.312a14.772,14.772,0,0,1-2.631.9.6.6,0,0,1-.244.017,1.065,1.065,0,0,0-.765.154c-.156.1-.3.211-.51.137-.054-.019-.135.021-.2.046-.235.093-.47.187-.7.291a1.093,1.093,0,0,0-.224.159c-.072.059-.131.172-.206.181a5.08,5.08,0,0,1-1.094.016,1.075,1.075,0,0,0,.252-.182,1.261,1.261,0,0,0,.125-.317c-.246-.037-.39,0-.5.2a.6.6,0,0,1-.728.314,2.431,2.431,0,0,1-.968-.288l.449-.047-.2-.268.14-.24a1.764,1.764,0,0,0-.983.223v-.367c-.413-.015-.536.625-1.061.369l-.084-.15-.484.405-.13-.112-.254.153-.248-.641c-.113.021-.257.055-.4.076-.473.067-.946.155-1.422.186-.371.024-.727.219-1.112.1a.205.205,0,0,0-.185.068c-.1.292-.325.137-.466.152l-.539.412c-.282-.307.259-.288.144-.542a.641.641,0,0,0-.551.092,4.373,4.373,0,0,1-.89.347.8.8,0,0,1-.6.053c-.148-.057-.38.1-.644.189-.224,0-.546-.188-.836.052a.316.316,0,0,1-.385.049.535.535,0,0,0-.563.028c-.082-.061-.181-.185-.242-.169a1.454,1.454,0,0,1-.6.049,3.091,3.091,0,0,0-.622.1c-.246.02-.511.21-.739-.052-.353.1-.678-.107-1.026-.092s-.707.013-1.059,0c-.594-.018-1.188-.049-1.783-.075-.137-.006-.274-.01-.41-.019-.21-.014-.421-.027-.631-.05-.576-.063-1.151-.128-1.726-.2q-.692-.087-1.38-.2a1.084,1.084,0,0,1-.268-.125c-.509-.245-1.015-.493-1.527-.732a2.125,2.125,0,0,0-1.232-.2l-.4-.35c-.14-.278-.42.145-.567-.167l-.023-.363c-.333.271-.5-.108-.769-.117a.689.689,0,0,1-.622-.43c-.1-.219-.316-.2-.539-.127l.053-.208c-.347.074-.515-.274-.859-.31l.065-.594h-.517v-.218c-.2-.025-.443.015-.493-.268-.37-.014-.375-.509-.725-.553a.116.116,0,0,1-.071-.083c-.039-.444-.389-.667-.646-.967a.63.63,0,0,1-.082-.762c-.286.033-.554.073-.715-.207v-.413l-.359-.023c-.15-.187-.023-.307.087-.423-.092-.206-.17-.41-.274-.6a.368.368,0,0,0-.2-.128,3.292,3.292,0,0,0-.388-.073l.231-.415-.358-.119c.06-.095.143-.171.152-.254a.441.441,0,0,0-.088-.278,1.413,1.413,0,0,0-.285-.219l-.028.305c-.051-.03-.11-.047-.114-.071-.017-.122-.02-.247-.03-.4l.171-.015-.031-.288-.453-.1c-.088-.2.015-.464-.29-.56-.126-.04-.048-.379.112-.57-.135-.076-.31-.123-.393-.237a1.249,1.249,0,0,1-.1-.466c.01-.006.08-.02.1-.06a1.059,1.059,0,0,0-.243-.968,1.465,1.465,0,0,1-.6-.758,6.207,6.207,0,0,1-.462-1.65,1.859,1.859,0,0,1,.072-.466l-.168-.19c.008-.028.009-.072.023-.077.226-.072.276-.21.178-.421a.821.821,0,0,1-.059-.24.878.878,0,0,0-.472-.806l.088-.142-.257-.932.359-.133-.017-.072-.312.033a8.708,8.708,0,0,0-.14-1.474,7.417,7.417,0,0,1,.025-1.05c0-.14-.03-.28-.031-.421,0-.423,0-.845,0-1.268a1.634,1.634,0,0,0-.023-.414,5.757,5.757,0,0,1,0-1.838,2.947,2.947,0,0,1,.336-.907c.083-.2.122-.419.354-.535.082-.041.127-.186.16-.292a7.683,7.683,0,0,1,.288-.965,4.416,4.416,0,0,1,.618-.983c.192-.227.436-.165.648.068s.442.473.662.711a.592.592,0,0,1,.1.135c.159.329.294.672.477.987a6.829,6.829,0,0,0,.649.931c.1.116.288.153.47.244-.255.512.1.891.288,1.295a4.258,4.258,0,0,1,.3.872,13.3,13.3,0,0,1,.294,1.869,4.879,4.879,0,0,0,.38,1.5,4.543,4.543,0,0,1,.082.485c.25.881.473,1.772.773,2.635.263.758.614,1.485.928,2.225.292.688.567,1.384.888,2.057a11.37,11.37,0,0,0,.534,1.091c.36.585.6,1.241.912,1.858a5.281,5.281,0,0,0,.468.74c.351.477.736.93,1.071,1.417a4.88,4.88,0,0,0,1.319,1.242,4.325,4.325,0,0,0,1.162.664c.212.064.4.194.611.274a4.619,4.619,0,0,0,.682.212c.751.159,1.5.32,2.26.446.515.086,1.042.1,1.559.173a30.6,30.6,0,0,0,3.079.242c.531.021,1.063,0,1.595-.022.66-.023,1.321-.041,1.979-.1.729-.062,1.453-.169,2.181-.245.785-.083,1.571-.145,2.356-.233.345-.039.683-.126,1.026-.181.655-.1,1.31-.205,1.966-.3,1.243-.177,2.5-.3,3.728-.535,1.067-.2,2.112-.524,3.162-.809.747-.2,1.493-.41,2.227-.654.9-.3,1.776-.638,2.665-.955.2-.071.41-.114.606-.192.248-.1.484-.226.732-.326.511-.209,1.028-.4,1.539-.612a7.355,7.355,0,0,0,1.705-.936.714.714,0,0,0,.23-.331,13.137,13.137,0,0,0,.523-2.528c.112-.982.236-1.963.359-2.944a.954.954,0,0,1,.072-.24.876.876,0,0,0,.08-.694.3.3,0,0,1,0-.166,16.616,16.616,0,0,0,.084-2.235c.042-.482-.143-.977.076-1.446a.251.251,0,0,0,.007-.168,6.145,6.145,0,0,1-.008-1.892,2.965,2.965,0,0,0-.009-.782,3.33,3.33,0,0,1-.011-1.371,2.755,2.755,0,0,0,.018-.381c-.02-.847-.05-1.693-.065-2.54q-.016-.853,0-1.706c0-.335.029-.67.052-1a1.324,1.324,0,0,1,.068-.239.608.608,0,0,0,.04-.185c-.015-.227-.051-.453-.06-.681-.043-1.066-.084-2.132-.116-3.2-.017-.574,0-1.149-.023-1.723-.018-.441-.074-.88-.113-1.32a.539.539,0,0,1-.008-.119,7.348,7.348,0,0,0-.36-3.031.686.686,0,0,0-.531-.5c-.351-.081-.6-.231-.561-.657a.561.561,0,0,0-.255-.508,2.406,2.406,0,0,1-.375-.4c-.3-.352-.227-.662.2-.827a2.309,2.309,0,0,1,.3-.072c.059-.223-.062-.369-.269-.533.288-.14.532-.253.771-.377a.891.891,0,0,0,.261-.184,3.18,3.18,0,0,1,.905-.753c.33-.173.334-.272.219-.651a1.56,1.56,0,0,1-.041-.621c.012-.1.149-.266.224-.263.225.008.327-.159.464-.263.665-.5,1.31-1.033,1.98-1.53.43-.319.881-.614,1.34-.891a3.174,3.174,0,0,1,.708-.279.536.536,0,0,1,.373-.013c.351.2.613-.01.9-.139.512-.227,1.023-.46,1.548-.655a1.291,1.291,0,0,1,.624-.049,4.735,4.735,0,0,0,1.646-.085c1.057-.205,2.107-.444,3.164-.646.709-.135,1.426-.224,2.137-.345.628-.107,1.254-.225,1.88-.345a15.762,15.762,0,0,1,4.228-.187c.534.041,1.074.014,1.606.069a4.5,4.5,0,0,1,1.593.393,1.047,1.047,0,0,1,.351,1.751,2.256,2.256,0,0,0-.453.763c-.045.121.088.309.153.507l-.272.177.262.056c-.167.142-.11.409-.349.5-.024.01.01.168.018.271l-.329.2.1.226-.319.1.276.2-.222.375-.093-.045.106-.238-.334-.263-.429.725a.791.791,0,0,0,.155.081.822.822,0,0,0,.166-.011l-.095.291.063.04.263-.344c-.058.453-.1.5-.552.621a.5.5,0,0,0,0,.154.7.7,0,0,1-.152.7.616.616,0,0,0,.181.929,2.849,2.849,0,0,0-.467,1.4.374.374,0,0,1-.057.242,4.53,4.53,0,0,1-.825.955,10.153,10.153,0,0,1-2.386,1.219,1.744,1.744,0,0,1-.929.889c-.1.526-.129.554-.562.484l-.072.235.012-.008c-.109-.013-.252-.077-.319-.03-.192.134-.433.28-.513.478a4.191,4.191,0,0,1-1.374,1.685c-.06.048-.149.137-.136.184.059.223-.1.363-.206.484-.456.5-.68,1.151-1.09,1.668a21.949,21.949,0,0,0-1.116,2.171,3.128,3.128,0,0,0-.3.96,4.333,4.333,0,0,0-.115,1.375.957.957,0,0,0,.8.994,2.82,2.82,0,0,0,1.55-.06c1.036-.289,2.057-.628,3.082-.954.62-.2,1.242-.392,1.851-.62a25.266,25.266,0,0,1,3.372-1.009,7.84,7.84,0,0,1,2.351-.237,7.355,7.355,0,0,1,1.389.349,2.707,2.707,0,0,1,1.042.622.39.39,0,0,1,.124.362c-.013.461-.329.76-.51,1.132a1.687,1.687,0,0,0-.291.792c.2.055.22-.309.436-.15.011.364-.346.4-.544.518a1.565,1.565,0,0,0-.44.392l.121.08a2.181,2.181,0,0,0-.455.3,3.7,3.7,0,0,1-.647.683c-.232.154-.355.47-.532.71-.067.09-.134.2-.228.245-.22.093-.321.3-.478.445s-.37.277-.523.445c-.32.35-.615.722-.925,1.081a1.959,1.959,0,0,1-.239.219,1.747,1.747,0,0,0-.227.174c-.232.274-.451.559-.682.835s-.228.265.017.5c-.347.23-.873.207-1.025.762h.386l.032.092c-.609-.06-.862.359-1.153.727l.052.1.606-.271.042.087c-.281.154-.465.479-.864.431a.159.159,0,0,0-.117.028,1.539,1.539,0,0,0-.556.8c.367.056.474-.3.722-.412a1.127,1.127,0,0,1-.548.63c-.143-.032-.307-.123-.423-.081s-.214.211-.307.332-.184.267-.274.4l.012-.012c-.365.115-.558.447-.844.663a.31.31,0,0,0,.224.362c.544.213,1.1.4,1.629.645.848.388,1.691.792,2.514,1.23a16.427,16.427,0,0,1,1.573.983c.474.327.922.693,1.379,1.044a.451.451,0,0,1,.145.15,1.96,1.96,0,0,0,.854.862,12.23,12.23,0,0,1,1.484,1.048,5.658,5.658,0,0,0,.9.633,2.282,2.282,0,0,1,.709.684,11.628,11.628,0,0,0,.972,1.026c-.188.111-.184.249-.116.431a.5.5,0,0,1-.023.386,7.281,7.281,0,0,1-.773,1.1,3.148,3.148,0,0,1-.766.479c-.024.014-.077-.009-.111-.026a1.182,1.182,0,0,0-.863.021,2.938,2.938,0,0,1-1.02,0l.406-.441c-.3-.109-.425.1-.546.222a.491.491,0,0,1-.432.2.312.312,0,0,0-.233.071c-.266.289-.665.316-.975.517a5.178,5.178,0,0,1-.99.524c.026-.063.037-.166.081-.181.257-.093.5-.185.61-.475a.181.181,0,0,1,.126-.1c.51-.011.73-.493,1.151-.66-.227-.22-.292-.229-.5-.061a1.779,1.779,0,0,1-.813.441c.239-.2.3-.425.579-.471.139-.023.252-.2.382-.318-.682-.5-1.028-.313-1.087.065-.066-.011-.142-.049-.2-.029-.481.184-1.045.12-1.464.481a5.6,5.6,0,0,1-.937.606c-.452.255-.914.493-1.357.762-.758.462-1.584.79-2.359,1.218s-1.6.832-2.4,1.255c-.394.209-.777.438-1.255.709a2.224,2.224,0,0,0,.406.09c.42-.006.84-.029,1.261-.038q.659-.014,1.318-.014c1.269,0,2.521.2,3.78.321a12.935,12.935,0,0,0,1.742.029,17.588,17.588,0,0,1,2.243.082c.814.071,1.626.176,2.441.247.288.026.582-.009.873-.006.183,0,.366.021.549.037.069.006.152.059.2.036.5-.224,1.044.075,1.552-.121.085-.033.217.038.322.076.451.163.9.342,1.351.491a4.085,4.085,0,0,0,.58.085,1.185,1.185,0,0,1,.4.1,2.568,2.568,0,0,0,.918.26,5.875,5.875,0,0,1,1.046.318,11.6,11.6,0,0,1,1.2.525c.376.194.73.43,1.088.657s.734.474,1.092.725c.322.226.635.466.943.711a.247.247,0,0,1,.032.376,2.957,2.957,0,0,1-.268.256l.288.245-.112.358c-.371.049-.724.068-.817.515-.024.116-.149.209-.183.325a.724.724,0,0,0,.192.882l-.269.335c.079.277.3.339.568.336.022.156.041.293.063.453-.363.1-.553-.348-.9-.259l-.293.269.84.827a.545.545,0,0,1-.463-.043,6.81,6.81,0,0,0-1.6-.736l.088.275c-.238.241-.532.119-.815.083a18.058,18.058,0,0,0-1.815-.376c-.63-.017-1.258-.1-1.887-.152a1.908,1.908,0,0,0-.362.04c-.2-.432-.581-.406-.993-.384-.01-.281-.143-.382-.432-.291a.6.6,0,0,1-.357-.085c-.374-.162-.738-.346-1.115-.5a.592.592,0,0,0-.6-.015c-.059.039-.165.006-.245.006-.122-.327-.179-.361-.472-.225a.472.472,0,0,1-.46-.033,1.139,1.139,0,0,0-.883-.1,6.671,6.671,0,0,1-1.292.194c-.251.029-.5.034-.763.051l.1-.227c-.56.1-1.094.193-1.627.291-.138.025-.272.074-.41.1-.362.058-.725.111-1.089.155-.059.007-.123-.052-.188-.069a1.143,1.143,0,0,0-.356-.069c-.464.039-.925.1-1.388.149-.389.045-.778.086-1.164.144-.22.033-.436.1-.654.146-.617.14-1.24.262-1.851.424-.528.141-1.042.335-1.565.493-.455.137-.925.233-1.371.394a4.14,4.14,0,0,0-.674.412,1.155,1.155,0,0,1-.233.1c-.263.088-.4.282-.259.5.2.3.137.643.255.953a5.516,5.516,0,0,1,.191.934,2.5,2.5,0,0,0,.064.327c.033.1.133.191.127.282,0,.065-.133.122-.227.2.167.2.117.517.41.636a.085.085,0,0,1,.045.064c-.045.432.272.41.552.458.722.124,1.449.233,2.161.4a1.215,1.215,0,0,1,.955.623,3.317,3.317,0,0,1,.737.476,2.916,2.916,0,0,0,.58.223c.01.159-.121.393.193.393a.108.108,0,0,1,.072.042c.072.092.087.286.257.209.1-.044.145-.19.23-.274.037-.037.114-.035.208-.06-.1.229-.405.376-.12.668l.191-.288.519.5a.47.47,0,0,0-.068.144c-.008.046.019.136.045.142a.227.227,0,0,0,.182-.03,3.155,3.155,0,0,0,.263-.335l.447.531-.358.084a2.41,2.41,0,0,1,.51.394c.1.134.02.372.243.452.122-.278.122-.278-.114-.657a.44.44,0,0,1,.5.125c.2.181.386.368.585.545.134.12.259.258.478.213a.231.231,0,0,1,.185.126.563.563,0,0,0,.471.39l.142.617.219-.279c.284.1.027.252.019.4a.785.785,0,0,1,.48.482c.032.092.185.142.32.237-.007-.129-.01-.192-.014-.26.173-.089.227.058.292.151a.646.646,0,0,0,.419.331c.072.013.182.092.187.148.031.366.334.575.474.925l.208-.26c.123.174.39.285.22.6-.022.041.082.152.157.281l.432-.449a.446.446,0,0,1,.166.437.442.442,0,0,0,.247.479,1.234,1.234,0,0,1,.452.438,3.4,3.4,0,0,1,.247.592.861.861,0,0,0,.218.378,1.131,1.131,0,0,1,.4.749,3.31,3.31,0,0,0,.162.675c.038.168.072.327-.162.413-.2.074-.141.242-.07.392.226.477.456.952.672,1.433a.665.665,0,0,1,.078.6c-.08.161.168.229.1.448-.059.191.111.456.2.682.01.028.115.02.182.03.216.511.072,1.139.465,1.664.055-.09.109-.137.1-.178a3.222,3.222,0,0,0-.118-.786,1.141,1.141,0,0,1,.072-.853c.081.235-.127.5.178.588-.157.2.061.312.109.464a3.7,3.7,0,0,1,.147.529c.026.165.123.338-.038.509-.048.051.01.2.029.409l.173-.252.338.129c-.5.481-.6.784-.375,1.162l.222-.345c.029.09.076.155.061.2a3.981,3.981,0,0,0-.024,2c.006.03.062.05.094.075a1.793,1.793,0,0,0,.044.883c.212-.241.092-.526.11-.789C1540.394-631.8,1540.285-631.836,1540.228-631.865Zm.439,6.3c-.042.191-.277.33-.154.59.313-.127.378-.371.385-.707l-.239.127a1.257,1.257,0,0,0-.155-.817,5.738,5.738,0,0,0-.187.577c-.017.081.009.229.059.252C1540.454-625.508,1540.569-625.555,1540.667-625.566Zm-4.27-17.714c.015-.16.052-.329-.151-.422-.1.312-.1.312.158.416-.02.078-.083.181-.053.23a.591.591,0,0,1,.051.589c-.09.216.083.284.3.292,0-.2.227-.345.087-.557C1536.667-642.919,1536.708-643.227,1536.4-643.28Zm3.34,29.531c-.035.173-.076.345-.1.52a1.975,1.975,0,0,0,0,.292c.127-.066.225-.145.219-.215a4.69,4.69,0,0,0-.122-.59l-.01-.194c-.776.392-.733,1.071-.75,1.735.1-.046.234-.136.221-.185a.938.938,0,0,1,.118-.615A1.405,1.405,0,0,1,1539.737-613.749Zm-.6-18.887a2.219,2.219,0,0,0-.165-.378c-.042-.064-.159-.139-.218-.122a.6.6,0,0,0-.333.663c.052.261.068.528.123.788.06.283-.054.6.147.852a1.12,1.12,0,0,1,.171.7c0,.071.015.141.027.262a.68.68,0,0,0,.207-.724c-.065-.321-.376-.674.021-.994.014-.012.014-.056.005-.08a2.846,2.846,0,0,1,0-.977c.222.1.365.069.342-.066-.061-.339.016-.756-.459-.929C1539.049-633.293,1539.091-632.965,1539.133-632.636Zm-1.972-.516c.219.068.288-.115.389-.208-.063-.352-.143-.676-.17-1a.872.872,0,0,1,.119-.505c.1-.162.241-.346.513-.25.041.014.195-.17.226-.282a.791.791,0,0,0-.047-.37c-.092-.375-.193-.747-.3-1.157l-.617-.14.17-.434c-.241-.079-.272-.2-.253-.461a3.463,3.463,0,0,0-.192-1.208,2.93,2.93,0,0,1-.214-.785c-.006-.216-.042-.441-.067-.659a3.164,3.164,0,0,0-.343-.831c-.147.058-.249.1-.351.139a.209.209,0,0,0-.127.306l.012-.013a4.25,4.25,0,0,1-.246-.751c-.032-.221-.074-.405-.244-.493l.1-.627-.4-.027a1.844,1.844,0,0,1-.072-.452.36.36,0,0,0-.2-.383.715.715,0,0,1-.375-.616c-.013-.145-.052-.288-.091-.491l-.257.245c-.092-.227-.155-.448-.483-.541l.518,1.394a.81.81,0,0,1-.321-.53.66.66,0,0,0-.551-.62,2.417,2.417,0,0,0-.089,1.019c.041.311.261.612.056.94-.011.018,0,.055.01.082.067.244.126.49.207.73a.5.5,0,0,0,.18.278c.3.151.29.424.367.761a5.782,5.782,0,0,0-.421-.578c-.183-.192-.239-.17-.441.091.13.276.272.548.388.83.135.328.129.731.517.916a.159.159,0,0,1,.07.1,6.822,6.822,0,0,1,.422,1.7,1.212,1.212,0,0,0,.057.283l.456-.12c.135.308-.15.758.363.92.039.279-.046.638.369.68v1.118l.3.152c0,.252-.059.5.154.691l.406-.149c.119-.125-.094-.413.261-.413.02.389.039.766.059,1.153.265.06.283.086.231.367-.013.069-.021.138-.031.207-.027,0-.06-.016-.079-.005a.8.8,0,0,0-.151.111s.05.088.059.084a.456.456,0,0,0,.159-.088C1537.177-633.059,1537.161-633.114,1537.161-633.152Zm-34.995-6.4.353.194c-.268.443-.524.862-.776,1.283a.331.331,0,0,0-.052.149.931.931,0,0,1-.491.9c.129.272.129.272-.088.331-.023.178-.046.35-.061.466l-.745.355c.039.178.054.329.266.319l.337-.448c-.125.571-.217.664-.635.7l-.031.367.372-.121a8.9,8.9,0,0,1-.5.934.573.573,0,0,0-.1.34c-.019.357.052.745-.3,1.01-.026.02,0,.1-.009.151a7.34,7.34,0,0,1-.235,1.137c-.045.126-.029.247-.074.364-.054.137-.087.283-.131.424-.024.078-.03.182-.083.227-.262.224-.058.546-.181.8-.006.012.026.061.04.061.169,0,.119.105.1.2-.023.123-.039.248-.06.372-.05.309-.006.648-.317.868.135.082.281.107.181.293a1.921,1.921,0,0,0-.109.392c-.068.242-.07.547-.222.712a.4.4,0,0,0-.028.626c-.3.3-.145.629-.118.961a.441.441,0,0,0-.263.507c.019.2-.084.452,0,.6a1.766,1.766,0,0,1,.177.965c-.013.447-.019.895-.044,1.341a17.808,17.808,0,0,0-.049,2.216c.046.671.069,1.345.144,2.013.019.169.02.287-.1.384a1.064,1.064,0,0,1,.194.284c.059.235.015.493.161.71-.142.5.152.95.2,1.432.084.791.282,1.569.418,2.355.046.267.052.542.083.9-.367-.3-.437.232-.724.109-.039.3-.314.6.148.762.022.008.018.08.033.119.177.442.356.883.516,1.279a2.605,2.605,0,0,0,1.454.136c.291-.054.592-.048.885-.092.7-.106,1.4-.228,2.1-.339s1.37-.216,2.056-.312c.728-.1,1.46-.179,2.187-.286s1.477-.25,2.218-.361c.307-.046.622-.038.931-.075.746-.088,1.488-.235,2.235-.273a17.242,17.242,0,0,0,3.326-.608c.2-.051.4-.125.606-.165s.411-.051.617-.077c.111-.014.221-.033.332-.048.415-.057.833-.1,1.245-.175.258-.048.34-.232.237-.48-.081-.2-.188-.38-.286-.568-.137-.263-.38-.522-.388-.788-.01-.376-.318-.673-.216-1.058.01-.036-.046-.112-.089-.135a3.306,3.306,0,0,0-.537-.24c-.056-.017-.146.074-.234.124l.474.628a8.59,8.59,0,0,1-.856.249,5.21,5.21,0,0,1-2.306-.122c-.3-.08-.59-.2-.885-.294-.255-.085-.518-.15-.762-.259a3.556,3.556,0,0,0-1.017-.4c-.114-.014-.217-.123-.324-.19-.3-.186-.606-.36-.895-.561a13.135,13.135,0,0,1-1.264-.93,14.1,14.1,0,0,1-1-1.085.337.337,0,0,0-.482-.1c-.359.225-.737.421-1.093.652-.6.393-1.192.808-1.793,1.205a7.046,7.046,0,0,0-1.49,1.106c-.088.1-.263.123-.4.182.579-.545,1.15-1.076,1.758-1.559.788-.626,1.6-1.221,2.413-1.814a1.3,1.3,0,0,0,.5-.7,2.056,2.056,0,0,0-.04-.833,3.612,3.612,0,0,1,.137-1.924,5.822,5.822,0,0,1,.658-1.112,2.851,2.851,0,0,0,.458-.939c.1-.291.239-.568.612-.62a.757.757,0,0,0,.363-.19c.222-.194.417-.419.636-.616.431-.387.873-.762,1.307-1.146.216-.191.222-.279.056-.562-.253.092-.448.366-.772.253-.025-.009-.087.029-.1.059-.044.093-.1.154-.176.051-.024-.033.036-.128.053-.182-.162-.03-.35-.126-.442-.069-.3.184-.625.054-.928.145a.485.485,0,0,1-.483-.059c-.056-.047-.191-.029-.278,0-.175.052-.4.232-.5.175-.2-.112-.392.012-.546-.054-.215-.091-.257.079-.3.124l-.495-.107c-.033.221-.057.387-.083.567a.469.469,0,0,1-.012-.638c.073-.117.267-.158.409-.234-.1-.248-.364-.146-.582-.2l-.406-.921a.969.969,0,0,1-.375-.076.4.4,0,0,0-.455-.013c-.273.116-.516.42-.9.2a1.582,1.582,0,0,1,.028-1.558.529.529,0,0,1-.1-.763c.041-.082.074-.227.031-.283-.154-.2-.089-.425-.1-.642a.433.433,0,0,0-.052-.24,5.827,5.827,0,0,1-.418-.927.579.579,0,0,1-.035-.368,4.582,4.582,0,0,0,.015-1.719,9.474,9.474,0,0,1-.2-1.605c0-.432-.115-.846-.078-1.29.065-.774.006-1.558,0-2.337-.012-.827-.023-1.653-.043-2.479-.008-.319-.042-.637-.07-1.05a7.439,7.439,0,0,0-1.367,1.627l.281.168c-.044.084-.1.135-.092.181.028.4-.214.509-.55.535a.6.6,0,0,0-.187.091l.058.329-.258.357.315.136-.455.231-.481.18C1502.023-639.29,1502.023-639.29,1502.166-639.552Zm15.343,5.757c-.376.3-.926.247-1.221.7a1.694,1.694,0,0,0,.28.136,6.59,6.59,0,0,0,1.479.277,3.532,3.532,0,0,1,2.04.605,5.8,5.8,0,0,1,.757.838.076.076,0,0,1,.012.04,1.469,1.469,0,0,0,.548.881,1.8,1.8,0,0,1,.509.662c-.433.277-.834.59-1.392.392-.12.13-.314.249-.347.4s.085.356.155.6a1.422,1.422,0,0,1-.366.069c-.325-.025-.4.017-.543.324a2.659,2.659,0,0,1-.2.316c-.107.164-.08.241.13.387.014.01.016.037.031.076l-.318.089-.069.319-.475-.069c-.112.077-.207.193-.313.2-.343.037-.69.036-1.046.05a1.7,1.7,0,0,0,.052.373,8.835,8.835,0,0,0,.35,1.122c.271.485.22,1.105.69,1.525.322.287.283.794.541,1.146.1.141.091.385.212.489.307.263.335.628.473.96s.266.736.669.9a.4.4,0,0,1,.094.079c0,.171.009.377.114.456a.823.823,0,0,1,.271.359,5.18,5.18,0,0,0,.423,1.074.176.176,0,0,1,.031.12c-.038.205.08.3.234.406a.818.818,0,0,1,.429.6c.009.084.1.159.162.236.038.051.119.1.115.148a1.718,1.718,0,0,0,.283.818c.25-.2.373.035.609.174l-.466-.056c.141.217.183.441.5.429.139-.005.326.186.362.445-.12-.037-.211-.058-.3-.093a2.333,2.333,0,0,1-.219-.115l-.053.094c.142.1.278.207.428.293.094.054.212.065.311.111.363.17.361.173.21.55l.286.486-.267.106c.053.344.329.477.568.654a.869.869,0,0,0,.536.16,2.5,2.5,0,0,1,1.232.2c.095.055.262-.01.4-.026.107-.013.232-.08.313-.044a.394.394,0,0,0,.4.009.277.277,0,0,1,.227.044,1.5,1.5,0,0,0,.945.151,1.8,1.8,0,0,1,.744.033.572.572,0,0,0,.753-.12l.233.18a.9.9,0,0,0,.468-.544c.13-.374.271-.745.418-1.113a6.807,6.807,0,0,0,.345-.815c.173-.684.321-1.375.451-2.069.222-1.182.436-2.365.626-3.552a50.618,50.618,0,0,0,.69-5.3,19,19,0,0,0-.075-2.96,4.379,4.379,0,0,1-.006-1.35,1.51,1.51,0,0,0-.033-.5c-.034-.234-.091-.465-.126-.7-.092-.614-.145-1.235-.275-1.841-.121-.567-.324-1.117-.484-1.676s-.319-1.115-.466-1.676c-.082-.312-.123-.635-.211-.945s-.214-.577-.311-.87c-.2-.615-.38-1.24-.607-1.847-.217-.58-.484-1.141-.729-1.711-.2-.466-.37-.95-.61-1.4a25.754,25.754,0,0,0-1.551-2.58,18.763,18.763,0,0,0-3.461-3.653,1.582,1.582,0,0,0-.137-.1c-.343-.227-.532-.142-.609.271-.031.166-.054.334-.1.5a.976.976,0,0,0,.08.983c-.248.473-.24.493.3.689l-.142.338a2.032,2.032,0,0,1,.1.436c-.005.338-.057.675-.055,1.012,0,.576.018,1.152.061,1.726a3.78,3.78,0,0,0,.2.709l-.336.522c.046.043.063.072.086.08.356.113.375.121.237.436-.092.21.087.432-.067.624.194.13.057.262,0,.388a1.08,1.08,0,0,0-.08.973.408.408,0,0,1,.011.165q0,.632-.007,1.264c0,.042.01.1-.012.124-.2.227-.072.451,0,.677-.143.1-.417.128-.2.4-.085.218-.112.507-.27.635a2.2,2.2,0,0,0-.41.494c-.1.145-.226.274-.368.441a.373.373,0,0,0-.608-.093c-.192.138-.363.3-.549.448a.912.912,0,0,1-.248.136c-.274.1-.589.111-.765.4-.024.039-.1.058-.149.069-.81.165-1.5.645-2.3.888Zm-.64-6.13c.291.276.155.539.155.789a7.083,7.083,0,0,0,.077.752c.088-.037.185-.046.208-.092.159-.316.533-.5.521-.926-.008-.278.071-.557.089-.838.033-.506.063-1.013.067-1.521,0-.362-.042-.723-.06-1.085,0-.052.009-.132.044-.156.244-.165.04-.4.087-.593.016-.066-.162-.161-.178-.256a8.711,8.711,0,0,1-.111-1c-.031-.6-.042-1.2-.06-1.805,0-.112,0-.224,0-.336-.007-.179-.014-.359-.035-.537-.011-.1-.067-.188-.075-.284-.038-.45-.068-.9-.1-1.35a3.217,3.217,0,0,0-.051-.672c-.072-.243-.048-.529-.259-.72-.054-.049-.15-.112-.2-.093s-.1.119-.124.192c-.039.117-.018.3-.093.351-.3.2-.3.54-.458.816a.459.459,0,0,1-.052-.127c0-.1.005-.192.008-.288.017-.556-.26-.785-.792-.656-.055.013-.106.039-.16.057-.551.179-1.1.376-1.653.532a13.489,13.489,0,0,0-2.982,1.312.511.511,0,0,0-.235.325q-.11.883-.164,1.773c-.026.421-.007.845-.016,1.268-.01.438-.043.877-.04,1.315,0,.281.066.56.074.841.018.647.019,1.294.026,1.95h.226c-.022.214-.184.436-.011.654.008.01-.015.054-.033.074-.158.172-.079.377-.077.57.007.485.262.945.145,1.443,0,.018.029.045.042.064l.381.039c.036.155.136.324.088.42-.124.248.007.464.01.694a4,4,0,0,1-.041.454c-.021.2-.147.393.062.61.106.111.061.372.074.566.016.221.013.444.036.664.011.1.033.251.1.3a3.176,3.176,0,0,0,.569.249.171.171,0,0,0,.121-.028c.306-.174.622-.336.913-.532.576-.386,1.138-.794,1.707-1.19a3.064,3.064,0,0,0,1.5-1.738c.377.058.39.045.332-.284a.53.53,0,0,1,0-.158c.059-.457.111-.916.187-1.37A2,2,0,0,1,1516.868-639.926Zm-.28,18.388c-.186-.614-.348-1.15-.512-1.685-.1-.323-.2-.647-.3-.968-.058-.177-.058-.327.078-.375l-.347-1.308a2.908,2.908,0,0,0-.344.205c-.326.27-.66.535-.963.829a3.348,3.348,0,0,0-.512.657.437.437,0,0,0,.02.361c.123.236.286.451.431.676a1.575,1.575,0,0,1,.28.464c.092.453.466.579.8.728a6.046,6.046,0,0,1,1.026.366C1516.312-621.54,1516.424-621.558,1516.589-621.538Zm5.535-39.475c-.168-.335-.394-.208-.571-.129a4.648,4.648,0,0,1-1.2.384,1.631,1.631,0,0,0-.26.084c.02.211.048.389.051.568,0,.356.035.374.394.334a7.173,7.173,0,0,0,1.262-.423c.255-.076.5-.192.752-.272.588-.185,1.181-.358,1.769-.541.057-.018.1-.079.147-.118a.4.4,0,0,0-.586-.2.905.905,0,0,1-.37.063c-.263-.006-.526-.048-.789-.052A.619.619,0,0,0,1522.123-661.013Zm17.751,46.688c.081-.178.191-.4.287-.636a1.9,1.9,0,0,0,.2-1.139c-.015-.07-.086-.128-.131-.192a.627.627,0,0,0-.089.229c-.1.236-.051.536-.356.691-.2.1-.134.291.028.442a.984.984,0,0,0-.421.738Zm-1.673-18.659.124.051a2.8,2.8,0,0,0,.435-.43.465.465,0,0,0,.03-.4,7.068,7.068,0,0,0-.5-.726c-.236.077-.328.2-.24.422a1.147,1.147,0,0,1,.083.282C1538.16-633.519,1538.178-633.251,1538.2-632.983Zm-1.626,28.493a1.994,1.994,0,0,0-1.128,1.025c.128-.046.257-.052.313-.118C1536.01-603.885,1536.461-604.006,1536.575-604.491Zm3.216-26.071c.007,0,.073-.025.072-.044-.009-.261.123-.54-.1-.778a.7.7,0,0,1-.109-.26c-.043-.126-.078-.254-.13-.424a.529.529,0,0,0-.106.589C1539.541-631.176,1539.664-630.87,1539.791-630.562Zm-23.538,4.415c-.188.064-.27.084-.345.119-.093.044-.181.1-.271.151.068.1.117.23.211.288a1.027,1.027,0,0,0,.377.052C1516.235-625.752,1516.242-625.92,1516.253-626.147Zm22.309-9.682c.224-.339.084-.641-.133-1.031C1538.287-636.435,1538.5-636.144,1538.562-635.828Zm.449,2.052a1.9,1.9,0,0,0,.09-.587,2,2,0,0,0-.3-.549C1538.656-634.443,1539.01-634.145,1539.011-633.776Zm-8.917-13.848.428.418C1530.514-647.617,1530.44-647.7,1530.094-647.624Zm-34.039-15.789a.342.342,0,0,0-.438-.111c-.043.012-.059.124-.1.218Zm40.417,30.668.157.629C1536.785-632.4,1536.762-632.49,1536.471-632.744Zm3.394,2.478c-.137.324-.137.324-.028.5C1539.932-629.928,1540.072-630.076,1539.865-630.266Zm-5.739-82.745.214-.282C1534.081-713.29,1534.081-713.29,1534.126-713.011Zm5.248,102.365-.451-.281c.029.173.044.262.062.371Zm-1.052-24.09c-.072-.049-.134-.111-.152-.1a.793.793,0,0,0-.15.149c.042.028.091.085.124.077C1538.2-634.623,1538.245-634.678,1538.322-634.736Zm-21.231-3.465c-.2.029-.317.115-.265.372Zm17.87,18.095a.655.655,0,0,0-.126-.163c-.021-.013-.123.047-.12.056a1.325,1.325,0,0,0,.083.195Zm-2.628,1.583-.068-.007-.031.172.1.008Zm4.294-15.295-.016-.1-.222.044.022.11Zm-1.619-1.116-.03.112c.072.011.143.023.215.031a.216.216,0,0,0,.013-.067C1535.141-634.888,1535.074-634.911,1535.007-634.935Zm-37.015-16.282-.095.036c.026.074.05.149.083.219a.6.6,0,0,0,.1-.029Zm35.206,6.1-.1-.093a.429.429,0,0,0-.081.117c-.006.019.044.054.069.082Z" transform="translate(-1458.839 717.892)" fill="#dad2c6"/><path d="M1516.7-686.813c.026-.01.061-.035.078-.027.37.18.82.208,1.09.577a.336.336,0,0,0,.124.114c.557.23,1.01.639,1.542.906a9.5,9.5,0,0,0,1.215.44q.6.2,1.2.388a1.88,1.88,0,0,0,.49.114,5.81,5.81,0,0,1,1.724.535c.307.105.605.237.917.322a1.406,1.406,0,0,1,.863.571,1.481,1.481,0,0,0,.6.522,1.9,1.9,0,0,1,.839.7,2.431,2.431,0,0,1,.207.457.462.462,0,0,1-.236.642c-.234.108-.226.347-.289.54-.044.137-.062.248-.229.316-.12.049-.194.212-.287.322a4.06,4.06,0,0,0-1.56-.761c-.146-.047-.3-.065-.451-.107-.41-.116-.448-.095-.528.346-.091,0-.213.038-.279-.006-.435-.3-.94-.135-1.4-.237a12.564,12.564,0,0,0-1.418-.249,3.594,3.594,0,0,0-.966.044,2.672,2.672,0,0,1-1.292-.112,4.718,4.718,0,0,0-1.777-.338,4.189,4.189,0,0,1-1.422-.192,8.344,8.344,0,0,0-2.482-.2c-.521.008-1.041.084-1.562.112a6.08,6.08,0,0,0-1.9.4,2.3,2.3,0,0,0-1.186,1.032,7.317,7.317,0,0,1-.437.634,4.5,4.5,0,0,1-.4.539q-.7.721-1.434,1.417a12.407,12.407,0,0,0-1.542,1.964.435.435,0,0,1-.405.244.437.437,0,0,1-.3-.181,3.913,3.913,0,0,1-.255-.627c-.056-.157-.069-.325-.27-.4-.072-.026-.112-.153-.157-.239s-.041-.182-.1-.232c-.283-.249-.231-.61-.338-.917a8.238,8.238,0,0,1-.24-1.651c-.036-.265-.023-.535-.055-.8s-.1-.5-.135-.752-.062-.5-.081-.751a.283.283,0,0,1,.234-.309.443.443,0,0,0,.349-.365,3.463,3.463,0,0,0-.479-.3c-.546-.233-.647-.772-.857-1.229a5.9,5.9,0,0,1-.261-.806,2.286,2.286,0,0,1-.06-.328,1.4,1.4,0,0,0-.045-.354.594.594,0,0,1,.078-.635c.117-.161.234-.314.128-.542-.031-.066.053-.182.075-.277a5.665,5.665,0,0,0,.146-.7.486.486,0,0,1,.239-.411,8.265,8.265,0,0,0,1.908-1.786c.6-.732,1.263-1.406,1.9-2.1.439-.48.884-.955,1.319-1.438.839-.933,1.681-1.863,2.506-2.809.519-.6,1.01-1.217,1.513-1.827.108-.131.2-.273.324-.394a1.509,1.509,0,0,0,.481-.83.441.441,0,0,1,.155-.294c.288-.159.338-.426.389-.753l-.768.333a12.642,12.642,0,0,0-1.355.59c-.338.2-.719.318-1.073.488-.2.1-.38.257-.589.333-.624.228-1.25.454-1.888.632a8.4,8.4,0,0,0-1.872.649,4.468,4.468,0,0,0-1.553,1.269,2.411,2.411,0,0,0-.179.368,1.075,1.075,0,0,1-.088.181c-.232.318-.47.632-.7.95-.146.2-.242.431-.556.456-.118.01-.222.2-.35.318l-.273-.2a.771.771,0,0,0-.116.2,1.117,1.117,0,0,1-.753.8,4.244,4.244,0,0,1-2.045.372.487.487,0,0,1-.3-.106,2.4,2.4,0,0,1-.791-1.8,3.59,3.59,0,0,0-.029-.5c0-.054-.015-.133.014-.16.185-.172.139-.39.13-.6a2.176,2.176,0,0,1,.42-1.288c.1-.162.158-.355.256-.521a1.5,1.5,0,0,1,.379-.538,1.978,1.978,0,0,0,.612-.844,14.538,14.538,0,0,1,1.422-2.193,18.012,18.012,0,0,0,1.028-1.547c.067-.1.146-.2.265-.355-.141,0-.225-.025-.281,0a1.856,1.856,0,0,1-1.182.241.6.6,0,0,0-.548.169.907.907,0,0,1-.661.245,2.112,2.112,0,0,0-1.165.3,1.615,1.615,0,0,1-.73.288,7.261,7.261,0,0,1-1.117-.057c-.08-.005-.166-.047-.237-.028-.392.108-.78.229-1.2.354-.051-.033-.146-.062-.188-.126-.264-.4-.72-.523-1.086-.776a1.772,1.772,0,0,1-.258-.276c-.271.222-.507-.012-.685-.142a1.131,1.131,0,0,0-.335-.16c-.224-.077-.436-.19-.664-.293v-.345l-.354-.15c.293-.305-.252-.505-.077-.815.024-.043-.07-.145-.094-.225a1.088,1.088,0,0,1-.083-.389c.022-.209-.041-.347-.242-.376-.25-.037-.385-.14-.366-.411a.211.211,0,0,0-.112-.169c-.385-.073-.348-.456-.534-.666l.146-.213c-.143-.256-.475-.371-.452-.714a.085.085,0,0,0-.044-.066c-.35-.129-.231-.348-.165-.612a2.274,2.274,0,0,1,1-1.3,3.117,3.117,0,0,0,.753.051,2.889,2.889,0,0,0,.807-.3,1.62,1.62,0,0,1,.755-.161c.335-.005.761.048.971-.348.189.013.37.035.55.033a.36.36,0,0,0,.221-.089,2.534,2.534,0,0,1,1.091-.6,8.68,8.68,0,0,0,1.142-.511c.281-.124.585-.2.854-.349a24.113,24.113,0,0,1,2.607-1.114c.375-.15.74-.325,1.117-.472a4.558,4.558,0,0,1,.878-.287,8.208,8.208,0,0,0,1.628-.6,15.879,15.879,0,0,0,1.534-.713c.61-.319,1.2-.669,1.8-1.01a14.465,14.465,0,0,1,1.419-.808,27.356,27.356,0,0,1,3.075-1.261c.229-.067.441-.191.669-.265.672-.218,1.352-.41,2.019-.641.353-.122.683-.31,1.03-.453a2.079,2.079,0,0,1,.557-.159c.216-.023.438.015.657.009a.275.275,0,0,0,.174-.1.436.436,0,0,1,.433-.2c.357-.379.872-.222,1.3-.379a.672.672,0,0,1,.374-.031c.479.119.951.264,1.427.392.257.069.518.13.778.186a6.717,6.717,0,0,0,.666.125,2.053,2.053,0,0,1,.847.45.4.4,0,0,1,.173.359,2.72,2.72,0,0,0,.157.784,1.519,1.519,0,0,0,.3.392c-.163.432-.322.828-.458,1.231-.07.208,0,.295.229.363.083.025.162.06.231.086l-.01.086-.122-.026a2.228,2.228,0,0,0-.329.524,5.709,5.709,0,0,0-.155.969c-.006.062.09.135.151.22a.978.978,0,0,0-.247.858.865.865,0,0,1-.738.99c-.485.09-.974.159-1.464.22a2.83,2.83,0,0,0-1.3.573.7.7,0,0,1-.253.14,3.335,3.335,0,0,0-1.646.9,1.683,1.683,0,0,1-.932.46.529.529,0,0,0-.341.138,2.089,2.089,0,0,1-.962.646c-.286.132-.334.437-.531.629-.058.056,0,.232.007.347l.279.076-1.951,2.017.032.044c.231-.107.464-.212.693-.322.035-.017.087-.065.082-.089-.073-.353.3-.311.4-.512.093.118.148.252.242.291a.5.5,0,0,0,.348-.027c.39-.164.772-.345,1.155-.524a5.615,5.615,0,0,1,1.89-.565c.239-.021.475-.074.714-.107a4.559,4.559,0,0,1,2.045.258c.292.094.322.4.386.612a1.126,1.126,0,0,1-.043.779,5.044,5.044,0,0,1-.56,1.082c-.221.251-.092.6-.01.915a2.093,2.093,0,0,1-.072,1.345c-.041.1-.17.17-.269.263.073.091.146.176.211.268.04.055.11.146.092.176-.225.374.168.7.07,1.064a2.967,2.967,0,0,0-.053.332c-.018.12-.042.24-.05.362-.017.273-.021.547-.044.819-.005.055-.07.111-.119.154-.179.157-.37.3-.541.466a.624.624,0,0,0-.127.264c-.109.357-.2.72-.323,1.073a.324.324,0,0,1-.217.174c-.2.034-.253.157-.184.3.153.318.008.532-.186.76a6.138,6.138,0,0,0-.9,1.4,2.508,2.508,0,0,0-.119.558c-.239.311-.49.639-.743.966a.436.436,0,0,1-.114.125c-.233.125-.257.323-.266.567-.008.212-.147.415-.177.63a.865.865,0,0,1-.439.663,6.374,6.374,0,0,0-.655.533l.2.307c-.064.069-.173.133-.169.19a1.338,1.338,0,0,1-.4.891c-.064.087-.134.169-.2.252a1.267,1.267,0,0,0-.236.279c-.118.286-.2.586-.313.874a1.152,1.152,0,0,1-.185.274,3.44,3.44,0,0,0-.632.836c-.112.319-.3.585-.425.89a4.29,4.29,0,0,1-.632.954,4.232,4.232,0,0,0-.6,1.225l1.968-.34-.339-.236c.025-.025.042-.057.06-.058a1.655,1.655,0,0,1,.491.031,2.351,2.351,0,0,0,.787.006,3.777,3.777,0,0,0,.57-.145l-.5-.345.434.046c.027-.245-.176-.343-.277-.525a1.036,1.036,0,0,1,.248-.037c.363.037.38.018.266-.323l.683-.181-.116-.24c.149-.456.654-.3.944-.552.283.259.475.762,1.044.419a1.31,1.31,0,0,1-.157-.289c-.014-.054.051-.129.08-.194Zm-7.174-17.641c.4-.183.768-.335,1.12-.515.242-.124.464-.288.7-.44-.2-.055-.191-.048-.349.062a.594.594,0,0,1-.3.128c-.064,0-.129-.112-.22-.2a6.239,6.239,0,0,0-.416.51C1509.94-704.714,1509.611-704.773,1509.528-704.455Z" transform="translate(-1480.996 720.088)" fill="#dad2c6"/><path d="M1767.193-418.836c-.029.282.461.488.05.879l-.152-.86Z" transform="translate(-1687.74 496.385)" fill="#dad2c6"/><path d="M1585.248-509.606l.306-.4.256.156-.513.3Z" transform="translate(-1552.708 564.09)" fill="#dad2c6"/><path d="M1594.9-453.917c-.25-.012-.418.3-.7.168C1594.444-453.777,1594.623-454.044,1594.9-453.917Z" transform="translate(-1559.358 522.461)" fill="#dad2c6"/><path d="M1595.744-508.958l.2-.355.192.248Z" transform="translate(-1560.501 563.571)" fill="#dad2c6"/><path d="M1769.147-412.581l.179.478-.118.04q-.075-.244-.148-.489Z" transform="translate(-1689.203 491.74)" fill="#dad2c6"/><path d="M1781.2-326.294l-.1.327c-.034-.036-.082-.068-.077-.085.029-.1.07-.19.107-.284Z" transform="translate(-1698.083 427.696)" fill="#dad2c6"/><path d="M1726.269-663.855l.165.042-.267.242-.081-.076.195-.217Z" transform="translate(-1657.291 678.337)" fill="#dad2c6"/><path d="M1776.038-393.183l-.172.254-.089-.061.182-.247Z" transform="translate(-1694.19 477.376)" fill="#dad2c6"/><path d="M1587.65-675.418c-.079.2-.166.22-.357.087Z" transform="translate(-1554.226 686.917)" fill="#dad2c6"/><path d="M1730.037-584.463l.32.046-.3.173c-.005-.1-.009-.165-.012-.231Z" transform="translate(-1660.224 619.385)" fill="#dad2c6"/><path d="M1739.735-452.846l.207.194-.041.05-.218-.179Z" transform="translate(-1667.388 521.64)" fill="#dad2c6"/><path d="M1605.51-457.58l.238-.069.021.06-.233.1Z" transform="translate(-1567.753 525.207)" fill="#dad2c6"/><path d="M1745.865-532.709l.259-.08.026.075-.254.1Z" transform="translate(-1671.978 581.004)" fill="#dad2c6"/><path d="M1731.593-585.544l-.082.093a.341.341,0,0,1-.063-.117c0-.021.053-.048.083-.072Z" transform="translate(-1661.272 620.25)" fill="#dad2c6"/><path d="M1597.1-591.573l-.162-.23c.2-.038.2-.038.158.236Z" transform="translate(-1561.386 624.84)" fill="#dad2c6"/><path d="M1614.3-305.246c-.043-.156-.018-.245.129-.25a.113.113,0,0,1,.087.065C1614.541-305.282,1614.448-305.245,1614.3-305.246Z" transform="translate(-1574.267 412.222)" fill="#dad2c6"/><path d="M1645.28-366.511l.313.118c-.005.045,0,.081-.012.091a.473.473,0,0,1-.13.075A2.523,2.523,0,0,1,1645.28-366.511Z" transform="translate(-1597.286 457.53)" fill="#dad2c6"/><path d="M1684.107-425.219l.148-.34.078.052v.845c-.169-.025-.422-.167-.522.133a2.087,2.087,0,0,0-.069.53c0,.029.082.062.148.108a1.07,1.07,0,0,1-.1.163,1.547,1.547,0,0,1-.179.146,1.463,1.463,0,0,1-.139-.164,4.749,4.749,0,0,1-.057-1.272c.027-.062.085-.125.081-.184-.01-.146.025-.284.172-.288.11,0,.223.1.335.151Zm-.5.435c.148-.2.2-.314.057-.475C1683.481-425.14,1683.519-425.007,1683.608-424.784Z" transform="translate(-1625.585 501.378)" fill="#dad2c6"/><path d="M1684.923-436.677c.085.023.038.028.122.825.048.452-.409.489-.515.81-.006-.059-.034-.126-.015-.175.13-.337.285-.665.4-1.006A1.5,1.5,0,0,0,1684.923-436.677Z" transform="translate(-1626.417 509.634)" fill="#dad2c6"/><path d="M1660.9-423.7c-.03.3-.062.608-.089.912a4.128,4.128,0,0,0-.028.46c.005.237.028.474.044.74-.078-.032-.138-.041-.143-.062a6.743,6.743,0,0,1,.121-2.053Z" transform="translate(-1608.701 500.002)" fill="#dad2c6"/><path d="M1683.066-436.278c-.029-.22-.124-.4.09-.605.16-.152.151-.484.213-.721a.481.481,0,0,1,.05.738,2.509,2.509,0,0,0-.242.288A1.547,1.547,0,0,0,1683.066-436.278Z" transform="translate(-1625.31 510.323)" fill="#dad2c6"/><path d="M1660.45-413.153c.078-.23-.042-.47.215-.6.037.156.081.307.108.46C1660.792-413.186,1660.751-413.167,1660.45-413.153Z" transform="translate(-1608.551 492.613)" fill="#dad2c6"/><path d="M1683.527-428.5c.009-.15.019-.3.03-.477C1683.829-428.8,1683.829-428.749,1683.527-428.5Z" transform="translate(-1625.687 503.916)" fill="#dad2c6"/><path d="M1681.063-411.821c-.053-.274-.053-.274.164-.451C1681.321-412.077,1681.367-411.9,1681.063-411.821Z" transform="translate(-1623.835 491.511)" fill="#dad2c6"/><path d="M1685.711-438.939a.6.6,0,0,1-.093-.654C1685.819-439.383,1685.781-439.208,1685.711-438.939Z" transform="translate(-1627.196 511.799)" fill="#dad2c6"/><path d="M1683.135-441.559l-.373-.064c-.028-.138.013-.214.168-.2S1683.2-441.753,1683.135-441.559Z" transform="translate(-1625.113 513.455)" fill="#dad2c6"/><path d="M1683.143-430.16v-.236l.074-.01.031.235Z" transform="translate(-1625.402 504.976)" fill="#dad2c6"/><path d="M1682.22-447.027l-.078.277-.064-.017.068-.279Z" transform="translate(-1624.611 517.333)" fill="#dad2c6"/><path d="M1683.625-445.239c.043-.049.086-.1.132-.144a.433.433,0,0,1,.052.045c-.039.052-.082.1-.125.152Z" transform="translate(-1625.76 516.098)" fill="#dad2c6"/><path d="M1758.187-421.423l.318.074-.091.555c-.287-.175-.209-.422-.216-.642Z" transform="translate(-1681.128 498.316)" fill="#dad2c6"/><path d="M1761.14-408.368a.422.422,0,0,1-.046.478l-.085-.021Z" transform="translate(-1683.223 488.612)" fill="#dad2c6"/><path d="M1760.488-400.481c-.2-.176-.081-.246.077-.308Z" transform="translate(-1682.758 482.984)" fill="#dad2c6"/><path d="M1760.44-403.032a1.8,1.8,0,0,1-.005.231c0,.012-.07.015-.107.022l-.035-.238Z" transform="translate(-1682.692 484.65)" fill="#dad2c6"/><path d="M1758.823-407.6l-.1.108c-.025-.027-.069-.054-.068-.08a.117.117,0,0,1,.07-.08C1758.747-407.655,1758.782-407.619,1758.823-407.6Z" transform="translate(-1681.477 488.078)" fill="#dad2c6"/></g></svg>