<svg xmlns="http://www.w3.org/2000/svg" width="111.67" height="100.929" viewBox="0 0 111.67 100.929"><g transform="translate(0)"><path d="M1527.618-1765.515a1.417,1.417,0,0,1-.237.74c-.08.149-.2.275-.291.421-.028.046,0,.123,0,.217.416-.2.455-.623.7-.977a2.106,2.106,0,0,1-.188.764.754.754,0,0,0-.044.313.4.4,0,0,1-.08.374.309.309,0,0,0-.029.236,1.2,1.2,0,0,1-.519,1.346,5.434,5.434,0,0,0-1.223,1.229c-.1.178-.153.387-.246.573a2.23,2.23,0,0,1-.242.356c-.151.194-.3.388-.466.572a2.726,2.726,0,0,1-.375.351.248.248,0,0,1-.22.037c-.058-.036-.084-.138-.1-.217-.009-.041.032-.091.043-.139.042-.173.023-.3-.178-.381a1.858,1.858,0,0,1-.336-.247.373.373,0,0,0-.165-.064c-.487-.057-.975-.1-1.462-.165-.159-.02-.355-.011-.38-.26-.005-.048-.1-.1-.162-.126-.23-.08-.466-.146-.7-.22-.186-.059-.419-.022-.469-.324-.015-.088-.235-.141-.369-.214.013-.084.07-.207.036-.294s-.161-.171-.242-.26c-.056-.061-.092-.141-.153-.195a.836.836,0,0,0-.188-.1.382.382,0,0,0-.282-.5c-.068-.024-.166-.009-.209-.052a8.461,8.461,0,0,1-.665-.713,2.053,2.053,0,0,0-.974-.814.4.4,0,0,1-.2-.155,1.118,1.118,0,0,0-.469-.486,3.816,3.816,0,0,1-.189-.544c.022-.192-.129-.283-.238-.388-.145-.141-.33-.24-.386-.459a1.7,1.7,0,0,0-.118-.3c-.056-.119-.116-.236-.182-.35-.024-.04-.1-.069-.1-.1.02-.385-.35-.58-.438-.914s-.2-.658-.3-.985c-.132-.41-.3-.489-.682-.3a1.221,1.221,0,0,1-.8.181.261.261,0,0,0-.109,0c-.463.118-.928.229-1.385.365a2.362,2.362,0,0,0-.441.244,4.859,4.859,0,0,1-.607.33c-.249.1-.517.143-.776.215-.3.084-.306.094-.3.4.01.417.089.511.492.683.089.038.143.156.219.243l.238-.144c.257.135.314.394.446.658a3.768,3.768,0,0,0-1.148.812c.327.137.459-.314.759-.154l-.113.228.348.13.474-.158.012.036-.21.144a1.512,1.512,0,0,0,.57.015c.176-.032.113-.356.393-.231l-.118.341a.679.679,0,0,0,.615.305c.077-.009.167.091.251.142l.4.242.087-.424.4.55c-.244.086-.536.079-.573.4l.537.435c.01.008.021.024.028.022.355-.1.417.233.608.387a1.14,1.14,0,0,0,.448.119c-.074.048-.166.113-.261.17-.14.084-.142.181-.031.323a1.285,1.285,0,0,1,.53-.228c.091-.013.158-.193.253-.322l.381.505-.235.332c.223.157.464-.009.676.063s.41.15.689.253l-.3.041c-.053.342-.009.376.25.511a3.377,3.377,0,0,1,.635.467,4.657,4.657,0,0,1,.4.451c-.13.189-.151.184-.376-.188l-.335.119c0,.26.208.116.3.2-.044.238-.267.172-.4.246-.082.293-.082.293-.435.321-.188.015-.294.127-.327.346l-.126-.068c-.272.324-.248.551.083.776.081.055.167.105.253.152s.172.085.273.133a.306.306,0,0,1-.309.174,1.721,1.721,0,0,0-.865.223c-.119.08-.235.164-.349.25-.078.059-.146.133-.227.187-.06.04-.205-.031-.179.111.012.061.111.1.171.156-.343.415-.9.384-1.355.565-.352.139-.737.193-1.09.331a4.927,4.927,0,0,0-1.025.481,6.256,6.256,0,0,1-1.811.794,10.023,10.023,0,0,1-3,.509,5.025,5.025,0,0,1-2.317-.509,9.735,9.735,0,0,1-1.522-.951c-.21-.168-.469-.274-.683-.44s-.4-.388-.618-.57a6.806,6.806,0,0,1-1.251-1.884.387.387,0,0,0-.266-.169c-.242-.01-.323-.163-.361-.351a5.146,5.146,0,0,0-.551-1.384c-.155-.293-.454-.43-.583-.721-.023-.052-.125-.07-.214-.115l-.147.3c-.182-.083-.153-.3-.283-.432a.417.417,0,0,0-.466.378,1.351,1.351,0,0,1-.168.343c-.251-.06-.373-.156-.4-.4a1.072,1.072,0,0,0-.247-.435,4.043,4.043,0,0,0-.323-.347c-.24.067-.3.15-.283.411a1.494,1.494,0,0,1,.012.216,1.573,1.573,0,0,1-.04.208c-.222.008-.4-.339-.63-.05-.206-.141-.414.041-.651-.009.046.1.09.18.122.265.076.2,0,.318-.212.292a2.517,2.517,0,0,1-.476-.161c.2-.218,0-.364-.026-.549l-.369-.03c-.1-.225-.21-.458-.32-.689a.316.316,0,0,1,.106-.453,1.1,1.1,0,0,1-.434-.884,17.255,17.255,0,0,0-.432-1.926c-.037-.217-.085-.432-.132-.647-.206-.936-.448-1.866-.6-2.811a8.108,8.108,0,0,0-.228-1.106c-.032-.1-.055-.209-.082-.313-.009-.035-.038-.084-.025-.1.273-.412-.168-.673-.218-1.017-.02-.137-.147-.251-.063-.415a.252.252,0,0,0-.041-.2.5.5,0,0,1-.088-.548.2.2,0,0,0-.018-.173,2.68,2.68,0,0,1-.414-1.421c-.041-.491-.178-.956-.251-1.436q-.136-.884-.251-1.772c-.022-.169,0-.344-.011-.515-.038-.5-.093-1-.123-1.5-.023-.386-.017-.775-.026-1.162a10.116,10.116,0,0,0-.059-1.612c-.081-.433-.039-.862-.107-1.29a9,9,0,0,1-.1-1.282,11.574,11.574,0,0,0,.028-1.316,15.109,15.109,0,0,1-.064-1.683c-.01-.449.049-.9.079-1.35,0-.036.028-.071.029-.107.021-.47.03-.941.063-1.41.031-.452.1-.9.13-1.354.079-1.049.144-2.1.227-3.149a.768.768,0,0,1,.129-.523.187.187,0,0,0,.019-.143,1.355,1.355,0,0,1,.155-.848.352.352,0,0,0,.043-.245c-.133-.271.046-.511.055-.767,0-.042.095-.082.19-.158a3.173,3.173,0,0,1,.257-1.746l.2-.031c.016-.189.042-.382.045-.576,0-.231-.023-.463-.016-.694,0-.141.064-.271-.083-.391-.042-.034-.005-.185.018-.276a1.992,1.992,0,0,1,.446-.9.276.276,0,0,0,.026-.266c-.115-.12-.062-.225-.027-.339.057-.188.118-.375.172-.563.02-.068.064-.168.035-.206-.119-.156-.055-.337-.129-.517l-.1.243c-.183-.151-.01-.258.035-.377s.094-.268.155-.446l.037.292c.164-.348.432-.524.47-.92a6.272,6.272,0,0,1,.315-1.071,1.351,1.351,0,0,1,.231-.33,3.687,3.687,0,0,0,.416-.626,2.747,2.747,0,0,1,.429-.547l.063.242a2.909,2.909,0,0,0,.182-.395,3.994,3.994,0,0,0,.073-.492c.142.266.241.056.326.051.071.058.135.15.182.142a.563.563,0,0,0,.247-.141c.082-.071.133-.188.223-.24a1.844,1.844,0,0,0,.583-.614,1.04,1.04,0,0,0,.254-.691c.214-.1.49-.13.442-.464,0-.031.074-.078.119-.11a1.276,1.276,0,0,0,.5-.795.555.555,0,0,1,.069-.147c.072-.123.147-.244.218-.36l-.344-.271.444-.08c.146-.187.31-.376.45-.582a.958.958,0,0,0,.278-.658c-.3-.162-.3-.166-.517.049-.249.249-.49.506-.737.757a1.545,1.545,0,0,1-.181.123c.2-.407.561-.656.51-1.078-.392-.088-.623.266-.985.283.062-.233.261-.24.4-.314.108-.059.207-.062.22-.238.008-.1.18-.193.286-.3-.153-.156-.225.038-.331.071s-.247.038-.36.083-.23.14-.35.2-.257.09-.37.16a2.929,2.929,0,0,0-.306.263c-.1.082-.2.158-.332.266a.435.435,0,0,0,.554-.088,1.358,1.358,0,0,1-.146.169,2.035,2.035,0,0,1-1.151.553,1.892,1.892,0,0,0-.733.382,2.374,2.374,0,0,1-.273.174c-.089.053-.161.111-.106.259l1-.555c.06.162-.065.209-.16.279-.284.208-.563.424-.848.631-.225.164-.448.333-.686.477a1,1,0,0,0-.41.576.468.468,0,0,1-.107.217c-.283.212-.578.408-.869.61-.068.047-.136.1-.208.137-.2.114-.407.22-.608.336-.318.182-.626.383-.952.549a10.864,10.864,0,0,0-1.727,1.146c-.3.233-.712.339-.88.723-.07-.032-.152-.1-.179-.077-.179.119-.349.254-.517.388a.117.117,0,0,0-.041.1c.122.4-.226.484-.435.654-.344.282-.7.549-1.049.825a.285.285,0,0,0-.109.137c-.04.191-.169.259-.333.341a1.647,1.647,0,0,0-.419.39,1.106,1.106,0,0,1-.4.274,2.114,2.114,0,0,0-.554.5c-.1.1-.181.214-.263.313-.293-.136-.1-.275-.052-.409-.217.067-.42.122-.619.193a.435.435,0,0,1-.483-.031.155.155,0,0,0-.138-.017c-.258.125-.51-.021-.765-.012a.341.341,0,0,1-.186-.1c-.229-.18-.454-.366-.7-.567-.236.229-.407.074-.6-.082a3.72,3.72,0,0,1-.895-1.147,1.78,1.78,0,0,1-.256-.986.431.431,0,0,0-.126-.321,1.132,1.132,0,0,1-.377-.782,14.182,14.182,0,0,1-.149-2.744c.013-.145,0-.292,0-.471a.36.36,0,0,0,.269-.338c.009-.294.22-.437.479-.541-.1-.238-.165-.461-.437-.521l-.01.01a1.1,1.1,0,0,1,.33.01.722.722,0,0,0,.775-.239l-.215-.494c.057-.046.161-.126.261-.212.064-.055.153-.11.176-.182.123-.386.467-.489.782-.606a3.949,3.949,0,0,0,.814-.408,5.468,5.468,0,0,1,.96-.425,2.6,2.6,0,0,1,.387-.122,1.731,1.731,0,0,1,.421-.069c.222,0,.415-.012.527-.245a.338.338,0,0,1,.167-.125c.359-.161.722-.316,1.083-.473.023-.01.056-.017.063-.035.175-.421.638-.427.95-.648a4.032,4.032,0,0,1,.92-.454c.127-.048.284.011.442-.055a10.349,10.349,0,0,0,1.909-1.133c.138-.1.3-.159.446-.246.568-.337,1.112-.724,1.708-1a15.337,15.337,0,0,1,1.968-.9,2.621,2.621,0,0,0,.737-.411,13.819,13.819,0,0,1,1.821-1c.273-.141.536-.3.817-.426a16.39,16.39,0,0,1,1.7-.7c.3-.095.594-.232.893-.35a.74.74,0,0,0-.238-.616c-.044-.042-.116-.072-.134-.121a3.306,3.306,0,0,0-.951-1.141.3.3,0,0,1-.1-.146,3.341,3.341,0,0,0-.26-.762,5.592,5.592,0,0,0-.745-1.375,1.2,1.2,0,0,1-.215-.615,2.38,2.38,0,0,0-.409-1.161.835.835,0,0,1-.1-.757c.055-.247.04-.376-.17-.481a.386.386,0,0,1-.2-.28c-.028-.091-.06-.226-.126-.253-.4-.167-.378-.567-.495-.882-.108-.293-.158-.608-.256-.906a2.97,2.97,0,0,1-.166-1.051,3.826,3.826,0,0,0-.21-1.04,2.022,2.022,0,0,1-.024-.529,5.669,5.669,0,0,1,.352-1.412,1.508,1.508,0,0,1,.578-.959c.029.35.286.5.436.718a3.159,3.159,0,0,0,1.017.845.448.448,0,0,0,.236.1.847.847,0,0,1,.533.222c.367.238.725.489,1.089.731.071.047.157.072.227.12a3.094,3.094,0,0,1,.525.391.885.885,0,0,0,.424.269,1.523,1.523,0,0,1,.843.379.615.615,0,0,0,.71-.045,2.11,2.11,0,0,1,.584-.432c.16-.107.3-.251.465-.346.186-.105.3-.286.524-.366a2.871,2.871,0,0,0,.635-.444,1.017,1.017,0,0,1,.271-.189,1.007,1.007,0,0,0,.536-.454,2.231,2.231,0,0,1,.64-.439,2.692,2.692,0,0,0,.468-.282,5.414,5.414,0,0,1,1.009-.835,1.422,1.422,0,0,0,.591-.524c.144-.318.425-.418.653-.6s.468-.347.7-.527c.132-.1.247-.232.379-.337.093-.073.205-.12.3-.188.378-.266.751-.538,1.129-.8.2-.141.407-.274.614-.4.592-.375,1.2-.719,1.769-1.131a6.356,6.356,0,0,1,.82-.547c.458-.235.922-.458,1.376-.7.259-.138.5-.308.755-.456a1.481,1.481,0,0,1,.292-.123c.2-.066.413-.123.572-.17.2-.017.362-.026.521-.044a2.45,2.45,0,0,0,.724-.105,1.452,1.452,0,0,1,1,.052c.141.031.276.088.414.13.047.014.112,0,.142.032.26.247.625.232.93.371a5.015,5.015,0,0,0,.946.243c.046.011.1-.016.145,0,.323.135.643.276.964.416a7.4,7.4,0,0,1,.662.358.907.907,0,0,0,.81.109.248.248,0,0,1,.144-.023,5.538,5.538,0,0,1,1.193.353,11.631,11.631,0,0,1,1.454,1.006c.293.222.551.49.823.739.026.024.062.057.063.086a1.131,1.131,0,0,0,.387.724,1.308,1.308,0,0,1,.16.509.991.991,0,0,0,.029.179c.142.286.278.578.445.851a.312.312,0,0,0,.521.082.41.41,0,0,1,.374-.084,2.362,2.362,0,0,1,1.527.873,2.217,2.217,0,0,0,.688.527,1.708,1.708,0,0,0,.558.082c.049.262.272.262.537.276a2.821,2.821,0,0,0,1.282-.19,3.72,3.72,0,0,1,.838-.2.5.5,0,0,1,.377.049.432.432,0,0,0,.437.1,2.973,2.973,0,0,1,.358-.02.8.8,0,0,0,.624-.593c.017-.077.046-.152.08-.26l.258.15c.029-.01.047-.01.052-.018.087-.129.172-.259.27-.407l-.105-.152c.021-.017.036-.041.055-.045a2.331,2.331,0,0,1,1.038-.125c.045.012.107-.052.163-.074.143-.058.27-.162.4.069.076.139.344.042.5-.135.179-.2.371-.4.533-.568a3.263,3.263,0,0,1,.486.336,3.218,3.218,0,0,1,.333.481c.085-.026.169-.2.338-.123.013.006.081-.077.106-.128.17-.342.479-.381.691-.084.119.166.234.335.387.553.17.09.369-.058.574-.11.274-.069.307-.058.264.206a.274.274,0,0,0,.218.358c.206.066.384.179.346.473l-.282.108a.514.514,0,0,0,.542.49c.1-.015.188-.072.156-.2-.017-.069-.035-.138-.062-.243h.774v.717l.454-.289.138.4a3.369,3.369,0,0,1,.394.4c.039.054.006.188-.035.263a.234.234,0,0,0,.072.35.52.52,0,0,1,.086.069c.284.315.283.315.089.713-.116.238-.1.365.072.649l-.252.166.266.314-.275.533.343.142c.065.161.053.267-.127.434a2.089,2.089,0,0,0-.336.728c.209.112.371.208.541.288.233.111.09.325.153.5a.706.706,0,0,1-.472.142,1.292,1.292,0,0,0-.506.079.3.3,0,0,0-.146.22c-.006.045.1.135.168.153a4.6,4.6,0,0,0,.536.074,2.792,2.792,0,0,1-.543.266.408.408,0,0,0-.351.328.418.418,0,0,1-.3.342c-.077.025-.185.085-.2.147-.052.239-.266.313-.417.446a.631.631,0,0,1-.266.091c-.115.027-.231.047-.348.064-.428.061-.857.12-1.249.174-.188-.266.266-.355.055-.611-.253.246-.593.1-.885.2-.057.02-.127,0-.181.028s-.111.073-.116.116a.214.214,0,0,0,.085.145,2.343,2.343,0,0,1,.234.182c.176.05.277-.44.564-.042-.156.06-.287.114-.42.16-.057.019-.123.012-.181.031q-.5.166-1,.341c-.3.105-.6.222-.9.322a1.557,1.557,0,0,1-.532.125,2.242,2.242,0,0,0-.72.132,1.351,1.351,0,0,1-.817.123c-.047-.015-.122.06-.186.091a2.2,2.2,0,0,1-.482.18c.229-.128.118-.329.141-.465l-.576-.08c-.024,0-.046-.02-.07-.022-.247-.025-.469.136-.753.011-.213-.094-.517.041-.777.027a3.536,3.536,0,0,0-1.479.377c-.175.068-.384.047-.565.1-.563.174-1.132.34-1.678.559-.491.2-1,.329-1.5.476-.174.05-.337.138-.506.2-.027.01-.066-.011-.193-.036.218-.109.361-.194.514-.255.19-.076.389-.132.583-.2a.5.5,0,0,0,.095-.057c.127-.08.321-.006.4-.23.045-.134.217-.224.375-.374l-.347-.026.368-.335a1.441,1.441,0,0,0-.289,0c-.27.071-.537.153-.8.231a.306.306,0,0,0-.106.031,4.935,4.935,0,0,1-.967.431.646.646,0,0,1-.24.073c-.188.013-.364-.033-.544.127a.9.9,0,0,1-.548.141c-.294,0-.478.22-.722.315a5.484,5.484,0,0,0-.659.359l.023.074.641-.093.011.073-.717.166-.038.175c-.242.035-.493.064-.74.113-.062.012-.109.089-.166.134a.873.873,0,0,1-.713.253c.2-.178.54-.088.667-.406l-.381.036c.257-.271.647-.091.87-.414a4.081,4.081,0,0,0-1.3.344,5.577,5.577,0,0,1-1.26.456.631.631,0,0,0-.214.047,11.537,11.537,0,0,1-1.859.666c-.626.228-1.239.493-1.857.745-.567.231-1.138.455-1.7.705-.479.215-.949.452-1.413.7a2.908,2.908,0,0,0-.851.6,2.02,2.02,0,0,1-.634.318c-.163.079-.322.168-.486.245-.24.114-.482.222-.725.331a.1.1,0,0,1-.071,0c-.309-.144-.5.058-.718.224-.268.209-.539.415-.82.607a1.087,1.087,0,0,1-.307.1c.072.263.072.263.513.189a.511.511,0,0,0-.01.184.777.777,0,0,0,.122.179c-.2.013-.41-.063-.609.114l.47.364a1.489,1.489,0,0,1,.163-.248c.111-.107.026-.169-.037-.241a.494.494,0,0,0,.57-.123.269.269,0,0,1,.273-.1.572.572,0,0,0,.437-.151,1.734,1.734,0,0,1,.686-.409,1.558,1.558,0,0,0,.253-.161l-.232.4a1.626,1.626,0,0,0-.7.31c-.3.2-.547.445-.837.643a1.031,1.031,0,0,1-.3.09c.079.357.453.767.737.717.322-.056.38.129.459.331.283.009.283.009.711-.277l-.348-.461.056-.064c.082.059.166.115.245.177a1.274,1.274,0,0,0,1.194.321.372.372,0,0,1,.215.02,3.155,3.155,0,0,1,1.127.606c.469.432.957.842,1.437,1.262a.43.43,0,0,1,.105.1.777.777,0,0,0,.823.471c-.029.368-.016.339.32.436a2.576,2.576,0,0,1,.7.378c.293.2.558.439.849.64a6.845,6.845,0,0,1,1.245,1.241c.135.156.3.289.434.441a1.657,1.657,0,0,1,.266.351,5.544,5.544,0,0,0,.751,1.042,6.735,6.735,0,0,1,.461.705c.076.117.156.232.262.39.276-.039.416.233.536.453a2.542,2.542,0,0,0,.376.525,5.665,5.665,0,0,1,.777,1.289,10.294,10.294,0,0,1,.541,1.088,1.336,1.336,0,0,1,.043.65,2.587,2.587,0,0,0,.146.993,6.92,6.92,0,0,0,.3.979,7.655,7.655,0,0,0,.631,1.244l.057-.292c.439.224.44.24.046.577.312.042.354.255.384.5s.238.439.149.7c-.006.019.009.062.023.067.245.081.166.4.376.521h-.177c.01.049,0,.105.03.134a4.516,4.516,0,0,1,.683,1.276,1.173,1.173,0,0,0,.181.222,1.53,1.53,0,0,0,.132.936c.049.158.152.288-.16.437.313.04.367.179.327.322a1.464,1.464,0,0,0,.1.709c.044.238.127.468.168.707a1.09,1.09,0,0,1-.078.342c.034.094.3.125.214.358-.227.064-.3.185-.252.461a.805.805,0,0,1,.2-.047c.151,0,.264.131.2.234a.979.979,0,0,0-.11.525c0,.059-.092.113-.143.17l.087.288.29-.127-.046.338-.234.081a.3.3,0,0,0-.013.084c.079.4.17.793.237,1.193.032.189.013.386.035.577.006.052.079.1.121.143l-.011-.01.038.149.337-.061a.749.749,0,0,0-.322.642c.012.115.059.226.072.34.025.213.037.428.055.642.029.346.058.692.086,1.038,0,.061.028.143,0,.181-.131.172-.01.291.082.439l-.189.16c.1.067.184.134.108.279a.416.416,0,0,0,0,.422c.03.053-.007.142-.008.214,0,.167,0,.334,0,.5a1.071,1.071,0,0,1-.026.353.432.432,0,0,0-.024.344c.017.043.031.117.009.142-.231.256-.117.585-.193.872a.31.31,0,0,0-.016.19l.278-.2-.24.624.144.176-.251.573c.189.294-.085.563-.044.856.134.082.2.031.215-.116a.492.492,0,0,1,.319-.5.5.5,0,0,1-.008.431c-.062.16-.153.317-.031.488-.133.346.188.734-.111,1.073-.081.092-.032.215.113.284.07.033.155.167.137.227-.092.307.018.669-.273.919l.23.11a2.041,2.041,0,0,0-.094.994.786.786,0,0,1-.288.8.619.619,0,0,0-.224.446c-.027.171-.061.341-.1.541l.526-.319c.174.213.157.2-.01.438a1.37,1.37,0,0,1-.3.414.418.418,0,0,0-.062.409c.113.165.047.3.038.449a.28.28,0,0,1-.257.3c-.094.016-.229.017-.2.145.014.058.157.086.275.145-.023.049-.039.146-.094.179-.106.063-.141.117-.083.234a.162.162,0,0,1-.03.153c-.171.088-.165.258-.217.406-.125.349-.13.347.243.518a.688.688,0,0,0-.129.563c.144.083.241-.013.348-.06l-.009-.008c-.012.058,0,.141-.04.171a.442.442,0,0,0-.066.67h-.2l-.095.375.381-.075.025.058c-.049.029-.1.057-.146.089a.9.9,0,0,0-.372.815.73.73,0,0,1-.059.221c-.022.065-.074.127-.074.19a.326.326,0,0,1-.125.281c-.2.173-.177.244.041.419a2.1,2.1,0,0,1,.2.216l.219-.532c0,.224.077.46-.113.654a.176.176,0,0,0-.021.138,1.212,1.212,0,0,1-.306,1.032,1.331,1.331,0,0,0-.114.435l-.3-.135c-.129.218-.354.431-.362.653-.011.294-.292.546-.133.877a.651.651,0,0,0,.4-.46,1.4,1.4,0,0,1,.186-.346Zm-25.789-42.959c.055.012.149.049.16.031.1-.148.18-.306.267-.462l-.06-.044c-.056.064-.115.124-.167.191-.07.091-.133.188-.2.282l-.145.308C1501.9-1808.21,1501.958-1808.31,1501.829-1808.475Zm-9.71-6.02-.533.209.033.245.56-.362-.068-.1c.153-.072.364-.1.253-.385Zm20.067,36.345c-.118.211.107.239.175.354.146.249.361.211.538.231l-.5-.406c-.072-.059-.147-.115-.22-.172-.005-.068.015-.16-.021-.2-.149-.167-.315-.319-.475-.476l-.069.057.182.292-.124.084C1511.864-1778.316,1511.936-1778.048,1512.186-1778.15Zm-18.068-37.464c-.19.083-.089.24-.063.362-.171.041-.221.3-.428.171,0,0-.036.052-.054.081-.037.058-.061.144-.114.168a3.052,3.052,0,0,1-1.027.461.34.34,0,0,0-.166.068,1.964,1.964,0,0,1-.762.406.231.231,0,0,0-.112.079,2.219,2.219,0,0,1-.741.581c-.242.114-.46.279-.691.416-.348.206-.7.406-1.046.611-.123.073-.241.154-.365.225s-.233.122-.348.184c-.063.034-.128.113-.184.105a.64.64,0,0,0-.536.251c-.178.168-.46.264-.433.589,0,.031-.066.1-.1.1-.245-.023-.319.222-.5.305a.349.349,0,0,1,.073.072c.131.238.181.251.4.116a3.816,3.816,0,0,1,.415-.228c.177-.081.374-.125.54-.222.209-.121.506-.157.538-.481a.279.279,0,0,0,.284-.313.3.3,0,0,1,.155-.266c.147-.106.3-.2.457-.3.454-.293.922-.566,1.357-.886a6.775,6.775,0,0,1,1.111-.675c.018-.009.028-.035.051-.065l-.088-.1.9-.485.274.248c.1-.073.222-.125.276-.218a2.27,2.27,0,0,1,1.575-.967,2.432,2.432,0,0,0,1.274-.776,2.368,2.368,0,0,1,.524-.491c.139-.085.339-.139.389-.412a2.5,2.5,0,0,0-.554.143,1.655,1.655,0,0,0-.342.343.358.358,0,0,1,.131-.444c.258-.209.594-.292.808-.589a2.837,2.837,0,0,1,.672-.5l-.135-.173c-.14.08-.266.149-.389.223-.325.2-.654.384-.968.6a1.589,1.589,0,0,0-.27.349c-.094.012-.29-.017-.326.254-.017.121-.157.193-.319.177s-.127.128-.128.171a2.142,2.142,0,0,0-.431.2c-.209.165-.394.361-.59.543Zm3.838-5.472.029-.122-.191.04.011.074h.16c-.064.052-.132.151-.192.147a.83.83,0,0,0-.634.232l-.091-.373c-.216.228-.378.416-.56.583-.095.087-.177.209-.326.22-.063,0-.173-.01-.18.011a.664.664,0,0,0-.009.213l-1.307,1a2.455,2.455,0,0,0,1.488-.572l-.008-.006-.086.285.74-.256a3.892,3.892,0,0,1-.393.639,2.366,2.366,0,0,1-.558.4c-.195.114-.405.2-.609.3.171.315.349-.083.529.041.034.27-.425.155-.349.489a6.083,6.083,0,0,0,.822-.238,7.408,7.408,0,0,0,.9-.5,6.409,6.409,0,0,1,1.867-.75,7.273,7.273,0,0,0,.938-.307c.327-.129.595-.375.936-.488a2.293,2.293,0,0,0,.453-.293l-.66-.317a.982.982,0,0,0-1.007.14,4.064,4.064,0,0,1-.754.482,8.558,8.558,0,0,1-.99.415,2.049,2.049,0,0,0-.735.31,1.667,1.667,0,0,1-.608.24c.589-.446.445-.386.344-.677.355.065.909.062,1.1-.3a3.693,3.693,0,0,1,.694-.23c.463-.051.746-.427,1.207-.548l-.539-.711c-.266-.07-.428.13-.627.236-.129.069-.283.206-.387.176C1498.215-1821.164,1498.095-1821.081,1497.956-1821.086Zm5.72,10.521a5.373,5.373,0,0,1,.455-.414c.218-.159.362-.422.677-.5,0,.073.02.143,0,.163-.174.148-.179.436-.437.517-.062.02-.109.091-.158.143q-.591.623-1.18,1.248a1.181,1.181,0,0,0-.349.592l.5-.418.059.07a1.514,1.514,0,0,1-.8.706,2.621,2.621,0,0,1-.2.466,4.076,4.076,0,0,1-.408.466.78.78,0,0,0-.187.269c-.066.168-.087.5-.442.4l.018.379c.351,0,.458-.33.73-.431l-.2.289.109.137a.869.869,0,0,1-.735.495l-.269.43.424-.06-.251.8.55-.193.055.066-.206.382-.1-.225a2.14,2.14,0,0,0-.427.687c-.022.082-.123.146-.2.208-.093.077-.207.132-.292.216a.778.778,0,0,0-.326.613l.183.069-.009-.012-.138.359a.317.317,0,0,0-.444.131,1.588,1.588,0,0,1-.409.711c-.006,0,0,.023-.005.045l.1.15a2.341,2.341,0,0,1-.139.25c-.062.084-.138.159-.2.23l.083.154c-.089.03-.213.056-.212.075a1.866,1.866,0,0,0,.073.325c-.213-.057-.342.038-.376.277l.364.214c-.068.111-.138.219-.2.331s-.13.246-.212.4h.34l.128.571c-.419-.193-.4-.185-.6.168a4.185,4.185,0,0,1-.418.543c0-.009,0,.022.019.031.077.037.157.065.235.1a.6.6,0,0,1,.182.1.317.317,0,0,0,.453.062,1.476,1.476,0,0,1,.206-.077l.109.451c.279-.009.372-.211.417-.439.231.022.5-.188.6.213l1.739-.887c.121.076.214.184.3.176a3.594,3.594,0,0,0,.668-.148,4.7,4.7,0,0,0,.462-.186l.319.418c-.03-.265.083-.3.212-.336a.5.5,0,0,0,.335-.3,1.7,1.7,0,0,1,.39-.466c.25-.239.516-.462.808-.721l.131.008c-.1-.327-.1-.332.187-.4l.636-.141c.005.247.19.3.4.3a3.331,3.331,0,0,0,.51-.035,1.116,1.116,0,0,0,.351-.1c.147-.076.277-.186.419-.274s.236-.175.159-.354l-.311.058-.148.317-.226-.138.314-.281c-.21-.128-.43-.037-.457.063-.1.37-.371.237-.591.27a1.522,1.522,0,0,1,.323-.24c.2-.113.408-.207.6-.327.109-.068.266-.146.1-.316a.963.963,0,0,1,.126-.036,5.521,5.521,0,0,1,1.527-.076,1.723,1.723,0,0,0,.218-.009,1.907,1.907,0,0,1,.311.016,2.8,2.8,0,0,0,.426.1.886.886,0,0,1,.543.179.652.652,0,0,0,.649.067l-.439-.133a.489.489,0,0,1,.5-.08.941.941,0,0,0,.4.04.5.5,0,0,1,.553.258,3,3,0,0,0,.23.287c.207.222.271.556.562.71a.676.676,0,0,0,.429.573.149.149,0,0,1,.067.086c.094.3.464.488.337.875a.223.223,0,0,0,.065.168,3.47,3.47,0,0,1,.472,1l.194-.011c.014.129-.05.3.135.363-.124.124-.081.246-.011.382a1.912,1.912,0,0,1,.153.4,3.885,3.885,0,0,1,.065.424c.375.037.258.421.464.608.021-.063.065-.124.05-.163-.21-.546-.077-1.2-.59-1.686.1-.015.169-.05.2-.028a1.568,1.568,0,0,1,.374.287c.252.3.46.642.726.929a1.69,1.69,0,0,1,.342,1.055c.012.105-.088.313-.16.324-.255.039-.318.228-.431.409l.169.107c.21-.107.219-.429.466-.4l.26.455-.105.485c-.076.067-.279.053-.26.272l.366.1-.3.175c-.121.071-.3.113-.352.219a8.04,8.04,0,0,0-.339.851c-.021.054-.035.131-.076.155a1.443,1.443,0,0,0-.531.748c-.285.623-.522,1.268-.781,1.9-.007.018-.032.028-.053.045l-.091-.292a4.224,4.224,0,0,0-.542.81,1.937,1.937,0,0,1-1.093,1.1l-.454-.23c-.12.154-.238.3-.353.453a5.192,5.192,0,0,1-.468.611,10.448,10.448,0,0,0-.823,1.073,8.389,8.389,0,0,1-.887,1.29c-.309.271-.284.573-.078.936a3.8,3.8,0,0,1,.2.5c-.185-.148-.3-.343-.566-.348a.163.163,0,0,1-.13-.25c.018-.043-.017-.109-.028-.165a1.29,1.29,0,0,0-.668.145c-.346.228-.707.437-1.033.691a4.3,4.3,0,0,0-.61.634c-.161.191-.406.336-.4.546l.7,1.065-.161.266c0,.17.315.087.183.3l-.331-.079c.039-.5-.057-.759-.677-.837l-.245.448c.323.127.319.127.332.429a.386.386,0,0,0,.06.234,1.013,1.013,0,0,1,.211.611,2.1,2.1,0,0,0,.056.211l.181-.106.291.431c.274-.37.091-.813.315-1.143.3.189.314.2.2.455a.5.5,0,0,0,.1.54.572.572,0,0,1-.016.828c-.057.061-.107.128-.157.188l.178.45.22-.272c.018.187.028.3.038.4.223-.074.223-.074.539.193l.336-.585c-.009.108-.009.149-.016.189-.021.135-.006.27.156.276.123,0,.326-.019.359-.091.128-.282.369-.57.138-.888l-.385.094c0-.113,0-.172,0-.231s.015-.139.025-.227a.949.949,0,0,1,.192.025,1.143,1.143,0,0,1,.178.1,1.45,1.45,0,0,1,.1-.407,1.7,1.7,0,0,1,.32-.344.439.439,0,0,1,.705.054l-.324.16.43.688-.168.4.578-.029c-.13-.259-.237-.451-.323-.651a.474.474,0,0,1-.056-.3.84.84,0,0,0-.087-.67c-.105-.229-.3-.431-.191-.718.01-.027-.022-.069-.029-.1-.026-.12-.17-.2-.079-.369.047-.091-.055-.257-.083-.39a2.187,2.187,0,0,0-.085-.433c-.076-.174-.036-.289.135-.438a9.286,9.286,0,0,0,.5,1.911l.325-.152c.087.121.176.237.257.358a2.369,2.369,0,0,1,.287.465c.064.173.312.263.225.5l.408.385c-.177.1-.134.232-.043.365a1.121,1.121,0,0,1,.13.178c.108.264.266.424.58.339.024-.006.07.073.128.136-.17-.03-.285-.043-.246.155a2.972,2.972,0,0,1,.027.321c.217.143.476.263.481.59,0,.029.045.056.068.084.188.241.375.484.565.724.161.2.141.353-.073.536a1.45,1.45,0,0,0-.126.144c-.078-.24-.366-.323-.378-.6.184.012.291.221.469.143-.127-.207-.233-.4-.363-.582a1.19,1.19,0,0,0-.248-.187c-.1-.082-.275-.154-.3-.255-.048-.233-.243-.36-.322-.556a.729.729,0,0,0-.466-.38,3.173,3.173,0,0,0,.536,1.23.78.78,0,0,0,.246.128c.02.356.025.364.319.416-.168.209,0,.354.11.482.307.365.638.709.906,1l.575.032c.142-.316.141-.323-.088-.557a.411.411,0,0,1-.149-.443c.186.222.334.468.5.7.075.1.192.225.3.234a2.587,2.587,0,0,0,.761-.044,1.547,1.547,0,0,0,.51-.253c.253-.171.632.008.827-.308,0-.007.046.008.069.015a.428.428,0,0,0,.538-.277,3.677,3.677,0,0,0,.315-.86c.127-.582.21-1.175.32-1.761a2.029,2.029,0,0,1,.148-.357l.168.292c.093-.475.508-.243.685-.371.052-.16.09-.267.121-.376a2.3,2.3,0,0,0,.126-.493c.014-.273-.018-.549-.023-.823a2.084,2.084,0,0,1,.018-.4,1.93,1.93,0,0,0,.043-.853.36.36,0,0,1,.01-.219,2.22,2.22,0,0,0,.083-.831,4.734,4.734,0,0,1,.013-.627.435.435,0,0,0-.117-.437c.3-.291.315-.562,0-.814l.206-.178v-.682c-.351.027-.125.413-.326.525.082.235-.271.5.086.723-.351.181-.124.6-.372.853l-.115-.4-.065,0-.135.926-.083-.007c0-.118,0-.236,0-.353.027-.6.058-1.191.087-1.786a6.933,6.933,0,0,1,.047-.721,2.9,2.9,0,0,0-.029-1.126,3.741,3.741,0,0,1-.151-.811c-.016-.55,0-1.1-.015-1.65-.017-.6-.063-1.2-.081-1.8a4.69,4.69,0,0,0-.1-1.089,10.71,10.71,0,0,1-.177-1.523c-.017-.156-.05-.31-.082-.463-.127-.614-.26-1.226-.382-1.841-.114-.574-.2-1.155-.329-1.725-.148-.642-.334-1.276-.5-1.914a2.171,2.171,0,0,0-.312-.818,1.414,1.414,0,0,1-.143-.522c-.01-.043.014-.1-.007-.135-.157-.24-.321-.474-.477-.7l.156-.3c-.065-.07-.135-.115-.161-.178-.153-.381-.3-.763-.438-1.15a2.8,2.8,0,0,0-.354-.908c-.051-.063-.04-.176-.057-.262l-.267-.031.122-.314c-.09-.059-.2-.091-.22-.153a2.28,2.28,0,0,1-.131-.552c-.047-.5-.422-.837-.609-1.266-.037-.086-.168-.121-.108-.266.02-.049-.033-.14-.074-.2a1.14,1.14,0,0,1-.142-.4,1.281,1.281,0,0,0-.337-.669,3.236,3.236,0,0,1-.786-1.043.7.7,0,0,0-.347-.394c-.176-.047-.221-.168-.316-.267a1.23,1.23,0,0,0-.266-.247c-.189-.1-.315-.281-.49-.386a5.855,5.855,0,0,0-1.01-.507c-.143-.052-.324-.055-.489-.095a3.558,3.558,0,0,0-1.445-.134c-.3.05-.631.135-.857-.2l.282-.2-.018-.055h-.632c-.041.479-.041.479-.345.456l.28-.332-.406-.321a1.808,1.808,0,0,0-.547.079,2,2,0,0,0-.423.388c-.142-.174-.059-.3.091-.374a.36.36,0,0,0,.236-.292c-.26.2-.692.161-.766.612a.931.931,0,0,1-.56-.6c-.338.036-.673.264-1,0a3.915,3.915,0,0,1-.257.421c-.129.161-.28.3-.421.454-.085.09-.181.176-.112.318-.228-.044-.275.1-.306.255l.063.058Zm.812-19.141c.049.235.028.483.141.594a2.2,2.2,0,0,1,.381.8c.078.172.128.344.337.4.121.034.2.251.371.081.018-.017.12.026.161.064.094.087.182.07.3.05.4-.067.842.077,1.185-.255.013-.013.048-.01.071-.005a1.6,1.6,0,0,0,.734-.045,2.016,2.016,0,0,0,1.022-.457.832.832,0,0,1,.3-.187.535.535,0,0,0,.363-.271.523.523,0,0,1,.322-.263.613.613,0,0,0,.418-.267.675.675,0,0,1,.591-.282.664.664,0,0,0,.342-.1c.2-.154.42-.275.625-.411a3.116,3.116,0,0,0,.538-.314,6.906,6.906,0,0,0,.648-.694.471.471,0,0,1,.463-.23c.226.029.353-.137.524-.219.149-.071.152-.205.187-.333.008-.03.051-.05.088-.083l.251.081.473-.343c-.033-.1-.1-.2-.076-.241a1.833,1.833,0,0,1,.908-.951c.169-.061.384-.127.4-.376,0-.018.033-.034.05-.05l.293-.057.229-.368-.109-.249c.207-.2.5-.317.418-.611a2.43,2.43,0,0,0,.353-.187c.227-.177.4-.431.7-.511.044-.012.083-.118.089-.183.018-.219.025-.439.026-.659a.386.386,0,0,1,.231-.38c.393-.209.425-.479.122-.814l.04-.282a2.447,2.447,0,0,1-.337-.24c-.113-.114-.218-.195-.382-.11a.345.345,0,0,0-.036-.058,1.747,1.747,0,0,0-.79-.5.716.716,0,0,1-.2-.076,2.216,2.216,0,0,0-1.188-.413.275.275,0,0,1-.142-.026,5.422,5.422,0,0,0-1.534-.36.632.632,0,0,0-.217.012l-.435.043a2.189,2.189,0,0,0-.364.041c-.209.058-.382.278-.636.131-.012-.007-.042.019-.065.03-.441.207-.888.4-1.321.622a8.659,8.659,0,0,0-1.55.907c-.524.422-1.071.813-1.557,1.283a5.449,5.449,0,0,0-1.164,1.16.136.136,0,0,1-.046.056c-.371.183-.531.574-.826.836-.226.2-.414.447-.622.669a.6.6,0,0,0-.214.452.385.385,0,0,1-.066.237c-.141.181-.3.349-.451.521a.965.965,0,0,0-.3.624c0,.209-.079.35-.359.366a5.2,5.2,0,0,0,.444.869c.135.176.151.292.032.449-.182.24-.368.477-.555.719A.383.383,0,0,0,1504.487-1829.707Zm-6.745,38.019.018.093c.158-.113.328-.3.421-.027a4.464,4.464,0,0,0-.324.511c-.093.2.115.34.171.526l-.328.278c.343.277-.155.38-.124.591.42.125.431.145.283.486l-.291-.189c-.08.128-.1.2.023.272a1.594,1.594,0,0,1,.272.225c.018.017,0,.069,0,.094l-.217-.1c.192.128.016.251,0,.36s-.082.179-.1.274c-.007.032.059.08.092.121.044-.043.1-.094.1.018a.151.151,0,0,1-.065.111.74.74,0,0,1-.169.058c.125.281.36-.012.483.124.005.32-.512.5-.208.849l-.146.451.367-.1c-.126.187-.052.375-.075.549a.375.375,0,0,0,.071.3c.035.048.006.142.006.208l-.416-.031c.013.141.021.234.032.351.216-.142.326.052.48.093a.789.789,0,0,1,.007.164,4.834,4.834,0,0,0,.026,1.67,3.487,3.487,0,0,1,.028.4c.018.435.033.87.05,1.312l-.122.052a.76.76,0,0,1,.16.531c.016.218.038.236.293.239.072-.155.142-.31.219-.462.01-.019.06-.016.1-.026l-.085.2.324-.048-.289.433.382.117c.03-.19.007-.373.086-.484a2.006,2.006,0,0,0,.212-.9l-.352-.025a3.545,3.545,0,0,1,.174-.374.246.246,0,0,1,.167-.116c.172,0,.228-.123.3-.235.009-.013-.007-.042-.015-.086l-.259.052c.061-.135.146-.292.249-.3.379-.044.411-.406.611-.609.035-.035.03-.11.044-.17l-.211-.031a1.594,1.594,0,0,0,.362-.3c.228-.358.43-.732.637-1.1.174-.311.241-.681.561-.909.088-.062.117-.211.167-.322.238-.521.456-1.052.716-1.562.171-.336.4-.643.629-1-.056-.034-.1-.083-.14-.081a.83.83,0,0,1-.7-.374.249.249,0,0,0-.13-.066c-.235-.057-.473-.1-.708-.165a.678.678,0,0,1-.218-.118.917.917,0,0,1-.24-.215c-.158-.247-.5-.3-.6-.618a.386.386,0,0,0-.554-.265.277.277,0,0,1-.366-.153c-.051-.1-.214-.141-.29-.237a1.822,1.822,0,0,1-.178-.374c.137-.144.209-.313.036-.5l.235-.033.119-.04c-.427-.125.052-.386-.206-.537l.171-.139a1.662,1.662,0,0,0-.8-.765c-.086-.031-.2.024-.293,0a2.955,2.955,0,0,1-.364-.153c-.016-.007-.044.015-.093.034l-.062.294.417.031c-.19.142-.378.251-.434.507l.395.193a2.145,2.145,0,0,1-.07.681C1498.115-1791.976,1497.9-1791.844,1497.742-1791.687Zm.788,15.8a.236.236,0,0,1,.118.341c-.126.169-.005.29.011.427.025.205.151.435.093.6-.08.233-.122.392.094.554.034.025.031.11.034.167a1.332,1.332,0,0,0-.005.216c.08.368.168.735.256,1.1a2.042,2.042,0,0,0,.554,1,.527.527,0,0,0,.817-.094c.1-.155.193-.31.282-.469.07-.126.215-.312.175-.38-.126-.212-.086-.549-.383-.631-.163-.045-.167-.153-.206-.264a.94.94,0,0,0-.282-.5,1.945,1.945,0,0,1-.548-.832l-.35-.025a3.619,3.619,0,0,0,0-.439c-.016-.13-.1-.261-.089-.384a1.156,1.156,0,0,1,.189-.357c-.227-.044-.374-.125-.354-.411.009-.133-.17-.278-.264-.418l-.073.024C1498.575-1776.421,1498.555-1776.181,1498.53-1775.892Zm7-6.2.1.49c.15,0,.331,0,.512,0a.666.666,0,0,0,.6-.408c.268-.467.506-.952.793-1.5l-.62.288c.068-.136.08-.206.121-.237a2.621,2.621,0,0,0,.8-1.025c.175-.385.416-.741.667-1.179-.132.054-.236.064-.283.121-.193.234-.47.382-.624.656a5.572,5.572,0,0,1-.4.6,2.162,2.162,0,0,0-.308.4,2.667,2.667,0,0,1-.486.683,3.69,3.69,0,0,0-.645.825A1.876,1.876,0,0,1,1505.534-1782.1Zm-4.32-2.313c.152.129.081.257-.045.319-.431.211-.57.626-.778,1.006l.156.082a1.315,1.315,0,0,0-.349.879l-.3.089c-.054.286-.054.286.169.467a9.022,9.022,0,0,0,.517-.752c.321-.578.622-1.168.919-1.759a2.106,2.106,0,0,0,.108-.437Zm-9.153-17.871.087.03c.03-.019.079-.032.086-.056a12.014,12.014,0,0,1,.965-2.37,2.665,2.665,0,0,0,.094-.351,1.552,1.552,0,0,1,.128-.291,1.968,1.968,0,0,0,.361-1.048c.264-.082.339-.188.367-.545a6.886,6.886,0,0,0-.561.464.788.788,0,0,0-.145.331c-.093.313-.17.631-.264.943a.645.645,0,0,1-.282.414c-.054.032-.063.143-.089.218-.017.052-.011.122-.045.155a1.385,1.385,0,0,0-.292.666,4.488,4.488,0,0,1-.3,1.006A1.753,1.753,0,0,0,1492.062-1802.28Zm16.935,1.087a.833.833,0,0,0,.62.324.753.753,0,0,1,.534.185c.028.027.095.013.177.022l-.291-.237c.147-.044.324-.058.334-.106.048-.244.245-.277.447-.327a4.533,4.533,0,0,0-1.527-.343Zm-16.487-4.168c.387-.246.406-.265.539-.58.029-.067.042-.141.073-.207.225-.474.268-1.049.759-1.378a.329.329,0,0,0-.025-.072c-.125.025-.3.007-.37.083a1.35,1.35,0,0,0-.427.824.63.63,0,0,1-.13.387A3.725,3.725,0,0,0,1492.509-1805.361Zm4.145-16.307.022.051c.047,0,.1.016.141,0a1.21,1.21,0,0,1,.691-.195c.042.005.091-.031.135-.053.227-.115.46-.222.678-.352.071-.042.157-.154.146-.218-.024-.14-.156-.122-.268-.094a.408.408,0,0,0-.1.037Q1497.374-1822.081,1496.654-1821.667Zm5.712,11.684.095.078,1.93-2.167-.072-.064A10.711,10.711,0,0,0,1502.366-1809.983Zm30.548-16.825-.04-.1a5.973,5.973,0,0,0-.669.124,2.1,2.1,0,0,0-.634.275c-.173.126-.479.058-.552.365.351.054.673.1.889-.258.029-.048.122-.058.186-.083Zm-39.58,14.179a2.253,2.253,0,0,0,1.42-.881c-.305-.052-.3-.051-.5.1-.044.034-.1.082-.147.079-.235-.016-.264.2-.39.3s-.327.139-.382.34A.256.256,0,0,0,1493.334-1812.63Zm11.46,30.92a1.319,1.319,0,0,0,.9-1.275c-.4.15-.462.6-.807.81C1505.092-1782.019,1504.941-1781.9,1504.794-1781.71Zm-6.225,1.77c-.094.085-.18.127-.206.193a.667.667,0,0,0-.052.334c.05.307.121.611.2.913.014.056.082.1.182.21a3.475,3.475,0,0,0-.059-.8C1498.626-1779.351,1498.594-1779.613,1498.569-1779.94Zm28.914,13.272a1.559,1.559,0,0,0,.545-.856.693.693,0,0,0-.05-.22c-.108.176-.148.376-.387.347Zm-23.667-45.568c-.3-.123-.486.036-.753.111l.228.1c-.031.285-.4.325-.455.667A6.521,6.521,0,0,0,1503.816-1812.236Zm-12.464,12.814a1.177,1.177,0,0,0,.239-1.021A1.114,1.114,0,0,0,1491.351-1799.421Zm-5.929-10.218c.253.142.241-.213.419-.225a.408.408,0,0,0,.388-.271C1485.547-1810.145,1485.469-1810.1,1485.423-1809.639Zm4.069-3.74c.677-.271.677-.271.862-.709-.3.208-.567.387-.827.571C1489.506-1813.5,1489.51-1813.455,1489.491-1813.38Zm7.776-4.877c.534.146.755.021.744-.393Zm-1.069,10.213c-.493.055-.437.458-.6.7C1495.968-1807.415,1496-1807.752,1496.2-1808.044Zm13.223,23.139c.169-.157.308-.273.428-.405.036-.04.021-.125.029-.19-.055,0-.137-.031-.161-.005a4.283,4.283,0,0,0-.36.441C1509.34-1785.041,1509.395-1784.967,1509.421-1784.9Zm-8.095-26.544c-.283-.023-.262.245-.39.285a.36.36,0,0,0-.268.347A1.2,1.2,0,0,0,1501.326-1811.449Zm-2.694-10.341a1.345,1.345,0,0,0-.781.374A1.157,1.157,0,0,0,1498.632-1821.79Zm.661,42.1v-.625C1499.028-1780.184,1499.025-1779.987,1499.293-1779.693Zm20.52-3.64.076.005a1.237,1.237,0,0,0,0-.762Q1519.852-1783.712,1519.813-1783.334Zm-27.54-21.035-.094-.027-.2.735C1492.225-1803.854,1492.172-1804.135,1492.274-1804.369Zm-1.113,4.928c-.237.128-.129.262-.15.367-.036.18-.03.181.082.25Zm15.3-.476c-.158,0-.316-.053-.407.133C1506.281-1799.6,1506.29-1799.6,1506.456-1799.917Zm-15.019-17.308c-.3-.008-.335.008-.643.324Zm3.783,3.383-.06-.1-.464.261.035.065Zm9.849,1.829c-.281-.014-.281-.014-.3.271Zm15.393,26.866.091-.035-.136-.379C1520.435-1785.42,1520.3-1785.248,1520.462-1785.146Zm-21.984-14.192c-.268-.046-.268-.046-.26.195Zm7.781,15.645c-.223.02-.28.093-.235.256Zm.257-.5.04.047.188-.161-.042-.049Zm-13.841-21.126-.126.226C1492.758-1805.106,1492.732-1805.2,1492.675-1805.32Zm7.271,12.054c-.077.108-.084.188.047.253C1500.066-1793.12,1500.114-1793.208,1499.947-1793.266Zm.809,11.754c-.042-.033-.073-.073-.09-.067a.109.109,0,0,0-.066.072c0,.024.028.055.044.083Z" transform="translate(-1455.992 1843.988)" fill="#dad2c6"/><path d="M1450.99-1606.941c-.2.013-.421-.023-.589.145a.126.126,0,0,1-.1.031,3.836,3.836,0,0,0-1.542.189c-.426.053-.809.258-1.228.322a5.775,5.775,0,0,1-.661.029c-.037,0-.085-.019-.108,0a1.822,1.822,0,0,1-1.007.193c-.131.014-.262.031-.393.042a5.608,5.608,0,0,1-1.317.005,1.538,1.538,0,0,0-.286.038c-.193.008-.387.006-.58.009a2.188,2.188,0,0,0-.506.018c-.409.106-.827-.071-1.251.112a1.92,1.92,0,0,1-.98.051,5.429,5.429,0,0,0-.981.081c-.072,0-.144.03-.216.039-.256.03-.526.026-.613.343-.171-.021-.314-.16-.438.012-.019.027-.093.019-.141.018a3.466,3.466,0,0,0-.819.126,2.458,2.458,0,0,1-.774.111,2.811,2.811,0,0,0-.742.141c-.118.023-.238.035-.455.066l.361-.477a1.806,1.806,0,0,0-1.416.028c-.116-.22-.282-.261-.536-.187a11.562,11.562,0,0,1-1.218.246.4.4,0,0,1-.33-.1,1.78,1.78,0,0,0-.514-.188l-.237.336-.643.12c-.182-.229-.446-.034-.655-.128s-.4-.17-.589-.252a2.864,2.864,0,0,1-.284.207c-.061.035-.187.073-.2.05-.207-.281-.468,0-.7-.073a1.29,1.29,0,0,0-.495.032c-.107.012-.213.035-.32.054l-.314.053-.109-.205c-.035.005-.069,0-.079.013-.144.191-.359.129-.528.109a2.223,2.223,0,0,0-.971.012.926.926,0,0,1-.438-.025c-.289-.06-.575.062-.879-.052-.2-.077-.474.029-.715.043a2.2,2.2,0,0,1-.515-.006c-.1-.018-.188-.118-.278-.18a2.745,2.745,0,0,1-.5.132,9.108,9.108,0,0,1-1.069.03,6.856,6.856,0,0,1-.8-.1,4.94,4.94,0,0,1-.9-.155,12.6,12.6,0,0,0-2.15-.425c-.446-.075-.895-.147-1.345-.184-.291-.024-.578-.05-.867-.093a1.91,1.91,0,0,0-.6.113c0-.286-.217-.308-.431-.326a2.57,2.57,0,0,1-.294-.022c-.2-.04-.365-.024-.412.235a.571.571,0,0,0-.758-.238.217.217,0,0,1-.292-.044.475.475,0,0,0-.619-.059.406.406,0,0,0-.663-.106c-.1-.187-.206-.329-.431-.209-.039.021-.128-.038-.188-.069s-.116-.113-.169-.109a5.877,5.877,0,0,1-1.348-.309c-.679-.108-1.35-.264-2.027-.384a11.507,11.507,0,0,0-2.311-.187,5.406,5.406,0,0,1-1.83-.173c-.593-.193-1.179-.41-1.766-.621a.493.493,0,0,1-.3-.431c-.07-.363-.084-.366-.463-.346a.589.589,0,0,1-.286-.028.27.27,0,0,1-.013-.454c.154-.12.136-.226.019-.333-.278-.253-.566-.5-.851-.741-.028-.024-.08-.038-.086-.065-.085-.372-.45-.432-.7-.608a1.344,1.344,0,0,1-.638-.721.509.509,0,0,0-.208-.242.564.564,0,0,1-.285-.452,1.749,1.749,0,0,0-.356-.916c-.029-.047-.053-.135-.03-.171.184-.286.029-.576.024-.864a2.24,2.24,0,0,0-.062-.346l-.212-.122c-.018-.032-.031-.046-.028-.052.162-.313-.116-.559-.132-.848a8.668,8.668,0,0,0-.15-.922c.123.028.21.023.255.064.075.069.107.245.236.157a.392.392,0,0,0,.085-.322c-.052-.338-.163-.669-.194-1.007a4.37,4.37,0,0,1-.066-.849,2.3,2.3,0,0,0-.153-1.2.551.551,0,0,1,.11-.654l.132.192.2-.176c.246.034.151.565-.156.974a.465.465,0,0,0,.08.109.775.775,0,0,0,.174.064l.31-1.063.52-.057-.055-.182c.142-.118.256-.258.527-.2.185.037.375-.139.486-.342.2-.366.422-.722.628-1.085a2.737,2.737,0,0,0,.23-.556,7.956,7.956,0,0,1,.563-1.253c.093-.182.287-.321.148-.55a1.171,1.171,0,0,0,.494-.7,5.369,5.369,0,0,1,.389-.868c.005-.011.021-.018.022-.029a6.608,6.608,0,0,0,.273-1.421.486.486,0,0,0-.041-.111c.344-.186.309-.554.41-.853.205-.6.381-1.217.577-1.824a.881.881,0,0,1,.149-.2c.084-.117.167-.236.263-.372-.127-.095-.311-.159-.133-.333.134-.059.335.091.428-.1a3.478,3.478,0,0,0,.148-.474.693.693,0,0,1-.072.772c-.087.137-.236.226-.173.45.032.113-.184.24-.139.427a.215.215,0,0,1-.092.179c-.161.089-.189.238-.239.393-.245.765-.37,1.557-.562,2.334-.039.159-.151.3-.2.457a2.463,2.463,0,0,0-.05.381.48.48,0,0,1-.055.187,6.2,6.2,0,0,0-.4.606c-.1.2-.315.345-.253.628a.488.488,0,0,1-.148.365,1.186,1.186,0,0,0-.338.962c.011.172-.037.26-.2.283s-.214.117-.246.271a1.271,1.271,0,0,1-.42.9.223.223,0,0,0-.08.121,1.927,1.927,0,0,1-.368.847,2.947,2.947,0,0,0-.274.488l.592.072a4.222,4.222,0,0,0,.8-1.609,2.282,2.282,0,0,0,.329-.408,10.4,10.4,0,0,0,.436-1.042,2.649,2.649,0,0,0,.085-.5l.456.033.025.226a2.12,2.12,0,0,0,.437-1.245c-.248.193-.477.408-.748.076l.143-.405.054.006v.4c.092-.089.161-.126.183-.182a8.757,8.757,0,0,0,.512-1.412c.074-.369.352-.681.282-1.081a5.233,5.233,0,0,0,.4-1.353c.064-.26.2-.5.28-.76.164-.513.309-1.032.472-1.545a.741.741,0,0,1,.352-.492,3.4,3.4,0,0,1-.042.476c-.1.4-.215.793-.309,1.193a1.257,1.257,0,0,0,.012.341l.083.007a2.466,2.466,0,0,0,.1-.255c.132-.488.287-.972.381-1.467.079-.417.222-.811.333-1.217.08-.293.1-.6.156-.9.021-.119.055-.235.077-.353s.04-.26.064-.42l-.5.059c.26-1.428.514-2.823.771-4.233a.419.419,0,0,0-.4.415c-.069.395-.2.779-.3,1.169-.089.343-.172.687-.262,1.03-.008.032-.042.057-.089.118l.238-1.521-.252-.021a2.071,2.071,0,0,1,.135-.224c.028-.036.088-.045.119-.08.174-.193.155-.339-.127-.618l.289-.172a.6.6,0,0,1-.143-.465c.108-.955.3-1.893.5-2.831.137-.663.252-1.331.39-1.995.066-.317.182-.624.232-.942a2.15,2.15,0,0,0-.061-.556c-.143,0-.256-.019-.324.186a3.118,3.118,0,0,1-.343.6.3.3,0,0,1-.106.1c-.312.178-.312.177-.405.536a1.048,1.048,0,0,1-.16-.178.22.22,0,0,1,.007-.144,5.971,5.971,0,0,1,.318-1.266,2.631,2.631,0,0,0,.183-.859c.047-.356.065-.716.1-1.075-.267-.055-.351.064-.4.263a3.465,3.465,0,0,1,.068-.955c.076-.415.153-.829.219-1.246a.553.553,0,0,0-.058-.223c-.01-.033-.051-.077-.042-.09.227-.328-.071-.512-.2-.742-.036-.063-.081-.121-.134-.2l.219-.127c-.106-.447-.5-.628-.8-.887.05-.214.215-.289.407-.353-.238-.171-.13-.415-.2-.663l.627.174-.044-.457.382.027-.028-.239.432.161c-.185-.248.124-.513-.15-.709.182-.165-.03-.267-.071-.39a1.293,1.293,0,0,0-.187-.283c.07-.053.2-.1.238-.195s-.024-.208-.062-.307a3.46,3.46,0,0,0-.171-.334c.2-.005.418.185.616-.057.164.36.49.252.782.336l-.061-.453.566.239.281-.314-.273-.409.539-.03-.611-1.04a1.117,1.117,0,0,1,.276.049c.265.152.521.323.789.469a1.054,1.054,0,0,0,.666.179l-.441-.687c.248.147.548.2.718.464.03.047.1.07.153.1.443.261.887.521,1.329.784a.24.24,0,0,1,.1.106,2.134,2.134,0,0,0,.654.734c.248.23.436.524.661.779.2.228.417.441.627.661a1.732,1.732,0,0,1,.193.206c.142.209.23.456.508.551.056.019.1.2.081.286a.558.558,0,0,0,.125.514,4.725,4.725,0,0,1,.557,1.142c.21.5.045.988.131,1.472.011.061-.08.137-.117.21-.058.116-.157.236-.154.352a1.2,1.2,0,0,1-.186.589c-.111.215-.208.437-.351.742a2.8,2.8,0,0,1-.668.3,3.764,3.764,0,0,1-.857-.026l-.026.407a.889.889,0,0,1-.2.036.493.493,0,0,0-.421.186c-.07.083-.175.137-.242.222a1.232,1.232,0,0,0-.168.306,4.125,4.125,0,0,0-.16.486c-.08.307-.151.616-.221.926q-.093.411-.175.825c-.055.277-.1.555-.161.831-.01.048-.068.086-.171.1l.16-1.327-.27.06v-.223a.332.332,0,0,0-.365.279,3.321,3.321,0,0,0-.11.46c-.008.145-.141.274-.1.362.159.308-.062.573-.051.863.2.1.21-.139.383-.234-.022.127-.038.209-.051.292s-.025.187-.037.274c-.221.056-.072-.163-.131-.187l-.583.234a1.273,1.273,0,0,0,.208.322,1.247,1.247,0,0,0,.365.143l-.131.636c-.154.017-.288.138-.476.064-.149-.059-.241.037-.24.186a.527.527,0,0,1-.248.49l.021.3c.195.182.255-.115.444-.116l-.177.277.356.2-.315.052a2.252,2.252,0,0,1-.088.561,1.847,1.847,0,0,0-.2.625c0,.056-.1.106-.2.212l-.04-.44c-.147-.026-.235.027-.253.177a10.056,10.056,0,0,1-.339,1.275,4.124,4.124,0,0,0-.285,1.707l.358-.3-.126-.121a.882.882,0,0,0,.261-.744,2.3,2.3,0,0,1,.252-1.091c.021-.055.121-.08.229-.071l-.159.289.039.04.411-.231.032.045-.438.419h.389c-.485.358-.54.512-.272.772-.283.141-.185.43-.246.611l.219.362c.19-.026.1-.192.139-.292a.7.7,0,0,1,.2-.305l-.083.322c.093-.068.169-.093.185-.14.065-.185.108-.378.169-.564.016-.049.068-.085.1-.127l-.006-.007a.269.269,0,0,1-.009.036c-.06.15.215.219.094.382-.081.108-.168.21-.267.332a.312.312,0,0,1-.03.475c-.058.061-.045.186-.078.277a3.343,3.343,0,0,0-.216.948,1.255,1.255,0,0,0,.072.294,2.446,2.446,0,0,0-.2.229c-.055.078-.145.2-.118.253.106.2-.043.352-.067.524-.019.137-.157.266-.041.418a.072.072,0,0,1,0,.069c-.263.187-.137.5-.238.744-.042.1.011.238.026.426a.928.928,0,0,0-.039.84.572.572,0,0,0-.137.584c.168.056.361-.221.5.086a1.158,1.158,0,0,1-.326.3.881.881,0,0,0-.386.967,1.712,1.712,0,0,1-.129.751c-.011.057-.095.108-.156.144a1.327,1.327,0,0,0-.59.948l.318-.018c.135.248-.395.317-.144.6l.513-.073.011.042a.764.764,0,0,0-.241.117.45.45,0,0,0-.1.254c0,.024.13.063.2.091s.134.046.247.084c-.454.225-.47.253-.281.407l-.568.743c.107.289.324.11.473.137-.047.141-.081.272-.136.4a1.306,1.306,0,0,1-.171.273c-.122.154-.265.292-.377.452a1.568,1.568,0,0,0-.126.362l.623-.2.164.192a.218.218,0,0,1-.278.134c-.239-.063-.239-.063-.44.132l.113.307-.338.279c.142.162.257.155.373.043a.314.314,0,0,0,.1-.152c.048-.3.231-.371.5-.329l-.485,1.038h.338c-.014.225-.077.3-.326.3-.169-.005-.251.035-.287.2a.7.7,0,0,1-.11.225,13.315,13.315,0,0,0-.8,1.335c.191.016.191.016.4-.115l.275.129.149-.318c.076.27-.15.316-.306.426.129.283.426.227.648.367l-.255.166.963.295-.315.26a2.453,2.453,0,0,0,.954.544c.235.062.465.146.744.236-.192.2-.122.333.039.469a2.525,2.525,0,0,1,.3.365l.007-.008-.161.058a.808.808,0,0,0,.637.345c.062,0,.124,0,.185.006.287.023.287.024.336.376l-.4-.226a.63.63,0,0,0,.284.569.613.613,0,0,1,.672.13.708.708,0,0,0,.477.159,1.3,1.3,0,0,1,.434.068,7.666,7.666,0,0,0,2.291.316c.388.021.774.08,1.208.126-.237.289-.585.006-.839.283a1.039,1.039,0,0,0,.292.1,16.175,16.175,0,0,1,2.232.228c.032,0,.06.036.15.095a1.844,1.844,0,0,1-.351.133c-.507.07-1.016.123-1.523.192-.137.019-.3.031-.324.2.315.2.613.385.906.578a.891.891,0,0,0,.58.2.669.669,0,0,1,.312.092,1.408,1.408,0,0,0,.921.147,1.243,1.243,0,0,1,.812.162,2,2,0,0,0,1.106.183.388.388,0,0,1,.11-.007,3.8,3.8,0,0,0,1.205.09c.124-.011.269.109.39.191a1.334,1.334,0,0,0,.835.2,2.531,2.531,0,0,1,1.078.077,2.755,2.755,0,0,0,.726.072c.251.025.515-.078.753.08a.172.172,0,0,0,.109,0,9.527,9.527,0,0,1,1.882.087,5.2,5.2,0,0,0,1.17.038c.631-.131,1.265.068,1.872-.065.626-.136,1.247.017,1.866-.081a2.97,2.97,0,0,1,.553.014,1.2,1.2,0,0,0,.217.008c.264-.039.525-.105.79-.126a11.774,11.774,0,0,1,1.755-.09c.892.064,1.771-.094,2.658-.065a1.44,1.44,0,0,0,.833-.064c.064-.036.2.079.3.077.452-.011.9-.04,1.355-.063.086,0,.172-.017.257-.023.331-.021.663-.028.992-.064.67-.075,1.337-.17,2.007-.248a3.369,3.369,0,0,1,.435.005,5.573,5.573,0,0,0,1.21-.192,4.661,4.661,0,0,1,.714,0c.224-.012.452-.142.7-.158.316-.02.628-.089.942-.135a.25.25,0,0,0,.221-.155c.036-.075.172-.12.271-.142.408-.089.82-.161,1.229-.244.12-.024.236-.064.382-.1.007.093.013.182.022.306.39.019.775.041,1.161.057.17.007.341.01.511,0,.117,0,.233-.033.349-.044.2-.02.4-.029.606-.052.225-.026.449-.063.722-.1l.1-.187a.443.443,0,0,0,.565.1.554.554,0,0,1,.242,0c.034,0,.1.029.1.022.1-.21.286-.033.4-.082a.733.733,0,0,1,.49.018,2.066,2.066,0,0,0,.951.018.629.629,0,0,1,.256-.011,1.6,1.6,0,0,0,.716-.041.794.794,0,0,1,.328-.024,5.879,5.879,0,0,0,1.607,0,3.312,3.312,0,0,1,.4.045c.541,0,1.082-.011,1.623-.015a2.841,2.841,0,0,1,.29.023,3.409,3.409,0,0,0,1.123-.074c.273-.066.553-.1.83-.149.073-.013.162,0,.215-.044a1.2,1.2,0,0,1,1.026-.111,1.387,1.387,0,0,0,1.007-.143.56.56,0,0,1,.527.011c.225.073.442.168.632-.07a.161.161,0,0,1,.135-.044,9.159,9.159,0,0,0,1.444.008c.095.008.189.023.283.037a.66.66,0,0,0,.177.029,8.805,8.805,0,0,1,1.277-.051,4.55,4.55,0,0,0,.649-.1.6.6,0,0,1,.208-.012,2.64,2.64,0,0,0,.445.115c.279.007.559-.033.839-.038s.536.029.8.009c.4-.031.8-.112,1.2-.133a1.02,1.02,0,0,1,.6.112,1.966,1.966,0,0,0,1.014.251c.06.006.129-.035.182-.019.683.215,1.4.028,2.089.183a.346.346,0,0,0,.218.006c.256-.15.52-.054.781-.05a.576.576,0,0,0,.146,0,5.411,5.411,0,0,1,1.569-.08.528.528,0,0,0,.539-.233c.04-.065.128-.1.216-.165.057.075.1.129.142.185.1.13.287.172.36.1.271-.264.607-.136.9-.176.587-.08,1.187-.069,1.781-.1a.519.519,0,0,0,.146-.014,5.305,5.305,0,0,1,1.376-.083,4.244,4.244,0,0,0,1.16-.152,1.327,1.327,0,0,1,.456-.042c.293,0,.562-.129.867-.109a2.271,2.271,0,0,0,.863-.141,7.172,7.172,0,0,1,1.229-.181c.085-.014.168-.038.252-.056.61-.131,1.222-.254,1.829-.395.742-.173,1.482-.357,2.222-.543.33-.083.655-.181.979-.272l.159.3a13.4,13.4,0,0,1,1.454-.384c.456-.07.838-.335,1.287-.4a.46.46,0,0,0,.165-.076c.318-.2.633-.411.952-.613a1.19,1.19,0,0,1,.417-.184c.116.013.256.075.346.032.4-.189.779-.407,1.167-.616l1.526-.821.129.351a3.231,3.231,0,0,0,1.11-.636c.221-.241.424-.489.626-.745a3.269,3.269,0,0,1,.476-.4c-.009-.078.212-.225-.04-.4l.643-.409.131.155.223-.24-.133-.116c.193-.5.732-.661,1.113-1.084.029.337-.308.44-.278.715.2.229.428.1.646.017s.406-.19.621-.265a6.922,6.922,0,0,1-1.335,1.089.509.509,0,0,1-.251.617c-.105.062-.162.207-.258.337l.357.385c-.231.2-.464.409-.714.6a1.822,1.822,0,0,0-.763,1.044.455.455,0,0,1-.167.224c-.249.2-.5.388-.763.568a9.151,9.151,0,0,0-.844.561,4.366,4.366,0,0,1-.78.466,1,1,0,0,0-.568.723c.251-.116.531-.065.631-.392.025-.081.232-.125.362-.147a.644.644,0,0,1,.264.071c.165.053.2-.282.408-.124l-.008-.008a.953.953,0,0,1-.641.4,6.561,6.561,0,0,0-1.212.517c-.312.157-.6.361-.9.542-.124.075-.252.2-.378.2-.311,0-.482.219-.693.371a2,2,0,0,1-.718.362,2.754,2.754,0,0,0-.657.225,2.133,2.133,0,0,0-.452.379c-.024.023.012.107.023.179a10.9,10.9,0,0,0,2.929-1.18c-.053.128-.06.2-.1.233a19.093,19.093,0,0,1-1.882,1.185c-.378.221-.795.36-1.155.608-.02.014-.045.037-.064.034-.319-.05-.552.162-.82.266-.232.09-.463.184-.672.268a.7.7,0,0,0-.2-.138.4.4,0,0,0-.254.013,1.48,1.48,0,0,1-.865.225c-.463.357-1.1.31-1.568.7a.444.444,0,0,0,.591-.02,3.578,3.578,0,0,1,1.146-.341,1.406,1.406,0,0,1,.488.059,2.458,2.458,0,0,1-.864.443c-.326-.135-.361-.121-.378.155l.388-.164c-.167.172-.3.4-.586.417a.392.392,0,0,0,.466,0,.788.788,0,0,1,.724-.051c-.146.13-.257.25-.445.253a.456.456,0,0,0-.177.046c-.474.216-.946.436-1.419.653-.109.05-.218.1-.33.142a4.38,4.38,0,0,0-.448.223,3.3,3.3,0,0,1-.843.229,9.8,9.8,0,0,0-1.4.292c-.3.11-.6.139-.895.22a3.753,3.753,0,0,0-.648.246,6.764,6.764,0,0,1-2.075.464,2.034,2.034,0,0,0-.953.24.482.482,0,0,1-.389.057.768.768,0,0,0-.6.047,2.352,2.352,0,0,1-.428.074c-.028.238-.175.293-.42.305a6.735,6.735,0,0,0-1.006.188c-.235.049-.264.028-.318-.277a.628.628,0,0,1-.617.059.509.509,0,0,0-.354.018,1.2,1.2,0,0,1-.794,0c-.248-.058-.246-.069-.4.116l-.746-.093c.268-.143.608-.109.678-.481-.225-.043-.447-.1-.672-.123a.547.547,0,0,0-.567.165c-.048.063-.2.061-.3.066-.13.007-.262-.01-.413-.018.005-.22-.139-.29-.357-.276-.1.007-.2-.02-.295-.006a.812.812,0,0,1-.881-.523,1.233,1.233,0,0,0-.2-.22l.613-.223,0-.083c-.138-.019-.294-.09-.409-.048a5.986,5.986,0,0,1-1.3.158,4,4,0,0,0-.63.163,1.853,1.853,0,0,0-.256.115,2,2,0,0,1-.255.537c-.075.081-.266.055-.47.087l.275-.639-.424-.317c-.143.034-.372-.082-.56.1-.013.012-.049.007-.072,0-.228-.062-.453-.2-.69-.026-.331-.128-.661.037-1,0a.578.578,0,0,0-.616.286c-.116-.1-.224-.22-.4-.128-.123.064-.3,0-.38.179a.25.25,0,0,1-.169.126.646.646,0,0,0-.573.41c.042-.206.085-.38-.16-.459-.029-.009-.023-.125-.032-.19a.888.888,0,0,0-.583.329c-.11-.089-.2-.218-.3-.226s-.205.107-.323.177l-.193-.16-.22.25c-.171,0-.337-.008-.5,0s-.306.036-.53.065a.508.508,0,0,0-.6-.058c-.162.1-.194-.12-.25-.234a.333.333,0,0,0-.447.209.751.751,0,0,0-.265-.069c-.048.006-.085.109-.137.182-.216-.066-.454-.156-.671.073-.074-.1-.1-.24-.292-.178a5.956,5.956,0,0,0-.873.188c-.275.139-.594.086-.845.264-.108-.218-.237-.277-.521-.238l-.4.055.01.01c-.037-.282-.039-.266-.29-.288s-.507.112-.775.038c-.069-.019-.179.109-.27.169l.009.008c-.14-.169-.3-.208-.449-.075s-.258.28-.359-.025c-.235.028-.475-.227-.658-.024l-.245.561c-.193-.247.311-.368-.036-.605a1.333,1.333,0,0,0-.481.077,2.5,2.5,0,0,1-.781.155,3.3,3.3,0,0,0-.454.107.765.765,0,0,1-.416.092c-.115-.019-.248.067-.429.123-.107-.042-.272-.175-.45-.013-.018.016-.079-.018-.121-.026-.068-.015-.17-.065-.2-.038-.256.238-.608.167-.9.291a6.21,6.21,0,0,1-.989.243c.023-.174.045-.341.068-.508l-.079-.056-.132.3c-.322-.368-.631-.167-.935-.115Zm-43.591-27.969c-.183.074-.331.2-.242.462a.61.61,0,0,1-.03.254c-.028.175-.057.349-.092.562.455-.365.5-.49.3-.764.072-.065.187-.119.207-.2.074-.293.117-.593.172-.895-.075-.038-.14-.066-.2-.1-.27-.159-.268-.159-.451.1a1.521,1.521,0,0,1-.12.138.278.278,0,0,0,0,.408l.305-.366Zm-2.187,1.39a1.057,1.057,0,0,0,.231-.6,4.99,4.99,0,0,1,.143-1.058c.01-.042-.035-.1-.074-.193a5.64,5.64,0,0,0-.676,1.689Zm1.508-1.922c-.436.146-.544.617-.544,1.387.173-.068.173-.068.194-.151a.783.783,0,0,1,.077-.276A1.647,1.647,0,0,0,1406.721-1635.441Zm.213,18.925c.743.335.994.337,1.16.027C1407.591-1616.789,1407.532-1616.791,1406.934-1616.516Zm-1.228-15.468.12.066c.086-.107.212-.2.248-.323a4.122,4.122,0,0,0,.111-.708,1.829,1.829,0,0,0-.035-.336A2.409,2.409,0,0,0,1405.705-1631.984Zm-.815,3.35c.427-.171.545-.31.515-.65a.234.234,0,0,0-.147-.166.229.229,0,0,0-.2.105C1404.989-1629.111,1404.945-1628.87,1404.89-1628.634Zm-7.412,7.647a1.231,1.231,0,0,0-.208.249.206.206,0,0,0,.143.289c.125.043.2-.042.241-.159C1397.706-1620.759,1397.656-1620.866,1397.478-1620.987Zm6.551-8.142a.191.191,0,0,0,.292-.08.308.308,0,0,0-.058-.43C1404.015-1629.539,1404.071-1629.317,1404.029-1629.129Zm96.689,11.508a3.647,3.647,0,0,0,.318-.234c.034-.031.034-.1.048-.153-.064-.01-.139-.046-.189-.024a2.126,2.126,0,0,0-.3.192Zm-96.887-7.015.02.324c.31-.159.336-.209.267-.5Zm-.493-4.908a.668.668,0,0,0,.163-.635A.962.962,0,0,0,1403.339-1629.544Zm4.917,13.5a.4.4,0,0,0,.458-.022C1408.436-1616.261,1408.436-1616.261,1408.255-1616.04Zm-4.087-13.894.066.062a2.309,2.309,0,0,0,.279-.194c.029-.026.014-.1.019-.156-.053,0-.132-.03-.154-.006A2.8,2.8,0,0,0,1404.168-1629.933Zm-6.1,10.19a.2.2,0,0,0-.3.1c-.02.038,0,.141.019.148a.209.209,0,0,0,.175-.017A.822.822,0,0,0,1398.065-1619.744Zm5.455-3.946.118.069c.061-.183.248-.3.25-.515l-.075-.043Zm3.168-15.144c-.065.1-.225.135-.116.291a.164.164,0,0,0,.157,0C1406.849-1638.632,1406.787-1638.723,1406.688-1638.833Zm.693,21.8-.008.126c.066-.006.133-.01.2-.021a.141.141,0,0,0,0-.06C1407.511-1617.01,1407.446-1617.023,1407.381-1617.037Zm-4.961-10.3c-.206-.07-.226.019-.2.214Zm.729,5.527a.769.769,0,0,0,.1-.174c0-.013-.059-.041-.092-.062a.418.418,0,0,0-.06.113C1403.1-1621.9,1403.123-1621.865,1403.148-1621.805Zm98.881,3.263-.052-.081c-.051.033-.1.064-.151.1a.8.8,0,0,0,.05.079Zm-96.924-21.212c.033-.076.069-.119.062-.153s-.059-.059-.091-.088c-.023.035-.063.072-.063.107S1405.057-1639.821,1405.1-1639.755Zm-8.312,22.808-.088-.07-.1.17c.029.016.079.051.084.045A1.355,1.355,0,0,0,1396.792-1616.946Z" transform="translate(-1396.024 1705.751)" fill="#dad2c6"/><path d="M1615.2-1752.937a1.172,1.172,0,0,1-.884.47l.134.16a1.27,1.27,0,0,1-.366.244,2.576,2.576,0,0,0-.681.344c-.2.114-.446.138-.636.259s-.415.106-.6.206c-.2.109-.388.248-.587.366-.155.092-.318.172-.526.283.087-.194.141-.327.207-.452a.233.233,0,0,1,.115-.084,4.031,4.031,0,0,0,1.113-.7,3.572,3.572,0,0,1,.928-.431c.324.141.493-.1.725-.253a7.867,7.867,0,0,1,1-.491Z" transform="translate(-1555.615 1776.437)" fill="#dad2c6"/><path d="M1425.583-1567.226c.169-.625.327-1.222.494-1.818a2.551,2.551,0,0,1,.154-.346l.072.022a2.421,2.421,0,0,1-.131.941,2,2,0,0,0-.161.931C1425.976-1567.238,1425.827-1567.152,1425.583-1567.226Z" transform="translate(-1417.886 1640.078)" fill="#dad2c6"/><path d="M1443.227-1583.23a5.836,5.836,0,0,1,.042-.648c.064-.373.152-.742.235-1.111.026-.114.034-.252.26-.254a15.713,15.713,0,0,1-.544,2.005Z" transform="translate(-1430.983 1651.851)" fill="#dad2c6"/><path d="M1652.215-1763.765a5.881,5.881,0,0,1-2.226.906c.2-.261.484-.238.691-.353a4.953,4.953,0,0,1,.745-.3C1651.661-1763.6,1651.9-1763.667,1652.215-1763.765Z" transform="translate(-1584.525 1784.416)" fill="#dad2c6"/><path d="M1439.877-1547.175c-.193-.183-.193-.183-.434.032a.261.261,0,0,1,.151-.329.676.676,0,0,0,.343-.567,2.114,2.114,0,0,1,.2-.665c-.039.247-.076.494-.118.74S1439.931-1547.462,1439.877-1547.175Z" transform="translate(-1428.167 1624.718)" fill="#dad2c6"/><path d="M1667.13-1682.247c.215.137.394.291.333.576-.014.065-.105.114-.173.182C1667.056-1681.953,1667.034-1682.058,1667.13-1682.247Z" transform="translate(-1597.214 1723.883)" fill="#dad2c6"/><path d="M1402.762-1520.716l-.21.08.113-.86.174-.119c.017.055.036.086.033.114C1402.839-1521.254,1402.8-1521.008,1402.762-1520.716Z" transform="translate(-1400.784 1604.601)" fill="#dad2c6"/><path d="M1678.855-1635.7c.016-.258.031-.515.048-.791l.321.1c-.016.155-.031.306-.053.514l-.326.163Z" transform="translate(-1605.953 1689.908)" fill="#dad2c6"/><path d="M1411.723-1539.009a.418.418,0,0,0,.2-.4.72.72,0,0,1,.347-.528c-.06.254-.116.5-.174.738C1412.053-1539.02,1411.963-1538.918,1411.723-1539.009Z" transform="translate(-1407.594 1618.205)" fill="#dad2c6"/><path d="M1422.788-1566.011a1.911,1.911,0,0,1,.311-1.1A2.3,2.3,0,0,1,1422.788-1566.011Z" transform="translate(-1415.808 1638.388)" fill="#dad2c6"/><path d="M1610.2-1540.982l-.161-.271.388-.3.218.236Z" transform="translate(-1554.858 1619.404)" fill="#dad2c6"/><path d="M1801.4-1488.817l.053.182c-.137.088-.264.081-.311-.056s.036-.224.189-.24a1.928,1.928,0,0,0,.253-.059l.024.071Z" transform="translate(-1696.757 1580.375)" fill="#dad2c6"/><path d="M1437.4-1541.4l.376-.05-.49.549-.066-.032Z" transform="translate(-1426.531 1619.329)" fill="#dad2c6"/><path d="M1397.855-1518.908v.634C1397.585-1518.519,1397.585-1518.519,1397.855-1518.908Z" transform="translate(-1397.146 1602.591)" fill="#dad2c6"/><path d="M1810.623-1496.24c.167-.145.3-.348.617-.313a.714.714,0,0,1-.625.3Z" transform="translate(-1703.802 1585.994)" fill="#dad2c6"/><path d="M1442.757-1557.058l-.074.735C1442.574-1556.635,1442.574-1556.635,1442.757-1557.058Z" transform="translate(-1430.529 1630.921)" fill="#dad2c6"/><path d="M1435.94-1541.331c-.011.191-.022.381-.035.6C1435.707-1540.865,1435.707-1540.865,1435.94-1541.331Z" transform="translate(-1425.444 1619.242)" fill="#dad2c6"/><path d="M1662.94-1766.824l.244.273-.41.2Z" transform="translate(-1594.019 1786.688)" fill="#dad2c6"/><path d="M1551.365-1725l.421-.541A.522.522,0,0,1,1551.365-1725Z" transform="translate(-1511.289 1756.033)" fill="#dad2c6"/><path d="M1441.955-1551.676l.082-.65.087.006-.045.647Z" transform="translate(-1430.044 1627.407)" fill="#dad2c6"/><path d="M1681.156-1613.4c.1.028.257.049.258.072a.651.651,0,0,1-.121.383Z" transform="translate(-1607.669 1672.762)" fill="#dad2c6"/><path d="M1680.215-1627.813c.081-.264.081-.264.322-.183C1680.543-1627.757,1680.353-1627.833,1680.215-1627.813Z" transform="translate(-1606.97 1683.633)" fill="#dad2c6"/><path d="M1396.046-1504.758c.116.4.116.4-.141.544Z" transform="translate(-1395.848 1592.084)" fill="#dad2c6"/><path d="M1681.989-1588.118c-.182.21.1.423-.007.635a.668.668,0,0,1-.088-.559C1681.9-1588.071,1681.956-1588.093,1681.989-1588.118Z" transform="translate(-1608.201 1653.985)" fill="#dad2c6"/><path d="M1443.3-1561.029a.759.759,0,0,1-.171.56C1443.049-1560.732,1443.215-1560.839,1443.3-1561.029Z" transform="translate(-1430.9 1633.869)" fill="#dad2c6"/><path d="M1421.8-1560.839c-.073.221-.027.417-.267.594C1421.6-1560.481,1421.552-1560.68,1421.8-1560.839Z" transform="translate(-1414.878 1633.728)" fill="#dad2c6"/><path d="M1666.051-1685.775a2.3,2.3,0,0,0,.172.233,1.61,1.61,0,0,0,.208.148c-.1.031-.167.077-.2.059A.363.363,0,0,1,1666.051-1685.775Z" transform="translate(-1596.441 1726.503)" fill="#dad2c6"/><path d="M1635.743-1461.643c-.119.237-.225.221-.368.046Z" transform="translate(-1573.673 1560.068)" fill="#dad2c6"/><path d="M1670.657-1768.471l-.552.16C1670.274-1768.415,1670.413-1768.622,1670.657-1768.471Z" transform="translate(-1599.463 1787.95)" fill="#dad2c6"/><path d="M1425.185-1571.615l.23-.364c.105.234-.055.311-.141.431Z" transform="translate(-1417.591 1642.001)" fill="#dad2c6"/><path d="M1444.9-1587.328c-.093-.342-.093-.342.18-.422Z" transform="translate(-1432.187 1653.712)" fill="#dad2c6"/><path d="M1681.316-1621.96c-.049.02-.1.063-.145.055s-.083-.065-.124-.1c.053-.038.1-.1.159-.109s.112.034.168.055Z" transform="translate(-1607.588 1679.231)" fill="#dad2c6"/><path d="M1654.368-1765.785l-.588.183-.026-.071.57-.19Z" transform="translate(-1587.321 1785.975)" fill="#dad2c6"/><path d="M1681.238-1619.1l.17-.275.074.042-.13.29Z" transform="translate(-1607.73 1677.198)" fill="#dad2c6"/><path d="M1427-1618.574l.1-.278c.037.02.1.032.108.06C1427.255-1618.667,1427.171-1618.621,1427-1618.574Z" transform="translate(-1418.941 1676.807)" fill="#dad2c6"/><path d="M1477.447-1719.614h-.216c-.044-.129-.121-.248.111-.288l.095.3Z" transform="translate(-1456.203 1751.845)" fill="#dad2c6"/><path d="M1671.691-1462.019l.052-.3.3.144-.35.152Z" transform="translate(-1600.639 1560.567)" fill="#dad2c6"/><path d="M1681.485-1599.177l.1-.4C1681.785-1599.364,1681.565-1599.278,1681.485-1599.177Z" transform="translate(-1607.913 1662.491)" fill="#dad2c6"/><path d="M1435.684-1525.923c.115.282-.063.252-.243.328Z" transform="translate(-1425.206 1607.8)" fill="#dad2c6"/><path d="M1445.689-1591.426l-.284.324C1445.43-1591.29,1445.409-1591.426,1445.689-1591.426Z" transform="translate(-1432.606 1656.441)" fill="#dad2c6"/><path d="M1681.189-1577.369l.27-.047c.005.032.026.077.012.095C1681.4-1577.226,1681.316-1577.234,1681.189-1577.369Z" transform="translate(-1607.693 1646.038)" fill="#dad2c6"/><path d="M1395.7-1506.933l-.018-.316.061-.017.08.318Z" transform="translate(-1395.684 1593.946)" fill="#dad2c6"/><path d="M1546.964-1714.413l.217-.32c0,.252,0,.252-.219.321Z" transform="translate(-1508.019 1748.006)" fill="#dad2c6"/><path d="M1639.678-1461.96a1.426,1.426,0,0,1-.138.211c-.02.022-.084,0-.128,0,.009-.052,0-.137.031-.151a1.038,1.038,0,0,1,.244-.056Z" transform="translate(-1576.671 1560.303)" fill="#dad2c6"/><path d="M1447.356-1601.395c.083.12.047.221-.09.361v-.363Z" transform="translate(-1433.987 1663.846)" fill="#dad2c6"/><path d="M1660.025-1764.729l.366-.18.039.083-.368.161Z" transform="translate(-1591.978 1785.266)" fill="#dad2c6"/><path d="M1617.2-1744.884l-.442.3C1616.9-1744.828,1616.9-1744.828,1617.2-1744.884Z" transform="translate(-1559.85 1770.396)" fill="#dad2c6"/><path d="M1615.062-1742.6l-.392-.156c.232-.077.307.056.421.078Z" transform="translate(-1558.298 1768.831)" fill="#dad2c6"/><path d="M1459.815-1642.782l.137.209-.069.051-.165-.183Z" transform="translate(-1443.234 1694.577)" fill="#dad2c6"/><path d="M1680.887-1605.439l-.119.282c-.03-.012-.064-.02-.064-.027C1680.708-1605.287,1680.644-1605.431,1680.887-1605.439Z" transform="translate(-1607.33 1666.847)" fill="#dad2c6"/><path d="M1550.428-1718.923l-.257.258-.024-.019.244-.269Z" transform="translate(-1510.385 1751.14)" fill="#dad2c6"/><path d="M1713.253-1459.638l.288.069c-.029.027-.041.047-.055.049C1713.393-1459.505,1713.272-1459.424,1713.253-1459.638Z" transform="translate(-1631.503 1558.579)" fill="#dad2c6"/><path d="M1608.939-1460.141a.711.711,0,0,1,.082.225c0,.048-.071.1-.111.147l-.066-.045.094-.328Z" transform="translate(-1553.972 1558.953)" fill="#dad2c6"/><path d="M1426.327-1575.272l-.078.268-.073-.022.084-.272Z" transform="translate(-1418.327 1644.466)" fill="#dad2c6"/><path d="M1446.526-1596.751l-.073.318C1446.352-1596.551,1446.332-1596.65,1446.526-1596.751Z" transform="translate(-1433.328 1660.395)" fill="#dad2c6"/><path d="M1448.039-1497.238l.151.075-.028.057-.149-.082Z" transform="translate(-1434.542 1586.5)" fill="#dad2c6"/><path d="M1677.133-1553.712l-.019.266C1676.977-1553.579,1676.977-1553.579,1677.133-1553.712Z" transform="translate(-1604.593 1628.436)" fill="#dad2c6"/><path d="M1550.679-1723.072l-.151.189-.072-.048.13-.213Z" transform="translate(-1510.614 1754.252)" fill="#dad2c6"/><path d="M1546.622-1713.491l.193.166-.311.131c.057-.139.089-.219.121-.3Z" transform="translate(-1507.679 1747.085)" fill="#dad2c6"/><path d="M1682.011-1616.841l.035.286C1681.878-1616.651,1681.878-1616.651,1682.011-1616.841Z" transform="translate(-1608.233 1675.314)" fill="#dad2c6"/><path d="M1411.338-1538.386l-.109.144-.04-.029.1-.149Z" transform="translate(-1407.197 1617.08)" fill="#dad2c6"/><path d="M1530.575-1677.969c-.046.037-.075.074-.11.081-.018,0-.072-.056-.067-.071a.182.182,0,0,1,.083-.085C1530.492-1678.049,1530.529-1678.007,1530.575-1677.969Z" transform="translate(-1495.72 1720.762)" fill="#dad2c6"/><path d="M1828.85-1519.883l-.192.111-.03-.047.19-.129Z" transform="translate(-1717.179 1603.364)" fill="#dad2c6"/><path d="M1530.457-1675.928l-.008.148-.056,0-.023-.151Z" transform="translate(-1495.699 1719.191)" fill="#dad2c6"/><path d="M1678.109-1562.464c.007-.1.014-.2.026-.365.089.209.089.209-.036.356Z" transform="translate(-1605.399 1635.205)" fill="#dad2c6"/><path d="M1682.4-1602.785c.094.1.173.158.034.286Z" transform="translate(-1608.595 1664.876)" fill="#dad2c6"/><path d="M1641.985-1461.011h-.2l0-.042h.191Z" transform="translate(-1578.431 1559.63)" fill="#dad2c6"/><path d="M1678.927-1555.513l-.163.137-.049-.058.163-.137Z" transform="translate(-1605.856 1629.816)" fill="#dad2c6"/><path d="M1443.3-1499.054a.155.155,0,0,1,.256.078l-.249-.087Z" transform="translate(-1431.04 1587.877)" fill="#dad2c6"/><path d="M1415.11-1547.638l.158.024,0,.059-.166-.015Z" transform="translate(-1410.1 1623.925)" fill="#dad2c6"/><path d="M1644.857-1461.682c-.026.123-.071.206-.256.068l.266-.058Z" transform="translate(-1580.524 1560.097)" fill="#dad2c6"/><path d="M1670.63-1461.421l-.368-.042c.183-.114.268.01.368.042Z" transform="translate(-1599.579 1559.969)" fill="#dad2c6"/><path d="M1682.128-1578.729c-.045-.042-.088-.065-.086-.084a.1.1,0,0,1,.059-.074c.023-.007.057.019.087.03Z" transform="translate(-1608.326 1647.131)" fill="#dad2c6"/><path d="M1673.941-1539.683l.11-.2.042.17-.161.019Z" transform="translate(-1602.305 1618.164)" fill="#dad2c6"/><path d="M1433.074-1514.941l.091-.182.062.031-.093.18Z" transform="translate(-1423.449 1599.781)" fill="#dad2c6"/><path d="M1405.395-1523.372l-.115.154-.055-.042.121-.15Z" transform="translate(-1402.769 1605.934)" fill="#dad2c6"/><path d="M1630.962-1645.53l.159.294-.5.128.313.147-.6.328c.019-.159.205-.253.1-.432-.084-.143.321-.14.129-.4.184.039.356.063.291-.188-.05-.195.117-.3.156-.5A.456.456,0,0,1,1630.962-1645.53Z" transform="translate(-1569.927 1697.078)" fill="#dad2c6"/><path d="M1569.9-1682.383c-.067,0-.146.023-.2,0-.288-.144-.477.031-.626.217a1.746,1.746,0,0,1-.745.476c.173-.348.485-.485.726-.7a.787.787,0,0,1,.438-.136,1.7,1.7,0,0,1,.418.072Z" transform="translate(-1523.884 1724.091)" fill="#dad2c6"/><path d="M1602.5-1595.667l.413-.084.36.411-.049.168c-.036.009-.063.025-.081.018A1.108,1.108,0,0,1,1602.5-1595.667Z" transform="translate(-1549.258 1659.653)" fill="#dad2c6"/><path d="M1643.226-1600.911a.728.728,0,0,1-.041-.707c.149-.05.193.029.173.143C1643.327-1601.3,1643.276-1601.119,1643.226-1600.911Z" transform="translate(-1579.418 1664.021)" fill="#dad2c6"/><path d="M1593.537-1716.517l.033.234a1.092,1.092,0,0,0-.2.048,1.532,1.532,0,0,0-.2.131l-.081-.262C1593.214-1716.574,1593.407-1716.277,1593.537-1716.517Z" transform="translate(-1542.274 1749.331)" fill="#dad2c6"/><path d="M1599.907-1598.328c-.285-.057-.354-.252-.46-.441C1599.6-1598.748,1599.6-1598.748,1599.907-1598.328Z" transform="translate(-1546.994 1661.894)" fill="#dad2c6"/><path d="M1578.617-1707.328c-.126.1-.211.3-.454.224C1578.261-1707.3,1578.443-1707.31,1578.617-1707.328Z" transform="translate(-1531.189 1742.507)" fill="#dad2c6"/><path d="M1567.693-1684.013l.224-.313c.031.052.056.076.059.1C1567.993-1684.068,1567.883-1684.052,1567.693-1684.013Z" transform="translate(-1523.414 1725.427)" fill="#dad2c6"/><path d="M1568.772-1687.275l.361-.292C1569.062-1687.314,1569.062-1687.314,1568.772-1687.275Z" transform="translate(-1524.215 1727.833)" fill="#dad2c6"/><path d="M1599.841-1594.376c.211.177.077.281,0,.391Z" transform="translate(-1547.286 1658.632)" fill="#dad2c6"/><path d="M1575.476-1702.834l.157-.165.121.2-.249.023Z" transform="translate(-1529.193 1739.293)" fill="#dad2c6"/><path d="M1643.758-1604.765l-.121.223-.046-.021.09-.233Z" transform="translate(-1579.773 1666.37)" fill="#dad2c6"/><path d="M1577.648-1679.335l-.235.081-.024-.08.242-.06Z" transform="translate(-1530.613 1721.765)" fill="#dad2c6"/><path d="M1567.665-1685.155c.081-.192.265-.058.382-.134-.083.211-.259.089-.392.122Z" transform="translate(-1523.386 1726.142)" fill="#dad2c6"/><path d="M1591.094-1677.024l.2-.08.024.056-.194.092Z" transform="translate(-1540.791 1720.064)" fill="#dad2c6"/><path d="M1561.925-1604.193l-.324-.042C1561.733-1604.386,1561.733-1604.386,1561.925-1604.193Z" transform="translate(-1518.89 1666.034)" fill="#dad2c6"/><path d="M1560.325-1749.845l.731-.194C1560.761-1749.707,1560.652-1749.672,1560.325-1749.845Z" transform="translate(-1517.942 1774.224)" fill="#dad2c6"/><path d="M1565.532-1750.543l-.6.3-.036-.068.587-.319Z" transform="translate(-1521.334 1774.665)" fill="#dad2c6"/><path d="M1551.684-1749.643l.318-.087c-.117.176-.224.108-.324.082Z" transform="translate(-1511.521 1773.995)" fill="#dad2c6"/><path d="M1548.451-1736.1c-.382.161-.5.606-.919.525C1548.036-1736.064,1548.109-1736.111,1548.451-1736.1Z" transform="translate(-1508.443 1763.875)" fill="#dad2c6"/><path d="M1543.761-1734.763c.316.088.475-.185.748-.356-.052.187-.207.332.015.424-.182.158-.2-.026-.258-.057-.145.046-.27.1-.4.122-.113.023-.106-.065-.1-.141Z" transform="translate(-1505.643 1763.145)" fill="#dad2c6"/><path d="M1519.343-1717.224l.369-.215C1519.606-1717.245,1519.606-1717.245,1519.343-1717.224Z" transform="translate(-1487.51 1750.016)" fill="#dad2c6"/><path d="M1564.789-1571.749a.361.361,0,0,1-.234-.485C1564.7-1572.082,1564.885-1572.016,1564.789-1571.749Z" transform="translate(-1521.067 1642.19)" fill="#dad2c6"/></g></svg>